{
  "accessors": [
    {
      "bufferView": 0,
      "componentType": 5126,
      "count": 5441,
      "max": [
        0.753250777721405,
        0.9722878336906433,
        1.7072522640228271
      ],
      "min": [
        -0.7957586646080017,
        0.10477785766124725,
        -1.7072701454162598
      ],
      "name": "_18_001_Material0/POSITION",
      "type": "VEC3"
    },
    {
      "bufferView": 0,
      "byteOffset": 12,
      "componentType": 5126,
      "count": 5441,
      "name": "_18_001_Material0/NORMAL",
      "type": "VEC3"
    },
    {
      "bufferView": 0,
      "byteOffset": 24,
      "componentType": 5126,
      "count": 5441,
      "name": "_18_001_Material0/TEXCOORD_0",
      "type": "VEC2"
    },
    {
      "bufferView": 1,
      "componentType": 5125,
      "count": 16221,
      "name": "_18_001_Material0/INDICES",
      "type": "SCALAR"
    },
    {
      "bufferView": 2,
      "componentType": 5126,
      "count": 401,
      "max": [
        0.6618156433105469,
        0.6189413666725159,
        -1.3949686288833618
      ],
      "min": [
        -0.66181480884552,
        0.5235671997070313,
        -1.6405495405197144
      ],
      "name": "_18_001_Material0/POSITION",
      "type": "VEC3"
    },
    {
      "bufferView": 2,
      "byteOffset": 12,
      "componentType": 5126,
      "count": 401,
      "name": "_18_001_Material0/NORMAL",
      "type": "VEC3"
    },
    {
      "bufferView": 2,
      "byteOffset": 24,
      "componentType": 5126,
      "count": 401,
      "name": "_18_001_Material0/TEXCOORD_0",
      "type": "VEC2"
    },
    {
      "bufferView": 3,
      "componentType": 5125,
      "count": 822,
      "name": "_18_001_Material0/INDICES",
      "type": "SCALAR"
    },
    {
      "bufferView": 4,
      "componentType": 5126,
      "count": 94,
      "max": [
        0.647917628288269,
        0.7018117308616638,
        1.596286416053772
      ],
      "min": [
        -0.6395760178565979,
        0.4336259365081787,
        -1.460705280303955
      ],
      "name": "_18_001_Material0/POSITION",
      "type": "VEC3"
    },
    {
      "bufferView": 4,
      "byteOffset": 12,
      "componentType": 5126,
      "count": 94,
      "name": "_18_001_Material0/NORMAL",
      "type": "VEC3"
    },
    {
      "bufferView": 4,
      "byteOffset": 24,
      "componentType": 5126,
      "count": 94,
      "name": "_18_001_Material0/TEXCOORD_0",
      "type": "VEC2"
    },
    {
      "bufferView": 5,
      "componentType": 5125,
      "count": 216,
      "name": "_18_001_Material0/INDICES",
      "type": "SCALAR"
    },
    {
      "bufferView": 6,
      "componentType": 5126,
      "count": 226,
      "max": [
        0.5922255516052246,
        0.9025334715843201,
        0.8728594183921814
      ],
      "min": [
        -0.5936880111694336,
        0.672159731388092,
        -1.2636860609054565
      ],
      "name": "Scene/POSITION",
      "type": "VEC3"
    },
    {
      "bufferView": 6,
      "byteOffset": 12,
      "componentType": 5126,
      "count": 226,
      "name": "Scene/NORMAL",
      "type": "VEC3"
    },
    {
      "bufferView": 6,
      "byteOffset": 24,
      "componentType": 5126,
      "count": 226,
      "name": "Scene/TEXCOORD_0",
      "type": "VEC2"
    },
    {
      "bufferView": 7,
      "componentType": 5125,
      "count": 909,
      "name": "Scene/INDICES",
      "type": "SCALAR"
    },
    {
      "bufferView": 8,
      "componentType": 5126,
      "count": 31,
      "max": [
        0.5936887860298157,
        0.8687761425971985,
        0.4751831591129303
      ],
      "min": [
        0.4814625382423401,
        0.6721597909927368,
        -0.31365087628364563
      ],
      "name": "Scene/POSITION",
      "type": "VEC3"
    },
    {
      "bufferView": 8,
      "byteOffset": 12,
      "componentType": 5126,
      "count": 31,
      "name": "Scene/NORMAL",
      "type": "VEC3"
    },
    {
      "bufferView": 8,
      "byteOffset": 24,
      "componentType": 5126,
      "count": 31,
      "name": "Scene/TEXCOORD_0",
      "type": "VEC2"
    },
    {
      "bufferView": 9,
      "componentType": 5125,
      "count": 87,
      "name": "Scene/INDICES",
      "type": "SCALAR"
    },
    {
      "bufferView": 10,
      "componentType": 5126,
      "count": 111,
      "max": [
        0.10107296705245972,
        0.27339446544647217,
        0.27761003375053406
      ],
      "min": [
        -0.10107262432575226,
        -0.273394376039505,
        -0.27761003375053406
      ],
      "name": "Scene/POSITION",
      "type": "VEC3"
    },
    {
      "bufferView": 10,
      "byteOffset": 12,
      "componentType": 5126,
      "count": 111,
      "name": "Scene/NORMAL",
      "type": "VEC3"
    },
    {
      "bufferView": 10,
      "byteOffset": 24,
      "componentType": 5126,
      "count": 111,
      "name": "Scene/TEXCOORD_0",
      "type": "VEC2"
    },
    {
      "bufferView": 11,
      "componentType": 5125,
      "count": 318,
      "name": "Scene/INDICES",
      "type": "SCALAR"
    },
    {
      "bufferView": 12,
      "componentType": 5126,
      "count": 111,
      "max": [
        0.10107296705245972,
        0.27339446544647217,
        0.27761003375053406
      ],
      "min": [
        -0.10107262432575226,
        -0.273394376039505,
        -0.27761003375053406
      ],
      "name": "Scene/POSITION",
      "type": "VEC3"
    },
    {
      "bufferView": 12,
      "byteOffset": 12,
      "componentType": 5126,
      "count": 111,
      "name": "Scene/NORMAL",
      "type": "VEC3"
    },
    {
      "bufferView": 12,
      "byteOffset": 24,
      "componentType": 5126,
      "count": 111,
      "name": "Scene/TEXCOORD_0",
      "type": "VEC2"
    },
    {
      "bufferView": 13,
      "componentType": 5125,
      "count": 318,
      "name": "Scene/INDICES",
      "type": "SCALAR"
    },
    {
      "bufferView": 14,
      "componentType": 5126,
      "count": 111,
      "max": [
        0.10107296705245972,
        0.27339446544647217,
        0.27761003375053406
      ],
      "min": [
        -0.10107262432575226,
        -0.273394376039505,
        -0.27761003375053406
      ],
      "name": "Scene/POSITION",
      "type": "VEC3"
    },
    {
      "bufferView": 14,
      "byteOffset": 12,
      "componentType": 5126,
      "count": 111,
      "name": "Scene/NORMAL",
      "type": "VEC3"
    },
    {
      "bufferView": 14,
      "byteOffset": 24,
      "componentType": 5126,
      "count": 111,
      "name": "Scene/TEXCOORD_0",
      "type": "VEC2"
    },
    {
      "bufferView": 15,
      "componentType": 5125,
      "count": 318,
      "name": "Scene/INDICES",
      "type": "SCALAR"
    },
    {
      "bufferView": 16,
      "componentType": 5126,
      "count": 111,
      "max": [
        0.10107296705245972,
        0.27339446544647217,
        0.27761003375053406
      ],
      "min": [
        -0.10107262432575226,
        -0.273394376039505,
        -0.27761003375053406
      ],
      "name": "Scene/POSITION",
      "type": "VEC3"
    },
    {
      "bufferView": 16,
      "byteOffset": 12,
      "componentType": 5126,
      "count": 111,
      "name": "Scene/NORMAL",
      "type": "VEC3"
    },
    {
      "bufferView": 16,
      "byteOffset": 24,
      "componentType": 5126,
      "count": 111,
      "name": "Scene/TEXCOORD_0",
      "type": "VEC2"
    },
    {
      "bufferView": 17,
      "componentType": 5125,
      "count": 318,
      "name": "Scene/INDICES",
      "type": "SCALAR"
    },
    {
      "bufferView": 18,
      "componentType": 5126,
      "count": 612,
      "max": [
        0.7957594394683838,
        0.9255152940750122,
        0.6586424708366394
      ],
      "min": [
        0.4254595935344696,
        0.21864280104637146,
        -0.46586915850639343
      ],
      "name": "Scene/POSITION",
      "type": "VEC3"
    },
    {
      "bufferView": 18,
      "byteOffset": 12,
      "componentType": 5126,
      "count": 612,
      "name": "Scene/NORMAL",
      "type": "VEC3"
    },
    {
      "bufferView": 18,
      "byteOffset": 24,
      "componentType": 5126,
      "count": 612,
      "name": "Scene/TEXCOORD_0",
      "type": "VEC2"
    },
    {
      "bufferView": 19,
      "componentType": 5125,
      "count": 1851,
      "name": "Scene/INDICES",
      "type": "SCALAR"
    }
  ],
  "asset": {
    "copyright": "Copyright (c) 2018-2020 Chukong Technologies Inc.",
    "generator": "FBX-glTF-conv",
    "version": "2.0"
  },
  "bufferViews": [
    {
      "buffer": 0,
      "byteLength": 174112,
      "byteStride": 32,
      "name": "_18_001_Material0",
      "target": 34962
    },
    {
      "buffer": 0,
      "byteLength": 64884,
      "byteOffset": 174112
    },
    {
      "buffer": 0,
      "byteLength": 12832,
      "byteOffset": 238996,
      "byteStride": 32,
      "name": "_18_001_Material0",
      "target": 34962
    },
    {
      "buffer": 0,
      "byteLength": 3288,
      "byteOffset": 251828
    },
    {
      "buffer": 0,
      "byteLength": 3008,
      "byteOffset": 255116,
      "byteStride": 32,
      "name": "_18_001_Material0",
      "target": 34962
    },
    {
      "buffer": 0,
      "byteLength": 864,
      "byteOffset": 258124
    },
    {
      "buffer": 0,
      "byteLength": 7232,
      "byteOffset": 258988,
      "byteStride": 32,
      "name": "Scene",
      "target": 34962
    },
    {
      "buffer": 0,
      "byteLength": 3636,
      "byteOffset": 266220
    },
    {
      "buffer": 0,
      "byteLength": 992,
      "byteOffset": 269856,
      "byteStride": 32,
      "name": "Scene",
      "target": 34962
    },
    {
      "buffer": 0,
      "byteLength": 348,
      "byteOffset": 270848
    },
    {
      "buffer": 0,
      "byteLength": 3552,
      "byteOffset": 271196,
      "byteStride": 32,
      "name": "Scene",
      "target": 34962
    },
    {
      "buffer": 0,
      "byteLength": 1272,
      "byteOffset": 274748
    },
    {
      "buffer": 0,
      "byteLength": 3552,
      "byteOffset": 276020,
      "byteStride": 32,
      "name": "Scene",
      "target": 34962
    },
    {
      "buffer": 0,
      "byteLength": 1272,
      "byteOffset": 279572
    },
    {
      "buffer": 0,
      "byteLength": 3552,
      "byteOffset": 280844,
      "byteStride": 32,
      "name": "Scene",
      "target": 34962
    },
    {
      "buffer": 0,
      "byteLength": 1272,
      "byteOffset": 284396
    },
    {
      "buffer": 0,
      "byteLength": 3552,
      "byteOffset": 285668,
      "byteStride": 32,
      "name": "Scene",
      "target": 34962
    },
    {
      "buffer": 0,
      "byteLength": 1272,
      "byteOffset": 289220
    },
    {
      "buffer": 0,
      "byteLength": 19584,
      "byteOffset": 290492,
      "byteStride": 32,
      "name": "Scene",
      "target": 34962
    },
    {
      "buffer": 0,
      "byteLength": 7404,
      "byteOffset": 310076
    }
  ],
  "buffers": [
    {
      "byteLength": 317480,
      "uri": "out.bin"
    }
  ],
  "extras": {
    "FBX-glTF-conv": {
      "animationFrameRate": 30.0
    }
  },
  "images": [
    {
      "extras": {
        "FBX-glTF-conv": {
          "fileName": "D:\\Unity-Projects\\Test\\Assets\\Game3\\Models\\Car\\Textures\\Car_18\\Textures 2.jpg",
          "relativeFileName": "Game3\\Models\\Car\\Textures\\Car_18\\Textures 2.jpg"
        }
      },
      "name": "DiffuseColor_Texture",
      "uri": "data:image/png;base64,"
    },
    {
      "extras": {
        "FBX-glTF-conv": {
          "fileName": "D:\\Unity-Projects\\Test\\Assets\\Game3\\Models\\Car\\Textures\\Car_18\\CAR18.png",
          "relativeFileName": "Game3\\Models\\Car\\Textures\\Car_18\\CAR18.png"
        }
      },
      "name": "DiffuseColor_Texture_1",
      "uri": "data:image/png;base64,"
    },
    {
      "extras": {
        "FBX-glTF-conv": {
          "fileName": "D:\\Unity-Projects\\Test\\Assets\\Game3\\Models\\Car\\Textures\\Car_5\\Textures Wheel.jpg",
          "relativeFileName": "Game3\\Models\\Car\\Textures\\Car_5\\Textures Wheel.jpg"
        }
      },
      "name": "DiffuseColor_Texture_2",
      "uri": "data:image/png;base64,"
    }
  ],
  "materials": [
    {
      "name": "Glass_008",
      "pbrMetallicRoughness": {
        "baseColorFactor": [
          0.01568627543747425,
          0.01568627543747425,
          0.01568627543747425,
          1.0
        ]
      }
    },
    {
      "name": "Textures_2_002",
      "pbrMetallicRoughness": {
        "baseColorTexture": {
          "index": 0
        }
      }
    },
    {
      "name": "CAR18",
      "pbrMetallicRoughness": {
        "baseColorTexture": {
          "index": 1
        }
      }
    },
    {
      "name": "Glass_Light_003",
      "pbrMetallicRoughness": {
        "baseColorFactor": [
          0.011764707043766975,
          0.011764707043766975,
          0.011764707043766975,
          1.0
        ]
      }
    },
    {
      "name": "Textures_Wheel_008",
      "pbrMetallicRoughness": {
        "baseColorTexture": {
          "index": 2
        }
      }
    }
  ],
  "meshes": [
    {
      "name": "_18_001_Material0",
      "primitives": [
        {
          "attributes": {
            "NORMAL": 1,
            "POSITION": 0,
            "TEXCOORD_0": 2
          },
          "indices": 3,
          "material": 0
        },
        {
          "attributes": {
            "NORMAL": 5,
            "POSITION": 4,
            "TEXCOORD_0": 6
          },
          "indices": 7,
          "material": 1
        },
        {
          "attributes": {
            "NORMAL": 9,
            "POSITION": 8,
            "TEXCOORD_0": 10
          },
          "indices": 11,
          "material": 2
        }
      ]
    },
    {
      "name": "Scene",
      "primitives": [
        {
          "attributes": {
            "NORMAL": 13,
            "POSITION": 12,
            "TEXCOORD_0": 14
          },
          "indices": 15,
          "material": 3
        }
      ]
    },
    {
      "name": "Scene",
      "primitives": [
        {
          "attributes": {
            "NORMAL": 17,
            "POSITION": 16,
            "TEXCOORD_0": 18
          },
          "indices": 19,
          "material": 3
        }
      ]
    },
    {
      "name": "Scene",
      "primitives": [
        {
          "attributes": {
            "NORMAL": 21,
            "POSITION": 20,
            "TEXCOORD_0": 22
          },
          "indices": 23,
          "material": 4
        }
      ]
    },
    {
      "name": "Scene",
      "primitives": [
        {
          "attributes": {
            "NORMAL": 25,
            "POSITION": 24,
            "TEXCOORD_0": 26
          },
          "indices": 27,
          "material": 4
        }
      ]
    },
    {
      "name": "Scene",
      "primitives": [
        {
          "attributes": {
            "NORMAL": 29,
            "POSITION": 28,
            "TEXCOORD_0": 30
          },
          "indices": 31,
          "material": 4
        }
      ]
    },
    {
      "name": "Scene",
      "primitives": [
        {
          "attributes": {
            "NORMAL": 33,
            "POSITION": 32,
            "TEXCOORD_0": 34
          },
          "indices": 35,
          "material": 4
        }
      ]
    },
    {
      "name": "Scene",
      "primitives": [
        {
          "attributes": {
            "NORMAL": 37,
            "POSITION": 36,
            "TEXCOORD_0": 38
          },
          "indices": 39,
          "material": 0
        }
      ]
    }
  ],
  "nodes": [
    {
      "children": [
        1,
        8
      ],
      "name": "_18",
      "rotation": [
        -0.7069847583770752,
        -0.0,
        0.0,
        0.7072287797927856
      ],
      "scale": [
        100.0,
        99.99998474121094,
        99.99998474121094
      ]
    },
    {
      "children": [
        2,
        3,
        4,
        5,
        6,
        7
      ],
      "mesh": 0,
      "name": "_18_001",
      "rotation": [
        0.7071067690849304,
        0.0,
        0.0,
        0.7071067690849304
      ],
      "scale": [
        0.009999999776482582,
        0.009999999776482582,
        0.009999999776482582
      ]
    },
    {
      "mesh": 1,
      "name": "car_18_001"
    },
    {
      "mesh": 2,
      "name": "car_18_003"
    },
    {
      "mesh": 3,
      "name": "Wheel_BR_014",
      "rotation": [
        -0.7071067690849304,
        1.6858749063430878e-07,
        1.6858749063430878e-07,
        0.7071067690849304
      ],
      "scale": [
        0.9539082646369934,
        0.8965586423873901,
        0.8965586423873901
      ],
      "translation": [
        -0.6396691799163818,
        0.24879764020442963,
        0.9267827868461609
      ]
    },
    {
      "mesh": 4,
      "name": "Wheel_BR_015",
      "rotation": [
        -0.7071067690849304,
        1.6858749063430878e-07,
        1.6858749063430878e-07,
        0.7071067690849304
      ],
      "scale": [
        0.9539082646369934,
        0.8965586423873901,
        0.8965586423873901
      ],
      "translation": [
        -0.6396691799163818,
        0.24879707396030426,
        -1.1017842292785645
      ]
    },
    {
      "mesh": 5,
      "name": "Wheel_BR_017",
      "rotation": [
        8.7157638429413e-33,
        -0.7071067690849304,
        0.7071067690849304,
        8.659560603426554e-17
      ],
      "scale": [
        0.9539082646369934,
        0.8965586423873901,
        0.8965586423873901
      ],
      "translation": [
        0.6409637928009033,
        0.24879707396030426,
        -1.1017842292785645
      ]
    },
    {
      "mesh": 6,
      "name": "Wheel_BR_022",
      "rotation": [
        8.7157638429413e-33,
        -0.7071067690849304,
        0.7071067690849304,
        8.659560603426554e-17
      ],
      "scale": [
        0.9539082646369934,
        0.8965586423873901,
        0.8965586423873901
      ],
      "translation": [
        0.6409637928009033,
        0.24879764020442963,
        0.9267827868461609
      ]
    },
    {
      "mesh": 7,
      "name": "car_18_002",
      "rotation": [
        0.7071067690849304,
        0.0,
        0.0,
        0.7071067690849304
      ],
      "scale": [
        0.009999999776482582,
        0.009999999776482582,
        0.009999999776482582
      ]
    }
  ],
  "samplers": [
    {}
  ],
  "scenes": [
    {
      "name": "Scene",
      "nodes": [
        0
      ]
    }
  ],
  "textures": [
    {
      "name": "DiffuseColor_Texture",
      "sampler": 0,
      "source": 0
    },
    {
      "name": "DiffuseColor_Texture_1",
      "sampler": 0,
      "source": 1
    },
    {
      "name": "DiffuseColor_Texture_2",
      "sampler": 0,
      "source": 2
    }
  ]
}