{
  "accessors": [
    {
      "bufferView": 0,
      "componentType": 5126,
      "count": 1155,
      "max": [
        0.016379738226532936,
        0.010683906264603138,
        0.01777188666164875
      ],
      "min": [
        -0.016379738226532936,
        -0.011046460829675198,
        0.013197014108300209
      ],
      "name": "Cs Go Into2.001_Material0/POSITION",
      "type": "VEC3"
    },
    {
      "bufferView": 0,
      "byteOffset": 12,
      "componentType": 5126,
      "count": 1155,
      "name": "Cs Go Into2.001_Material0/NORMAL",
      "type": "VEC3"
    },
    {
      "bufferView": 0,
      "byteOffset": 24,
      "componentType": 5126,
      "count": 1155,
      "name": "Cs Go Into2.001_Material0/TEXCOORD_0",
      "type": "VEC2"
    },
    {
      "bufferView": 0,
      "byteOffset": 32,
      "componentType": 5126,
      "count": 1155,
      "name": "Cs Go Into2.001_Material0/COLOR_0",
      "type": "VEC4"
    },
    {
      "bufferView": 1,
      "componentType": 5125,
      "count": 3048,
      "name": "Cs Go Into2.001_Material0/INDICES",
      "type": "SCALAR"
    },
    {
      "bufferView": 2,
      "componentType": 5126,
      "count": 437,
      "max": [
        0.016379738226532936,
        0.010683906264603138,
        0.01861061528325081
      ],
      "min": [
        -0.016379738226532936,
        -0.011046460829675198,
        0.013197014108300209
      ],
      "name": "Cs Go Into2.001_Material0/POSITION",
      "type": "VEC3"
    },
    {
      "bufferView": 2,
      "byteOffset": 12,
      "componentType": 5126,
      "count": 437,
      "name": "Cs Go Into2.001_Material0/NORMAL",
      "type": "VEC3"
    },
    {
      "bufferView": 2,
      "byteOffset": 24,
      "componentType": 5126,
      "count": 437,
      "name": "Cs Go Into2.001_Material0/TEXCOORD_0",
      "type": "VEC2"
    },
    {
      "bufferView": 2,
      "byteOffset": 32,
      "componentType": 5126,
      "count": 437,
      "name": "Cs Go Into2.001_Material0/COLOR_0",
      "type": "VEC4"
    },
    {
      "bufferView": 3,
      "componentType": 5125,
      "count": 1050,
      "name": "Cs Go Into2.001_Material0/INDICES",
      "type": "SCALAR"
    },
    {
      "bufferView": 4,
      "componentType": 5126,
      "count": 64,
      "max": [
        0.016021110117435455,
        0.006227497942745686,
        0.01518357265740633
      ],
      "min": [
        -0.016021108254790306,
        -0.003387768752872944,
        0.009973995387554169
      ],
      "name": "Cs Go Into2.001_Material0/POSITION",
      "type": "VEC3"
    },
    {
      "bufferView": 4,
      "byteOffset": 12,
      "componentType": 5126,
      "count": 64,
      "name": "Cs Go Into2.001_Material0/NORMAL",
      "type": "VEC3"
    },
    {
      "bufferView": 4,
      "byteOffset": 24,
      "componentType": 5126,
      "count": 64,
      "name": "Cs Go Into2.001_Material0/TEXCOORD_0",
      "type": "VEC2"
    },
    {
      "bufferView": 4,
      "byteOffset": 32,
      "componentType": 5126,
      "count": 64,
      "name": "Cs Go Into2.001_Material0/COLOR_0",
      "type": "VEC4"
    },
    {
      "bufferView": 5,
      "componentType": 5125,
      "count": 144,
      "name": "Cs Go Into2.001_Material0/INDICES",
      "type": "SCALAR"
    },
    {
      "bufferView": 6,
      "componentType": 5126,
      "count": 308,
      "max": [
        0.016021110117435455,
        0.010413723066449165,
        0.019016483798623085
      ],
      "min": [
        -0.016021108254790306,
        -0.010423997417092323,
        6.127118831500411e-05
      ],
      "name": "Cs Go Into2.001_Material0/POSITION",
      "type": "VEC3"
    },
    {
      "bufferView": 6,
      "byteOffset": 12,
      "componentType": 5126,
      "count": 308,
      "name": "Cs Go Into2.001_Material0/NORMAL",
      "type": "VEC3"
    },
    {
      "bufferView": 6,
      "byteOffset": 24,
      "componentType": 5126,
      "count": 308,
      "name": "Cs Go Into2.001_Material0/TEXCOORD_0",
      "type": "VEC2"
    },
    {
      "bufferView": 6,
      "byteOffset": 32,
      "componentType": 5126,
      "count": 308,
      "name": "Cs Go Into2.001_Material0/COLOR_0",
      "type": "VEC4"
    },
    {
      "bufferView": 7,
      "componentType": 5125,
      "count": 954,
      "name": "Cs Go Into2.001_Material0/INDICES",
      "type": "SCALAR"
    },
    {
      "bufferView": 8,
      "componentType": 5126,
      "count": 328,
      "max": [
        0.016021110117435455,
        0.00956552941352129,
        0.019016483798623085
      ],
      "min": [
        -0.016021108254790306,
        -0.010423997417092323,
        6.127118831500411e-05
      ],
      "name": "Cs Go Into2.001_Material0/POSITION",
      "type": "VEC3"
    },
    {
      "bufferView": 8,
      "byteOffset": 12,
      "componentType": 5126,
      "count": 328,
      "name": "Cs Go Into2.001_Material0/NORMAL",
      "type": "VEC3"
    },
    {
      "bufferView": 8,
      "byteOffset": 24,
      "componentType": 5126,
      "count": 328,
      "name": "Cs Go Into2.001_Material0/TEXCOORD_0",
      "type": "VEC2"
    },
    {
      "bufferView": 8,
      "byteOffset": 32,
      "componentType": 5126,
      "count": 328,
      "name": "Cs Go Into2.001_Material0/COLOR_0",
      "type": "VEC4"
    },
    {
      "bufferView": 9,
      "componentType": 5125,
      "count": 744,
      "name": "Cs Go Into2.001_Material0/INDICES",
      "type": "SCALAR"
    },
    {
      "bufferView": 10,
      "componentType": 5126,
      "count": 24,
      "max": [
        0.014333778992295265,
        0.006227497942745686,
        0.01518357265740633
      ],
      "min": [
        -0.014333777129650116,
        -0.003387768752872944,
        0.009973996318876743
      ],
      "name": "Cs Go Into2.001_Material0/POSITION",
      "type": "VEC3"
    },
    {
      "bufferView": 10,
      "byteOffset": 12,
      "componentType": 5126,
      "count": 24,
      "name": "Cs Go Into2.001_Material0/NORMAL",
      "type": "VEC3"
    },
    {
      "bufferView": 10,
      "byteOffset": 24,
      "componentType": 5126,
      "count": 24,
      "name": "Cs Go Into2.001_Material0/TEXCOORD_0",
      "type": "VEC2"
    },
    {
      "bufferView": 10,
      "byteOffset": 32,
      "componentType": 5126,
      "count": 24,
      "name": "Cs Go Into2.001_Material0/COLOR_0",
      "type": "VEC4"
    },
    {
      "bufferView": 11,
      "componentType": 5125,
      "count": 60,
      "name": "Cs Go Into2.001_Material0/INDICES",
      "type": "SCALAR"
    },
    {
      "bufferView": 12,
      "componentType": 5126,
      "count": 36,
      "max": [
        0.014665248803794384,
        -0.008811608888208866,
        0.018168289214372635
      ],
      "min": [
        -0.01466524600982666,
        -0.010423997417092323,
        6.127118831500411e-05
      ],
      "name": "Cs Go Into2.001_Material0/POSITION",
      "type": "VEC3"
    },
    {
      "bufferView": 12,
      "byteOffset": 12,
      "componentType": 5126,
      "count": 36,
      "name": "Cs Go Into2.001_Material0/NORMAL",
      "type": "VEC3"
    },
    {
      "bufferView": 12,
      "byteOffset": 24,
      "componentType": 5126,
      "count": 36,
      "name": "Cs Go Into2.001_Material0/TEXCOORD_0",
      "type": "VEC2"
    },
    {
      "bufferView": 12,
      "byteOffset": 32,
      "componentType": 5126,
      "count": 36,
      "name": "Cs Go Into2.001_Material0/COLOR_0",
      "type": "VEC4"
    },
    {
      "bufferView": 13,
      "componentType": 5125,
      "count": 54,
      "name": "Cs Go Into2.001_Material0/INDICES",
      "type": "SCALAR"
    }
  ],
  "asset": {
    "copyright": "Copyright (c) 2018-2020 Chukong Technologies Inc.",
    "generator": "FBX-glTF-conv",
    "version": "2.0"
  },
  "bufferViews": [
    {
      "buffer": 0,
      "byteLength": 55440,
      "byteStride": 48,
      "name": "Cs Go Into2.001_Material0",
      "target": 34962
    },
    {
      "buffer": 0,
      "byteLength": 12192,
      "byteOffset": 55440
    },
    {
      "buffer": 0,
      "byteLength": 20976,
      "byteOffset": 67632,
      "byteStride": 48,
      "name": "Cs Go Into2.001_Material0",
      "target": 34962
    },
    {
      "buffer": 0,
      "byteLength": 4200,
      "byteOffset": 88608
    },
    {
      "buffer": 0,
      "byteLength": 3072,
      "byteOffset": 92808,
      "byteStride": 48,
      "name": "Cs Go Into2.001_Material0",
      "target": 34962
    },
    {
      "buffer": 0,
      "byteLength": 576,
      "byteOffset": 95880
    },
    {
      "buffer": 0,
      "byteLength": 14784,
      "byteOffset": 96456,
      "byteStride": 48,
      "name": "Cs Go Into2.001_Material0",
      "target": 34962
    },
    {
      "buffer": 0,
      "byteLength": 3816,
      "byteOffset": 111240
    },
    {
      "buffer": 0,
      "byteLength": 15744,
      "byteOffset": 115056,
      "byteStride": 48,
      "name": "Cs Go Into2.001_Material0",
      "target": 34962
    },
    {
      "buffer": 0,
      "byteLength": 2976,
      "byteOffset": 130800
    },
    {
      "buffer": 0,
      "byteLength": 1152,
      "byteOffset": 133776,
      "byteStride": 48,
      "name": "Cs Go Into2.001_Material0",
      "target": 34962
    },
    {
      "buffer": 0,
      "byteLength": 240,
      "byteOffset": 134928
    },
    {
      "buffer": 0,
      "byteLength": 1728,
      "byteOffset": 135168,
      "byteStride": 48,
      "name": "Cs Go Into2.001_Material0",
      "target": 34962
    },
    {
      "buffer": 0,
      "byteLength": 216,
      "byteOffset": 136896
    }
  ],
  "buffers": [
    {
      "byteLength": 137112,
      "uri": "out.bin"
    }
  ],
  "extras": {
    "FBX-glTF-conv": {
      "animationFrameRate": 24.0
    }
  },
  "images": [
    {
      "extras": {
        "FBX-glTF-conv": {
          "fileName": "U:\\CocosProjects\\PA\\GTA3_PlayableAds\\GTA3_Playable_3_v2\\temp\\asset-db\\assets\\fbx.FBX-glTF-conv\\69d8275b-dace-4300-944c-235cdd5b1d5f\\output\\.fbm\\784423D0\\weapon case.fbm/1.png",
          "relativeFileName": "..\\..\\..\\temp\\asset-db\\assets\\fbx.FBX-glTF-conv\\69d8275b-dace-4300-944c-235cdd5b1d5f\\output\\.fbm\\784423D0\\weapon case.fbm\\1.png"
        }
      },
      "name": "base_color_texture",
      "uri": "1.png"
    }
  ],
  "materials": [
    {
      "name": "Material.001",
      "pbrMetallicRoughness": {
        "baseColorFactor": [
          0.5814630389213562,
          0.319752037525177,
          0.0,
          1.0
        ],
        "metallicFactor": 0.4000000059604645,
        "roughnessFactor": 0.27216553688049316
      }
    },
    {
      "name": "Material.007",
      "pbrMetallicRoughness": {
        "baseColorFactor": [
          0.32637545466423035,
          0.18180616199970245,
          0.0,
          1.0
        ],
        "metallicFactor": 0.4000000059604645,
        "roughnessFactor": 0.27216553688049316
      }
    },
    {
      "name": "Material.005",
      "pbrMetallicRoughness": {
        "baseColorFactor": [
          0.06997817009687424,
          0.06997817009687424,
          0.06997817009687424,
          1.0
        ],
        "metallicFactor": 0.4000000059604645,
        "roughnessFactor": 0.27216553688049316
      }
    },
    {
      "name": "Material.004",
      "pbrMetallicRoughness": {
        "baseColorFactor": [
          0.8000000715255737,
          0.43734803795814514,
          0.0,
          1.0
        ],
        "metallicFactor": 0.4000000059604645,
        "roughnessFactor": 0.27216553688049316
      }
    },
    {
      "name": "Material.008",
      "pbrMetallicRoughness": {
        "baseColorFactor": [
          0.5814629793167114,
          0.3197520077228546,
          0.0,
          1.0
        ],
        "metallicFactor": 0.4000000059604645,
        "roughnessFactor": 0.27216553688049316
      }
    },
    {
      "name": "Material.002",
      "pbrMetallicRoughness": {
        "baseColorFactor": [
          0.027209719642996788,
          0.027209719642996788,
          0.027209719642996788,
          1.0
        ],
        "metallicFactor": 0.4000000059604645,
        "roughnessFactor": 0.27216553688049316
      }
    },
    {
      "name": "1",
      "pbrMetallicRoughness": {
        "baseColorTexture": {
          "index": 0
        },
        "metallicFactor": 0.4000000059604645,
        "roughnessFactor": 0.27216553688049316
      }
    }
  ],
  "meshes": [
    {
      "name": "Cs Go Into2.001_Material0",
      "primitives": [
        {
          "attributes": {
            "COLOR_0": 3,
            "NORMAL": 1,
            "POSITION": 0,
            "TEXCOORD_0": 2
          },
          "indices": 4,
          "material": 0
        },
        {
          "attributes": {
            "COLOR_0": 8,
            "NORMAL": 6,
            "POSITION": 5,
            "TEXCOORD_0": 7
          },
          "indices": 9,
          "material": 1
        },
        {
          "attributes": {
            "COLOR_0": 13,
            "NORMAL": 11,
            "POSITION": 10,
            "TEXCOORD_0": 12
          },
          "indices": 14,
          "material": 2
        },
        {
          "attributes": {
            "COLOR_0": 18,
            "NORMAL": 16,
            "POSITION": 15,
            "TEXCOORD_0": 17
          },
          "indices": 19,
          "material": 3
        },
        {
          "attributes": {
            "COLOR_0": 23,
            "NORMAL": 21,
            "POSITION": 20,
            "TEXCOORD_0": 22
          },
          "indices": 24,
          "material": 4
        },
        {
          "attributes": {
            "COLOR_0": 28,
            "NORMAL": 26,
            "POSITION": 25,
            "TEXCOORD_0": 27
          },
          "indices": 29,
          "material": 5
        },
        {
          "attributes": {
            "COLOR_0": 33,
            "NORMAL": 31,
            "POSITION": 30,
            "TEXCOORD_0": 32
          },
          "indices": 34,
          "material": 6
        }
      ]
    }
  ],
  "nodes": [
    {
      "mesh": 0,
      "name": "Cs Go Into2.001",
      "rotation": [
        -0.7071068286895752,
        0.0,
        0.0,
        0.7071067094802856
      ],
      "scale": [
        100.0,
        100.0,
        100.0
      ]
    }
  ],
  "samplers": [
    {}
  ],
  "scenes": [
    {
      "name": "Scene",
      "nodes": [
        0
      ]
    }
  ],
  "textures": [
    {
      "name": "base_color_texture",
      "sampler": 0,
      "source": 0
    }
  ]
}