{
  "accessors": [
    {
      "bufferView": 0,
      "componentType": 5126,
      "count": 5035,
      "max": [
        0.7404426336288452,
        0.9510322213172913,
        1.6930794715881348
      ],
      "min": [
        -0.7822074890136719,
        0.11090561747550964,
        -1.6953330039978027
      ],
      "name": "_19_001_Material0/POSITION",
      "type": "VEC3"
    },
    {
      "bufferView": 0,
      "byteOffset": 12,
      "componentType": 5126,
      "count": 5035,
      "name": "_19_001_Material0/NORMAL",
      "type": "VEC3"
    },
    {
      "bufferView": 0,
      "byteOffset": 24,
      "componentType": 5126,
      "count": 5035,
      "name": "_19_001_Material0/TEXCOORD_0",
      "type": "VEC2"
    },
    {
      "bufferView": 1,
      "componentType": 5125,
      "count": 15549,
      "name": "_19_001_Material0/INDICES",
      "type": "SCALAR"
    },
    {
      "bufferView": 2,
      "componentType": 5126,
      "count": 539,
      "max": [
        0.6919203996658325,
        0.9047337770462036,
        0.8677499890327454
      ],
      "min": [
        -0.6290820240974426,
        0.12194565683603287,
        -0.4608241617679596
      ],
      "name": "_19_001_Material0/POSITION",
      "type": "VEC3"
    },
    {
      "bufferView": 2,
      "byteOffset": 12,
      "componentType": 5126,
      "count": 539,
      "name": "_19_001_Material0/NORMAL",
      "type": "VEC3"
    },
    {
      "bufferView": 2,
      "byteOffset": 24,
      "componentType": 5126,
      "count": 539,
      "name": "_19_001_Material0/TEXCOORD_0",
      "type": "VEC2"
    },
    {
      "bufferView": 3,
      "componentType": 5125,
      "count": 1437,
      "name": "_19_001_Material0/INDICES",
      "type": "SCALAR"
    },
    {
      "bufferView": 4,
      "componentType": 5126,
      "count": 111,
      "max": [
        0.10107296705245972,
        0.27339446544647217,
        0.27761003375053406
      ],
      "min": [
        -0.10107262432575226,
        -0.273394376039505,
        -0.27761003375053406
      ],
      "name": "Scene/POSITION",
      "type": "VEC3"
    },
    {
      "bufferView": 4,
      "byteOffset": 12,
      "componentType": 5126,
      "count": 111,
      "name": "Scene/NORMAL",
      "type": "VEC3"
    },
    {
      "bufferView": 4,
      "byteOffset": 24,
      "componentType": 5126,
      "count": 111,
      "name": "Scene/TEXCOORD_0",
      "type": "VEC2"
    },
    {
      "bufferView": 5,
      "componentType": 5125,
      "count": 318,
      "name": "Scene/INDICES",
      "type": "SCALAR"
    },
    {
      "bufferView": 6,
      "componentType": 5126,
      "count": 111,
      "max": [
        0.10107296705245972,
        0.27339446544647217,
        0.27761003375053406
      ],
      "min": [
        -0.10107262432575226,
        -0.273394376039505,
        -0.27761003375053406
      ],
      "name": "Scene/POSITION",
      "type": "VEC3"
    },
    {
      "bufferView": 6,
      "byteOffset": 12,
      "componentType": 5126,
      "count": 111,
      "name": "Scene/NORMAL",
      "type": "VEC3"
    },
    {
      "bufferView": 6,
      "byteOffset": 24,
      "componentType": 5126,
      "count": 111,
      "name": "Scene/TEXCOORD_0",
      "type": "VEC2"
    },
    {
      "bufferView": 7,
      "componentType": 5125,
      "count": 318,
      "name": "Scene/INDICES",
      "type": "SCALAR"
    },
    {
      "bufferView": 8,
      "componentType": 5126,
      "count": 111,
      "max": [
        0.10107296705245972,
        0.27339446544647217,
        0.27761003375053406
      ],
      "min": [
        -0.10107262432575226,
        -0.273394376039505,
        -0.27761003375053406
      ],
      "name": "Scene/POSITION",
      "type": "VEC3"
    },
    {
      "bufferView": 8,
      "byteOffset": 12,
      "componentType": 5126,
      "count": 111,
      "name": "Scene/NORMAL",
      "type": "VEC3"
    },
    {
      "bufferView": 8,
      "byteOffset": 24,
      "componentType": 5126,
      "count": 111,
      "name": "Scene/TEXCOORD_0",
      "type": "VEC2"
    },
    {
      "bufferView": 9,
      "componentType": 5125,
      "count": 318,
      "name": "Scene/INDICES",
      "type": "SCALAR"
    },
    {
      "bufferView": 10,
      "componentType": 5126,
      "count": 111,
      "max": [
        0.10107296705245972,
        0.27339446544647217,
        0.27761003375053406
      ],
      "min": [
        -0.10107262432575226,
        -0.273394376039505,
        -0.27761003375053406
      ],
      "name": "Scene/POSITION",
      "type": "VEC3"
    },
    {
      "bufferView": 10,
      "byteOffset": 12,
      "componentType": 5126,
      "count": 111,
      "name": "Scene/NORMAL",
      "type": "VEC3"
    },
    {
      "bufferView": 10,
      "byteOffset": 24,
      "componentType": 5126,
      "count": 111,
      "name": "Scene/TEXCOORD_0",
      "type": "VEC2"
    },
    {
      "bufferView": 11,
      "componentType": 5125,
      "count": 318,
      "name": "Scene/INDICES",
      "type": "SCALAR"
    },
    {
      "bufferView": 12,
      "componentType": 5126,
      "count": 213,
      "max": [
        0.5189098119735718,
        0.882415771484375,
        0.8677502870559692
      ],
      "min": [
        -0.5836734175682068,
        0.6557195782661438,
        -1.2521826028823853
      ],
      "name": "Scene/POSITION",
      "type": "VEC3"
    },
    {
      "bufferView": 12,
      "byteOffset": 12,
      "componentType": 5126,
      "count": 213,
      "name": "Scene/NORMAL",
      "type": "VEC3"
    },
    {
      "bufferView": 12,
      "byteOffset": 24,
      "componentType": 5126,
      "count": 213,
      "name": "Scene/TEXCOORD_0",
      "type": "VEC2"
    },
    {
      "bufferView": 13,
      "componentType": 5125,
      "count": 855,
      "name": "Scene/INDICES",
      "type": "SCALAR"
    },
    {
      "bufferView": 14,
      "componentType": 5126,
      "count": 481,
      "max": [
        0.7822075486183167,
        0.9009433388710022,
        0.6313690543174744
      ],
      "min": [
        0.41774287819862366,
        0.15566419064998627,
        -0.45721808075904846
      ],
      "name": "car_19_002_Material0/POSITION",
      "type": "VEC3"
    },
    {
      "bufferView": 14,
      "byteOffset": 12,
      "componentType": 5126,
      "count": 481,
      "name": "car_19_002_Material0/NORMAL",
      "type": "VEC3"
    },
    {
      "bufferView": 14,
      "byteOffset": 24,
      "componentType": 5126,
      "count": 481,
      "name": "car_19_002_Material0/TEXCOORD_0",
      "type": "VEC2"
    },
    {
      "bufferView": 15,
      "componentType": 5125,
      "count": 1383,
      "name": "car_19_002_Material0/INDICES",
      "type": "SCALAR"
    },
    {
      "bufferView": 16,
      "componentType": 5126,
      "count": 184,
      "max": [
        0.5943424105644226,
        0.904733419418335,
        0.6548295617103577
      ],
      "min": [
        0.4183143079280853,
        0.15949204564094543,
        -0.4608241021633148
      ],
      "name": "car_19_002_Material0/POSITION",
      "type": "VEC3"
    },
    {
      "bufferView": 16,
      "byteOffset": 12,
      "componentType": 5126,
      "count": 184,
      "name": "car_19_002_Material0/NORMAL",
      "type": "VEC3"
    },
    {
      "bufferView": 16,
      "byteOffset": 24,
      "componentType": 5126,
      "count": 184,
      "name": "car_19_002_Material0/TEXCOORD_0",
      "type": "VEC2"
    },
    {
      "bufferView": 17,
      "componentType": 5125,
      "count": 489,
      "name": "car_19_002_Material0/INDICES",
      "type": "SCALAR"
    },
    {
      "bufferView": 18,
      "componentType": 5126,
      "count": 49,
      "max": [
        0.5836730599403381,
        0.8488982915878296,
        0.4728465676307678
      ],
      "min": [
        0.47341063618659973,
        0.6557191610336304,
        -0.430301308631897
      ],
      "name": "Scene/POSITION",
      "type": "VEC3"
    },
    {
      "bufferView": 18,
      "byteOffset": 12,
      "componentType": 5126,
      "count": 49,
      "name": "Scene/NORMAL",
      "type": "VEC3"
    },
    {
      "bufferView": 18,
      "byteOffset": 24,
      "componentType": 5126,
      "count": 49,
      "name": "Scene/TEXCOORD_0",
      "type": "VEC2"
    },
    {
      "bufferView": 19,
      "componentType": 5125,
      "count": 141,
      "name": "Scene/INDICES",
      "type": "SCALAR"
    }
  ],
  "asset": {
    "copyright": "Copyright (c) 2018-2020 Chukong Technologies Inc.",
    "generator": "FBX-glTF-conv",
    "version": "2.0"
  },
  "bufferViews": [
    {
      "buffer": 0,
      "byteLength": 161120,
      "byteStride": 32,
      "name": "_19_001_Material0",
      "target": 34962
    },
    {
      "buffer": 0,
      "byteLength": 62196,
      "byteOffset": 161120
    },
    {
      "buffer": 0,
      "byteLength": 17248,
      "byteOffset": 223316,
      "byteStride": 32,
      "name": "_19_001_Material0",
      "target": 34962
    },
    {
      "buffer": 0,
      "byteLength": 5748,
      "byteOffset": 240564
    },
    {
      "buffer": 0,
      "byteLength": 3552,
      "byteOffset": 246312,
      "byteStride": 32,
      "name": "Scene",
      "target": 34962
    },
    {
      "buffer": 0,
      "byteLength": 1272,
      "byteOffset": 249864
    },
    {
      "buffer": 0,
      "byteLength": 3552,
      "byteOffset": 251136,
      "byteStride": 32,
      "name": "Scene",
      "target": 34962
    },
    {
      "buffer": 0,
      "byteLength": 1272,
      "byteOffset": 254688
    },
    {
      "buffer": 0,
      "byteLength": 3552,
      "byteOffset": 255960,
      "byteStride": 32,
      "name": "Scene",
      "target": 34962
    },
    {
      "buffer": 0,
      "byteLength": 1272,
      "byteOffset": 259512
    },
    {
      "buffer": 0,
      "byteLength": 3552,
      "byteOffset": 260784,
      "byteStride": 32,
      "name": "Scene",
      "target": 34962
    },
    {
      "buffer": 0,
      "byteLength": 1272,
      "byteOffset": 264336
    },
    {
      "buffer": 0,
      "byteLength": 6816,
      "byteOffset": 265608,
      "byteStride": 32,
      "name": "Scene",
      "target": 34962
    },
    {
      "buffer": 0,
      "byteLength": 3420,
      "byteOffset": 272424
    },
    {
      "buffer": 0,
      "byteLength": 15392,
      "byteOffset": 275844,
      "byteStride": 32,
      "name": "car_19_002_Material0",
      "target": 34962
    },
    {
      "buffer": 0,
      "byteLength": 5532,
      "byteOffset": 291236
    },
    {
      "buffer": 0,
      "byteLength": 5888,
      "byteOffset": 296768,
      "byteStride": 32,
      "name": "car_19_002_Material0",
      "target": 34962
    },
    {
      "buffer": 0,
      "byteLength": 1956,
      "byteOffset": 302656
    },
    {
      "buffer": 0,
      "byteLength": 1568,
      "byteOffset": 304612,
      "byteStride": 32,
      "name": "Scene",
      "target": 34962
    },
    {
      "buffer": 0,
      "byteLength": 564,
      "byteOffset": 306180
    }
  ],
  "buffers": [
    {
      "byteLength": 306744,
      "uri": "out.bin"
    }
  ],
  "extras": {
    "FBX-glTF-conv": {
      "animationFrameRate": 30.0
    }
  },
  "images": [
    {
      "extras": {
        "FBX-glTF-conv": {
          "fileName": "D:\\Unity-Projects\\Test\\Assets\\Game3\\Models\\Car\\Textures\\Car_5\\Textures Wheel.jpg",
          "relativeFileName": "Game3\\Models\\Car\\Textures\\Car_5\\Textures Wheel.jpg"
        }
      },
      "name": "DiffuseColor_Texture",
      "uri": "data:image/png;base64,"
    },
    {
      "extras": {
        "FBX-glTF-conv": {
          "fileName": "D:\\Unity-Projects\\Test\\Assets\\Game3\\Models\\Car\\Textures\\Car_19\\CAR19.jpg",
          "relativeFileName": "Game3\\Models\\Car\\Textures\\Car_19\\CAR19.jpg"
        }
      },
      "name": "DiffuseColor_Texture_1",
      "uri": "data:image/png;base64,"
    }
  ],
  "materials": [
    {
      "name": "Glass_009",
      "pbrMetallicRoughness": {
        "baseColorFactor": [
          0.011764707043766975,
          0.011764707043766975,
          0.011764707043766975,
          1.0
        ]
      }
    },
    {
      "name": "Glass_Light_004",
      "pbrMetallicRoughness": {
        "baseColorFactor": [
          0.01568627543747425,
          0.01568627543747425,
          0.01568627543747425,
          1.0
        ]
      }
    },
    {
      "name": "Textures_Wheel_008",
      "pbrMetallicRoughness": {
        "baseColorTexture": {
          "index": 0
        }
      }
    },
    {
      "name": "CAR19",
      "pbrMetallicRoughness": {
        "baseColorTexture": {
          "index": 1
        }
      }
    }
  ],
  "meshes": [
    {
      "name": "_19_001_Material0",
      "primitives": [
        {
          "attributes": {
            "NORMAL": 1,
            "POSITION": 0,
            "TEXCOORD_0": 2
          },
          "indices": 3,
          "material": 0
        },
        {
          "attributes": {
            "NORMAL": 5,
            "POSITION": 4,
            "TEXCOORD_0": 6
          },
          "indices": 7,
          "material": 1
        }
      ]
    },
    {
      "name": "Scene",
      "primitives": [
        {
          "attributes": {
            "NORMAL": 9,
            "POSITION": 8,
            "TEXCOORD_0": 10
          },
          "indices": 11,
          "material": 2
        }
      ]
    },
    {
      "name": "Scene",
      "primitives": [
        {
          "attributes": {
            "NORMAL": 13,
            "POSITION": 12,
            "TEXCOORD_0": 14
          },
          "indices": 15,
          "material": 2
        }
      ]
    },
    {
      "name": "Scene",
      "primitives": [
        {
          "attributes": {
            "NORMAL": 17,
            "POSITION": 16,
            "TEXCOORD_0": 18
          },
          "indices": 19,
          "material": 2
        }
      ]
    },
    {
      "name": "Scene",
      "primitives": [
        {
          "attributes": {
            "NORMAL": 21,
            "POSITION": 20,
            "TEXCOORD_0": 22
          },
          "indices": 23,
          "material": 2
        }
      ]
    },
    {
      "name": "Scene",
      "primitives": [
        {
          "attributes": {
            "NORMAL": 25,
            "POSITION": 24,
            "TEXCOORD_0": 26
          },
          "indices": 27,
          "material": 1
        }
      ]
    },
    {
      "name": "car_19_002_Material0",
      "primitives": [
        {
          "attributes": {
            "NORMAL": 29,
            "POSITION": 28,
            "TEXCOORD_0": 30
          },
          "indices": 31,
          "material": 0
        },
        {
          "attributes": {
            "NORMAL": 33,
            "POSITION": 32,
            "TEXCOORD_0": 34
          },
          "indices": 35,
          "material": 3
        }
      ]
    },
    {
      "name": "Scene",
      "primitives": [
        {
          "attributes": {
            "NORMAL": 37,
            "POSITION": 36,
            "TEXCOORD_0": 38
          },
          "indices": 39,
          "material": 1
        }
      ]
    }
  ],
  "nodes": [
    {
      "children": [
        1,
        6,
        7,
        8
      ],
      "name": "_19",
      "rotation": [
        -0.7069847583770752,
        -0.0,
        0.0,
        0.7072287797927856
      ],
      "scale": [
        100.0,
        99.99998474121094,
        99.99998474121094
      ]
    },
    {
      "children": [
        2,
        3,
        4,
        5
      ],
      "mesh": 0,
      "name": "_19_001",
      "rotation": [
        0.7069846987724304,
        6.323116963358189e-08,
        -6.320934176073933e-08,
        0.7072288393974304
      ],
      "scale": [
        0.009999999776482582,
        0.009999999776482582,
        0.009999999776482582
      ]
    },
    {
      "mesh": 1,
      "name": "Wheel_BR_016",
      "rotation": [
        8.659560603426554e-17,
        -0.7071067690849304,
        0.7071067690849304,
        1.039163138588835e-27
      ],
      "scale": [
        0.9539082646369934,
        0.8965586423873901,
        0.8965586423873901
      ],
      "translation": [
        0.6409637331962585,
        0.24879691004753113,
        0.9267831444740295
      ]
    },
    {
      "mesh": 2,
      "name": "Wheel_BR_018",
      "rotation": [
        -0.7071067690849304,
        1.053671283557378e-07,
        1.053671283557378e-07,
        0.7071067690849304
      ],
      "scale": [
        0.9539082646369934,
        0.8965586423873901,
        0.8965586423873901
      ],
      "translation": [
        -0.6396692991256714,
        0.24879680573940277,
        0.9267829656600952
      ]
    },
    {
      "mesh": 3,
      "name": "Wheel_BR_023",
      "rotation": [
        8.659560603426554e-17,
        -0.7071067690849304,
        0.7071067690849304,
        1.039163138588835e-27
      ],
      "scale": [
        0.9539082646369934,
        0.8965586423873901,
        0.8965586423873901
      ],
      "translation": [
        0.6409639120101929,
        0.24879804253578186,
        -1.1023316383361816
      ]
    },
    {
      "mesh": 4,
      "name": "Wheel_BR_024",
      "rotation": [
        -0.7071067690849304,
        1.053671283557378e-07,
        1.053671283557378e-07,
        0.7071067690849304
      ],
      "scale": [
        0.9539082646369934,
        0.8965586423873901,
        0.8965586423873901
      ],
      "translation": [
        -0.6396691203117371,
        0.2487979233264923,
        -1.1023317575454712
      ]
    },
    {
      "mesh": 5,
      "name": "car_19_001",
      "rotation": [
        0.7069846987724304,
        6.323116963358189e-08,
        -6.320934176073933e-08,
        0.7072288393974304
      ],
      "scale": [
        0.009999999776482582,
        0.009999999776482582,
        0.009999999776482582
      ]
    },
    {
      "mesh": 6,
      "name": "car_19_002",
      "rotation": [
        0.7069846987724304,
        6.323116963358189e-08,
        -6.320934176073933e-08,
        0.7072288393974304
      ],
      "scale": [
        0.009999999776482582,
        0.009999999776482582,
        0.009999999776482582
      ]
    },
    {
      "mesh": 7,
      "name": "car_19_003",
      "rotation": [
        0.7069846987724304,
        6.323116963358189e-08,
        -6.320934176073933e-08,
        0.7072288393974304
      ],
      "scale": [
        0.009999999776482582,
        0.009999999776482582,
        0.009999999776482582
      ]
    }
  ],
  "samplers": [
    {}
  ],
  "scenes": [
    {
      "name": "Scene",
      "nodes": [
        0
      ]
    }
  ],
  "textures": [
    {
      "name": "DiffuseColor_Texture",
      "sampler": 0,
      "source": 0
    },
    {
      "name": "DiffuseColor_Texture_1",
      "sampler": 0,
      "source": 1
    }
  ]
}