{
  "accessors": [
    {
      "bufferView": 0,
      "componentType": 5126,
      "count": 1058,
      "max": [
        0.21322081983089447,
        0.3327484130859375,
        0.21962065994739532
      ],
      "min": [
        -0.2132205218076706,
        0.14505919814109802,
        -0.21962065994739532
      ],
      "name": "hopqua/POSITION",
      "type": "VEC3"
    },
    {
      "bufferView": 0,
      "byteOffset": 12,
      "componentType": 5126,
      "count": 1058,
      "name": "hopqua/NORMAL",
      "type": "VEC3"
    },
    {
      "bufferView": 0,
      "byteOffset": 24,
      "componentType": 5126,
      "count": 1058,
      "name": "hopqua/TEXCOORD_0",
      "type": "VEC2"
    },
    {
      "bufferView": 1,
      "componentType": 5125,
      "count": 3009,
      "name": "hopqua/INDICES",
      "type": "SCALAR"
    },
    {
      "bufferView": 2,
      "componentType": 5126,
      "count": 242,
      "max": [
        0.1961376965045929,
        0.17729979753494263,
        0.18769195675849915
      ],
      "min": [
        -0.1972033679485321,
        0.0,
        -0.20317459106445313
      ],
      "name": "naphopqua/POSITION",
      "type": "VEC3"
    },
    {
      "bufferView": 2,
      "byteOffset": 12,
      "componentType": 5126,
      "count": 242,
      "name": "naphopqua/NORMAL",
      "type": "VEC3"
    },
    {
      "bufferView": 2,
      "byteOffset": 24,
      "componentType": 5126,
      "count": 242,
      "name": "naphopqua/TEXCOORD_0",
      "type": "VEC2"
    },
    {
      "bufferView": 3,
      "componentType": 5125,
      "count": 504,
      "name": "naphopqua/INDICES",
      "type": "SCALAR"
    }
  ],
  "asset": {
    "copyright": "Copyright (c) 2018-2020 Chukong Technologies Inc.",
    "generator": "FBX-glTF-conv",
    "version": "2.0"
  },
  "bufferViews": [
    {
      "buffer": 0,
      "byteLength": 33856,
      "byteStride": 32,
      "name": "hopqua",
      "target": 34962
    },
    {
      "buffer": 0,
      "byteLength": 12036,
      "byteOffset": 33856
    },
    {
      "buffer": 0,
      "byteLength": 7744,
      "byteOffset": 45892,
      "byteStride": 32,
      "name": "naphopqua",
      "target": 34962
    },
    {
      "buffer": 0,
      "byteLength": 2016,
      "byteOffset": 53636
    }
  ],
  "buffers": [
    {
      "byteLength": 55652,
      "uri": "out.bin"
    }
  ],
  "extras": {
    "FBX-glTF-conv": {
      "animationFrameRate": 30.0
    }
  },
  "images": [
    {
      "extras": {
        "FBX-glTF-conv": {
          "fileName": "D:/toan2/squidrun/iteam/baibien/color.jpg",
          "relativeFileName": "D:\\toan2\\squidrun\\iteam\\baibien\\color.jpg"
        }
      },
      "name": "file2",
      "uri": "data:image/png;base64,"
    }
  ],
  "materials": [
    {
      "name": "color1",
      "pbrMetallicRoughness": {
        "baseColorFactor": [
          0.800000011920929,
          0.800000011920929,
          0.800000011920929,
          1.0
        ],
        "baseColorTexture": {
          "index": 0
        }
      }
    }
  ],
  "meshes": [
    {
      "name": "hopqua",
      "primitives": [
        {
          "attributes": {
            "NORMAL": 1,
            "POSITION": 0,
            "TEXCOORD_0": 2
          },
          "indices": 3,
          "material": 0
        }
      ]
    },
    {
      "name": "naphopqua",
      "primitives": [
        {
          "attributes": {
            "NORMAL": 5,
            "POSITION": 4,
            "TEXCOORD_0": 6
          },
          "indices": 7,
          "material": 0
        }
      ]
    }
  ],
  "nodes": [
    {
      "children": [
        1,
        2
      ],
      "name": "qua"
    },
    {
      "mesh": 0,
      "name": "hopqua"
    },
    {
      "mesh": 1,
      "name": "naphopqua"
    }
  ],
  "samplers": [
    {}
  ],
  "scenes": [
    {
      "nodes": [
        0
      ]
    }
  ],
  "textures": [
    {
      "name": "file2",
      "sampler": 0,
      "source": 0
    }
  ]
}