{
  "accessors": [
    {
      "bufferView": 0,
      "componentType": 5126,
      "count": 584,
      "max": [
        0.0026912526227533817,
        0.044749096035957336,
        0.025041623041033745
      ],
      "min": [
        -0.0026912526227533817,
        -0.04474923759698868,
        -4.637772144633345e-05
      ],
      "name": "Circle/POSITION",
      "type": "VEC3"
    },
    {
      "bufferView": 0,
      "byteOffset": 12,
      "componentType": 5126,
      "count": 584,
      "name": "Circle/NORMAL",
      "type": "VEC3"
    },
    {
      "bufferView": 0,
      "byteOffset": 24,
      "componentType": 5126,
      "count": 584,
      "name": "Circle/TEXCOORD_0",
      "type": "VEC2"
    },
    {
      "bufferView": 1,
      "componentType": 5125,
      "count": 1704,
      "name": "Circle/INDICES",
      "type": "SCALAR"
    },
    {
      "bufferView": 2,
      "componentType": 5126,
      "count": 98,
      "max": [
        0.0021000003907829523,
        0.044264912605285645,
        0.0021000022534281015
      ],
      "min": [
        -0.0021000003907829523,
        -0.044264912605285645,
        -0.0021000022534281015
      ],
      "name": "Cylinder/POSITION",
      "type": "VEC3"
    },
    {
      "bufferView": 2,
      "byteOffset": 12,
      "componentType": 5126,
      "count": 98,
      "name": "Cylinder/NORMAL",
      "type": "VEC3"
    },
    {
      "bufferView": 2,
      "byteOffset": 24,
      "componentType": 5126,
      "count": 98,
      "name": "Cylinder/TEXCOORD_0",
      "type": "VEC2"
    },
    {
      "bufferView": 3,
      "componentType": 5125,
      "count": 276,
      "name": "Cylinder/INDICES",
      "type": "SCALAR"
    },
    {
      "bufferView": 4,
      "componentType": 5126,
      "count": 208,
      "max": [
        0.002878856612369418,
        0.002899999264627695,
        0.0011450191959738731
      ],
      "min": [
        -0.0028788554482162,
        -0.0029000011272728443,
        -0.0011450175661593676
      ],
      "name": "Circle.006/POSITION",
      "type": "VEC3"
    },
    {
      "bufferView": 4,
      "byteOffset": 12,
      "componentType": 5126,
      "count": 208,
      "name": "Circle.006/NORMAL",
      "type": "VEC3"
    },
    {
      "bufferView": 4,
      "byteOffset": 24,
      "componentType": 5126,
      "count": 208,
      "name": "Circle.006/TEXCOORD_0",
      "type": "VEC2"
    },
    {
      "bufferView": 5,
      "componentType": 5125,
      "count": 624,
      "name": "Circle.006/INDICES",
      "type": "SCALAR"
    },
    {
      "bufferView": 6,
      "componentType": 5126,
      "count": 24,
      "max": [
        0.00043438441934995353,
        0.011224048212170601,
        -0.0004071605217177421
      ],
      "min": [
        -0.0004343850596342236,
        0.0023122241254895926,
        -0.0018647334072738886
      ],
      "name": "Circle.007/POSITION",
      "type": "VEC3"
    },
    {
      "bufferView": 6,
      "byteOffset": 12,
      "componentType": 5126,
      "count": 24,
      "name": "Circle.007/NORMAL",
      "type": "VEC3"
    },
    {
      "bufferView": 6,
      "byteOffset": 24,
      "componentType": 5126,
      "count": 24,
      "name": "Circle.007/TEXCOORD_0",
      "type": "VEC2"
    },
    {
      "bufferView": 7,
      "componentType": 5125,
      "count": 36,
      "name": "Circle.007/INDICES",
      "type": "SCALAR"
    },
    {
      "bufferView": 8,
      "componentType": 5126,
      "count": 181,
      "max": [
        0.0013680629199370742,
        0.009389558807015419,
        0.005340284667909145
      ],
      "min": [
        -0.0013680629199370742,
        -0.009389558807015419,
        -0.005340284667909145
      ],
      "name": "Cube.001/POSITION",
      "type": "VEC3"
    },
    {
      "bufferView": 8,
      "byteOffset": 12,
      "componentType": 5126,
      "count": 181,
      "name": "Cube.001/NORMAL",
      "type": "VEC3"
    },
    {
      "bufferView": 8,
      "byteOffset": 24,
      "componentType": 5126,
      "count": 181,
      "name": "Cube.001/TEXCOORD_0",
      "type": "VEC2"
    },
    {
      "bufferView": 9,
      "componentType": 5125,
      "count": 564,
      "name": "Cube.001/INDICES",
      "type": "SCALAR"
    },
    {
      "bufferView": 10,
      "componentType": 5126,
      "count": 208,
      "max": [
        0.002878856612369418,
        0.002899999264627695,
        0.0011450191959738731
      ],
      "min": [
        -0.0028788554482162,
        -0.0029000011272728443,
        -0.0011450175661593676
      ],
      "name": "Circle.008/POSITION",
      "type": "VEC3"
    },
    {
      "bufferView": 10,
      "byteOffset": 12,
      "componentType": 5126,
      "count": 208,
      "name": "Circle.008/NORMAL",
      "type": "VEC3"
    },
    {
      "bufferView": 10,
      "byteOffset": 24,
      "componentType": 5126,
      "count": 208,
      "name": "Circle.008/TEXCOORD_0",
      "type": "VEC2"
    },
    {
      "bufferView": 11,
      "componentType": 5125,
      "count": 624,
      "name": "Circle.008/INDICES",
      "type": "SCALAR"
    },
    {
      "bufferView": 12,
      "componentType": 5126,
      "count": 24,
      "max": [
        0.00043438441934995353,
        0.011224048212170601,
        -0.0004071605217177421
      ],
      "min": [
        -0.0004343850596342236,
        0.0023122241254895926,
        -0.0018647334072738886
      ],
      "name": "Circle.009/POSITION",
      "type": "VEC3"
    },
    {
      "bufferView": 12,
      "byteOffset": 12,
      "componentType": 5126,
      "count": 24,
      "name": "Circle.009/NORMAL",
      "type": "VEC3"
    },
    {
      "bufferView": 12,
      "byteOffset": 24,
      "componentType": 5126,
      "count": 24,
      "name": "Circle.009/TEXCOORD_0",
      "type": "VEC2"
    },
    {
      "bufferView": 13,
      "componentType": 5125,
      "count": 36,
      "name": "Circle.009/INDICES",
      "type": "SCALAR"
    },
    {
      "bufferView": 14,
      "componentType": 5126,
      "count": 181,
      "max": [
        0.0013680629199370742,
        0.009389558807015419,
        0.005340284667909145
      ],
      "min": [
        -0.0013680629199370742,
        -0.009389558807015419,
        -0.005340284667909145
      ],
      "name": "Cube.003/POSITION",
      "type": "VEC3"
    },
    {
      "bufferView": 14,
      "byteOffset": 12,
      "componentType": 5126,
      "count": 181,
      "name": "Cube.003/NORMAL",
      "type": "VEC3"
    },
    {
      "bufferView": 14,
      "byteOffset": 24,
      "componentType": 5126,
      "count": 181,
      "name": "Cube.003/TEXCOORD_0",
      "type": "VEC2"
    },
    {
      "bufferView": 15,
      "componentType": 5125,
      "count": 564,
      "name": "Cube.003/INDICES",
      "type": "SCALAR"
    }
  ],
  "asset": {
    "copyright": "Copyright (c) 2018-2020 Chukong Technologies Inc.",
    "generator": "FBX-glTF-conv",
    "version": "2.0"
  },
  "bufferViews": [
    {
      "buffer": 0,
      "byteLength": 18688,
      "byteStride": 32,
      "name": "Circle",
      "target": 34962
    },
    {
      "buffer": 0,
      "byteLength": 6816,
      "byteOffset": 18688
    },
    {
      "buffer": 0,
      "byteLength": 3136,
      "byteOffset": 25504,
      "byteStride": 32,
      "name": "Cylinder",
      "target": 34962
    },
    {
      "buffer": 0,
      "byteLength": 1104,
      "byteOffset": 28640
    },
    {
      "buffer": 0,
      "byteLength": 6656,
      "byteOffset": 29744,
      "byteStride": 32,
      "name": "Circle.006",
      "target": 34962
    },
    {
      "buffer": 0,
      "byteLength": 2496,
      "byteOffset": 36400
    },
    {
      "buffer": 0,
      "byteLength": 768,
      "byteOffset": 38896,
      "byteStride": 32,
      "name": "Circle.007",
      "target": 34962
    },
    {
      "buffer": 0,
      "byteLength": 144,
      "byteOffset": 39664
    },
    {
      "buffer": 0,
      "byteLength": 5792,
      "byteOffset": 39808,
      "byteStride": 32,
      "name": "Cube.001",
      "target": 34962
    },
    {
      "buffer": 0,
      "byteLength": 2256,
      "byteOffset": 45600
    },
    {
      "buffer": 0,
      "byteLength": 6656,
      "byteOffset": 47856,
      "byteStride": 32,
      "name": "Circle.008",
      "target": 34962
    },
    {
      "buffer": 0,
      "byteLength": 2496,
      "byteOffset": 54512
    },
    {
      "buffer": 0,
      "byteLength": 768,
      "byteOffset": 57008,
      "byteStride": 32,
      "name": "Circle.009",
      "target": 34962
    },
    {
      "buffer": 0,
      "byteLength": 144,
      "byteOffset": 57776
    },
    {
      "buffer": 0,
      "byteLength": 5792,
      "byteOffset": 57920,
      "byteStride": 32,
      "name": "Cube.003",
      "target": 34962
    },
    {
      "buffer": 0,
      "byteLength": 2256,
      "byteOffset": 63712
    }
  ],
  "buffers": [
    {
      "byteLength": 65968,
      "uri": "out.bin"
    }
  ],
  "extras": {
    "FBX-glTF-conv": {
      "animationFrameRate": 24.0
    }
  },
  "materials": [
    {
      "name": "Legs-Shoulder-Hand",
      "pbrMetallicRoughness": {
        "baseColorFactor": [
          0.08888347446918488,
          0.0041106692515313625,
          0.5287832617759705,
          1.0
        ],
        "metallicFactor": 0.4000000059604645,
        "roughnessFactor": 0.27216553688049316
      }
    },
    {
      "name": "Body-Arm",
      "pbrMetallicRoughness": {
        "baseColorFactor": [
          0.8000000715255737,
          0.40401846170425415,
          0.016786780208349228,
          1.0
        ],
        "metallicFactor": 0.4000000059604645,
        "roughnessFactor": 0.27216553688049316
      }
    }
  ],
  "meshes": [
    {
      "name": "Circle",
      "primitives": [
        {
          "attributes": {
            "NORMAL": 1,
            "POSITION": 0,
            "TEXCOORD_0": 2
          },
          "indices": 3,
          "material": 0
        }
      ]
    },
    {
      "name": "Cylinder",
      "primitives": [
        {
          "attributes": {
            "NORMAL": 5,
            "POSITION": 4,
            "TEXCOORD_0": 6
          },
          "indices": 7,
          "material": 1
        }
      ]
    },
    {
      "name": "Circle.006",
      "primitives": [
        {
          "attributes": {
            "NORMAL": 9,
            "POSITION": 8,
            "TEXCOORD_0": 10
          },
          "indices": 11,
          "material": 0
        }
      ]
    },
    {
      "name": "Circle.007",
      "primitives": [
        {
          "attributes": {
            "NORMAL": 13,
            "POSITION": 12,
            "TEXCOORD_0": 14
          },
          "indices": 15,
          "material": 1
        }
      ]
    },
    {
      "name": "Cube.001",
      "primitives": [
        {
          "attributes": {
            "NORMAL": 17,
            "POSITION": 16,
            "TEXCOORD_0": 18
          },
          "indices": 19,
          "material": 0
        }
      ]
    },
    {
      "name": "Circle.008",
      "primitives": [
        {
          "attributes": {
            "NORMAL": 21,
            "POSITION": 20,
            "TEXCOORD_0": 22
          },
          "indices": 23,
          "material": 0
        }
      ]
    },
    {
      "name": "Circle.009",
      "primitives": [
        {
          "attributes": {
            "NORMAL": 25,
            "POSITION": 24,
            "TEXCOORD_0": 26
          },
          "indices": 27,
          "material": 1
        }
      ]
    },
    {
      "name": "Cube.003",
      "primitives": [
        {
          "attributes": {
            "NORMAL": 29,
            "POSITION": 28,
            "TEXCOORD_0": 30
          },
          "indices": 31,
          "material": 0
        }
      ]
    }
  ],
  "nodes": [
    {
      "children": [
        1
      ],
      "mesh": 0,
      "name": "Legs",
      "rotation": [
        -0.7071068286895752,
        0.0,
        0.0,
        0.7071067094802856
      ],
      "scale": [
        100.0,
        100.0,
        100.0
      ]
    },
    {
      "children": [
        2,
        5
      ],
      "mesh": 1,
      "name": "Body",
      "translation": [
        0.0,
        4.6324730647029355e-05,
        0.0223070215433836
      ]
    },
    {
      "children": [
        3
      ],
      "mesh": 2,
      "name": "Shoulder_L",
      "rotation": [
        0.7071068286895752,
        0.0,
        0.0,
        0.7071067094802856
      ],
      "scale": [
        0.9290902018547058,
        0.9290902018547058,
        0.9290902018547058
      ],
      "translation": [
        -1.7771574489788833e-10,
        -0.017529336735606194,
        4.153490226599388e-05
      ]
    },
    {
      "children": [
        4
      ],
      "mesh": 3,
      "name": "Arm_L",
      "scale": [
        1.0000004768371582,
        1.0000004768371582,
        1.0000004768371582
      ],
      "translation": [
        1.9127929795637044e-10,
        5.636469069258965e-09,
        0.0011450231540948153
      ]
    },
    {
      "mesh": 4,
      "name": "Hand_L",
      "rotation": [
        -0.7071068286895752,
        0.0,
        0.0,
        0.7071067094802856
      ],
      "scale": [
        1.0763218402862549,
        1.0763218402862549,
        1.0763218402862549
      ],
      "translation": [
        4.092363451693899e-16,
        0.016510235145688057,
        -0.0011460494715720415
      ]
    },
    {
      "children": [
        6
      ],
      "mesh": 5,
      "name": "Shoulder_R",
      "rotation": [
        -1.3767878215276141e-07,
        0.7071068286895752,
        -0.7071067690849304,
        -1.376787679419067e-07
      ],
      "scale": [
        0.9290902018547058,
        0.9290902018547058,
        0.9290902018547058
      ],
      "translation": [
        1.7771538407540532e-10,
        0.015075590461492538,
        4.153490226599388e-05
      ]
    },
    {
      "children": [
        7
      ],
      "mesh": 6,
      "name": "Arm_R",
      "scale": [
        1.0000004768371582,
        1.0000004768371582,
        1.0000004768371582
      ],
      "translation": [
        1.9128014450142672e-10,
        -6.0101963406111736e-09,
        0.001145015936344862
      ]
    },
    {
      "mesh": 7,
      "name": "Hand_R",
      "rotation": [
        -0.7071068286895752,
        -1.8672094239161573e-14,
        1.8672095933227467e-14,
        0.7071067094802856
      ],
      "scale": [
        1.0763218402862549,
        1.0763218402862549,
        1.0763218402862549
      ],
      "translation": [
        -1.7053025277077578e-15,
        0.016510235145688057,
        -0.0011460530804470181
      ]
    }
  ],
  "scenes": [
    {
      "name": "Scene",
      "nodes": [
        0
      ]
    }
  ]
}