{
  "accessors": [
    {
      "bufferView": 0,
      "componentType": 5126,
      "count": 907,
      "max": [
        1.8549622297286987,
        0.26661333441734314,
        0.14993485808372498
      ],
      "min": [
        -0.9257694482803345,
        -0.7788584232330322,
        -0.2057315707206726
      ],
      "name": "Cube.014/POSITION",
      "type": "VEC3"
    },
    {
      "bufferView": 0,
      "byteOffset": 12,
      "componentType": 5126,
      "count": 907,
      "name": "Cube.014/NORMAL",
      "type": "VEC3"
    },
    {
      "bufferView": 0,
      "byteOffset": 24,
      "componentType": 5126,
      "count": 907,
      "name": "Cube.014/TEXCOORD_0",
      "type": "VEC2"
    },
    {
      "bufferView": 1,
      "componentType": 5125,
      "count": 3420,
      "name": "Cube.014/INDICES",
      "type": "SCALAR"
    }
  ],
  "asset": {
    "copyright": "Copyright (c) 2018-2020 Chukong Technologies Inc.",
    "generator": "FBX-glTF-conv",
    "version": "2.0"
  },
  "bufferViews": [
    {
      "buffer": 0,
      "byteLength": 29024,
      "byteStride": 32,
      "name": "Cube.014",
      "target": 34962
    },
    {
      "buffer": 0,
      "byteLength": 13680,
      "byteOffset": 29024
    }
  ],
  "buffers": [
    {
      "byteLength": 42704,
      "uri": "out.bin"
    }
  ],
  "extras": {
    "FBX-glTF-conv": {
      "animationFrameRate": 24.0
    }
  },
  "meshes": [
    {
      "name": "Cube.014",
      "primitives": [
        {
          "attributes": {
            "NORMAL": 1,
            "POSITION": 0,
            "TEXCOORD_0": 2
          },
          "indices": 3
        }
      ]
    }
  ],
  "nodes": [
    {
      "mesh": 0,
      "name": "Cube.002",
      "translation": [
        -0.9906790256500244,
        0.21807032823562622,
        0.0
      ]
    }
  ],
  "scenes": [
    {
      "name": "Scene",
      "nodes": [
        0
      ]
    }
  ]
}