{
  "accessors": [
    {
      "bufferView": 0,
      "componentType": 5126,
      "count": 3348,
      "max": [
        0.7024984955787659,
        1.2295821905136108,
        1.6907957792282104
      ],
      "min": [
        -0.7024984955787659,
        0.1758294552564621,
        -1.7781038284301758
      ],
      "name": "Police_1/POSITION",
      "type": "VEC3"
    },
    {
      "bufferView": 0,
      "byteOffset": 12,
      "componentType": 5126,
      "count": 3348,
      "name": "Police_1/NORMAL",
      "type": "VEC3"
    },
    {
      "bufferView": 0,
      "byteOffset": 24,
      "componentType": 5126,
      "count": 3348,
      "name": "Police_1/TEXCOORD_0",
      "type": "VEC2"
    },
    {
      "bufferView": 1,
      "componentType": 5125,
      "count": 9510,
      "name": "Police_1/INDICES",
      "type": "SCALAR"
    },
    {
      "bufferView": 2,
      "componentType": 5126,
      "count": 135,
      "max": [
        0.0929965004324913,
        0.26610666513442993,
        0.2688414752483368
      ],
      "min": [
        -0.09926439076662064,
        -0.2661065459251404,
        -0.26884156465530396
      ],
      "name": "Wheel_BL.004/POSITION",
      "type": "VEC3"
    },
    {
      "bufferView": 2,
      "byteOffset": 12,
      "componentType": 5126,
      "count": 135,
      "name": "Wheel_BL.004/NORMAL",
      "type": "VEC3"
    },
    {
      "bufferView": 2,
      "byteOffset": 24,
      "componentType": 5126,
      "count": 135,
      "name": "Wheel_BL.004/TEXCOORD_0",
      "type": "VEC2"
    },
    {
      "bufferView": 3,
      "componentType": 5125,
      "count": 384,
      "name": "Wheel_BL.004/INDICES",
      "type": "SCALAR"
    },
    {
      "bufferView": 4,
      "componentType": 5126,
      "count": 135,
      "max": [
        0.09926410764455795,
        0.2661064863204956,
        0.2688422203063965
      ],
      "min": [
        -0.09299633651971817,
        -0.26610657572746277,
        -0.2688421607017517
      ],
      "name": "Wheel_BR.041/POSITION",
      "type": "VEC3"
    },
    {
      "bufferView": 4,
      "byteOffset": 12,
      "componentType": 5126,
      "count": 135,
      "name": "Wheel_BR.041/NORMAL",
      "type": "VEC3"
    },
    {
      "bufferView": 4,
      "byteOffset": 24,
      "componentType": 5126,
      "count": 135,
      "name": "Wheel_BR.041/TEXCOORD_0",
      "type": "VEC2"
    },
    {
      "bufferView": 5,
      "componentType": 5125,
      "count": 384,
      "name": "Wheel_BR.041/INDICES",
      "type": "SCALAR"
    },
    {
      "bufferView": 6,
      "componentType": 5126,
      "count": 135,
      "max": [
        0.0929965004324913,
        0.26610660552978516,
        0.2688414752483368
      ],
      "min": [
        -0.09926439076662064,
        -0.26610666513442993,
        -0.26884156465530396
      ],
      "name": "Wheel_FL.004/POSITION",
      "type": "VEC3"
    },
    {
      "bufferView": 6,
      "byteOffset": 12,
      "componentType": 5126,
      "count": 135,
      "name": "Wheel_FL.004/NORMAL",
      "type": "VEC3"
    },
    {
      "bufferView": 6,
      "byteOffset": 24,
      "componentType": 5126,
      "count": 135,
      "name": "Wheel_FL.004/TEXCOORD_0",
      "type": "VEC2"
    },
    {
      "bufferView": 7,
      "componentType": 5125,
      "count": 384,
      "name": "Wheel_FL.004/INDICES",
      "type": "SCALAR"
    },
    {
      "bufferView": 8,
      "componentType": 5126,
      "count": 135,
      "max": [
        0.09926410764455795,
        0.26610657572746277,
        0.2688422203063965
      ],
      "min": [
        -0.09299633651971817,
        -0.2661064863204956,
        -0.2688421607017517
      ],
      "name": "Wheel_FR.004/POSITION",
      "type": "VEC3"
    },
    {
      "bufferView": 8,
      "byteOffset": 12,
      "componentType": 5126,
      "count": 135,
      "name": "Wheel_FR.004/NORMAL",
      "type": "VEC3"
    },
    {
      "bufferView": 8,
      "byteOffset": 24,
      "componentType": 5126,
      "count": 135,
      "name": "Wheel_FR.004/TEXCOORD_0",
      "type": "VEC2"
    },
    {
      "bufferView": 9,
      "componentType": 5125,
      "count": 384,
      "name": "Wheel_FR.004/INDICES",
      "type": "SCALAR"
    },
    {
      "bufferView": 10,
      "componentType": 5126,
      "count": 141,
      "max": [
        0.06486766785383224,
        0.4492124617099762,
        0.03155795857310295
      ],
      "min": [
        -0.15346430242061615,
        -0.4945243299007416,
        -0.9541561007499695
      ],
      "name": "Police_1.002/POSITION",
      "type": "VEC3"
    },
    {
      "bufferView": 10,
      "byteOffset": 12,
      "componentType": 5126,
      "count": 141,
      "name": "Police_1.002/NORMAL",
      "type": "VEC3"
    },
    {
      "bufferView": 10,
      "byteOffset": 24,
      "componentType": 5126,
      "count": 141,
      "name": "Police_1.002/TEXCOORD_0",
      "type": "VEC2"
    },
    {
      "bufferView": 11,
      "componentType": 5125,
      "count": 333,
      "name": "Police_1.002/INDICES",
      "type": "SCALAR"
    }
  ],
  "asset": {
    "copyright": "Copyright (c) 2018-2020 Chukong Technologies Inc.",
    "generator": "FBX-glTF-conv",
    "version": "2.0"
  },
  "bufferViews": [
    {
      "buffer": 0,
      "byteLength": 107136,
      "byteStride": 32,
      "name": "Police_1",
      "target": 34962
    },
    {
      "buffer": 0,
      "byteLength": 38040,
      "byteOffset": 107136
    },
    {
      "buffer": 0,
      "byteLength": 4320,
      "byteOffset": 145176,
      "byteStride": 32,
      "name": "Wheel_BL.004",
      "target": 34962
    },
    {
      "buffer": 0,
      "byteLength": 1536,
      "byteOffset": 149496
    },
    {
      "buffer": 0,
      "byteLength": 4320,
      "byteOffset": 151032,
      "byteStride": 32,
      "name": "Wheel_BR.041",
      "target": 34962
    },
    {
      "buffer": 0,
      "byteLength": 1536,
      "byteOffset": 155352
    },
    {
      "buffer": 0,
      "byteLength": 4320,
      "byteOffset": 156888,
      "byteStride": 32,
      "name": "Wheel_FL.004",
      "target": 34962
    },
    {
      "buffer": 0,
      "byteLength": 1536,
      "byteOffset": 161208
    },
    {
      "buffer": 0,
      "byteLength": 4320,
      "byteOffset": 162744,
      "byteStride": 32,
      "name": "Wheel_FR.004",
      "target": 34962
    },
    {
      "buffer": 0,
      "byteLength": 1536,
      "byteOffset": 167064
    },
    {
      "buffer": 0,
      "byteLength": 4512,
      "byteOffset": 168600,
      "byteStride": 32,
      "name": "Police_1.002",
      "target": 34962
    },
    {
      "buffer": 0,
      "byteLength": 1332,
      "byteOffset": 173112
    }
  ],
  "buffers": [
    {
      "byteLength": 174444,
      "uri": "out.bin"
    }
  ],
  "extras": {
    "FBX-glTF-conv": {
      "animationFrameRate": 30.0
    }
  },
  "meshes": [
    {
      "name": "Police_1",
      "primitives": [
        {
          "attributes": {
            "NORMAL": 1,
            "POSITION": 0,
            "TEXCOORD_0": 2
          },
          "indices": 3
        }
      ]
    },
    {
      "name": "Wheel_BL.004",
      "primitives": [
        {
          "attributes": {
            "NORMAL": 5,
            "POSITION": 4,
            "TEXCOORD_0": 6
          },
          "indices": 7
        }
      ]
    },
    {
      "name": "Wheel_BR.041",
      "primitives": [
        {
          "attributes": {
            "NORMAL": 9,
            "POSITION": 8,
            "TEXCOORD_0": 10
          },
          "indices": 11
        }
      ]
    },
    {
      "name": "Wheel_FL.004",
      "primitives": [
        {
          "attributes": {
            "NORMAL": 13,
            "POSITION": 12,
            "TEXCOORD_0": 14
          },
          "indices": 15
        }
      ]
    },
    {
      "name": "Wheel_FR.004",
      "primitives": [
        {
          "attributes": {
            "NORMAL": 17,
            "POSITION": 16,
            "TEXCOORD_0": 18
          },
          "indices": 19
        }
      ]
    },
    {
      "name": "Police_1.002",
      "primitives": [
        {
          "attributes": {
            "NORMAL": 21,
            "POSITION": 20,
            "TEXCOORD_0": 22
          },
          "indices": 23
        }
      ]
    }
  ],
  "nodes": [
    {
      "children": [
        1,
        2,
        3,
        4,
        5
      ],
      "mesh": 0,
      "name": "Police_1"
    },
    {
      "mesh": 1,
      "name": "Wheel_BL.004",
      "translation": [
        0.5929043292999268,
        0.2660398483276367,
        -0.9621466994285583
      ]
    },
    {
      "mesh": 2,
      "name": "Wheel_BR.041",
      "translation": [
        -0.593505322933197,
        0.2660399079322815,
        -0.9621468782424927
      ]
    },
    {
      "mesh": 3,
      "name": "Wheel_FL.004",
      "translation": [
        0.5929043292999268,
        0.266037255525589,
        1.017076849937439
      ]
    },
    {
      "mesh": 4,
      "name": "Wheel_FR.004",
      "translation": [
        -0.593505322933197,
        0.26603734493255615,
        1.0170767307281494
      ]
    },
    {
      "mesh": 5,
      "name": "Police_1.002",
      "translation": [
        0.6308416724205017,
        0.6861177682876587,
        0.7978291511535645
      ]
    }
  ],
  "scenes": [
    {
      "name": "Scene",
      "nodes": [
        0
      ]
    }
  ]
}