{
  "accessors": [
    {
      "bufferView": 0,
      "componentType": 5126,
      "count": 1205,
      "max": [
        1437.9488525390625,
        1167.38916015625,
        2027.0936279296875
      ],
      "min": [
        -3138.77978515625,
        -782.271728515625,
        -2549.635986328125
      ],
      "name": "skydome2/POSITION",
      "type": "VEC3"
    },
    {
      "bufferView": 0,
      "byteOffset": 12,
      "componentType": 5126,
      "count": 1205,
      "name": "skydome2/NORMAL",
      "type": "VEC3"
    },
    {
      "bufferView": 0,
      "byteOffset": 24,
      "componentType": 5126,
      "count": 1205,
      "name": "skydome2/TEXCOORD_0",
      "type": "VEC2"
    },
    {
      "bufferView": 0,
      "byteOffset": 32,
      "componentType": 5126,
      "count": 1205,
      "name": "skydome2/TEXCOORD_1",
      "type": "VEC2"
    },
    {
      "bufferView": 0,
      "byteOffset": 40,
      "componentType": 5126,
      "count": 1205,
      "name": "skydome2/COLOR_0",
      "type": "VEC4"
    },
    {
      "bufferView": 1,
      "componentType": 5125,
      "count": 6720,
      "name": "skydome2/INDICES",
      "type": "SCALAR"
    }
  ],
  "asset": {
    "copyright": "Copyright (c) 2018-2020 Chukong Technologies Inc.",
    "generator": "FBX-glTF-conv",
    "version": "2.0"
  },
  "bufferViews": [
    {
      "buffer": 0,
      "byteLength": 67480,
      "byteStride": 56,
      "name": "skydome2",
      "target": 34962
    },
    {
      "buffer": 0,
      "byteLength": 26880,
      "byteOffset": 67480
    }
  ],
  "buffers": [
    {
      "byteLength": 94360,
      "uri": "out.bin"
    }
  ],
  "extras": {
    "FBX-glTF-conv": {
      "animationFrameRate": 24.0
    }
  },
  "images": [
    {
      "extras": {
        "FBX-glTF-conv": {
          "fileName": "C:\\Users\\toannt\\Desktop\\tonghop\\sky.png",
          "relativeFileName": "C:\\Users\\toannt\\Desktop\\tonghop\\sky.png"
        }
      },
      "name": "pasted__pasted__DiffuseColor_Texture_4",
      "uri": "data:image/png;base64,"
    }
  ],
  "materials": [
    {
      "alphaMode": "BLEND",
      "name": "sky",
      "pbrMetallicRoughness": {
        "baseColorTexture": {
          "index": 0
        },
        "metallicFactor": 0.4000000059604645,
        "roughnessFactor": 0.30151134729385376
      }
    }
  ],
  "meshes": [
    {
      "name": "skydome2",
      "primitives": [
        {
          "attributes": {
            "COLOR_0": 4,
            "NORMAL": 1,
            "POSITION": 0,
            "TEXCOORD_0": 2,
            "TEXCOORD_1": 3
          },
          "indices": 5,
          "material": 0
        }
      ]
    }
  ],
  "nodes": [
    {
      "mesh": 0,
      "name": "skydome2"
    }
  ],
  "samplers": [
    {}
  ],
  "scenes": [
    {
      "nodes": [
        0
      ]
    }
  ],
  "textures": [
    {
      "name": "pasted__pasted__DiffuseColor_Texture_4",
      "sampler": 0,
      "source": 0
    }
  ]
}