{
  "accessors": [
    {
      "bufferView": 0,
      "componentType": 5126,
      "count": 222,
      "max": [
        0.7091090679168701,
        7.629394360719743e-08,
        -0.04096420109272003
      ],
      "min": [
        -0.3484284579753876,
        -0.7091088891029358,
        -0.10229641199111938
      ],
      "name": "adasd_005/POSITION",
      "type": "VEC3"
    },
    {
      "bufferView": 0,
      "byteOffset": 12,
      "componentType": 5126,
      "count": 222,
      "name": "adasd_005/NORMAL",
      "type": "VEC3"
    },
    {
      "bufferView": 0,
      "byteOffset": 24,
      "componentType": 5126,
      "count": 222,
      "name": "adasd_005/TEXCOORD_0",
      "type": "VEC2"
    },
    {
      "bufferView": 1,
      "componentType": 5125,
      "count": 252,
      "name": "adasd_005/INDICES",
      "type": "SCALAR"
    },
    {
      "bufferView": 2,
      "componentType": 5126,
      "count": 82,
      "max": [
        0.0,
        0.7091090679168701,
        -0.04096420109272003
      ],
      "min": [
        -0.7091089487075806,
        0.15295372903347015,
        -0.10229641199111938
      ],
      "name": "adasd_004/POSITION",
      "type": "VEC3"
    },
    {
      "bufferView": 2,
      "byteOffset": 12,
      "componentType": 5126,
      "count": 82,
      "name": "adasd_004/NORMAL",
      "type": "VEC3"
    },
    {
      "bufferView": 2,
      "byteOffset": 24,
      "componentType": 5126,
      "count": 82,
      "name": "adasd_004/TEXCOORD_0",
      "type": "VEC2"
    },
    {
      "bufferView": 3,
      "componentType": 5125,
      "count": 180,
      "name": "adasd_004/INDICES",
      "type": "SCALAR"
    },
    {
      "bufferView": 4,
      "componentType": 5126,
      "count": 100,
      "max": [
        0.48204663395881653,
        0.5058121085166931,
        -0.04374683275818825
      ],
      "min": [
        -0.48330309987068176,
        -0.41476795077323914,
        -0.10329873859882355
      ],
      "name": "adasd_003/POSITION",
      "type": "VEC3"
    },
    {
      "bufferView": 4,
      "byteOffset": 12,
      "componentType": 5126,
      "count": 100,
      "name": "adasd_003/NORMAL",
      "type": "VEC3"
    },
    {
      "bufferView": 4,
      "byteOffset": 24,
      "componentType": 5126,
      "count": 100,
      "name": "adasd_003/TEXCOORD_0",
      "type": "VEC2"
    },
    {
      "bufferView": 5,
      "componentType": 5125,
      "count": 120,
      "name": "adasd_003/INDICES",
      "type": "SCALAR"
    },
    {
      "bufferView": 6,
      "componentType": 5126,
      "count": 175,
      "max": [
        -0.2388385832309723,
        0.34842854738235474,
        -0.040964193642139435
      ],
      "min": [
        -0.7091089487075806,
        -0.7091088891029358,
        -0.10229641199111938
      ],
      "name": "adasd_002/POSITION",
      "type": "VEC3"
    },
    {
      "bufferView": 6,
      "byteOffset": 12,
      "componentType": 5126,
      "count": 175,
      "name": "adasd_002/NORMAL",
      "type": "VEC3"
    },
    {
      "bufferView": 6,
      "byteOffset": 24,
      "componentType": 5126,
      "count": 175,
      "name": "adasd_002/TEXCOORD_0",
      "type": "VEC2"
    },
    {
      "bufferView": 7,
      "componentType": 5125,
      "count": 192,
      "name": "adasd_002/INDICES",
      "type": "SCALAR"
    },
    {
      "bufferView": 8,
      "componentType": 5126,
      "count": 199,
      "max": [
        0.7091090679168701,
        0.7091090679168701,
        -0.03908302262425423
      ],
      "min": [
        -0.0012553608976304531,
        -0.07738505303859711,
        -0.10429073125123978
      ],
      "name": "adasd_001/POSITION",
      "type": "VEC3"
    },
    {
      "bufferView": 8,
      "byteOffset": 12,
      "componentType": 5126,
      "count": 199,
      "name": "adasd_001/NORMAL",
      "type": "VEC3"
    },
    {
      "bufferView": 8,
      "byteOffset": 24,
      "componentType": 5126,
      "count": 199,
      "name": "adasd_001/TEXCOORD_0",
      "type": "VEC2"
    },
    {
      "bufferView": 9,
      "componentType": 5125,
      "count": 228,
      "name": "adasd_001/INDICES",
      "type": "SCALAR"
    },
    {
      "bufferView": 10,
      "componentType": 5126,
      "count": 2,
      "max": [
        3.3333332538604736
      ],
      "min": [
        0.0
      ],
      "name": "KeoTron_Vo/Trs/Input",
      "type": "SCALAR"
    },
    {
      "bufferView": 11,
      "componentType": 5126,
      "count": 2,
      "name": "KeoTron_Vo/rotation/Output",
      "type": "VEC4"
    }
  ],
  "animations": [
    {
      "channels": [
        {
          "sampler": 0,
          "target": {
            "node": 0,
            "path": "rotation"
          }
        }
      ],
      "name": "Take 001",
      "samplers": [
        {
          "input": 20,
          "output": 21
        }
      ]
    }
  ],
  "asset": {
    "copyright": "Copyright (c) 2018-2020 Chukong Technologies Inc.",
    "generator": "FBX-glTF-conv",
    "version": "2.0"
  },
  "bufferViews": [
    {
      "buffer": 0,
      "byteLength": 7104,
      "byteStride": 32,
      "name": "adasd_005",
      "target": 34962
    },
    {
      "buffer": 0,
      "byteLength": 1008,
      "byteOffset": 7104
    },
    {
      "buffer": 0,
      "byteLength": 2624,
      "byteOffset": 8112,
      "byteStride": 32,
      "name": "adasd_004",
      "target": 34962
    },
    {
      "buffer": 0,
      "byteLength": 720,
      "byteOffset": 10736
    },
    {
      "buffer": 0,
      "byteLength": 3200,
      "byteOffset": 11456,
      "byteStride": 32,
      "name": "adasd_003",
      "target": 34962
    },
    {
      "buffer": 0,
      "byteLength": 480,
      "byteOffset": 14656
    },
    {
      "buffer": 0,
      "byteLength": 5600,
      "byteOffset": 15136,
      "byteStride": 32,
      "name": "adasd_002",
      "target": 34962
    },
    {
      "buffer": 0,
      "byteLength": 768,
      "byteOffset": 20736
    },
    {
      "buffer": 0,
      "byteLength": 6368,
      "byteOffset": 21504,
      "byteStride": 32,
      "name": "adasd_001",
      "target": 34962
    },
    {
      "buffer": 0,
      "byteLength": 912,
      "byteOffset": 27872
    },
    {
      "buffer": 0,
      "byteLength": 8,
      "byteOffset": 28784
    },
    {
      "buffer": 0,
      "byteLength": 32,
      "byteOffset": 28792
    }
  ],
  "buffers": [
    {
      "byteLength": 28824,
      "uri": "out.bin"
    }
  ],
  "extras": {
    "FBX-glTF-conv": {
      "animationFrameRate": 30.0
    }
  },
  "images": [
    {
      "extras": {
        "FBX-glTF-conv": {
          "fileName": "C:\\Users\\toannt\\Downloads\\KEOTEX.jpg",
          "relativeFileName": "KEOTEX.jpg"
        }
      },
      "name": "file5",
      "uri": "data:image/png;base64,"
    }
  ],
  "materials": [
    {
      "name": "keo1",
      "pbrMetallicRoughness": {
        "baseColorFactor": [
          0.800000011920929,
          0.800000011920929,
          0.800000011920929,
          1.0
        ],
        "baseColorTexture": {
          "index": 0
        }
      }
    }
  ],
  "meshes": [
    {
      "name": "adasd_005",
      "primitives": [
        {
          "attributes": {
            "NORMAL": 1,
            "POSITION": 0,
            "TEXCOORD_0": 2
          },
          "indices": 3,
          "material": 0
        }
      ]
    },
    {
      "name": "adasd_004",
      "primitives": [
        {
          "attributes": {
            "NORMAL": 5,
            "POSITION": 4,
            "TEXCOORD_0": 6
          },
          "indices": 7,
          "material": 0
        }
      ]
    },
    {
      "name": "adasd_003",
      "primitives": [
        {
          "attributes": {
            "NORMAL": 9,
            "POSITION": 8,
            "TEXCOORD_0": 10
          },
          "indices": 11,
          "material": 0
        }
      ]
    },
    {
      "name": "adasd_002",
      "primitives": [
        {
          "attributes": {
            "NORMAL": 13,
            "POSITION": 12,
            "TEXCOORD_0": 14
          },
          "indices": 15,
          "material": 0
        }
      ]
    },
    {
      "name": "adasd_001",
      "primitives": [
        {
          "attributes": {
            "NORMAL": 17,
            "POSITION": 16,
            "TEXCOORD_0": 18
          },
          "indices": 19,
          "material": 0
        }
      ]
    }
  ],
  "nodes": [
    {
      "children": [
        1,
        2,
        3,
        4,
        5
      ],
      "name": "KeoTron_Vo",
      "rotation": [
        -0.7071067690849304,
        -0.0,
        0.0,
        0.7071067690849304
      ],
      "translation": [
        0.0,
        0.10258026421070099,
        7.629394360719743e-08
      ]
    },
    {
      "mesh": 0,
      "name": "adasd_005"
    },
    {
      "mesh": 1,
      "name": "adasd_004"
    },
    {
      "mesh": 2,
      "name": "adasd_003"
    },
    {
      "mesh": 3,
      "name": "adasd_002"
    },
    {
      "mesh": 4,
      "name": "adasd_001"
    }
  ],
  "samplers": [
    {}
  ],
  "scenes": [
    {
      "nodes": [
        0
      ]
    }
  ],
  "textures": [
    {
      "name": "file5",
      "sampler": 0,
      "source": 0
    }
  ]
}