{
  "accessors": [
    {
      "bufferView": 0,
      "componentType": 5126,
      "count": 44,
      "max": [
        -0.32820042967796326,
        1.6063953638076782,
        4.359836578369141
      ],
      "min": [
        -5.232391834259033,
        -0.03243061900138855,
        -4.531385898590088
      ],
      "name": "polySurface8/POSITION",
      "type": "VEC3"
    },
    {
      "bufferView": 0,
      "byteOffset": 12,
      "componentType": 5126,
      "count": 44,
      "name": "polySurface8/NORMAL",
      "type": "VEC3"
    },
    {
      "bufferView": 0,
      "byteOffset": 24,
      "componentType": 5126,
      "count": 44,
      "name": "polySurface8/TEXCOORD_0",
      "type": "VEC2"
    },
    {
      "bufferView": 1,
      "componentType": 5125,
      "count": 66,
      "name": "polySurface8/INDICES",
      "type": "SCALAR"
    },
    {
      "bufferView": 2,
      "componentType": 5126,
      "count": 42,
      "max": [
        5.685527324676514,
        1.600341796875,
        6.609143257141113
      ],
      "min": [
        -4.897045135498047,
        -0.026371384039521217,
        3.1704251766204834
      ],
      "name": "polySurface5/POSITION",
      "type": "VEC3"
    },
    {
      "bufferView": 2,
      "byteOffset": 12,
      "componentType": 5126,
      "count": 42,
      "name": "polySurface5/NORMAL",
      "type": "VEC3"
    },
    {
      "bufferView": 2,
      "byteOffset": 24,
      "componentType": 5126,
      "count": 42,
      "name": "polySurface5/TEXCOORD_0",
      "type": "VEC2"
    },
    {
      "bufferView": 3,
      "componentType": 5125,
      "count": 66,
      "name": "polySurface5/INDICES",
      "type": "SCALAR"
    },
    {
      "bufferView": 4,
      "componentType": 5126,
      "count": 32,
      "max": [
        5.366875171661377,
        1.600341796875,
        -3.7562379837036133
      ],
      "min": [
        -1.4556443691253662,
        -0.026371384039521217,
        -6.609142303466797
      ],
      "name": "polySurface2/POSITION",
      "type": "VEC3"
    },
    {
      "bufferView": 4,
      "byteOffset": 12,
      "componentType": 5126,
      "count": 32,
      "name": "polySurface2/NORMAL",
      "type": "VEC3"
    },
    {
      "bufferView": 4,
      "byteOffset": 24,
      "componentType": 5126,
      "count": 32,
      "name": "polySurface2/TEXCOORD_0",
      "type": "VEC2"
    },
    {
      "bufferView": 5,
      "componentType": 5125,
      "count": 48,
      "name": "polySurface2/INDICES",
      "type": "SCALAR"
    },
    {
      "bufferView": 6,
      "componentType": 5126,
      "count": 36,
      "max": [
        -5.703107833862305,
        1.600341796875,
        2.688415765762329
      ],
      "min": [
        -7.631580352783203,
        -0.026492111384868622,
        -2.776862382888794
      ],
      "name": "polySurface4/POSITION",
      "type": "VEC3"
    },
    {
      "bufferView": 6,
      "byteOffset": 12,
      "componentType": 5126,
      "count": 36,
      "name": "polySurface4/NORMAL",
      "type": "VEC3"
    },
    {
      "bufferView": 6,
      "byteOffset": 24,
      "componentType": 5126,
      "count": 36,
      "name": "polySurface4/TEXCOORD_0",
      "type": "VEC2"
    },
    {
      "bufferView": 7,
      "componentType": 5125,
      "count": 60,
      "name": "polySurface4/INDICES",
      "type": "SCALAR"
    },
    {
      "bufferView": 8,
      "componentType": 5126,
      "count": 70,
      "max": [
        10.222857475280762,
        1.5878164768218994,
        8.853255271911621
      ],
      "min": [
        -10.222857475280762,
        -0.013851609081029892,
        -8.853256225585938
      ],
      "name": "polySurface1/POSITION",
      "type": "VEC3"
    },
    {
      "bufferView": 8,
      "byteOffset": 12,
      "componentType": 5126,
      "count": 70,
      "name": "polySurface1/NORMAL",
      "type": "VEC3"
    },
    {
      "bufferView": 8,
      "byteOffset": 24,
      "componentType": 5126,
      "count": 70,
      "name": "polySurface1/TEXCOORD_0",
      "type": "VEC2"
    },
    {
      "bufferView": 9,
      "componentType": 5125,
      "count": 108,
      "name": "polySurface1/INDICES",
      "type": "SCALAR"
    },
    {
      "bufferView": 10,
      "componentType": 5126,
      "count": 32,
      "max": [
        -2.9977059364318848,
        1.600341796875,
        -3.730177640914917
      ],
      "min": [
        -5.381224155426025,
        -0.026371384039521217,
        -6.6091437339782715
      ],
      "name": "polySurface3/POSITION",
      "type": "VEC3"
    },
    {
      "bufferView": 10,
      "byteOffset": 12,
      "componentType": 5126,
      "count": 32,
      "name": "polySurface3/NORMAL",
      "type": "VEC3"
    },
    {
      "bufferView": 10,
      "byteOffset": 24,
      "componentType": 5126,
      "count": 32,
      "name": "polySurface3/TEXCOORD_0",
      "type": "VEC2"
    },
    {
      "bufferView": 11,
      "componentType": 5125,
      "count": 48,
      "name": "polySurface3/INDICES",
      "type": "SCALAR"
    },
    {
      "bufferView": 12,
      "componentType": 5126,
      "count": 12,
      "max": [
        -3.315321683883667,
        1.5627284049987793,
        -2.8887057304382324
      ],
      "min": [
        -5.063174724578857,
        -1.1913893871451364e-07,
        -4.1582112312316895
      ],
      "name": "polySurface12/POSITION",
      "type": "VEC3"
    },
    {
      "bufferView": 12,
      "byteOffset": 12,
      "componentType": 5126,
      "count": 12,
      "name": "polySurface12/NORMAL",
      "type": "VEC3"
    },
    {
      "bufferView": 12,
      "byteOffset": 24,
      "componentType": 5126,
      "count": 12,
      "name": "polySurface12/TEXCOORD_0",
      "type": "VEC2"
    },
    {
      "bufferView": 13,
      "componentType": 5125,
      "count": 18,
      "name": "polySurface12/INDICES",
      "type": "SCALAR"
    },
    {
      "bufferView": 14,
      "componentType": 5126,
      "count": 32,
      "max": [
        7.631580352783203,
        1.600341796875,
        1.9827429056167603
      ],
      "min": [
        5.742516040802002,
        -0.026371384039521217,
        -2.7117624282836914
      ],
      "name": "polySurface6/POSITION",
      "type": "VEC3"
    },
    {
      "bufferView": 14,
      "byteOffset": 12,
      "componentType": 5126,
      "count": 32,
      "name": "polySurface6/NORMAL",
      "type": "VEC3"
    },
    {
      "bufferView": 14,
      "byteOffset": 24,
      "componentType": 5126,
      "count": 32,
      "name": "polySurface6/TEXCOORD_0",
      "type": "VEC2"
    },
    {
      "bufferView": 15,
      "componentType": 5125,
      "count": 48,
      "name": "polySurface6/INDICES",
      "type": "SCALAR"
    },
    {
      "bufferView": 16,
      "componentType": 5126,
      "count": 12,
      "max": [
        7.799510955810547,
        1.5627282857894897,
        -2.365626096725464
      ],
      "min": [
        6.028831958770752,
        1.255694925816897e-08,
        -3.596499443054199
      ],
      "name": "polySurface11/POSITION",
      "type": "VEC3"
    },
    {
      "bufferView": 16,
      "byteOffset": 12,
      "componentType": 5126,
      "count": 12,
      "name": "polySurface11/NORMAL",
      "type": "VEC3"
    },
    {
      "bufferView": 16,
      "byteOffset": 24,
      "componentType": 5126,
      "count": 12,
      "name": "polySurface11/TEXCOORD_0",
      "type": "VEC2"
    },
    {
      "bufferView": 17,
      "componentType": 5125,
      "count": 18,
      "name": "polySurface11/INDICES",
      "type": "SCALAR"
    },
    {
      "bufferView": 18,
      "componentType": 5126,
      "count": 56,
      "max": [
        5.232397079467773,
        1.6063953638076782,
        4.531386375427246
      ],
      "min": [
        -0.781627893447876,
        -0.03243158012628555,
        -4.531383514404297
      ],
      "name": "polySurface7/POSITION",
      "type": "VEC3"
    },
    {
      "bufferView": 18,
      "byteOffset": 12,
      "componentType": 5126,
      "count": 56,
      "name": "polySurface7/NORMAL",
      "type": "VEC3"
    },
    {
      "bufferView": 18,
      "byteOffset": 24,
      "componentType": 5126,
      "count": 56,
      "name": "polySurface7/TEXCOORD_0",
      "type": "VEC2"
    },
    {
      "bufferView": 19,
      "componentType": 5125,
      "count": 84,
      "name": "polySurface7/INDICES",
      "type": "SCALAR"
    },
    {
      "bufferView": 20,
      "componentType": 5126,
      "count": 54,
      "max": [
        1.9844670295715332,
        1.6290528774261475,
        0.7375351786613464
      ],
      "min": [
        -3.0592010021209717,
        -0.16739504039287567,
        -2.6493465900421143
      ],
      "name": "polySurface9/POSITION",
      "type": "VEC3"
    },
    {
      "bufferView": 20,
      "byteOffset": 12,
      "componentType": 5126,
      "count": 54,
      "name": "polySurface9/NORMAL",
      "type": "VEC3"
    },
    {
      "bufferView": 20,
      "byteOffset": 24,
      "componentType": 5126,
      "count": 54,
      "name": "polySurface9/TEXCOORD_0",
      "type": "VEC2"
    },
    {
      "bufferView": 21,
      "componentType": 5125,
      "count": 84,
      "name": "polySurface9/INDICES",
      "type": "SCALAR"
    },
    {
      "bufferView": 22,
      "componentType": 5126,
      "count": 56,
      "max": [
        3.0592010021209717,
        1.6290528774261475,
        2.6493453979492188
      ],
      "min": [
        -1.9036271572113037,
        -0.1366221308708191,
        -0.6280225515365601
      ],
      "name": "polySurface10/POSITION",
      "type": "VEC3"
    },
    {
      "bufferView": 22,
      "byteOffset": 12,
      "componentType": 5126,
      "count": 56,
      "name": "polySurface10/NORMAL",
      "type": "VEC3"
    },
    {
      "bufferView": 22,
      "byteOffset": 24,
      "componentType": 5126,
      "count": 56,
      "name": "polySurface10/TEXCOORD_0",
      "type": "VEC2"
    },
    {
      "bufferView": 23,
      "componentType": 5125,
      "count": 84,
      "name": "polySurface10/INDICES",
      "type": "SCALAR"
    }
  ],
  "asset": {
    "copyright": "Copyright (c) 2018-2020 Chukong Technologies Inc.",
    "generator": "FBX-glTF-conv",
    "version": "2.0"
  },
  "bufferViews": [
    {
      "buffer": 0,
      "byteLength": 1408,
      "byteStride": 32,
      "name": "polySurface8",
      "target": 34962
    },
    {
      "buffer": 0,
      "byteLength": 264,
      "byteOffset": 1408
    },
    {
      "buffer": 0,
      "byteLength": 1344,
      "byteOffset": 1672,
      "byteStride": 32,
      "name": "polySurface5",
      "target": 34962
    },
    {
      "buffer": 0,
      "byteLength": 264,
      "byteOffset": 3016
    },
    {
      "buffer": 0,
      "byteLength": 1024,
      "byteOffset": 3280,
      "byteStride": 32,
      "name": "polySurface2",
      "target": 34962
    },
    {
      "buffer": 0,
      "byteLength": 192,
      "byteOffset": 4304
    },
    {
      "buffer": 0,
      "byteLength": 1152,
      "byteOffset": 4496,
      "byteStride": 32,
      "name": "polySurface4",
      "target": 34962
    },
    {
      "buffer": 0,
      "byteLength": 240,
      "byteOffset": 5648
    },
    {
      "buffer": 0,
      "byteLength": 2240,
      "byteOffset": 5888,
      "byteStride": 32,
      "name": "polySurface1",
      "target": 34962
    },
    {
      "buffer": 0,
      "byteLength": 432,
      "byteOffset": 8128
    },
    {
      "buffer": 0,
      "byteLength": 1024,
      "byteOffset": 8560,
      "byteStride": 32,
      "name": "polySurface3",
      "target": 34962
    },
    {
      "buffer": 0,
      "byteLength": 192,
      "byteOffset": 9584
    },
    {
      "buffer": 0,
      "byteLength": 384,
      "byteOffset": 9776,
      "byteStride": 32,
      "name": "polySurface12",
      "target": 34962
    },
    {
      "buffer": 0,
      "byteLength": 72,
      "byteOffset": 10160
    },
    {
      "buffer": 0,
      "byteLength": 1024,
      "byteOffset": 10232,
      "byteStride": 32,
      "name": "polySurface6",
      "target": 34962
    },
    {
      "buffer": 0,
      "byteLength": 192,
      "byteOffset": 11256
    },
    {
      "buffer": 0,
      "byteLength": 384,
      "byteOffset": 11448,
      "byteStride": 32,
      "name": "polySurface11",
      "target": 34962
    },
    {
      "buffer": 0,
      "byteLength": 72,
      "byteOffset": 11832
    },
    {
      "buffer": 0,
      "byteLength": 1792,
      "byteOffset": 11904,
      "byteStride": 32,
      "name": "polySurface7",
      "target": 34962
    },
    {
      "buffer": 0,
      "byteLength": 336,
      "byteOffset": 13696
    },
    {
      "buffer": 0,
      "byteLength": 1728,
      "byteOffset": 14032,
      "byteStride": 32,
      "name": "polySurface9",
      "target": 34962
    },
    {
      "buffer": 0,
      "byteLength": 336,
      "byteOffset": 15760
    },
    {
      "buffer": 0,
      "byteLength": 1792,
      "byteOffset": 16096,
      "byteStride": 32,
      "name": "polySurface10",
      "target": 34962
    },
    {
      "buffer": 0,
      "byteLength": 336,
      "byteOffset": 17888
    }
  ],
  "buffers": [
    {
      "byteLength": 18224,
      "uri": "out.bin"
    }
  ],
  "extras": {
    "FBX-glTF-conv": {
      "animationFrameRate": 24.0
    }
  },
  "images": [
    {
      "extras": {
        "FBX-glTF-conv": {
          "fileName": "D:\\toan2\\squidrun\\iteam\\baibien\\color.jpg",
          "relativeFileName": "D:\\toan2\\squidrun\\iteam\\baibien\\color.jpg"
        }
      },
      "name": "file1",
      "uri": "data:image/png;base64,"
    }
  ],
  "materials": [
    {
      "name": "color",
      "pbrMetallicRoughness": {
        "baseColorFactor": [
          0.800000011920929,
          0.800000011920929,
          0.800000011920929,
          1.0
        ],
        "baseColorTexture": {
          "index": 0
        }
      }
    }
  ],
  "meshes": [
    {
      "name": "polySurface8",
      "primitives": [
        {
          "attributes": {
            "NORMAL": 1,
            "POSITION": 0,
            "TEXCOORD_0": 2
          },
          "indices": 3,
          "material": 0
        }
      ]
    },
    {
      "name": "polySurface5",
      "primitives": [
        {
          "attributes": {
            "NORMAL": 5,
            "POSITION": 4,
            "TEXCOORD_0": 6
          },
          "indices": 7,
          "material": 0
        }
      ]
    },
    {
      "name": "polySurface2",
      "primitives": [
        {
          "attributes": {
            "NORMAL": 9,
            "POSITION": 8,
            "TEXCOORD_0": 10
          },
          "indices": 11,
          "material": 0
        }
      ]
    },
    {
      "name": "polySurface4",
      "primitives": [
        {
          "attributes": {
            "NORMAL": 13,
            "POSITION": 12,
            "TEXCOORD_0": 14
          },
          "indices": 15,
          "material": 0
        }
      ]
    },
    {
      "name": "polySurface1",
      "primitives": [
        {
          "attributes": {
            "NORMAL": 17,
            "POSITION": 16,
            "TEXCOORD_0": 18
          },
          "indices": 19,
          "material": 0
        }
      ]
    },
    {
      "name": "polySurface3",
      "primitives": [
        {
          "attributes": {
            "NORMAL": 21,
            "POSITION": 20,
            "TEXCOORD_0": 22
          },
          "indices": 23,
          "material": 0
        }
      ]
    },
    {
      "name": "polySurface12",
      "primitives": [
        {
          "attributes": {
            "NORMAL": 25,
            "POSITION": 24,
            "TEXCOORD_0": 26
          },
          "indices": 27,
          "material": 0
        }
      ]
    },
    {
      "name": "polySurface6",
      "primitives": [
        {
          "attributes": {
            "NORMAL": 29,
            "POSITION": 28,
            "TEXCOORD_0": 30
          },
          "indices": 31,
          "material": 0
        }
      ]
    },
    {
      "name": "polySurface11",
      "primitives": [
        {
          "attributes": {
            "NORMAL": 33,
            "POSITION": 32,
            "TEXCOORD_0": 34
          },
          "indices": 35,
          "material": 0
        }
      ]
    },
    {
      "name": "polySurface7",
      "primitives": [
        {
          "attributes": {
            "NORMAL": 37,
            "POSITION": 36,
            "TEXCOORD_0": 38
          },
          "indices": 39,
          "material": 0
        }
      ]
    },
    {
      "name": "polySurface9",
      "primitives": [
        {
          "attributes": {
            "NORMAL": 41,
            "POSITION": 40,
            "TEXCOORD_0": 42
          },
          "indices": 43,
          "material": 0
        }
      ]
    },
    {
      "name": "polySurface10",
      "primitives": [
        {
          "attributes": {
            "NORMAL": 45,
            "POSITION": 44,
            "TEXCOORD_0": 46
          },
          "indices": 47,
          "material": 0
        }
      ]
    }
  ],
  "nodes": [
    {
      "mesh": 0,
      "name": "polySurface8"
    },
    {
      "mesh": 1,
      "name": "polySurface5"
    },
    {
      "mesh": 2,
      "name": "polySurface2"
    },
    {
      "mesh": 3,
      "name": "polySurface4"
    },
    {
      "mesh": 4,
      "name": "polySurface1"
    },
    {
      "mesh": 5,
      "name": "polySurface3"
    },
    {
      "mesh": 6,
      "name": "polySurface12"
    },
    {
      "mesh": 7,
      "name": "polySurface6"
    },
    {
      "mesh": 8,
      "name": "polySurface11"
    },
    {
      "mesh": 9,
      "name": "polySurface7"
    },
    {
      "mesh": 10,
      "name": "polySurface9"
    },
    {
      "mesh": 11,
      "name": "polySurface10"
    }
  ],
  "samplers": [
    {}
  ],
  "scenes": [
    {
      "nodes": [
        0,
        1,
        2,
        3,
        4,
        5,
        6,
        7,
        8,
        9,
        10,
        11
      ]
    }
  ],
  "textures": [
    {
      "name": "file1",
      "sampler": 0,
      "source": 0
    }
  ]
}