{
  "accessors": [
    {
      "bufferView": 0,
      "componentType": 5126,
      "count": 24,
      "max": [
        0.5,
        0.5,
        0.5
      ],
      "min": [
        -0.5,
        -0.5,
        -0.5
      ],
      "name": "Scene/POSITION",
      "type": "VEC3"
    },
    {
      "bufferView": 0,
      "byteOffset": 12,
      "componentType": 5126,
      "count": 24,
      "name": "Scene/NORMAL",
      "type": "VEC3"
    },
    {
      "bufferView": 0,
      "byteOffset": 24,
      "componentType": 5126,
      "count": 24,
      "name": "Scene/TEXCOORD_0",
      "type": "VEC2"
    },
    {
      "bufferView": 0,
      "byteOffset": 32,
      "componentType": 5126,
      "count": 24,
      "name": "Scene/TEXCOORD_1",
      "type": "VEC2"
    },
    {
      "bufferView": 1,
      "componentType": 5125,
      "count": 36,
      "name": "Scene/INDICES",
      "type": "SCALAR"
    },
    {
      "bufferView": 2,
      "componentType": 5126,
      "count": 24,
      "max": [
        0.5,
        0.5,
        0.5
      ],
      "min": [
        -0.5,
        -0.5,
        -0.5
      ],
      "name": "Scene/POSITION",
      "type": "VEC3"
    },
    {
      "bufferView": 2,
      "byteOffset": 12,
      "componentType": 5126,
      "count": 24,
      "name": "Scene/NORMAL",
      "type": "VEC3"
    },
    {
      "bufferView": 2,
      "byteOffset": 24,
      "componentType": 5126,
      "count": 24,
      "name": "Scene/TEXCOORD_0",
      "type": "VEC2"
    },
    {
      "bufferView": 2,
      "byteOffset": 32,
      "componentType": 5126,
      "count": 24,
      "name": "Scene/TEXCOORD_1",
      "type": "VEC2"
    },
    {
      "bufferView": 3,
      "componentType": 5125,
      "count": 36,
      "name": "Scene/INDICES",
      "type": "SCALAR"
    },
    {
      "bufferView": 4,
      "componentType": 5126,
      "count": 24,
      "max": [
        0.5,
        0.5,
        0.5
      ],
      "min": [
        -0.5,
        -0.5,
        -0.5
      ],
      "name": "Scene/POSITION",
      "type": "VEC3"
    },
    {
      "bufferView": 4,
      "byteOffset": 12,
      "componentType": 5126,
      "count": 24,
      "name": "Scene/NORMAL",
      "type": "VEC3"
    },
    {
      "bufferView": 4,
      "byteOffset": 24,
      "componentType": 5126,
      "count": 24,
      "name": "Scene/TEXCOORD_0",
      "type": "VEC2"
    },
    {
      "bufferView": 4,
      "byteOffset": 32,
      "componentType": 5126,
      "count": 24,
      "name": "Scene/TEXCOORD_1",
      "type": "VEC2"
    },
    {
      "bufferView": 5,
      "componentType": 5125,
      "count": 36,
      "name": "Scene/INDICES",
      "type": "SCALAR"
    },
    {
      "bufferView": 6,
      "componentType": 5126,
      "count": 24,
      "max": [
        0.5,
        0.5,
        0.5
      ],
      "min": [
        -0.5,
        -0.5,
        -0.5
      ],
      "name": "Scene/POSITION",
      "type": "VEC3"
    },
    {
      "bufferView": 6,
      "byteOffset": 12,
      "componentType": 5126,
      "count": 24,
      "name": "Scene/NORMAL",
      "type": "VEC3"
    },
    {
      "bufferView": 6,
      "byteOffset": 24,
      "componentType": 5126,
      "count": 24,
      "name": "Scene/TEXCOORD_0",
      "type": "VEC2"
    },
    {
      "bufferView": 6,
      "byteOffset": 32,
      "componentType": 5126,
      "count": 24,
      "name": "Scene/TEXCOORD_1",
      "type": "VEC2"
    },
    {
      "bufferView": 7,
      "componentType": 5125,
      "count": 36,
      "name": "Scene/INDICES",
      "type": "SCALAR"
    },
    {
      "bufferView": 8,
      "componentType": 5126,
      "count": 24,
      "max": [
        0.5,
        0.5,
        0.5
      ],
      "min": [
        -0.5,
        -0.5,
        -0.5
      ],
      "name": "Scene/POSITION",
      "type": "VEC3"
    },
    {
      "bufferView": 8,
      "byteOffset": 12,
      "componentType": 5126,
      "count": 24,
      "name": "Scene/NORMAL",
      "type": "VEC3"
    },
    {
      "bufferView": 8,
      "byteOffset": 24,
      "componentType": 5126,
      "count": 24,
      "name": "Scene/TEXCOORD_0",
      "type": "VEC2"
    },
    {
      "bufferView": 8,
      "byteOffset": 32,
      "componentType": 5126,
      "count": 24,
      "name": "Scene/TEXCOORD_1",
      "type": "VEC2"
    },
    {
      "bufferView": 9,
      "componentType": 5125,
      "count": 36,
      "name": "Scene/INDICES",
      "type": "SCALAR"
    },
    {
      "bufferView": 10,
      "componentType": 5126,
      "count": 24,
      "max": [
        0.5,
        0.5,
        0.5
      ],
      "min": [
        -0.5,
        -0.5,
        -0.5
      ],
      "name": "Scene/POSITION",
      "type": "VEC3"
    },
    {
      "bufferView": 10,
      "byteOffset": 12,
      "componentType": 5126,
      "count": 24,
      "name": "Scene/NORMAL",
      "type": "VEC3"
    },
    {
      "bufferView": 10,
      "byteOffset": 24,
      "componentType": 5126,
      "count": 24,
      "name": "Scene/TEXCOORD_0",
      "type": "VEC2"
    },
    {
      "bufferView": 10,
      "byteOffset": 32,
      "componentType": 5126,
      "count": 24,
      "name": "Scene/TEXCOORD_1",
      "type": "VEC2"
    },
    {
      "bufferView": 11,
      "componentType": 5125,
      "count": 36,
      "name": "Scene/INDICES",
      "type": "SCALAR"
    },
    {
      "bufferView": 12,
      "componentType": 5126,
      "count": 24,
      "max": [
        0.5,
        0.5,
        0.5
      ],
      "min": [
        -0.5,
        -0.5,
        -0.5
      ],
      "name": "Scene/POSITION",
      "type": "VEC3"
    },
    {
      "bufferView": 12,
      "byteOffset": 12,
      "componentType": 5126,
      "count": 24,
      "name": "Scene/NORMAL",
      "type": "VEC3"
    },
    {
      "bufferView": 12,
      "byteOffset": 24,
      "componentType": 5126,
      "count": 24,
      "name": "Scene/TEXCOORD_0",
      "type": "VEC2"
    },
    {
      "bufferView": 12,
      "byteOffset": 32,
      "componentType": 5126,
      "count": 24,
      "name": "Scene/TEXCOORD_1",
      "type": "VEC2"
    },
    {
      "bufferView": 13,
      "componentType": 5125,
      "count": 36,
      "name": "Scene/INDICES",
      "type": "SCALAR"
    },
    {
      "bufferView": 14,
      "componentType": 5126,
      "count": 24,
      "max": [
        0.5,
        0.5,
        0.5
      ],
      "min": [
        -0.5,
        -0.5,
        -0.5
      ],
      "name": "Scene/POSITION",
      "type": "VEC3"
    },
    {
      "bufferView": 14,
      "byteOffset": 12,
      "componentType": 5126,
      "count": 24,
      "name": "Scene/NORMAL",
      "type": "VEC3"
    },
    {
      "bufferView": 14,
      "byteOffset": 24,
      "componentType": 5126,
      "count": 24,
      "name": "Scene/TEXCOORD_0",
      "type": "VEC2"
    },
    {
      "bufferView": 14,
      "byteOffset": 32,
      "componentType": 5126,
      "count": 24,
      "name": "Scene/TEXCOORD_1",
      "type": "VEC2"
    },
    {
      "bufferView": 15,
      "componentType": 5125,
      "count": 36,
      "name": "Scene/INDICES",
      "type": "SCALAR"
    }
  ],
  "asset": {
    "copyright": "Copyright (c) 2018-2020 Chukong Technologies Inc.",
    "generator": "FBX-glTF-conv",
    "version": "2.0"
  },
  "bufferViews": [
    {
      "buffer": 0,
      "byteLength": 960,
      "byteStride": 40,
      "name": "Scene",
      "target": 34962
    },
    {
      "buffer": 0,
      "byteLength": 144,
      "byteOffset": 960
    },
    {
      "buffer": 0,
      "byteLength": 960,
      "byteOffset": 1104,
      "byteStride": 40,
      "name": "Scene",
      "target": 34962
    },
    {
      "buffer": 0,
      "byteLength": 144,
      "byteOffset": 2064
    },
    {
      "buffer": 0,
      "byteLength": 960,
      "byteOffset": 2208,
      "byteStride": 40,
      "name": "Scene",
      "target": 34962
    },
    {
      "buffer": 0,
      "byteLength": 144,
      "byteOffset": 3168
    },
    {
      "buffer": 0,
      "byteLength": 960,
      "byteOffset": 3312,
      "byteStride": 40,
      "name": "Scene",
      "target": 34962
    },
    {
      "buffer": 0,
      "byteLength": 144,
      "byteOffset": 4272
    },
    {
      "buffer": 0,
      "byteLength": 960,
      "byteOffset": 4416,
      "byteStride": 40,
      "name": "Scene",
      "target": 34962
    },
    {
      "buffer": 0,
      "byteLength": 144,
      "byteOffset": 5376
    },
    {
      "buffer": 0,
      "byteLength": 960,
      "byteOffset": 5520,
      "byteStride": 40,
      "name": "Scene",
      "target": 34962
    },
    {
      "buffer": 0,
      "byteLength": 144,
      "byteOffset": 6480
    },
    {
      "buffer": 0,
      "byteLength": 960,
      "byteOffset": 6624,
      "byteStride": 40,
      "name": "Scene",
      "target": 34962
    },
    {
      "buffer": 0,
      "byteLength": 144,
      "byteOffset": 7584
    },
    {
      "buffer": 0,
      "byteLength": 960,
      "byteOffset": 7728,
      "byteStride": 40,
      "name": "Scene",
      "target": 34962
    },
    {
      "buffer": 0,
      "byteLength": 144,
      "byteOffset": 8688
    }
  ],
  "buffers": [
    {
      "byteLength": 8832,
      "uri": "out.bin"
    }
  ],
  "extras": {
    "FBX-glTF-conv": {
      "animationFrameRate": 30.0
    }
  },
  "materials": [
    {
      "name": "MergeContainer",
      "pbrMetallicRoughness": {
        "baseColorFactor": [
          0.014150920324027538,
          1.0,
          0.17139285802841187,
          1.0
        ]
      }
    }
  ],
  "meshes": [
    {
      "name": "Scene",
      "primitives": [
        {
          "attributes": {
            "NORMAL": 1,
            "POSITION": 0,
            "TEXCOORD_0": 2,
            "TEXCOORD_1": 3
          },
          "indices": 4,
          "material": 0
        }
      ]
    },
    {
      "name": "Scene",
      "primitives": [
        {
          "attributes": {
            "NORMAL": 6,
            "POSITION": 5,
            "TEXCOORD_0": 7,
            "TEXCOORD_1": 8
          },
          "indices": 9,
          "material": 0
        }
      ]
    },
    {
      "name": "Scene",
      "primitives": [
        {
          "attributes": {
            "NORMAL": 11,
            "POSITION": 10,
            "TEXCOORD_0": 12,
            "TEXCOORD_1": 13
          },
          "indices": 14,
          "material": 0
        }
      ]
    },
    {
      "name": "Scene",
      "primitives": [
        {
          "attributes": {
            "NORMAL": 16,
            "POSITION": 15,
            "TEXCOORD_0": 17,
            "TEXCOORD_1": 18
          },
          "indices": 19,
          "material": 0
        }
      ]
    },
    {
      "name": "Scene",
      "primitives": [
        {
          "attributes": {
            "NORMAL": 21,
            "POSITION": 20,
            "TEXCOORD_0": 22,
            "TEXCOORD_1": 23
          },
          "indices": 24,
          "material": 0
        }
      ]
    },
    {
      "name": "Scene",
      "primitives": [
        {
          "attributes": {
            "NORMAL": 26,
            "POSITION": 25,
            "TEXCOORD_0": 27,
            "TEXCOORD_1": 28
          },
          "indices": 29,
          "material": 0
        }
      ]
    },
    {
      "name": "Scene",
      "primitives": [
        {
          "attributes": {
            "NORMAL": 31,
            "POSITION": 30,
            "TEXCOORD_0": 32,
            "TEXCOORD_1": 33
          },
          "indices": 34,
          "material": 0
        }
      ]
    },
    {
      "name": "Scene",
      "primitives": [
        {
          "attributes": {
            "NORMAL": 36,
            "POSITION": 35,
            "TEXCOORD_0": 37,
            "TEXCOORD_1": 38
          },
          "indices": 39,
          "material": 0
        }
      ]
    }
  ],
  "nodes": [
    {
      "children": [
        1
      ],
      "name": "Camera___"
    },
    {
      "children": [
        2
      ],
      "name": "Pivot"
    },
    {
      "children": [
        3
      ],
      "name": "Main_Camera",
      "rotation": [
        0.3535534143447876,
        -0.6123723983764648,
        -0.3535534143447876,
        0.6123723983764648
      ],
      "translation": [
        0.0,
        79.0999984741211,
        -48.29999923706055
      ]
    },
    {
      "children": [
        4,
        5,
        6,
        7,
        8,
        9,
        10,
        11,
        12,
        16,
        20,
        24,
        28
      ],
      "name": "ContainersSlot",
      "rotation": [
        2.2412589391661068e-17,
        0.8660253882408142,
        -0.5,
        -8.364493367528069e-17
      ],
      "scale": [
        0.75,
        1.0,
        0.75
      ],
      "translation": [
        26.299999237060547,
        -42.900001525878906,
        882.5
      ]
    },
    {
      "mesh": 0,
      "name": "Stop_Point_0",
      "translation": [
        0.800000011920929,
        4.497243881225586,
        10.462169647216797
      ]
    },
    {
      "mesh": 1,
      "name": "Spawn_Point_0",
      "translation": [
        0.800000011920929,
        4.497243881225586,
        75.4000015258789
      ]
    },
    {
      "mesh": 2,
      "name": "Spawn_Point_0__1_",
      "translation": [
        23.700000762939453,
        4.497243881225586,
        75.4000015258789
      ]
    },
    {
      "mesh": 3,
      "name": "Spawn_Point_0__2_",
      "translation": [
        46.70000076293945,
        4.497243881225586,
        75.4000015258789
      ]
    },
    {
      "mesh": 4,
      "name": "Spawn_Point_0__3_",
      "translation": [
        69.5999984741211,
        4.497243881225586,
        75.4000015258789
      ]
    },
    {
      "mesh": 5,
      "name": "Stop_Point_1",
      "translation": [
        23.700000762939453,
        4.497243881225586,
        10.462169647216797
      ]
    },
    {
      "mesh": 6,
      "name": "Stop_Point_2",
      "translation": [
        46.5,
        4.497243881225586,
        10.462169647216797
      ]
    },
    {
      "mesh": 7,
      "name": "Stop_Point_3",
      "translation": [
        69.5999984741211,
        4.497243881225586,
        10.462169647216797
      ]
    },
    {
      "children": [
        13,
        14,
        15
      ],
      "name": "UnlockCartAd",
      "rotation": [
        -0.7071067690849304,
        -2.0302919833265e-17,
        2.0302919833265e-17,
        0.7071067690849304
      ],
      "scale": [
        1.4500000476837158,
        1.4500000476837158,
        1.4500000476837158
      ],
      "translation": [
        46.5,
        2.5399999618530273,
        8.5
      ]
    },
    {
      "name": "AdMineCart",
      "scale": [
        6.199999809265137,
        6.199999809265137,
        6.0
      ]
    },
    {
      "name": "AdIcon",
      "rotation": [
        -6.123234262925839e-17,
        1.0,
        6.123234262925839e-17,
        -5.551115123125783e-17
      ],
      "scale": [
        12.0,
        12.0,
        10.0
      ],
      "translation": [
        1.818989362888275e-14,
        3.4200000762939453,
        0.019999999552965164
      ]
    },
    {
      "name": "Text__TMP_",
      "rotation": [
        6.123234262925839e-17,
        1.0,
        6.123234262925839e-17,
        -6.873021872134936e-17
      ],
      "scale": [
        2.423002004623413,
        2.4230010509490967,
        2.4230010509490967
      ],
      "translation": [
        0.1599999964237213,
        -3.6600000858306885,
        0.0
      ]
    },
    {
      "children": [
        17,
        18,
        19
      ],
      "name": "Free_Button_1",
      "rotation": [
        -0.7071067690849304,
        -2.0302919833265e-17,
        2.0302919833265e-17,
        0.7071067690849304
      ],
      "scale": [
        1.4500000476837158,
        1.4500000476837158,
        1.4500000476837158
      ],
      "translation": [
        22.899999618530273,
        2.5399999618530273,
        8.5
      ]
    },
    {
      "name": "AdMineCart_1",
      "scale": [
        6.199999809265137,
        6.199999809265137,
        6.0
      ]
    },
    {
      "name": "AdIcon_1",
      "rotation": [
        -6.123234262925839e-17,
        1.0,
        6.123234262925839e-17,
        -5.551115123125783e-17
      ],
      "scale": [
        1.5,
        1.5,
        10.0
      ],
      "translation": [
        0.0,
        2.200000047683716,
        -1.100000023841858
      ]
    },
    {
      "name": "Text__TMP__1",
      "rotation": [
        6.123234262925839e-17,
        1.0,
        6.123234262925839e-17,
        -6.873021872134936e-17
      ],
      "scale": [
        2.423002004623413,
        2.4230010509490967,
        2.4230010509490967
      ],
      "translation": [
        0.0,
        -3.299999952316284,
        0.0
      ]
    },
    {
      "children": [
        21,
        22,
        23
      ],
      "name": "Free_Button_2",
      "rotation": [
        -0.7071067690849304,
        -2.0302919833265e-17,
        2.0302919833265e-17,
        0.7071067690849304
      ],
      "scale": [
        1.4500000476837158,
        1.4500000476837158,
        1.4500000476837158
      ],
      "translation": [
        46.5,
        2.5399999618530273,
        8.5
      ]
    },
    {
      "name": "AdMineCart_2",
      "scale": [
        6.199999809265137,
        6.199999809265137,
        6.0
      ]
    },
    {
      "name": "AdIcon_2",
      "rotation": [
        -6.123234262925839e-17,
        1.0,
        6.123234262925839e-17,
        -5.551115123125783e-17
      ],
      "scale": [
        1.5,
        1.5,
        10.0
      ],
      "translation": [
        1.818989362888275e-14,
        2.200000047683716,
        -1.100000023841858
      ]
    },
    {
      "name": "Text__TMP__2",
      "rotation": [
        6.123234262925839e-17,
        1.0,
        6.123234262925839e-17,
        -6.873021872134936e-17
      ],
      "scale": [
        2.423002004623413,
        2.4230010509490967,
        2.4230010509490967
      ],
      "translation": [
        0.0,
        -3.299999952316284,
        0.0
      ]
    },
    {
      "children": [
        25,
        26,
        27
      ],
      "name": "UnlockCartAd2",
      "rotation": [
        -0.7071067690849304,
        -2.0302919833265e-17,
        2.0302919833265e-17,
        0.7071067690849304
      ],
      "scale": [
        1.4500000476837158,
        1.4500000476837158,
        1.4500000476837158
      ],
      "translation": [
        69.4000015258789,
        2.5399999618530273,
        8.5
      ]
    },
    {
      "name": "AdMineCart_3",
      "scale": [
        6.199999809265137,
        6.199999809265137,
        6.0
      ]
    },
    {
      "name": "AdIcon_3",
      "rotation": [
        -6.123234262925839e-17,
        1.0,
        6.123234262925839e-17,
        -5.551115123125783e-17
      ],
      "scale": [
        12.0,
        12.0,
        10.0
      ],
      "translation": [
        0.0,
        3.4200000762939453,
        0.019999999552965164
      ]
    },
    {
      "name": "Text__TMP__3",
      "rotation": [
        6.123234262925839e-17,
        1.0,
        6.123234262925839e-17,
        -6.873021872134936e-17
      ],
      "scale": [
        2.423002004623413,
        2.4230010509490967,
        2.4230010509490967
      ],
      "translation": [
        0.1599999964237213,
        -3.6600000858306885,
        0.0
      ]
    },
    {
      "children": [
        29,
        30,
        31
      ],
      "name": "Free_Button_3",
      "rotation": [
        -0.7071067690849304,
        -2.0302919833265e-17,
        2.0302919833265e-17,
        0.7071067690849304
      ],
      "scale": [
        1.4500000476837158,
        1.4500000476837158,
        1.4500000476837158
      ],
      "translation": [
        69.4000015258789,
        2.5399999618530273,
        8.5
      ]
    },
    {
      "name": "AdMineCart_4",
      "scale": [
        6.199999809265137,
        6.199999809265137,
        6.0
      ]
    },
    {
      "name": "AdIcon_4",
      "rotation": [
        -6.123234262925839e-17,
        1.0,
        6.123234262925839e-17,
        -5.551115123125783e-17
      ],
      "scale": [
        1.5,
        1.5,
        10.0
      ],
      "translation": [
        0.0,
        2.200000047683716,
        -1.100000023841858
      ]
    },
    {
      "name": "Text__TMP__4",
      "rotation": [
        6.123234262925839e-17,
        1.0,
        6.123234262925839e-17,
        -6.873021872134936e-17
      ],
      "scale": [
        2.423002004623413,
        2.4230010509490967,
        2.4230010509490967
      ],
      "translation": [
        0.0,
        -3.299999952316284,
        0.0
      ]
    }
  ],
  "scenes": [
    {
      "name": "Scene",
      "nodes": [
        0
      ]
    }
  ]
}