{
  "accessors": [
    {
      "bufferView": 0,
      "componentType": 5126,
      "count": 238,
      "max": [
        0.3559280335903168,
        1.4567551612854004,
        0.4000661373138428
      ],
      "min": [
        -0.35592812299728394,
        0.03140091896057129,
        -0.4000661075115204
      ],
      "name": "Cylinder.003/POSITION",
      "type": "VEC3"
    },
    {
      "bufferView": 0,
      "byteOffset": 12,
      "componentType": 5126,
      "count": 238,
      "name": "Cylinder.003/NORMAL",
      "type": "VEC3"
    },
    {
      "bufferView": 0,
      "byteOffset": 24,
      "componentType": 5126,
      "count": 238,
      "name": "Cylinder.003/TEXCOORD_0",
      "type": "VEC2"
    },
    {
      "bufferView": 1,
      "componentType": 5125,
      "count": 636,
      "name": "Cylinder.003/INDICES",
      "type": "SCALAR"
    },
    {
      "bufferView": 2,
      "componentType": 5126,
      "count": 434,
      "max": [
        1.363439679145813,
        0.34810328483581543,
        1.1508123874664307
      ],
      "min": [
        -1.363439679145813,
        -0.348102867603302,
        -1.1508123874664307
      ],
      "name": "Cylinder.004/POSITION",
      "type": "VEC3"
    },
    {
      "bufferView": 2,
      "byteOffset": 12,
      "componentType": 5126,
      "count": 434,
      "name": "Cylinder.004/NORMAL",
      "type": "VEC3"
    },
    {
      "bufferView": 2,
      "byteOffset": 24,
      "componentType": 5126,
      "count": 434,
      "name": "Cylinder.004/TEXCOORD_0",
      "type": "VEC2"
    },
    {
      "bufferView": 3,
      "componentType": 5125,
      "count": 1500,
      "name": "Cylinder.004/INDICES",
      "type": "SCALAR"
    },
    {
      "bufferView": 4,
      "componentType": 5126,
      "count": 29,
      "max": [
        1.1666666269302368
      ],
      "min": [
        0.0
      ],
      "name": "Cylinder_body/Trs/Input",
      "type": "SCALAR"
    },
    {
      "bufferView": 5,
      "componentType": 5126,
      "count": 29,
      "name": "Cylinder_body/translation/Output",
      "type": "VEC3"
    },
    {
      "bufferView": 6,
      "componentType": 5126,
      "count": 29,
      "name": "Cylinder_body/rotation/Output",
      "type": "VEC4"
    },
    {
      "bufferView": 7,
      "componentType": 5126,
      "count": 29,
      "name": "Cylinder_body/scale/Output",
      "type": "VEC3"
    },
    {
      "bufferView": 8,
      "componentType": 5126,
      "count": 29,
      "max": [
        1.1666666269302368
      ],
      "min": [
        0.0
      ],
      "name": "Cylinder/Trs/Input",
      "type": "SCALAR"
    },
    {
      "bufferView": 9,
      "componentType": 5126,
      "count": 29,
      "name": "Cylinder/translation/Output",
      "type": "VEC3"
    },
    {
      "bufferView": 10,
      "componentType": 5126,
      "count": 29,
      "name": "Cylinder/rotation/Output",
      "type": "VEC4"
    },
    {
      "bufferView": 11,
      "componentType": 5126,
      "count": 29,
      "name": "Cylinder/scale/Output",
      "type": "VEC3"
    }
  ],
  "animations": [
    {
      "channels": [
        {
          "sampler": 0,
          "target": {
            "node": 0,
            "path": "translation"
          }
        },
        {
          "sampler": 1,
          "target": {
            "node": 0,
            "path": "rotation"
          }
        },
        {
          "sampler": 2,
          "target": {
            "node": 0,
            "path": "scale"
          }
        }
      ],
      "name": "Cylinder_body|Cylinder_bodyAction",
      "samplers": [
        {
          "input": 8,
          "output": 9
        },
        {
          "input": 8,
          "output": 10
        },
        {
          "input": 8,
          "output": 11
        }
      ]
    },
    {
      "channels": [
        {
          "sampler": 0,
          "target": {
            "node": 1,
            "path": "translation"
          }
        },
        {
          "sampler": 1,
          "target": {
            "node": 1,
            "path": "rotation"
          }
        },
        {
          "sampler": 2,
          "target": {
            "node": 1,
            "path": "scale"
          }
        }
      ],
      "name": "Cylinder|Cylinder_bodyAction",
      "samplers": [
        {
          "input": 12,
          "output": 13
        },
        {
          "input": 12,
          "output": 14
        },
        {
          "input": 12,
          "output": 15
        }
      ]
    }
  ],
  "asset": {
    "copyright": "Copyright (c) 2018-2020 Chukong Technologies Inc.",
    "generator": "FBX-glTF-conv",
    "version": "2.0"
  },
  "bufferViews": [
    {
      "buffer": 0,
      "byteLength": 7616,
      "byteStride": 32,
      "name": "Cylinder.003",
      "target": 34962
    },
    {
      "buffer": 0,
      "byteLength": 2544,
      "byteOffset": 7616
    },
    {
      "buffer": 0,
      "byteLength": 13888,
      "byteOffset": 10160,
      "byteStride": 32,
      "name": "Cylinder.004",
      "target": 34962
    },
    {
      "buffer": 0,
      "byteLength": 6000,
      "byteOffset": 24048
    },
    {
      "buffer": 0,
      "byteLength": 116,
      "byteOffset": 30048
    },
    {
      "buffer": 0,
      "byteLength": 348,
      "byteOffset": 30164
    },
    {
      "buffer": 0,
      "byteLength": 464,
      "byteOffset": 30512
    },
    {
      "buffer": 0,
      "byteLength": 348,
      "byteOffset": 30976
    },
    {
      "buffer": 0,
      "byteLength": 116,
      "byteOffset": 31324
    },
    {
      "buffer": 0,
      "byteLength": 348,
      "byteOffset": 31440
    },
    {
      "buffer": 0,
      "byteLength": 464,
      "byteOffset": 31788
    },
    {
      "buffer": 0,
      "byteLength": 348,
      "byteOffset": 32252
    }
  ],
  "buffers": [
    {
      "byteLength": 32600,
      "uri": "out.bin"
    }
  ],
  "extras": {
    "FBX-glTF-conv": {
      "animationFrameRate": 24.0
    }
  },
  "materials": [
    {
      "name": "Cylinder_body",
      "pbrMetallicRoughness": {
        "baseColorFactor": [
          0.02459869347512722,
          0.08739063143730164,
          0.3972215950489044,
          1.0
        ],
        "metallicFactor": 0.4000000059604645,
        "roughnessFactor": 0.27216553688049316
      }
    },
    {
      "name": "Cylinder",
      "pbrMetallicRoughness": {
        "baseColorFactor": [
          0.030865313485264778,
          0.2775297164916992,
          0.8000000715255737,
          1.0
        ],
        "metallicFactor": 0.4000000059604645,
        "roughnessFactor": 0.27216553688049316
      }
    }
  ],
  "meshes": [
    {
      "name": "Cylinder.003",
      "primitives": [
        {
          "attributes": {
            "NORMAL": 1,
            "POSITION": 0,
            "TEXCOORD_0": 2
          },
          "indices": 3,
          "material": 0
        }
      ]
    },
    {
      "name": "Cylinder.004",
      "primitives": [
        {
          "attributes": {
            "NORMAL": 5,
            "POSITION": 4,
            "TEXCOORD_0": 6
          },
          "indices": 7,
          "material": 1
        }
      ]
    }
  ],
  "nodes": [
    {
      "children": [
        1
      ],
      "mesh": 0,
      "name": "Cylinder_body",
      "rotation": [
        5.22857845985533e-18,
        0.7485112547874451,
        5.22857845985533e-18,
        0.6631221175193787
      ],
      "translation": [
        0.0,
        1.0567550659179688,
        0.0
      ]
    },
    {
      "mesh": 1,
      "name": "Cylinder",
      "translation": [
        0.0,
        1.0692960023880005,
        0.0
      ]
    },
    {
      "name": "Camera",
      "rotation": [
        -0.22534194588661194,
        0.931452214717865,
        -0.06717660278081894,
        0.27767810225486755
      ],
      "scale": [
        100.00000762939453,
        100.00001525878906,
        100.00001525878906
      ],
      "translation": [
        7.056427478790283,
        5.762241363525391,
        4.9121575355529785
      ]
    }
  ],
  "scenes": [
    {
      "name": "Scene",
      "nodes": [
        0,
        2
      ]
    }
  ]
}