{
  "accessors": [
    {
      "bufferView": 0,
      "componentType": 5126,
      "count": 274,
      "max": [
        0.3030793070793152,
        0.9700496792793274,
        0.3030794858932495
      ],
      "min": [
        -0.30307939648628235,
        0.3638909161090851,
        -0.3030792772769928
      ],
      "name": "ball3/POSITION",
      "type": "VEC3"
    },
    {
      "bufferView": 0,
      "byteOffset": 12,
      "componentType": 5126,
      "count": 274,
      "name": "ball3/NORMAL",
      "type": "VEC3"
    },
    {
      "bufferView": 0,
      "byteOffset": 24,
      "componentType": 5126,
      "count": 274,
      "name": "ball3/TEXCOORD_0",
      "type": "VEC2"
    },
    {
      "bufferView": 1,
      "componentType": 5125,
      "count": 1440,
      "name": "ball3/INDICES",
      "type": "SCALAR"
    }
  ],
  "asset": {
    "copyright": "Copyright (c) 2018-2020 Chukong Technologies Inc.",
    "generator": "FBX-glTF-conv",
    "version": "2.0"
  },
  "bufferViews": [
    {
      "buffer": 0,
      "byteLength": 8768,
      "byteStride": 32,
      "name": "ball3",
      "target": 34962
    },
    {
      "buffer": 0,
      "byteLength": 5760,
      "byteOffset": 8768
    }
  ],
  "buffers": [
    {
      "byteLength": 14528,
      "uri": "out.bin"
    }
  ],
  "extras": {
    "FBX-glTF-conv": {
      "animationFrameRate": 24.0
    }
  },
  "images": [
    {
      "extras": {
        "FBX-glTF-conv": {
          "fileName": "U:\\CocosProjects\\PA\\SantaCall_Op2\\assets\\Image\\3D\\Models\\Texture\\T_Ball3456.png",
          "relativeFileName": "..\\..\\Texture\\T_Ball3456.png"
        }
      },
      "name": "file7",
      "uri": "T_Ball3456.png"
    }
  ],
  "materials": [
    {
      "name": "T_Ball3456",
      "pbrMetallicRoughness": {
        "baseColorFactor": [
          0.800000011920929,
          0.800000011920929,
          0.800000011920929,
          1.0
        ],
        "baseColorTexture": {
          "index": 0
        }
      }
    }
  ],
  "meshes": [
    {
      "name": "ball3",
      "primitives": [
        {
          "attributes": {
            "NORMAL": 1,
            "POSITION": 0,
            "TEXCOORD_0": 2
          },
          "indices": 3,
          "material": 0
        }
      ]
    }
  ],
  "nodes": [
    {
      "mesh": 0,
      "name": "ball3"
    }
  ],
  "samplers": [
    {}
  ],
  "scenes": [
    {
      "nodes": [
        0
      ]
    }
  ],
  "textures": [
    {
      "name": "file7",
      "sampler": 0,
      "source": 0
    }
  ]
}