{"buffers":[{"uri":"out.bin","byteLength":984}],"asset":{"version":"2.0","generator":"gltfpack 0.14"},"bufferViews":[{"buffer":0,"byteOffset":0,"byteLength":70},{"buffer":0,"byteOffset":72,"byteLength":70},{"buffer":0,"byteOffset":144,"byteLength":288,"byteStride":12,"target":34962},{"buffer":0,"byteOffset":432,"byteLength":288,"byteStride":12,"target":34962},{"buffer":0,"byteOffset":720,"byteLength":192,"byteStride":8,"target":34962},{"buffer":0,"byteOffset":912,"byteLength":72,"target":34963}],"accessors":[{"bufferView":2,"byteOffset":0,"componentType":5126,"count":8,"type":"VEC3"},{"bufferView":3,"byteOffset":0,"componentType":5126,"count":8,"type":"VEC3","min":[-31.082716,-3.87728642e-06,-32.5250359],"max":[31.9761848,29.2267494,30.5338593]},{"bufferView":4,"byteOffset":0,"componentType":5126,"count":8,"type":"VEC2"},{"bufferView":5,"byteOffset":0,"componentType":5123,"count":12,"type":"SCALAR"},{"bufferView":2,"byteOffset":96,"componentType":5126,"count":16,"type":"VEC3"},{"bufferView":3,"byteOffset":96,"componentType":5126,"count":16,"type":"VEC3","min":[-31.082716,-3.87728642e-06,-32.5250359],"max":[31.9761848,29.2267494,30.5338593]},{"bufferView":4,"byteOffset":64,"componentType":5126,"count":16,"type":"VEC2"},{"bufferView":5,"byteOffset":24,"componentType":5123,"count":24,"type":"SCALAR"}],"images":[{"bufferView":0,"mimeType":"image/png"},{"bufferView":1,"mimeType":"image/png"}],"textures":[{"source":0},{"source":1}],"materials":[{"name":"be tong","pbrMetallicRoughness":{"baseColorTexture":{"index":0,"texCoord":0},"metallicFactor":0.400000006,"roughnessFactor":0.272165537}},{"name":"balenciaga","pbrMetallicRoughness":{"baseColorTexture":{"index":1,"texCoord":0},"metallicFactor":0.400000006,"roughnessFactor":0.272165537}}],"meshes":[{"primitives":[{"attributes":{"NORMAL":0,"POSITION":1,"TEXCOORD_0":2},"mode":4,"indices":3,"material":0},{"attributes":{"NORMAL":4,"POSITION":5,"TEXCOORD_0":6},"mode":4,"indices":7,"material":1}]}],"nodes":[{"mesh":0}],"scenes":[{"nodes":[0]}],"scene":0}