{
  "accessors": [
    {
      "bufferView": 0,
      "componentType": 5126,
      "count": 301,
      "max": [
        0.16741050779819489,
        0.16741050779819489,
        2.0810446739196777
      ],
      "min": [
        -0.16741050779819489,
        -0.16741050779819489,
        -3.814697180359872e-08
      ],
      "name": "Cube.005/POSITION",
      "type": "VEC3"
    },
    {
      "bufferView": 0,
      "byteOffset": 12,
      "componentType": 5126,
      "count": 301,
      "name": "Cube.005/NORMAL",
      "type": "VEC3"
    },
    {
      "bufferView": 0,
      "byteOffset": 24,
      "componentType": 5126,
      "count": 301,
      "name": "Cube.005/TEXCOORD_0",
      "type": "VEC2"
    },
    {
      "bufferView": 1,
      "componentType": 5125,
      "count": 486,
      "name": "Cube.005/INDICES",
      "type": "SCALAR"
    }
  ],
  "asset": {
    "copyright": "Copyright (c) 2018-2020 Chukong Technologies Inc.",
    "generator": "FBX-glTF-conv",
    "version": "2.0"
  },
  "bufferViews": [
    {
      "buffer": 0,
      "byteLength": 9632,
      "byteStride": 32,
      "name": "Cube.005",
      "target": 34962
    },
    {
      "buffer": 0,
      "byteLength": 1944,
      "byteOffset": 9632
    }
  ],
  "buffers": [
    {
      "byteLength": 11576,
      "uri": "out.bin"
    }
  ],
  "extras": {
    "FBX-glTF-conv": {
      "animationFrameRate": 25.0
    }
  },
  "images": [
    {
      "extras": {
        "FBX-glTF-conv": {
          "fileName": "U:\\CocosProjects\\PA\\GTA3_PlayableAds\\GTA3_Playable_3_v2\\temp\\asset-db\\assets\\fbx.FBX-glTF-conv\\3c6c1541-bb61-4643-9006-369f6287f68c\\output\\.fbm\\C62E218C\\12.fbm/wool_worth_2.png",
          "relativeFileName": "..\\..\\..\\temp\\asset-db\\assets\\fbx.FBX-glTF-conv\\3c6c1541-bb61-4643-9006-369f6287f68c\\output\\.fbm\\C62E218C\\12.fbm\\wool_worth_2.png"
        }
      },
      "name": "base_color_texture",
      "uri": "wool_worth_2.png"
    }
  ],
  "materials": [
    {
      "name": "Material.003",
      "pbrMetallicRoughness": {
        "baseColorTexture": {
          "index": 0
        },
        "metallicFactor": 0.4000000059604645,
        "roughnessFactor": 0.27216553688049316
      }
    }
  ],
  "meshes": [
    {
      "name": "Cube.005",
      "primitives": [
        {
          "attributes": {
            "NORMAL": 1,
            "POSITION": 0,
            "TEXCOORD_0": 2
          },
          "indices": 3,
          "material": 0
        }
      ]
    }
  ],
  "nodes": [
    {
      "mesh": 0,
      "name": "12",
      "rotation": [
        -0.7071068286895752,
        0.0,
        0.0,
        0.7071067094802856
      ],
      "scale": [
        100.0,
        100.0,
        100.0
      ]
    }
  ],
  "samplers": [
    {}
  ],
  "scenes": [
    {
      "name": "Scene",
      "nodes": [
        0
      ]
    }
  ],
  "textures": [
    {
      "name": "base_color_texture",
      "sampler": 0,
      "source": 0
    }
  ]
}