{
  "accessors": [
    {
      "bufferView": 0,
      "componentType": 5126,
      "count": 33,
      "max": [
        0.42161187529563904,
        1.225906491279602,
        -0.7762819528579712
      ],
      "min": [
        0.08816409856081009,
        0.8490668535232544,
        -1.2300909757614136
      ],
      "name": "Mesh/POSITION",
      "type": "VEC3"
    },
    {
      "bufferView": 0,
      "byteOffset": 12,
      "componentType": 5126,
      "count": 33,
      "name": "Mesh/NORMAL",
      "type": "VEC3"
    },
    {
      "bufferView": 0,
      "byteOffset": 24,
      "componentType": 5126,
      "count": 33,
      "name": "Mesh/TEXCOORD_0",
      "type": "VEC2"
    },
    {
      "bufferView": 1,
      "componentType": 5125,
      "count": 156,
      "name": "Mesh/INDICES",
      "type": "SCALAR"
    },
    {
      "bufferView": 2,
      "componentType": 5126,
      "count": 35,
      "max": [
        -0.10041816532611847,
        1.225906491279602,
        -0.7762819528579712
      ],
      "min": [
        -0.4338659346103668,
        0.8490668535232544,
        -1.2300909757614136
      ],
      "name": "Mesh.001/POSITION",
      "type": "VEC3"
    },
    {
      "bufferView": 2,
      "byteOffset": 12,
      "componentType": 5126,
      "count": 35,
      "name": "Mesh.001/NORMAL",
      "type": "VEC3"
    },
    {
      "bufferView": 2,
      "byteOffset": 24,
      "componentType": 5126,
      "count": 35,
      "name": "Mesh.001/TEXCOORD_0",
      "type": "VEC2"
    },
    {
      "bufferView": 3,
      "componentType": 5125,
      "count": 150,
      "name": "Mesh.001/INDICES",
      "type": "SCALAR"
    },
    {
      "bufferView": 4,
      "componentType": 5126,
      "count": 33,
      "max": [
        0.42161187529563904,
        1.2259058952331543,
        0.17890527844429016
      ],
      "min": [
        0.08816409856081009,
        0.8490663766860962,
        -0.27490368485450745
      ],
      "name": "Mesh.002/POSITION",
      "type": "VEC3"
    },
    {
      "bufferView": 4,
      "byteOffset": 12,
      "componentType": 5126,
      "count": 33,
      "name": "Mesh.002/NORMAL",
      "type": "VEC3"
    },
    {
      "bufferView": 4,
      "byteOffset": 24,
      "componentType": 5126,
      "count": 33,
      "name": "Mesh.002/TEXCOORD_0",
      "type": "VEC2"
    },
    {
      "bufferView": 5,
      "componentType": 5125,
      "count": 156,
      "name": "Mesh.002/INDICES",
      "type": "SCALAR"
    },
    {
      "bufferView": 6,
      "componentType": 5126,
      "count": 35,
      "max": [
        -0.10041816532611847,
        1.2259058952331543,
        0.17890527844429016
      ],
      "min": [
        -0.4338659346103668,
        0.8490663766860962,
        -0.27490368485450745
      ],
      "name": "Mesh.003/POSITION",
      "type": "VEC3"
    },
    {
      "bufferView": 6,
      "byteOffset": 12,
      "componentType": 5126,
      "count": 35,
      "name": "Mesh.003/NORMAL",
      "type": "VEC3"
    },
    {
      "bufferView": 6,
      "byteOffset": 24,
      "componentType": 5126,
      "count": 35,
      "name": "Mesh.003/TEXCOORD_0",
      "type": "VEC2"
    },
    {
      "bufferView": 7,
      "componentType": 5125,
      "count": 150,
      "name": "Mesh.003/INDICES",
      "type": "SCALAR"
    },
    {
      "bufferView": 8,
      "componentType": 5126,
      "count": 35,
      "max": [
        0.42161187529563904,
        1.225905179977417,
        1.1340924501419067
      ],
      "min": [
        0.08816409856081009,
        0.8490656018257141,
        0.6802834868431091
      ],
      "name": "Mesh.004/POSITION",
      "type": "VEC3"
    },
    {
      "bufferView": 8,
      "byteOffset": 12,
      "componentType": 5126,
      "count": 35,
      "name": "Mesh.004/NORMAL",
      "type": "VEC3"
    },
    {
      "bufferView": 8,
      "byteOffset": 24,
      "componentType": 5126,
      "count": 35,
      "name": "Mesh.004/TEXCOORD_0",
      "type": "VEC2"
    },
    {
      "bufferView": 9,
      "componentType": 5125,
      "count": 150,
      "name": "Mesh.004/INDICES",
      "type": "SCALAR"
    },
    {
      "bufferView": 10,
      "componentType": 5126,
      "count": 35,
      "max": [
        -0.10041816532611847,
        1.225905179977417,
        1.1340924501419067
      ],
      "min": [
        -0.4338659346103668,
        0.8490656018257141,
        0.6802834868431091
      ],
      "name": "Mesh.005/POSITION",
      "type": "VEC3"
    },
    {
      "bufferView": 10,
      "byteOffset": 12,
      "componentType": 5126,
      "count": 35,
      "name": "Mesh.005/NORMAL",
      "type": "VEC3"
    },
    {
      "bufferView": 10,
      "byteOffset": 24,
      "componentType": 5126,
      "count": 35,
      "name": "Mesh.005/TEXCOORD_0",
      "type": "VEC2"
    },
    {
      "bufferView": 11,
      "componentType": 5125,
      "count": 150,
      "name": "Mesh.005/INDICES",
      "type": "SCALAR"
    },
    {
      "bufferView": 12,
      "componentType": 5126,
      "count": 411,
      "max": [
        0.6621708869934082,
        1.2616171836853027,
        1.6901417970657349
      ],
      "min": [
        -0.6621708869934082,
        0.1336427927017212,
        -1.5690001249313354
      ],
      "name": "Van_body_color_Material0/POSITION",
      "type": "VEC3"
    },
    {
      "bufferView": 12,
      "byteOffset": 12,
      "componentType": 5126,
      "count": 411,
      "name": "Van_body_color_Material0/NORMAL",
      "type": "VEC3"
    },
    {
      "bufferView": 12,
      "byteOffset": 24,
      "componentType": 5126,
      "count": 411,
      "name": "Van_body_color_Material0/TEXCOORD_0",
      "type": "VEC2"
    },
    {
      "bufferView": 13,
      "componentType": 5125,
      "count": 1200,
      "name": "Van_body_color_Material0/INDICES",
      "type": "SCALAR"
    },
    {
      "bufferView": 14,
      "componentType": 5126,
      "count": 226,
      "max": [
        0.5733192563056946,
        0.47938987612724304,
        1.6361701488494873
      ],
      "min": [
        -0.5733189582824707,
        0.24200288951396942,
        -1.555363416671753
      ],
      "name": "Van_body_color_Material0/POSITION",
      "type": "VEC3"
    },
    {
      "bufferView": 14,
      "byteOffset": 12,
      "componentType": 5126,
      "count": 226,
      "name": "Van_body_color_Material0/NORMAL",
      "type": "VEC3"
    },
    {
      "bufferView": 14,
      "byteOffset": 24,
      "componentType": 5126,
      "count": 226,
      "name": "Van_body_color_Material0/TEXCOORD_0",
      "type": "VEC2"
    },
    {
      "bufferView": 15,
      "componentType": 5125,
      "count": 486,
      "name": "Van_body_color_Material0/INDICES",
      "type": "SCALAR"
    },
    {
      "bufferView": 16,
      "componentType": 5126,
      "count": 144,
      "max": [
        0.5927067399024963,
        1.5003279447555542,
        1.4697455167770386
      ],
      "min": [
        -0.5927067399024963,
        1.258569359779358,
        -1.5286495685577393
      ],
      "name": "Mesh.008/POSITION",
      "type": "VEC3"
    },
    {
      "bufferView": 16,
      "byteOffset": 12,
      "componentType": 5126,
      "count": 144,
      "name": "Mesh.008/NORMAL",
      "type": "VEC3"
    },
    {
      "bufferView": 16,
      "byteOffset": 24,
      "componentType": 5126,
      "count": 144,
      "name": "Mesh.008/TEXCOORD_0",
      "type": "VEC2"
    },
    {
      "bufferView": 17,
      "componentType": 5125,
      "count": 558,
      "name": "Mesh.008/INDICES",
      "type": "SCALAR"
    },
    {
      "bufferView": 18,
      "componentType": 5126,
      "count": 216,
      "max": [
        0.6329072117805481,
        1.259157657623291,
        1.0997298955917358
      ],
      "min": [
        -0.6329071521759033,
        0.7723968625068665,
        -1.1773525476455688
      ],
      "name": "Mesh.009/POSITION",
      "type": "VEC3"
    },
    {
      "bufferView": 18,
      "byteOffset": 12,
      "componentType": 5126,
      "count": 216,
      "name": "Mesh.009/NORMAL",
      "type": "VEC3"
    },
    {
      "bufferView": 18,
      "byteOffset": 24,
      "componentType": 5126,
      "count": 216,
      "name": "Mesh.009/TEXCOORD_0",
      "type": "VEC2"
    },
    {
      "bufferView": 19,
      "componentType": 5125,
      "count": 360,
      "name": "Mesh.009/INDICES",
      "type": "SCALAR"
    },
    {
      "bufferView": 20,
      "componentType": 5126,
      "count": 88,
      "max": [
        0.5682632327079773,
        1.25542414188385,
        1.6028342247009277
      ],
      "min": [
        -0.5682632327079773,
        0.7056047916412354,
        1.2779278755187988
      ],
      "name": "Mesh.010/POSITION",
      "type": "VEC3"
    },
    {
      "bufferView": 20,
      "byteOffset": 12,
      "componentType": 5126,
      "count": 88,
      "name": "Mesh.010/NORMAL",
      "type": "VEC3"
    },
    {
      "bufferView": 20,
      "byteOffset": 24,
      "componentType": 5126,
      "count": 88,
      "name": "Mesh.010/TEXCOORD_0",
      "type": "VEC2"
    },
    {
      "bufferView": 21,
      "componentType": 5125,
      "count": 228,
      "name": "Mesh.010/INDICES",
      "type": "SCALAR"
    },
    {
      "bufferView": 22,
      "componentType": 5126,
      "count": 50,
      "max": [
        0.4277447760105133,
        1.251062035560608,
        -1.4824389219284058
      ],
      "min": [
        -0.4277447760105133,
        0.7693557143211365,
        -1.5690683126449585
      ],
      "name": "Mesh.011/POSITION",
      "type": "VEC3"
    },
    {
      "bufferView": 22,
      "byteOffset": 12,
      "componentType": 5126,
      "count": 50,
      "name": "Mesh.011/NORMAL",
      "type": "VEC3"
    },
    {
      "bufferView": 22,
      "byteOffset": 24,
      "componentType": 5126,
      "count": 50,
      "name": "Mesh.011/TEXCOORD_0",
      "type": "VEC2"
    },
    {
      "bufferView": 23,
      "componentType": 5125,
      "count": 120,
      "name": "Mesh.011/INDICES",
      "type": "SCALAR"
    }
  ],
  "asset": {
    "copyright": "Copyright (c) 2018-2020 Chukong Technologies Inc.",
    "generator": "FBX-glTF-conv",
    "version": "2.0"
  },
  "bufferViews": [
    {
      "buffer": 0,
      "byteLength": 1056,
      "byteStride": 32,
      "name": "Mesh",
      "target": 34962
    },
    {
      "buffer": 0,
      "byteLength": 624,
      "byteOffset": 1056
    },
    {
      "buffer": 0,
      "byteLength": 1120,
      "byteOffset": 1680,
      "byteStride": 32,
      "name": "Mesh.001",
      "target": 34962
    },
    {
      "buffer": 0,
      "byteLength": 600,
      "byteOffset": 2800
    },
    {
      "buffer": 0,
      "byteLength": 1056,
      "byteOffset": 3400,
      "byteStride": 32,
      "name": "Mesh.002",
      "target": 34962
    },
    {
      "buffer": 0,
      "byteLength": 624,
      "byteOffset": 4456
    },
    {
      "buffer": 0,
      "byteLength": 1120,
      "byteOffset": 5080,
      "byteStride": 32,
      "name": "Mesh.003",
      "target": 34962
    },
    {
      "buffer": 0,
      "byteLength": 600,
      "byteOffset": 6200
    },
    {
      "buffer": 0,
      "byteLength": 1120,
      "byteOffset": 6800,
      "byteStride": 32,
      "name": "Mesh.004",
      "target": 34962
    },
    {
      "buffer": 0,
      "byteLength": 600,
      "byteOffset": 7920
    },
    {
      "buffer": 0,
      "byteLength": 1120,
      "byteOffset": 8520,
      "byteStride": 32,
      "name": "Mesh.005",
      "target": 34962
    },
    {
      "buffer": 0,
      "byteLength": 600,
      "byteOffset": 9640
    },
    {
      "buffer": 0,
      "byteLength": 13152,
      "byteOffset": 10240,
      "byteStride": 32,
      "name": "Van_body_color_Material0",
      "target": 34962
    },
    {
      "buffer": 0,
      "byteLength": 4800,
      "byteOffset": 23392
    },
    {
      "buffer": 0,
      "byteLength": 7232,
      "byteOffset": 28192,
      "byteStride": 32,
      "name": "Van_body_color_Material0",
      "target": 34962
    },
    {
      "buffer": 0,
      "byteLength": 1944,
      "byteOffset": 35424
    },
    {
      "buffer": 0,
      "byteLength": 4608,
      "byteOffset": 37368,
      "byteStride": 32,
      "name": "Mesh.008",
      "target": 34962
    },
    {
      "buffer": 0,
      "byteLength": 2232,
      "byteOffset": 41976
    },
    {
      "buffer": 0,
      "byteLength": 6912,
      "byteOffset": 44208,
      "byteStride": 32,
      "name": "Mesh.009",
      "target": 34962
    },
    {
      "buffer": 0,
      "byteLength": 1440,
      "byteOffset": 51120
    },
    {
      "buffer": 0,
      "byteLength": 2816,
      "byteOffset": 52560,
      "byteStride": 32,
      "name": "Mesh.010",
      "target": 34962
    },
    {
      "buffer": 0,
      "byteLength": 912,
      "byteOffset": 55376
    },
    {
      "buffer": 0,
      "byteLength": 1600,
      "byteOffset": 56288,
      "byteStride": 32,
      "name": "Mesh.011",
      "target": 34962
    },
    {
      "buffer": 0,
      "byteLength": 480,
      "byteOffset": 57888
    }
  ],
  "buffers": [
    {
      "byteLength": 58368,
      "uri": "out.bin"
    }
  ],
  "extras": {
    "FBX-glTF-conv": {
      "animationFrameRate": 24.0
    }
  },
  "images": [
    {
      "extras": {
        "FBX-glTF-conv": {
          "fileName": "U:\\CocosProjects\\PA\\Amobear_CarJam\\assets\\Art\\Model\\Color_All.psd",
          "relativeFileName": "Color_All.psd"
        }
      },
      "name": "base_color_texture",
      "uri": "data:image/png;base64,"
    }
  ],
  "materials": [
    {
      "name": "Color.001",
      "pbrMetallicRoughness": {
        "baseColorTexture": {
          "index": 0
        },
        "metallicFactor": 0.4000000059604645,
        "roughnessFactor": 0.7071067094802856
      }
    },
    {
      "name": "light",
      "pbrMetallicRoughness": {
        "baseColorFactor": [
          0.5,
          0.5,
          0.5,
          1.0
        ],
        "metallicFactor": 0.4000000059604645,
        "roughnessFactor": 0.30151134729385376
      }
    }
  ],
  "meshes": [
    {
      "name": "Mesh",
      "primitives": [
        {
          "attributes": {
            "NORMAL": 1,
            "POSITION": 0,
            "TEXCOORD_0": 2
          },
          "indices": 3,
          "material": 0
        }
      ]
    },
    {
      "name": "Mesh.001",
      "primitives": [
        {
          "attributes": {
            "NORMAL": 5,
            "POSITION": 4,
            "TEXCOORD_0": 6
          },
          "indices": 7,
          "material": 0
        }
      ]
    },
    {
      "name": "Mesh.002",
      "primitives": [
        {
          "attributes": {
            "NORMAL": 9,
            "POSITION": 8,
            "TEXCOORD_0": 10
          },
          "indices": 11,
          "material": 0
        }
      ]
    },
    {
      "name": "Mesh.003",
      "primitives": [
        {
          "attributes": {
            "NORMAL": 13,
            "POSITION": 12,
            "TEXCOORD_0": 14
          },
          "indices": 15,
          "material": 0
        }
      ]
    },
    {
      "name": "Mesh.004",
      "primitives": [
        {
          "attributes": {
            "NORMAL": 17,
            "POSITION": 16,
            "TEXCOORD_0": 18
          },
          "indices": 19,
          "material": 0
        }
      ]
    },
    {
      "name": "Mesh.005",
      "primitives": [
        {
          "attributes": {
            "NORMAL": 21,
            "POSITION": 20,
            "TEXCOORD_0": 22
          },
          "indices": 23,
          "material": 0
        }
      ]
    },
    {
      "name": "Van_body_color_Material0",
      "primitives": [
        {
          "attributes": {
            "NORMAL": 25,
            "POSITION": 24,
            "TEXCOORD_0": 26
          },
          "indices": 27,
          "material": 0
        },
        {
          "attributes": {
            "NORMAL": 29,
            "POSITION": 28,
            "TEXCOORD_0": 30
          },
          "indices": 31,
          "material": 1
        }
      ]
    },
    {
      "name": "Mesh.008",
      "primitives": [
        {
          "attributes": {
            "NORMAL": 33,
            "POSITION": 32,
            "TEXCOORD_0": 34
          },
          "indices": 35,
          "material": 0
        }
      ]
    },
    {
      "name": "Mesh.009",
      "primitives": [
        {
          "attributes": {
            "NORMAL": 37,
            "POSITION": 36,
            "TEXCOORD_0": 38
          },
          "indices": 39,
          "material": 0
        }
      ]
    },
    {
      "name": "Mesh.010",
      "primitives": [
        {
          "attributes": {
            "NORMAL": 41,
            "POSITION": 40,
            "TEXCOORD_0": 42
          },
          "indices": 43,
          "material": 0
        }
      ]
    },
    {
      "name": "Mesh.011",
      "primitives": [
        {
          "attributes": {
            "NORMAL": 45,
            "POSITION": 44,
            "TEXCOORD_0": 46
          },
          "indices": 47,
          "material": 0
        }
      ]
    }
  ],
  "nodes": [
    {
      "children": [
        1,
        2,
        3,
        4,
        5,
        6,
        7,
        8,
        9,
        10,
        11
      ],
      "name": "1_Van_SixSeater"
    },
    {
      "mesh": 0,
      "name": "Seat_5.001"
    },
    {
      "mesh": 1,
      "name": "Seat_6.001"
    },
    {
      "mesh": 2,
      "name": "Seat_3.001"
    },
    {
      "mesh": 3,
      "name": "Seat_4.001"
    },
    {
      "mesh": 4,
      "name": "Seat_1.001"
    },
    {
      "mesh": 5,
      "name": "Seat_2.001"
    },
    {
      "mesh": 6,
      "name": "Van_body_color"
    },
    {
      "mesh": 7,
      "name": "Van_roof__Removable__color"
    },
    {
      "mesh": 8,
      "name": "kinh_b_2"
    },
    {
      "mesh": 9,
      "name": "kinh_b_1"
    },
    {
      "mesh": 10,
      "name": "kinh_b_3"
    }
  ],
  "samplers": [
    {}
  ],
  "scenes": [
    {
      "name": "Scene",
      "nodes": [
        0
      ]
    }
  ],
  "textures": [
    {
      "name": "base_color_texture",
      "sampler": 0,
      "source": 0
    }
  ]
}