{
  "accessors": [
    {
      "bufferView": 0,
      "componentType": 5126,
      "count": 383,
      "max": [
        0.0071914601139724255,
        0.07006334513425827,
        0.0008769700070843101
      ],
      "min": [
        -0.0031199899967759848,
        -0.00566848972812295,
        -0.0008769700070843101
      ],
      "name": "knife_chef_knife_Cube.005/POSITION",
      "type": "VEC3"
    },
    {
      "bufferView": 0,
      "byteOffset": 12,
      "componentType": 5126,
      "count": 383,
      "name": "knife_chef_knife_Cube.005/NORMAL",
      "type": "VEC3"
    },
    {
      "bufferView": 0,
      "byteOffset": 24,
      "componentType": 5126,
      "count": 383,
      "name": "knife_chef_knife_Cube.005/TEXCOORD_0",
      "type": "VEC2"
    },
    {
      "bufferView": 1,
      "componentType": 5125,
      "count": 1116,
      "name": "knife_chef_knife_Cube.005/INDICES",
      "type": "SCALAR"
    }
  ],
  "asset": {
    "copyright": "Copyright (c) 2018-2020 Chukong Technologies Inc.",
    "generator": "FBX-glTF-conv",
    "version": "2.0"
  },
  "bufferViews": [
    {
      "buffer": 0,
      "byteLength": 12256,
      "byteStride": 32,
      "name": "knife_chef_knife_Cube.005",
      "target": 34962
    },
    {
      "buffer": 0,
      "byteLength": 4464,
      "byteOffset": 12256
    }
  ],
  "buffers": [
    {
      "byteLength": 16720,
      "uri": "out.bin"
    }
  ],
  "extras": {
    "FBX-glTF-conv": {
      "animationFrameRate": 24.0
    }
  },
  "images": [
    {
      "extras": {
        "FBX-glTF-conv": {
          "fileName": "C:\\Users\\anhdnv\\Downloads\\Chef Knife\\knife_chef_knife.png",
          "relativeFileName": "knife_chef_knife.png"
        }
      },
      "name": "base_color_texture",
      "uri": "data:image/png;base64,"
    }
  ],
  "materials": [
    {
      "name": "Solid.131",
      "pbrMetallicRoughness": {
        "baseColorTexture": {
          "index": 0
        },
        "metallicFactor": 0.4000000059604645,
        "roughnessFactor": 0.2857142984867096
      }
    }
  ],
  "meshes": [
    {
      "name": "knife_chef_knife_Cube.005",
      "primitives": [
        {
          "attributes": {
            "NORMAL": 1,
            "POSITION": 0,
            "TEXCOORD_0": 2
          },
          "indices": 3,
          "material": 0
        }
      ]
    }
  ],
  "nodes": [
    {
      "mesh": 0,
      "name": "knife_chef_knife_Cube.005",
      "scale": [
        100.0,
        100.0,
        100.0
      ]
    }
  ],
  "samplers": [
    {}
  ],
  "scenes": [
    {
      "name": "Scene",
      "nodes": [
        0
      ]
    }
  ],
  "textures": [
    {
      "name": "base_color_texture",
      "sampler": 0,
      "source": 0
    }
  ]
}