{
  "accessors": [
    {
      "bufferView": 0,
      "componentType": 5126,
      "count": 56,
      "max": [
        0.0006072400137782097,
        0.007088440004736185,
        0.007395830005407333
      ],
      "min": [
        -0.0010753599926829338,
        -0.0002528199984226376,
        0.00577834015712142
      ],
      "name": "Cube.001_Cube.002/POSITION",
      "type": "VEC3"
    },
    {
      "bufferView": 0,
      "byteOffset": 12,
      "componentType": 5126,
      "count": 56,
      "name": "Cube.001_Cube.002/NORMAL",
      "type": "VEC3"
    },
    {
      "bufferView": 1,
      "componentType": 5125,
      "count": 84,
      "name": "Cube.001_Cube.002/INDICES",
      "type": "SCALAR"
    },
    {
      "bufferView": 2,
      "componentType": 5126,
      "count": 56,
      "max": [
        3.577000097720884e-05,
        0.005604860372841358,
        0.007931849919259548
      ],
      "min": [
        -0.0005401900270953774,
        0.003987309988588095,
        -0.007287729997187853
      ],
      "name": "Cube.002_Cube.003/POSITION",
      "type": "VEC3"
    },
    {
      "bufferView": 2,
      "byteOffset": 12,
      "componentType": 5126,
      "count": 56,
      "name": "Cube.002_Cube.003/NORMAL",
      "type": "VEC3"
    },
    {
      "bufferView": 3,
      "componentType": 5125,
      "count": 84,
      "name": "Cube.002_Cube.003/INDICES",
      "type": "SCALAR"
    },
    {
      "bufferView": 4,
      "componentType": 5126,
      "count": 56,
      "max": [
        0.00026525999419391155,
        0.003121190005913377,
        0.007249710150063038
      ],
      "min": [
        -0.00042098999256268144,
        0.001503649982623756,
        -0.007969739846885204
      ],
      "name": "Cube.003_Cube.004/POSITION",
      "type": "VEC3"
    },
    {
      "bufferView": 4,
      "byteOffset": 12,
      "componentType": 5126,
      "count": 56,
      "name": "Cube.003_Cube.004/NORMAL",
      "type": "VEC3"
    },
    {
      "bufferView": 5,
      "componentType": 5125,
      "count": 84,
      "name": "Cube.003_Cube.004/INDICES",
      "type": "SCALAR"
    },
    {
      "bufferView": 6,
      "componentType": 5126,
      "count": 56,
      "max": [
        0.0006072400137782097,
        0.007088440004736185,
        -0.005294459871947765
      ],
      "min": [
        -0.0010753599926829338,
        -0.0002528199984226376,
        -0.006911960430443287
      ],
      "name": "Cube_Cube.001/POSITION",
      "type": "VEC3"
    },
    {
      "bufferView": 6,
      "byteOffset": 12,
      "componentType": 5126,
      "count": 56,
      "name": "Cube_Cube.001/NORMAL",
      "type": "VEC3"
    },
    {
      "bufferView": 7,
      "componentType": 5125,
      "count": 84,
      "name": "Cube_Cube.001/INDICES",
      "type": "SCALAR"
    },
    {
      "bufferView": 8,
      "componentType": 5126,
      "count": 60,
      "max": [
        0.0004993699840269983,
        0.005115150008350611,
        0.006737089715898037
      ],
      "min": [
        -0.0008685299544595182,
        0.0045111700892448425,
        0.006223319564014673
      ],
      "name": "Icosphere/POSITION",
      "type": "VEC3"
    },
    {
      "bufferView": 8,
      "byteOffset": 12,
      "componentType": 5126,
      "count": 60,
      "name": "Icosphere/NORMAL",
      "type": "VEC3"
    },
    {
      "bufferView": 9,
      "componentType": 5125,
      "count": 60,
      "name": "Icosphere/INDICES",
      "type": "SCALAR"
    },
    {
      "bufferView": 10,
      "componentType": 5126,
      "count": 60,
      "max": [
        0.00047990999883040786,
        0.005115150008350611,
        -0.005907710175961256
      ],
      "min": [
        -0.00095422996673733,
        0.0045111700892448425,
        -0.00642148032784462
      ],
      "name": "Icosphere.001/POSITION",
      "type": "VEC3"
    },
    {
      "bufferView": 10,
      "byteOffset": 12,
      "componentType": 5126,
      "count": 60,
      "name": "Icosphere.001/NORMAL",
      "type": "VEC3"
    },
    {
      "bufferView": 11,
      "componentType": 5125,
      "count": 60,
      "name": "Icosphere.001/INDICES",
      "type": "SCALAR"
    },
    {
      "bufferView": 12,
      "componentType": 5126,
      "count": 60,
      "max": [
        0.0007275400566868484,
        0.0028514000587165356,
        -0.00588552001863718
      ],
      "min": [
        -0.0007420700276270509,
        0.0022474199067801237,
        -0.006399290170520544
      ],
      "name": "Icosphere.002/POSITION",
      "type": "VEC3"
    },
    {
      "bufferView": 12,
      "byteOffset": 12,
      "componentType": 5126,
      "count": 60,
      "name": "Icosphere.002/NORMAL",
      "type": "VEC3"
    },
    {
      "bufferView": 13,
      "componentType": 5125,
      "count": 60,
      "name": "Icosphere.002/INDICES",
      "type": "SCALAR"
    },
    {
      "bufferView": 14,
      "componentType": 5126,
      "count": 60,
      "max": [
        0.00047456996981054544,
        0.002748509868979454,
        0.006814450025558472
      ],
      "min": [
        -0.0008769200067035854,
        0.0021445199381560087,
        0.006300679873675108
      ],
      "name": "Icosphere.003/POSITION",
      "type": "VEC3"
    },
    {
      "bufferView": 14,
      "byteOffset": 12,
      "componentType": 5126,
      "count": 60,
      "name": "Icosphere.003/NORMAL",
      "type": "VEC3"
    },
    {
      "bufferView": 15,
      "componentType": 5125,
      "count": 60,
      "name": "Icosphere.003/INDICES",
      "type": "SCALAR"
    }
  ],
  "asset": {
    "copyright": "Copyright (c) 2018-2020 Chukong Technologies Inc.",
    "generator": "FBX-glTF-conv",
    "version": "2.0"
  },
  "bufferViews": [
    {
      "buffer": 0,
      "byteLength": 1344,
      "byteStride": 24,
      "name": "Cube.001_Cube.002",
      "target": 34962
    },
    {
      "buffer": 0,
      "byteLength": 336,
      "byteOffset": 1344
    },
    {
      "buffer": 0,
      "byteLength": 1344,
      "byteOffset": 1680,
      "byteStride": 24,
      "name": "Cube.002_Cube.003",
      "target": 34962
    },
    {
      "buffer": 0,
      "byteLength": 336,
      "byteOffset": 3024
    },
    {
      "buffer": 0,
      "byteLength": 1344,
      "byteOffset": 3360,
      "byteStride": 24,
      "name": "Cube.003_Cube.004",
      "target": 34962
    },
    {
      "buffer": 0,
      "byteLength": 336,
      "byteOffset": 4704
    },
    {
      "buffer": 0,
      "byteLength": 1344,
      "byteOffset": 5040,
      "byteStride": 24,
      "name": "Cube_Cube.001",
      "target": 34962
    },
    {
      "buffer": 0,
      "byteLength": 336,
      "byteOffset": 6384
    },
    {
      "buffer": 0,
      "byteLength": 1440,
      "byteOffset": 6720,
      "byteStride": 24,
      "name": "Icosphere",
      "target": 34962
    },
    {
      "buffer": 0,
      "byteLength": 240,
      "byteOffset": 8160
    },
    {
      "buffer": 0,
      "byteLength": 1440,
      "byteOffset": 8400,
      "byteStride": 24,
      "name": "Icosphere.001",
      "target": 34962
    },
    {
      "buffer": 0,
      "byteLength": 240,
      "byteOffset": 9840
    },
    {
      "buffer": 0,
      "byteLength": 1440,
      "byteOffset": 10080,
      "byteStride": 24,
      "name": "Icosphere.002",
      "target": 34962
    },
    {
      "buffer": 0,
      "byteLength": 240,
      "byteOffset": 11520
    },
    {
      "buffer": 0,
      "byteLength": 1440,
      "byteOffset": 11760,
      "byteStride": 24,
      "name": "Icosphere.003",
      "target": 34962
    },
    {
      "buffer": 0,
      "byteLength": 240,
      "byteOffset": 13200
    }
  ],
  "buffers": [
    {
      "byteLength": 13440,
      "uri": "out.bin"
    }
  ],
  "extras": {
    "FBX-glTF-conv": {
      "animationFrameRate": 24.0
    }
  },
  "materials": [
    {
      "name": "Fence_Wood",
      "pbrMetallicRoughness": {
        "baseColorFactor": [
          0.6399999856948853,
          0.22014999389648438,
          0.02292099967598915,
          1.0
        ],
        "metallicFactor": 0.4000000059604645,
        "roughnessFactor": 0.4150870442390442
      }
    },
    {
      "name": "Fence_Nail",
      "pbrMetallicRoughness": {
        "baseColorFactor": [
          0.10629100352525711,
          0.10629100352525711,
          0.10629100352525711,
          1.0
        ],
        "metallicFactor": 0.4000000059604645,
        "roughnessFactor": 0.4150870442390442
      }
    }
  ],
  "meshes": [
    {
      "name": "Cube.001_Cube.002",
      "primitives": [
        {
          "attributes": {
            "NORMAL": 1,
            "POSITION": 0
          },
          "indices": 2,
          "material": 0
        }
      ]
    },
    {
      "name": "Cube.002_Cube.003",
      "primitives": [
        {
          "attributes": {
            "NORMAL": 4,
            "POSITION": 3
          },
          "indices": 5,
          "material": 0
        }
      ]
    },
    {
      "name": "Cube.003_Cube.004",
      "primitives": [
        {
          "attributes": {
            "NORMAL": 7,
            "POSITION": 6
          },
          "indices": 8,
          "material": 0
        }
      ]
    },
    {
      "name": "Cube_Cube.001",
      "primitives": [
        {
          "attributes": {
            "NORMAL": 10,
            "POSITION": 9
          },
          "indices": 11,
          "material": 0
        }
      ]
    },
    {
      "name": "Icosphere",
      "primitives": [
        {
          "attributes": {
            "NORMAL": 13,
            "POSITION": 12
          },
          "indices": 14,
          "material": 1
        }
      ]
    },
    {
      "name": "Icosphere.001",
      "primitives": [
        {
          "attributes": {
            "NORMAL": 16,
            "POSITION": 15
          },
          "indices": 17,
          "material": 1
        }
      ]
    },
    {
      "name": "Icosphere.002",
      "primitives": [
        {
          "attributes": {
            "NORMAL": 19,
            "POSITION": 18
          },
          "indices": 20,
          "material": 1
        }
      ]
    },
    {
      "name": "Icosphere.003",
      "primitives": [
        {
          "attributes": {
            "NORMAL": 22,
            "POSITION": 21
          },
          "indices": 23,
          "material": 1
        }
      ]
    }
  ],
  "nodes": [
    {
      "mesh": 0,
      "name": "Cube.001_Cube.002",
      "scale": [
        100.0,
        100.0,
        100.0
      ]
    },
    {
      "mesh": 1,
      "name": "Cube.002_Cube.003",
      "scale": [
        100.0,
        100.0,
        100.0
      ]
    },
    {
      "mesh": 2,
      "name": "Cube.003_Cube.004",
      "scale": [
        100.0,
        100.0,
        100.0
      ]
    },
    {
      "mesh": 3,
      "name": "Cube_Cube.001",
      "scale": [
        100.0,
        100.0,
        100.0
      ]
    },
    {
      "mesh": 4,
      "name": "Icosphere",
      "scale": [
        100.0,
        100.0,
        100.0
      ]
    },
    {
      "mesh": 5,
      "name": "Icosphere.001",
      "scale": [
        100.0,
        100.0,
        100.0
      ]
    },
    {
      "mesh": 6,
      "name": "Icosphere.002",
      "scale": [
        100.0,
        100.0,
        100.0
      ]
    },
    {
      "mesh": 7,
      "name": "Icosphere.003",
      "scale": [
        100.0,
        100.0,
        100.0
      ]
    }
  ],
  "scenes": [
    {
      "name": "Scene",
      "nodes": [
        0,
        1,
        2,
        3,
        4,
        5,
        6,
        7
      ]
    }
  ]
}