{
  "accessors": [
    {
      "bufferView": 0,
      "componentType": 5126,
      "count": 432,
      "max": [
        0.01808098889887333,
        0.013830725103616714,
        0.0049162693321704865
      ],
      "min": [
        -0.013830725103616714,
        -0.013830725103616714,
        -0.005531993694603443
      ],
      "name": "Torus.003/POSITION",
      "type": "VEC3"
    },
    {
      "bufferView": 0,
      "byteOffset": 12,
      "componentType": 5126,
      "count": 432,
      "name": "Torus.003/NORMAL",
      "type": "VEC3"
    },
    {
      "bufferView": 0,
      "byteOffset": 24,
      "componentType": 5126,
      "count": 432,
      "name": "Torus.003/TEXCOORD_0",
      "type": "VEC2"
    },
    {
      "bufferView": 1,
      "componentType": 5125,
      "count": 918,
      "name": "Torus.003/INDICES",
      "type": "SCALAR"
    },
    {
      "bufferView": 2,
      "componentType": 5126,
      "count": 22,
      "max": [
        0.04289646074175835,
        0.0032387340907007456,
        0.0032387354876846075
      ],
      "min": [
        -2.3756027076160535e-05,
        -0.0032387340907007456,
        -0.003238735720515251
      ],
      "name": "Cylinder.001/POSITION",
      "type": "VEC3"
    },
    {
      "bufferView": 2,
      "byteOffset": 12,
      "componentType": 5126,
      "count": 22,
      "name": "Cylinder.001/NORMAL",
      "type": "VEC3"
    },
    {
      "bufferView": 2,
      "byteOffset": 24,
      "componentType": 5126,
      "count": 22,
      "name": "Cylinder.001/TEXCOORD_0",
      "type": "VEC2"
    },
    {
      "bufferView": 3,
      "componentType": 5125,
      "count": 54,
      "name": "Cylinder.001/INDICES",
      "type": "SCALAR"
    },
    {
      "bufferView": 4,
      "componentType": 5126,
      "count": 47,
      "max": [
        0.0009730863384902477,
        0.0030961097218096256,
        0.0030961097218096256
      ],
      "min": [
        -0.0014090585755184293,
        -0.0033813584595918655,
        -0.0033813584595918655
      ],
      "name": "Cylinder.003/POSITION",
      "type": "VEC3"
    },
    {
      "bufferView": 4,
      "byteOffset": 12,
      "componentType": 5126,
      "count": 47,
      "name": "Cylinder.003/NORMAL",
      "type": "VEC3"
    },
    {
      "bufferView": 4,
      "byteOffset": 24,
      "componentType": 5126,
      "count": 47,
      "name": "Cylinder.003/TEXCOORD_0",
      "type": "VEC2"
    },
    {
      "bufferView": 5,
      "componentType": 5125,
      "count": 183,
      "name": "Cylinder.003/INDICES",
      "type": "SCALAR"
    }
  ],
  "asset": {
    "copyright": "Copyright (c) 2018-2020 Chukong Technologies Inc.",
    "generator": "FBX-glTF-conv",
    "version": "2.0"
  },
  "bufferViews": [
    {
      "buffer": 0,
      "byteLength": 13824,
      "byteStride": 32,
      "name": "Torus.003",
      "target": 34962
    },
    {
      "buffer": 0,
      "byteLength": 3672,
      "byteOffset": 13824
    },
    {
      "buffer": 0,
      "byteLength": 704,
      "byteOffset": 17496,
      "byteStride": 32,
      "name": "Cylinder.001",
      "target": 34962
    },
    {
      "buffer": 0,
      "byteLength": 216,
      "byteOffset": 18200
    },
    {
      "buffer": 0,
      "byteLength": 1504,
      "byteOffset": 18416,
      "byteStride": 32,
      "name": "Cylinder.003",
      "target": 34962
    },
    {
      "buffer": 0,
      "byteLength": 732,
      "byteOffset": 19920
    }
  ],
  "buffers": [
    {
      "byteLength": 20652,
      "uri": "out.bin"
    }
  ],
  "extras": {
    "FBX-glTF-conv": {
      "animationFrameRate": 25.0
    }
  },
  "images": [
    {
      "extras": {
        "FBX-glTF-conv": {
          "fileName": "D:\\Fork\\cam-jam\\Assets\\_Game\\Hung\\Tex\\Color_stick.psd",
          "relativeFileName": "D:\\Fork\\cam-jam\\Assets\\_Game\\Hung\\Tex\\Color_stick.psd"
        }
      },
      "name": "base_color_texture",
      "uri": "data:image/png;base64,"
    }
  ],
  "materials": [
    {
      "name": "color.003",
      "pbrMetallicRoughness": {
        "baseColorTexture": {
          "index": 0
        },
        "metallicFactor": 0.4000000059604645,
        "roughnessFactor": 0.30151134729385376
      }
    }
  ],
  "meshes": [
    {
      "name": "Torus.003",
      "primitives": [
        {
          "attributes": {
            "NORMAL": 1,
            "POSITION": 0,
            "TEXCOORD_0": 2
          },
          "indices": 3,
          "material": 0
        }
      ]
    },
    {
      "name": "Cylinder.001",
      "primitives": [
        {
          "attributes": {
            "NORMAL": 5,
            "POSITION": 4,
            "TEXCOORD_0": 6
          },
          "indices": 7,
          "material": 0
        }
      ]
    },
    {
      "name": "Cylinder.003",
      "primitives": [
        {
          "attributes": {
            "NORMAL": 9,
            "POSITION": 8,
            "TEXCOORD_0": 10
          },
          "indices": 11,
          "material": 0
        }
      ]
    }
  ],
  "nodes": [
    {
      "children": [
        1
      ],
      "mesh": 0,
      "name": "head",
      "rotation": [
        -0.7030595541000366,
        -0.07554612308740616,
        -0.07554612308740616,
        0.7030596137046814
      ],
      "scale": [
        78.22376251220703,
        78.22376251220703,
        78.22376251220703
      ],
      "translation": [
        -8.901683807373047,
        0.0,
        -5.798442840576172
      ]
    },
    {
      "children": [
        2
      ],
      "mesh": 1,
      "name": "body",
      "rotation": [
        0.20675459504127502,
        0.022216474637389183,
        0.10450293123722076,
        0.9725421071052551
      ],
      "scale": [
        1.1023465394973755,
        1.1023467779159546,
        1.102346658706665
      ],
      "translation": [
        0.009372987784445286,
        0.002037839964032173,
        0.0
      ]
    },
    {
      "mesh": 2,
      "name": "head.001",
      "scale": [
        1.000000238418579,
        1.0,
        0.9999998807907104
      ],
      "translation": [
        0.044220853596925735,
        0.0,
        -4.440891999238953e-18
      ]
    }
  ],
  "samplers": [
    {}
  ],
  "scenes": [
    {
      "name": "Scene",
      "nodes": [
        0
      ]
    }
  ],
  "textures": [
    {
      "name": "base_color_texture",
      "sampler": 0,
      "source": 0
    }
  ]
}