{
  "accessors": [
    {
      "bufferView": 0,
      "componentType": 5126,
      "count": 285,
      "max": [
        0.7257887125015259,
        2.7543931007385254,
        0.14153800904750824
      ],
      "min": [
        -0.7257885932922363,
        1.3248682022094727,
        -0.14153793454170227
      ],
      "name": "CL_circle/POSITION",
      "type": "VEC3"
    },
    {
      "bufferView": 0,
      "byteOffset": 12,
      "componentType": 5126,
      "count": 285,
      "name": "CL_circle/NORMAL",
      "type": "VEC3"
    },
    {
      "bufferView": 0,
      "byteOffset": 24,
      "componentType": 5126,
      "count": 285,
      "name": "CL_circle/TEXCOORD_0",
      "type": "VEC2"
    },
    {
      "bufferView": 1,
      "componentType": 5125,
      "count": 1512,
      "name": "CL_circle/INDICES",
      "type": "SCALAR"
    }
  ],
  "asset": {
    "copyright": "Copyright (c) 2018-2020 Chukong Technologies Inc.",
    "generator": "FBX-glTF-conv",
    "version": "2.0"
  },
  "bufferViews": [
    {
      "buffer": 0,
      "byteLength": 9120,
      "byteStride": 32,
      "name": "CL_circle",
      "target": 34962
    },
    {
      "buffer": 0,
      "byteLength": 6048,
      "byteOffset": 9120
    }
  ],
  "buffers": [
    {
      "byteLength": 15168,
      "uri": "out.bin"
    }
  ],
  "extras": {
    "FBX-glTF-conv": {
      "animationFrameRate": 24.0
    }
  },
  "materials": [
    {
      "name": "T_CL_circle",
      "pbrMetallicRoughness": {
        "baseColorFactor": [
          0.4000000059604645,
          0.4000000059604645,
          0.4000000059604645,
          1.0
        ]
      }
    }
  ],
  "meshes": [
    {
      "name": "CL_circle",
      "primitives": [
        {
          "attributes": {
            "NORMAL": 1,
            "POSITION": 0,
            "TEXCOORD_0": 2
          },
          "indices": 3,
          "material": 0
        }
      ]
    }
  ],
  "nodes": [
    {
      "mesh": 0,
      "name": "CL_circle"
    }
  ],
  "scenes": [
    {
      "nodes": [
        0
      ]
    }
  ]
}