{
  "accessors": [
    {
      "bufferView": 0,
      "componentType": 5126,
      "count": 377,
      "max": [
        1.268334984779358,
        2.4723660945892334,
        1.2683303356170654
      ],
      "min": [
        -1.2683300971984863,
        -7.629394360719743e-08,
        -1.2683303356170654
      ],
      "name": "thunggo/POSITION",
      "type": "VEC3"
    },
    {
      "bufferView": 0,
      "byteOffset": 12,
      "componentType": 5126,
      "count": 377,
      "name": "thunggo/NORMAL",
      "type": "VEC3"
    },
    {
      "bufferView": 0,
      "byteOffset": 24,
      "componentType": 5126,
      "count": 377,
      "name": "thunggo/TEXCOORD_0",
      "type": "VEC2"
    },
    {
      "bufferView": 1,
      "componentType": 5125,
      "count": 696,
      "name": "thunggo/INDICES",
      "type": "SCALAR"
    }
  ],
  "asset": {
    "copyright": "Copyright (c) 2018-2020 Chukong Technologies Inc.",
    "generator": "FBX-glTF-conv",
    "version": "2.0"
  },
  "bufferViews": [
    {
      "buffer": 0,
      "byteLength": 12064,
      "byteStride": 32,
      "name": "thunggo",
      "target": 34962
    },
    {
      "buffer": 0,
      "byteLength": 2784,
      "byteOffset": 12064
    }
  ],
  "buffers": [
    {
      "byteLength": 14848,
      "uri": "out.bin"
    }
  ],
  "extras": {
    "FBX-glTF-conv": {
      "animationFrameRate": 30.0
    }
  },
  "images": [
    {
      "extras": {
        "FBX-glTF-conv": {
          "fileName": "D:/toan2/squidrun/iteam/baibien/color.jpg",
          "relativeFileName": "..\\color.jpg"
        }
      },
      "name": "file1",
      "uri": "data:image/png;base64,"
    }
  ],
  "materials": [
    {
      "name": "color",
      "pbrMetallicRoughness": {
        "baseColorFactor": [
          0.800000011920929,
          0.800000011920929,
          0.800000011920929,
          1.0
        ],
        "baseColorTexture": {
          "index": 0
        }
      }
    }
  ],
  "meshes": [
    {
      "name": "thunggo",
      "primitives": [
        {
          "attributes": {
            "NORMAL": 1,
            "POSITION": 0,
            "TEXCOORD_0": 2
          },
          "indices": 3,
          "material": 0
        }
      ]
    }
  ],
  "nodes": [
    {
      "mesh": 0,
      "name": "thunggo"
    }
  ],
  "samplers": [
    {}
  ],
  "scenes": [
    {
      "nodes": [
        0
      ]
    }
  ],
  "textures": [
    {
      "name": "file1",
      "sampler": 0,
      "source": 0
    }
  ]
}