{
  "accessors": [
    {
      "bufferView": 0,
      "componentType": 5126,
      "count": 1610,
      "max": [
        0.7288624048233032,
        1.3171848058700562,
        0.14672428369522095
      ],
      "min": [
        -0.7288624048233032,
        3.2424927098873013e-07,
        -0.11593212187290192
      ],
      "name": "husky/POSITION",
      "type": "VEC3"
    },
    {
      "bufferView": 0,
      "byteOffset": 12,
      "componentType": 5126,
      "count": 1610,
      "name": "husky/NORMAL",
      "type": "VEC3"
    },
    {
      "bufferView": 0,
      "byteOffset": 24,
      "componentType": 5126,
      "count": 1610,
      "name": "husky/TEXCOORD_0",
      "type": "VEC2"
    },
    {
      "bufferView": 0,
      "byteOffset": 32,
      "componentType": 5123,
      "count": 1610,
      "name": "husky/JOINTS_0",
      "type": "VEC4"
    },
    {
      "bufferView": 0,
      "byteOffset": 40,
      "componentType": 5126,
      "count": 1610,
      "name": "husky/WEIGHTS_0",
      "type": "VEC4"
    },
    {
      "bufferView": 0,
      "byteOffset": 56,
      "componentType": 5123,
      "count": 1610,
      "name": "husky/JOINTS_1",
      "type": "VEC4"
    },
    {
      "bufferView": 0,
      "byteOffset": 64,
      "componentType": 5126,
      "count": 1610,
      "name": "husky/WEIGHTS_1",
      "type": "VEC4"
    },
    {
      "bufferView": 1,
      "componentType": 5125,
      "count": 6510,
      "name": "husky/INDICES",
      "type": "SCALAR"
    },
    {
      "bufferView": 2,
      "componentType": 5126,
      "count": 34,
      "name": "/InverseBindMatrices",
      "type": "MAT4"
    }
  ],
  "asset": {
    "copyright": "Copyright (c) 2018-2020 Chukong Technologies Inc.",
    "generator": "FBX-glTF-conv",
    "version": "2.0"
  },
  "bufferViews": [
    {
      "buffer": 0,
      "byteLength": 128800,
      "byteStride": 80,
      "name": "husky",
      "target": 34962
    },
    {
      "buffer": 0,
      "byteLength": 26040,
      "byteOffset": 128800
    },
    {
      "buffer": 0,
      "byteLength": 2176,
      "byteOffset": 154840
    }
  ],
  "buffers": [
    {
      "byteLength": 157016,
      "uri": "out.bin"
    }
  ],
  "extras": {
    "FBX-glTF-conv": {
      "animationFrameRate": 30.0
    }
  },
  "images": [
    {
      "extras": {
        "FBX-glTF-conv": {
          "fileName": "D:/Unity/456run/squid-run-2/Assets/Games/Models/Characters/FileTexupdate/HuggyMacAo3.jpg",
          "relativeFileName": "D:/Unity/456run/squid-run-2/Assets/Games/Models/Characters/FileTexupdate/HuggyMacAo3.jpg"
        }
      },
      "name": "base_color_texture3",
      "uri": "data:image/png;base64,"
    }
  ],
  "materials": [
    {
      "name": "Huggy",
      "pbrMetallicRoughness": {
        "baseColorTexture": {
          "index": 0
        },
        "metallicFactor": 0.4000000059604645,
        "roughnessFactor": 0.30151134729385376
      }
    }
  ],
  "meshes": [
    {
      "name": "husky",
      "primitives": [
        {
          "attributes": {
            "JOINTS_0": 3,
            "JOINTS_1": 5,
            "NORMAL": 1,
            "POSITION": 0,
            "TEXCOORD_0": 2,
            "WEIGHTS_0": 4,
            "WEIGHTS_1": 6
          },
          "indices": 7,
          "material": 0
        }
      ]
    }
  ],
  "nodes": [
    {
      "mesh": 0,
      "name": "husky",
      "skin": 0
    },
    {
      "children": [
        2,
        32,
        37
      ],
      "extras": {
        "FBX-glTF-conv": {
          "skeleton": {
            "skeletonType": "LimbNode"
          }
        }
      },
      "name": "mixamorig:Hips",
      "translation": [
        0.0,
        0.6784526705741882,
        0.009607483632862568
      ]
    },
    {
      "children": [
        3
      ],
      "extras": {
        "FBX-glTF-conv": {
          "skeleton": {
            "skeletonType": "LimbNode"
          }
        }
      },
      "name": "mixamorig:Spine",
      "rotation": [
        -0.05712191015481949,
        -0.0,
        0.0,
        0.998367190361023
      ],
      "translation": [
        0.0,
        0.04737075790762901,
        -0.005438470747321844
      ]
    },
    {
      "children": [
        4
      ],
      "extras": {
        "FBX-glTF-conv": {
          "skeleton": {
            "skeletonType": "LimbNode"
          }
        }
      },
      "name": "mixamorig:Spine1",
      "translation": [
        0.0,
        0.05562891066074371,
        4.0743056151093526e-10
      ]
    },
    {
      "children": [
        5,
        8,
        20
      ],
      "extras": {
        "FBX-glTF-conv": {
          "skeleton": {
            "skeletonType": "LimbNode"
          }
        }
      },
      "name": "mixamorig:Spine2",
      "translation": [
        0.0,
        0.06357597559690475,
        -2.2153784362544116e-10
      ]
    },
    {
      "children": [
        6
      ],
      "extras": {
        "FBX-glTF-conv": {
          "skeleton": {
            "skeletonType": "LimbNode"
          }
        }
      },
      "name": "mixamorig:Neck",
      "rotation": [
        0.05712185427546501,
        0.0,
        0.0,
        0.998367190361023
      ],
      "translation": [
        0.0,
        0.07152288407087326,
        -7.0780523664382144e-09
      ]
    },
    {
      "children": [
        7
      ],
      "extras": {
        "FBX-glTF-conv": {
          "skeleton": {
            "skeletonType": "LimbNode"
          }
        }
      },
      "name": "mixamorig:Head",
      "translation": [
        0.0,
        0.08395630121231079,
        0.01837848126888275
      ]
    },
    {
      "extras": {
        "FBX-glTF-conv": {
          "skeleton": {
            "skeletonType": "LimbNode"
          }
        }
      },
      "name": "mixamorig:HeadTop_End",
      "translation": [
        0.0,
        0.22495247423648834,
        0.049243297427892685
      ]
    },
    {
      "children": [
        9
      ],
      "extras": {
        "FBX-glTF-conv": {
          "skeleton": {
            "skeletonType": "LimbNode"
          }
        }
      },
      "name": "mixamorig:LeftShoulder",
      "rotation": [
        -0.5435613393783569,
        -0.44890546798706055,
        0.5589399337768555,
        -0.43659037351608276
      ],
      "translation": [
        0.03872854635119438,
        0.06293653696775436,
        -0.0010819269809871912
      ]
    },
    {
      "children": [
        10
      ],
      "extras": {
        "FBX-glTF-conv": {
          "skeleton": {
            "skeletonType": "LimbNode"
          }
        }
      },
      "name": "mixamorig:LeftArm",
      "rotation": [
        -0.13656148314476013,
        0.008216927759349346,
        -0.059496764093637466,
        0.9888091683387756
      ],
      "translation": [
        1.1116993436921518e-10,
        0.07926425337791443,
        8.110565552499338e-10
      ]
    },
    {
      "children": [
        11
      ],
      "extras": {
        "FBX-glTF-conv": {
          "skeleton": {
            "skeletonType": "LimbNode"
          }
        }
      },
      "name": "mixamorig:LeftForeArm",
      "rotation": [
        -0.014748098328709602,
        -0.0027145063504576683,
        0.18099664151668549,
        0.9833694100379944
      ],
      "translation": [
        -1.7186458922680004e-09,
        0.18196357786655426,
        6.636758920208763e-10
      ]
    },
    {
      "children": [
        12,
        16
      ],
      "extras": {
        "FBX-glTF-conv": {
          "skeleton": {
            "skeletonType": "LimbNode"
          }
        }
      },
      "name": "mixamorig:LeftHand",
      "rotation": [
        0.024277905002236366,
        0.21355946362018585,
        0.15560472011566162,
        0.9641525149345398
      ],
      "translation": [
        -2.5891724320104004e-09,
        0.24076683819293976,
        -4.591466096215413e-10
      ]
    },
    {
      "children": [
        13
      ],
      "extras": {
        "FBX-glTF-conv": {
          "skeleton": {
            "skeletonType": "LimbNode"
          }
        }
      },
      "name": "mixamorig:LeftHandThumb1",
      "rotation": [
        -8.407689051637135e-07,
        -3.0115410254438757e-07,
        0.3204713463783264,
        0.9472582340240479
      ],
      "translation": [
        -0.026947755366563797,
        0.04222041368484497,
        3.453391528296379e-08
      ]
    },
    {
      "children": [
        14
      ],
      "extras": {
        "FBX-glTF-conv": {
          "skeleton": {
            "skeletonType": "LimbNode"
          }
        }
      },
      "name": "mixamorig:LeftHandThumb2",
      "rotation": [
        0.09272144734859467,
        -3.454500790901516e-17,
        3.2169213254455163e-18,
        0.9956920742988586
      ],
      "translation": [
        0.0033768692519515753,
        0.03992734104394913,
        -6.373906402679097e-10
      ]
    },
    {
      "children": [
        15
      ],
      "extras": {
        "FBX-glTF-conv": {
          "skeleton": {
            "skeletonType": "LimbNode"
          }
        }
      },
      "name": "mixamorig:LeftHandThumb3",
      "rotation": [
        -0.009423880837857723,
        4.16315138475937e-17,
        3.9234784285705753e-19,
        0.9999555945396423
      ],
      "translation": [
        -0.007991166785359383,
        0.0361177884042263,
        1.2802303661629821e-10
      ]
    },
    {
      "extras": {
        "FBX-glTF-conv": {
          "skeleton": {
            "skeletonType": "LimbNode"
          }
        }
      },
      "name": "mixamorig:LeftHandThumb4",
      "translation": [
        0.0046142996288836,
        0.028221329674124718,
        -1.2962828588314323e-09
      ]
    },
    {
      "children": [
        17
      ],
      "extras": {
        "FBX-glTF-conv": {
          "skeleton": {
            "skeletonType": "LimbNode"
          }
        }
      },
      "name": "mixamorig:LeftHandIndex1",
      "rotation": [
        0.077400341629982,
        -0.009885409846901894,
        -0.12630251049995422,
        0.9889181852340698
      ],
      "translation": [
        -2.465546655727735e-09,
        0.0696486160159111,
        0.0006166481180116534
      ]
    },
    {
      "children": [
        18
      ],
      "extras": {
        "FBX-glTF-conv": {
          "skeleton": {
            "skeletonType": "LimbNode"
          }
        }
      },
      "name": "mixamorig:LeftHandIndex2",
      "rotation": [
        0.25049588084220886,
        3.72996483889923e-17,
        3.3353338431346767e-17,
        0.9681176543235779
      ],
      "translation": [
        0.003764479886740446,
        0.05925514176487923,
        -1.2868056620263246e-10
      ]
    },
    {
      "children": [
        19
      ],
      "extras": {
        "FBX-glTF-conv": {
          "skeleton": {
            "skeletonType": "LimbNode"
          }
        }
      },
      "name": "mixamorig:LeftHandIndex3",
      "rotation": [
        -0.13217845559120178,
        3.1753968173363237e-17,
        -2.8142113807152493e-17,
        0.9912259578704834
      ],
      "translation": [
        -0.0038299711886793375,
        0.0505259707570076,
        -1.7183698908240785e-09
      ]
    },
    {
      "extras": {
        "FBX-glTF-conv": {
          "skeleton": {
            "skeletonType": "LimbNode"
          }
        }
      },
      "name": "mixamorig:LeftHandIndex4",
      "translation": [
        6.548948294948786e-05,
        0.03511358052492142,
        1.2962871054345015e-10
      ]
    },
    {
      "children": [
        21
      ],
      "extras": {
        "FBX-glTF-conv": {
          "skeleton": {
            "skeletonType": "LimbNode"
          }
        }
      },
      "name": "mixamorig:RightShoulder",
      "rotation": [
        0.5450524091720581,
        -0.44767600297927856,
        0.5577325820922852,
        0.4375368356704712
      ],
      "translation": [
        -0.03872854635119438,
        0.06291474401950836,
        -0.0008921241969801486
      ]
    },
    {
      "children": [
        22
      ],
      "extras": {
        "FBX-glTF-conv": {
          "skeleton": {
            "skeletonType": "LimbNode"
          }
        }
      },
      "name": "mixamorig:RightArm",
      "rotation": [
        -0.13677170872688293,
        -0.008618809282779694,
        0.062297895550727844,
        0.9886041879653931
      ],
      "translation": [
        -8.012362301412779e-11,
        0.07926425337791443,
        8.147095775790092e-10
      ]
    },
    {
      "children": [
        23
      ],
      "extras": {
        "FBX-glTF-conv": {
          "skeleton": {
            "skeletonType": "LimbNode"
          }
        }
      },
      "name": "mixamorig:RightForeArm",
      "rotation": [
        -0.015118571929633617,
        0.0027582712937146425,
        -0.17945897579193115,
        0.9836454391479492
      ],
      "translation": [
        -1.1063414073753108e-10,
        0.18197862803936005,
        4.578343815175856e-10
      ]
    },
    {
      "children": [
        24,
        28
      ],
      "extras": {
        "FBX-glTF-conv": {
          "skeleton": {
            "skeletonType": "LimbNode"
          }
        }
      },
      "name": "mixamorig:RightHand",
      "rotation": [
        0.002481139497831464,
        -0.2345859557390213,
        -0.14446677267551422,
        0.9612973928451538
      ],
      "translation": [
        -1.6323846718790946e-09,
        0.24058055877685547,
        1.5936790775938903e-10
      ]
    },
    {
      "children": [
        25
      ],
      "extras": {
        "FBX-glTF-conv": {
          "skeleton": {
            "skeletonType": "LimbNode"
          }
        }
      },
      "name": "mixamorig:RightHandThumb1",
      "rotation": [
        -9.095339237319422e-07,
        3.249616611356032e-07,
        -0.3313557207584381,
        0.9435058832168579
      ],
      "translation": [
        0.03160575032234192,
        0.04133075103163719,
        -2.7539712177393483e-10
      ]
    },
    {
      "children": [
        26
      ],
      "extras": {
        "FBX-glTF-conv": {
          "skeleton": {
            "skeletonType": "LimbNode"
          }
        }
      },
      "name": "mixamorig:RightHandThumb2",
      "rotation": [
        0.08637277781963348,
        2.0738887029472298e-17,
        -1.797994521030988e-18,
        0.9962629079818726
      ],
      "translation": [
        -0.000942146172747016,
        0.04161357879638672,
        6.705211386126564e-10
      ]
    },
    {
      "children": [
        27
      ],
      "extras": {
        "FBX-glTF-conv": {
          "skeleton": {
            "skeletonType": "LimbNode"
          }
        }
      },
      "name": "mixamorig:RightHandThumb3",
      "rotation": [
        0.0036178110167384148,
        1.3777282881847426e-17,
        -2.780560019035367e-17,
        0.9999934434890747
      ],
      "translation": [
        0.005199012346565723,
        0.036262691020965576,
        -2.3199238086135665e-09
      ]
    },
    {
      "extras": {
        "FBX-glTF-conv": {
          "skeleton": {
            "skeletonType": "LimbNode"
          }
        }
      },
      "name": "mixamorig:RightHandThumb4",
      "translation": [
        -0.004256864544004202,
        0.024708697572350502,
        7.075198205086508e-10
      ]
    },
    {
      "children": [
        29
      ],
      "extras": {
        "FBX-glTF-conv": {
          "skeleton": {
            "skeletonType": "LimbNode"
          }
        }
      },
      "name": "mixamorig:RightHandIndex1",
      "rotation": [
        0.1299016922712326,
        0.012547917664051056,
        0.09532562643289566,
        0.9868541359901428
      ],
      "translation": [
        2.2677830724404657e-09,
        0.06777869910001755,
        0.0002887806622311473
      ]
    },
    {
      "children": [
        30
      ],
      "extras": {
        "FBX-glTF-conv": {
          "skeleton": {
            "skeletonType": "LimbNode"
          }
        }
      },
      "name": "mixamorig:RightHandIndex2",
      "rotation": [
        0.18434734642505646,
        2.5583333566205965e-18,
        1.3639938640119734e-17,
        0.9828611612319946
      ],
      "translation": [
        -0.002127271145582199,
        0.061904970556497574,
        2.566450385543817e-10
      ]
    },
    {
      "children": [
        31
      ],
      "extras": {
        "FBX-glTF-conv": {
          "skeleton": {
            "skeletonType": "LimbNode"
          }
        }
      },
      "name": "mixamorig:RightHandIndex3",
      "rotation": [
        -0.21361030638217926,
        1.037553487276699e-17,
        -4.745115959082278e-17,
        0.9769189357757568
      ],
      "translation": [
        0.003730855183675885,
        0.04953598976135254,
        -2.2785372200129217e-10
      ]
    },
    {
      "extras": {
        "FBX-glTF-conv": {
          "skeleton": {
            "skeletonType": "LimbNode"
          }
        }
      },
      "name": "mixamorig:RightHandIndex4",
      "translation": [
        -0.0016035855514928699,
        0.030301447957754135,
        1.0246892917509243e-10
      ]
    },
    {
      "children": [
        33
      ],
      "extras": {
        "FBX-glTF-conv": {
          "skeleton": {
            "skeletonType": "LimbNode"
          }
        }
      },
      "name": "mixamorig:LeftUpLeg",
      "rotation": [
        0.0003173997683916241,
        0.010145257227122784,
        0.9994595050811768,
        -0.03126861900091171
      ],
      "translation": [
        0.06380666792392731,
        -0.02629547193646431,
        0.002671685768291354
      ]
    },
    {
      "children": [
        34
      ],
      "extras": {
        "FBX-glTF-conv": {
          "skeleton": {
            "skeletonType": "LimbNode"
          }
        }
      },
      "name": "mixamorig:LeftLeg",
      "rotation": [
        -0.05212096869945526,
        0.0018694638274610043,
        -0.03579595312476158,
        0.9979972839355469
      ],
      "translation": [
        -7.564958659500576e-10,
        0.29631057381629944,
        -8.502037962543341e-11
      ]
    },
    {
      "children": [
        35
      ],
      "extras": {
        "FBX-glTF-conv": {
          "skeleton": {
            "skeletonType": "LimbNode"
          }
        }
      },
      "name": "mixamorig:LeftFoot",
      "rotation": [
        0.4786851406097412,
        -0.07190588116645813,
        0.0393756739795208,
        0.874150812625885
      ],
      "translation": [
        3.276355228787331e-11,
        0.2755821943283081,
        -2.267687371215743e-09
      ]
    },
    {
      "children": [
        36
      ],
      "extras": {
        "FBX-glTF-conv": {
          "skeleton": {
            "skeletonType": "LimbNode"
          }
        }
      },
      "name": "mixamorig:LeftToeBase",
      "rotation": [
        0.31817954778671265,
        -0.000688076950609684,
        0.00023093401978258044,
        0.9480301737785339
      ],
      "translation": [
        2.100099261159727e-10,
        0.12402088195085526,
        5.78162739905963e-10
      ]
    },
    {
      "extras": {
        "FBX-glTF-conv": {
          "skeleton": {
            "skeletonType": "LimbNode"
          }
        }
      },
      "name": "mixamorig:LeftToe_End",
      "translation": [
        3.409827697975487e-10,
        0.05218899995088577,
        1.2620448089362135e-11
      ]
    },
    {
      "children": [
        38
      ],
      "extras": {
        "FBX-glTF-conv": {
          "skeleton": {
            "skeletonType": "LimbNode"
          }
        }
      },
      "name": "mixamorig:RightUpLeg",
      "rotation": [
        -0.0003244388208258897,
        0.010370347648859024,
        0.9994571805000305,
        0.03126826137304306
      ],
      "translation": [
        -0.06380666792392731,
        -0.02629547193646431,
        0.0035517127253115177
      ]
    },
    {
      "children": [
        39
      ],
      "extras": {
        "FBX-glTF-conv": {
          "skeleton": {
            "skeletonType": "LimbNode"
          }
        }
      },
      "name": "mixamorig:RightLeg",
      "rotation": [
        -0.050731051713228226,
        -0.00181959115434438,
        0.03579813987016678,
        0.9980689287185669
      ],
      "translation": [
        3.5623770600068383e-10,
        0.2963133454322815,
        -8.239019883005128e-11
      ]
    },
    {
      "children": [
        40
      ],
      "extras": {
        "FBX-glTF-conv": {
          "skeleton": {
            "skeletonType": "LimbNode"
          }
        }
      },
      "name": "mixamorig:RightFoot",
      "rotation": [
        0.46549952030181885,
        0.07646672427654266,
        -0.040411822497844696,
        0.8808121085166931
      ],
      "translation": [
        -8.107769317033942e-11,
        0.2755088210105896,
        -1.2711548480481838e-09
      ]
    },
    {
      "children": [
        41
      ],
      "extras": {
        "FBX-glTF-conv": {
          "skeleton": {
            "skeletonType": "LimbNode"
          }
        }
      },
      "name": "mixamorig:RightToeBase",
      "rotation": [
        0.33071550726890564,
        -0.006573074497282505,
        0.002303488552570343,
        0.9437047839164734
      ],
      "translation": [
        -4.908615180987397e-10,
        0.1199226826429367,
        2.4982260704575765e-09
      ]
    },
    {
      "extras": {
        "FBX-glTF-conv": {
          "skeleton": {
            "skeletonType": "LimbNode"
          }
        }
      },
      "name": "mixamorig:RightToe_End",
      "translation": [
        9.963429387083167e-11,
        0.052351128309965134,
        -8.06338242703708e-12
      ]
    }
  ],
  "samplers": [
    {}
  ],
  "scenes": [
    {
      "nodes": [
        0,
        1
      ]
    }
  ],
  "skins": [
    {
      "inverseBindMatrices": 8,
      "joints": [
        32,
        37,
        1,
        4,
        5,
        2,
        3,
        11,
        12,
        13,
        14,
        16,
        17,
        18,
        33,
        34,
        35,
        10,
        9,
        8,
        6,
        23,
        24,
        25,
        26,
        28,
        29,
        30,
        39,
        40,
        38,
        22,
        21,
        20
      ]
    }
  ],
  "textures": [
    {
      "name": "base_color_texture3",
      "sampler": 0,
      "source": 0
    }
  ]
}