{
  "accessors": [
    {
      "bufferView": 0,
      "componentType": 5126,
      "count": 36,
      "max": [
        1.1666666269302368
      ],
      "min": [
        0.0
      ],
      "name": "Root_M/Trs/Input",
      "type": "SCALAR"
    },
    {
      "bufferView": 1,
      "componentType": 5126,
      "count": 36,
      "name": "Root_M/translation/Output",
      "type": "VEC3"
    },
    {
      "bufferView": 2,
      "componentType": 5126,
      "count": 36,
      "name": "Root_M/rotation/Output",
      "type": "VEC4"
    },
    {
      "bufferView": 3,
      "componentType": 5126,
      "count": 36,
      "max": [
        1.1666666269302368
      ],
      "min": [
        0.0
      ],
      "name": "Hip_R/Trs/Input",
      "type": "SCALAR"
    },
    {
      "bufferView": 4,
      "componentType": 5126,
      "count": 36,
      "name": "Hip_R/rotation/Output",
      "type": "VEC4"
    },
    {
      "bufferView": 5,
      "componentType": 5126,
      "count": 36,
      "max": [
        1.1666666269302368
      ],
      "min": [
        0.0
      ],
      "name": "Knee_R/Trs/Input",
      "type": "SCALAR"
    },
    {
      "bufferView": 6,
      "componentType": 5126,
      "count": 36,
      "name": "Knee_R/rotation/Output",
      "type": "VEC4"
    },
    {
      "bufferView": 7,
      "componentType": 5126,
      "count": 36,
      "max": [
        1.1666666269302368
      ],
      "min": [
        0.0
      ],
      "name": "Chest_M/Trs/Input",
      "type": "SCALAR"
    },
    {
      "bufferView": 8,
      "componentType": 5126,
      "count": 36,
      "name": "Chest_M/rotation/Output",
      "type": "VEC4"
    },
    {
      "bufferView": 9,
      "componentType": 5126,
      "count": 36,
      "max": [
        1.1666666269302368
      ],
      "min": [
        0.0
      ],
      "name": "Neck_M/Trs/Input",
      "type": "SCALAR"
    },
    {
      "bufferView": 10,
      "componentType": 5126,
      "count": 36,
      "name": "Neck_M/rotation/Output",
      "type": "VEC4"
    },
    {
      "bufferView": 11,
      "componentType": 5126,
      "count": 36,
      "max": [
        1.1666666269302368
      ],
      "min": [
        0.0
      ],
      "name": "Head_M/Trs/Input",
      "type": "SCALAR"
    },
    {
      "bufferView": 12,
      "componentType": 5126,
      "count": 36,
      "name": "Head_M/rotation/Output",
      "type": "VEC4"
    },
    {
      "bufferView": 13,
      "componentType": 5126,
      "count": 36,
      "max": [
        1.1666666269302368
      ],
      "min": [
        0.0
      ],
      "name": "Scapula_R/Trs/Input",
      "type": "SCALAR"
    },
    {
      "bufferView": 14,
      "componentType": 5126,
      "count": 36,
      "name": "Scapula_R/rotation/Output",
      "type": "VEC4"
    },
    {
      "bufferView": 15,
      "componentType": 5126,
      "count": 36,
      "max": [
        1.1666666269302368
      ],
      "min": [
        0.0
      ],
      "name": "Shoulder_R/Trs/Input",
      "type": "SCALAR"
    },
    {
      "bufferView": 16,
      "componentType": 5126,
      "count": 36,
      "name": "Shoulder_R/rotation/Output",
      "type": "VEC4"
    },
    {
      "bufferView": 17,
      "componentType": 5126,
      "count": 36,
      "max": [
        1.1666666269302368
      ],
      "min": [
        0.0
      ],
      "name": "Elbow_R/Trs/Input",
      "type": "SCALAR"
    },
    {
      "bufferView": 18,
      "componentType": 5126,
      "count": 36,
      "name": "Elbow_R/rotation/Output",
      "type": "VEC4"
    },
    {
      "bufferView": 19,
      "componentType": 5126,
      "count": 36,
      "max": [
        1.1666666269302368
      ],
      "min": [
        0.0
      ],
      "name": "Scapula_L/Trs/Input",
      "type": "SCALAR"
    },
    {
      "bufferView": 20,
      "componentType": 5126,
      "count": 36,
      "name": "Scapula_L/rotation/Output",
      "type": "VEC4"
    },
    {
      "bufferView": 21,
      "componentType": 5126,
      "count": 36,
      "max": [
        1.1666666269302368
      ],
      "min": [
        0.0
      ],
      "name": "Shoulder_L/Trs/Input",
      "type": "SCALAR"
    },
    {
      "bufferView": 22,
      "componentType": 5126,
      "count": 36,
      "name": "Shoulder_L/rotation/Output",
      "type": "VEC4"
    },
    {
      "bufferView": 23,
      "componentType": 5126,
      "count": 36,
      "max": [
        1.1666666269302368
      ],
      "min": [
        0.0
      ],
      "name": "Elbow_L/Trs/Input",
      "type": "SCALAR"
    },
    {
      "bufferView": 24,
      "componentType": 5126,
      "count": 36,
      "name": "Elbow_L/rotation/Output",
      "type": "VEC4"
    },
    {
      "bufferView": 25,
      "componentType": 5126,
      "count": 36,
      "max": [
        1.1666666269302368
      ],
      "min": [
        0.0
      ],
      "name": "Hip_L/Trs/Input",
      "type": "SCALAR"
    },
    {
      "bufferView": 26,
      "componentType": 5126,
      "count": 36,
      "name": "Hip_L/rotation/Output",
      "type": "VEC4"
    },
    {
      "bufferView": 27,
      "componentType": 5126,
      "count": 36,
      "max": [
        1.1666666269302368
      ],
      "min": [
        0.0
      ],
      "name": "Knee_L/Trs/Input",
      "type": "SCALAR"
    },
    {
      "bufferView": 28,
      "componentType": 5126,
      "count": 36,
      "name": "Knee_L/rotation/Output",
      "type": "VEC4"
    }
  ],
  "animations": [
    {
      "channels": [
        {
          "sampler": 0,
          "target": {
            "node": 0,
            "path": "translation"
          }
        },
        {
          "sampler": 1,
          "target": {
            "node": 0,
            "path": "rotation"
          }
        },
        {
          "sampler": 2,
          "target": {
            "node": 1,
            "path": "rotation"
          }
        },
        {
          "sampler": 3,
          "target": {
            "node": 2,
            "path": "rotation"
          }
        },
        {
          "sampler": 4,
          "target": {
            "node": 4,
            "path": "rotation"
          }
        },
        {
          "sampler": 5,
          "target": {
            "node": 5,
            "path": "rotation"
          }
        },
        {
          "sampler": 6,
          "target": {
            "node": 6,
            "path": "rotation"
          }
        },
        {
          "sampler": 7,
          "target": {
            "node": 8,
            "path": "rotation"
          }
        },
        {
          "sampler": 8,
          "target": {
            "node": 9,
            "path": "rotation"
          }
        },
        {
          "sampler": 9,
          "target": {
            "node": 10,
            "path": "rotation"
          }
        },
        {
          "sampler": 10,
          "target": {
            "node": 12,
            "path": "rotation"
          }
        },
        {
          "sampler": 11,
          "target": {
            "node": 13,
            "path": "rotation"
          }
        },
        {
          "sampler": 12,
          "target": {
            "node": 14,
            "path": "rotation"
          }
        },
        {
          "sampler": 13,
          "target": {
            "node": 16,
            "path": "rotation"
          }
        },
        {
          "sampler": 14,
          "target": {
            "node": 17,
            "path": "rotation"
          }
        }
      ],
      "name": "mixamo.com",
      "samplers": [
        {
          "input": 0,
          "output": 1
        },
        {
          "input": 0,
          "output": 2
        },
        {
          "input": 3,
          "output": 4
        },
        {
          "input": 5,
          "output": 6
        },
        {
          "input": 7,
          "output": 8
        },
        {
          "input": 9,
          "output": 10
        },
        {
          "input": 11,
          "output": 12
        },
        {
          "input": 13,
          "output": 14
        },
        {
          "input": 15,
          "output": 16
        },
        {
          "input": 17,
          "output": 18
        },
        {
          "input": 19,
          "output": 20
        },
        {
          "input": 21,
          "output": 22
        },
        {
          "input": 23,
          "output": 24
        },
        {
          "input": 25,
          "output": 26
        },
        {
          "input": 27,
          "output": 28
        }
      ]
    }
  ],
  "asset": {
    "copyright": "Copyright (c) 2018-2020 Chukong Technologies Inc.",
    "generator": "FBX-glTF-conv",
    "version": "2.0"
  },
  "bufferViews": [
    {
      "buffer": 0,
      "byteLength": 144
    },
    {
      "buffer": 0,
      "byteLength": 432,
      "byteOffset": 144
    },
    {
      "buffer": 0,
      "byteLength": 576,
      "byteOffset": 576
    },
    {
      "buffer": 0,
      "byteLength": 144,
      "byteOffset": 1152
    },
    {
      "buffer": 0,
      "byteLength": 576,
      "byteOffset": 1296
    },
    {
      "buffer": 0,
      "byteLength": 144,
      "byteOffset": 1872
    },
    {
      "buffer": 0,
      "byteLength": 576,
      "byteOffset": 2016
    },
    {
      "buffer": 0,
      "byteLength": 144,
      "byteOffset": 2592
    },
    {
      "buffer": 0,
      "byteLength": 576,
      "byteOffset": 2736
    },
    {
      "buffer": 0,
      "byteLength": 144,
      "byteOffset": 3312
    },
    {
      "buffer": 0,
      "byteLength": 576,
      "byteOffset": 3456
    },
    {
      "buffer": 0,
      "byteLength": 144,
      "byteOffset": 4032
    },
    {
      "buffer": 0,
      "byteLength": 576,
      "byteOffset": 4176
    },
    {
      "buffer": 0,
      "byteLength": 144,
      "byteOffset": 4752
    },
    {
      "buffer": 0,
      "byteLength": 576,
      "byteOffset": 4896
    },
    {
      "buffer": 0,
      "byteLength": 144,
      "byteOffset": 5472
    },
    {
      "buffer": 0,
      "byteLength": 576,
      "byteOffset": 5616
    },
    {
      "buffer": 0,
      "byteLength": 144,
      "byteOffset": 6192
    },
    {
      "buffer": 0,
      "byteLength": 576,
      "byteOffset": 6336
    },
    {
      "buffer": 0,
      "byteLength": 144,
      "byteOffset": 6912
    },
    {
      "buffer": 0,
      "byteLength": 576,
      "byteOffset": 7056
    },
    {
      "buffer": 0,
      "byteLength": 144,
      "byteOffset": 7632
    },
    {
      "buffer": 0,
      "byteLength": 576,
      "byteOffset": 7776
    },
    {
      "buffer": 0,
      "byteLength": 144,
      "byteOffset": 8352
    },
    {
      "buffer": 0,
      "byteLength": 576,
      "byteOffset": 8496
    },
    {
      "buffer": 0,
      "byteLength": 144,
      "byteOffset": 9072
    },
    {
      "buffer": 0,
      "byteLength": 576,
      "byteOffset": 9216
    },
    {
      "buffer": 0,
      "byteLength": 144,
      "byteOffset": 9792
    },
    {
      "buffer": 0,
      "byteLength": 576,
      "byteOffset": 9936
    }
  ],
  "buffers": [
    {
      "byteLength": 10512,
      "uri": "out.bin"
    }
  ],
  "extras": {
    "FBX-glTF-conv": {
      "animationFrameRate": 30.0
    }
  },
  "nodes": [
    {
      "children": [
        1,
        4,
        16
      ],
      "extras": {
        "FBX-glTF-conv": {
          "skeleton": {
            "skeletonType": "LimbNode"
          }
        }
      },
      "name": "Root_M",
      "rotation": [
        0.47586798667907715,
        0.5230197310447693,
        0.47586798667907715,
        0.5230197310447693
      ],
      "translation": [
        0.0,
        1.2360355854034424,
        0.0
      ]
    },
    {
      "children": [
        2
      ],
      "extras": {
        "FBX-glTF-conv": {
          "skeleton": {
            "skeletonType": "LimbNode"
          }
        }
      },
      "name": "Hip_R",
      "rotation": [
        0.03847002983093262,
        0.9974389672279358,
        -0.05980747565627098,
        0.007660128641873598
      ],
      "translation": [
        -0.12237200140953064,
        -0.022258000448346138,
        -0.27513501048088074
      ]
    },
    {
      "children": [
        3
      ],
      "extras": {
        "FBX-glTF-conv": {
          "skeleton": {
            "skeletonType": "LimbNode"
          }
        }
      },
      "name": "Knee_R",
      "rotation": [
        1.5596665811977198e-17,
        9.838242187425008e-18,
        -0.15544404089450836,
        0.987844705581665
      ],
      "translation": [
        0.5244600176811218,
        -3.552713599391162e-17,
        0.0
      ]
    },
    {
      "extras": {
        "FBX-glTF-conv": {
          "skeleton": {
            "skeletonType": "LimbNode"
          }
        }
      },
      "name": "Ankle_R",
      "rotation": [
        -0.000274927937425673,
        0.0019414302660152316,
        -0.00023775182489771396,
        0.9999980330467224
      ],
      "translation": [
        0.594573974609375,
        -4.440891999238953e-18,
        3.552713599391162e-17
      ]
    },
    {
      "children": [
        5,
        8,
        12
      ],
      "extras": {
        "FBX-glTF-conv": {
          "skeleton": {
            "skeletonType": "LimbNode"
          }
        }
      },
      "name": "Chest_M",
      "rotation": [
        -1.1700208817828743e-32,
        -1.1189588765510927e-32,
        0.05766160413622856,
        0.9983361959457397
      ],
      "translation": [
        0.6709529757499695,
        1.776356799695581e-17,
        7.888608875885965e-33
      ]
    },
    {
      "children": [
        6
      ],
      "extras": {
        "FBX-glTF-conv": {
          "skeleton": {
            "skeletonType": "LimbNode"
          }
        }
      },
      "name": "Neck_M",
      "rotation": [
        -6.146461830568452e-20,
        3.550055221201941e-21,
        0.008718681521713734,
        0.9999619722366333
      ],
      "translation": [
        0.2735849916934967,
        0.0,
        0.0
      ]
    },
    {
      "children": [
        7
      ],
      "extras": {
        "FBX-glTF-conv": {
          "skeleton": {
            "skeletonType": "LimbNode"
          }
        }
      },
      "name": "Head_M",
      "rotation": [
        9.016090962243273e-20,
        -4.625942548320668e-21,
        -0.011107047088444233,
        0.9999383091926575
      ],
      "translation": [
        0.17019100487232208,
        0.0,
        -7.888608875885965e-33
      ]
    },
    {
      "extras": {
        "FBX-glTF-conv": {
          "skeleton": {
            "skeletonType": "LimbNode"
          }
        }
      },
      "name": "HeadEnd_M",
      "translation": [
        0.9933459758758545,
        0.0,
        0.0
      ]
    },
    {
      "children": [
        9
      ],
      "extras": {
        "FBX-glTF-conv": {
          "skeleton": {
            "skeletonType": "LimbNode"
          }
        }
      },
      "name": "Scapula_R",
      "rotation": [
        -0.004237071145325899,
        0.8453124761581421,
        0.014932495541870594,
        0.5340466499328613
      ],
      "translation": [
        0.09612700343132019,
        -0.018371999263763428,
        -0.13711300492286682
      ]
    },
    {
      "children": [
        10
      ],
      "extras": {
        "FBX-glTF-conv": {
          "skeleton": {
            "skeletonType": "LimbNode"
          }
        }
      },
      "name": "Shoulder_R",
      "rotation": [
        -0.133403941988945,
        -0.2164524793624878,
        -0.04060450196266174,
        0.9662830829620361
      ],
      "translation": [
        0.27386000752449036,
        0.0,
        0.0
      ]
    },
    {
      "children": [
        11
      ],
      "extras": {
        "FBX-glTF-conv": {
          "skeleton": {
            "skeletonType": "LimbNode"
          }
        }
      },
      "name": "Elbow_R",
      "translation": [
        0.5828139781951904,
        0.0,
        0.0
      ]
    },
    {
      "extras": {
        "FBX-glTF-conv": {
          "skeleton": {
            "skeletonType": "LimbNode"
          }
        }
      },
      "name": "Wrist_R",
      "translation": [
        0.42971399426460266,
        0.0,
        0.0
      ]
    },
    {
      "children": [
        13
      ],
      "extras": {
        "FBX-glTF-conv": {
          "skeleton": {
            "skeletonType": "LimbNode"
          }
        }
      },
      "name": "Scapula_L",
      "rotation": [
        0.8453124761581421,
        0.004237071145325899,
        -0.5340466499328613,
        0.014932495541870594
      ],
      "translation": [
        0.09612700343132019,
        -0.018371999263763428,
        0.13711300492286682
      ]
    },
    {
      "children": [
        14
      ],
      "extras": {
        "FBX-glTF-conv": {
          "skeleton": {
            "skeletonType": "LimbNode"
          }
        }
      },
      "name": "Shoulder_L",
      "rotation": [
        -0.133403941988945,
        -0.2164524793624878,
        -0.04060450196266174,
        0.9662830829620361
      ],
      "translation": [
        -0.27386000752449036,
        0.0,
        -2.8421708795129297e-16
      ]
    },
    {
      "children": [
        15
      ],
      "extras": {
        "FBX-glTF-conv": {
          "skeleton": {
            "skeletonType": "LimbNode"
          }
        }
      },
      "name": "Elbow_L",
      "translation": [
        -0.5828139781951904,
        0.0,
        0.0
      ]
    },
    {
      "extras": {
        "FBX-glTF-conv": {
          "skeleton": {
            "skeletonType": "LimbNode"
          }
        }
      },
      "name": "Wrist_L",
      "translation": [
        -0.42971399426460266,
        0.0,
        0.0
      ]
    },
    {
      "children": [
        17
      ],
      "extras": {
        "FBX-glTF-conv": {
          "skeleton": {
            "skeletonType": "LimbNode"
          }
        }
      },
      "name": "Hip_L",
      "rotation": [
        0.9974389672279358,
        -0.03847002983093262,
        -0.007660128641873598,
        -0.05980747565627098
      ],
      "translation": [
        -0.12237200140953064,
        -0.022258000448346138,
        0.27513501048088074
      ]
    },
    {
      "children": [
        18
      ],
      "extras": {
        "FBX-glTF-conv": {
          "skeleton": {
            "skeletonType": "LimbNode"
          }
        }
      },
      "name": "Knee_L",
      "rotation": [
        2.957541928535988e-17,
        9.394659966498547e-18,
        -0.15544404089450836,
        0.987844705581665
      ],
      "translation": [
        -0.5244600176811218,
        3.552713599391162e-17,
        0.0
      ]
    },
    {
      "extras": {
        "FBX-glTF-conv": {
          "skeleton": {
            "skeletonType": "LimbNode"
          }
        }
      },
      "name": "Ankle_L",
      "rotation": [
        -0.000274927937425673,
        0.0019414302660152316,
        -0.00023775182489771396,
        0.9999980330467224
      ],
      "translation": [
        -0.594573974609375,
        -1.3322675997716858e-17,
        0.0
      ]
    }
  ],
  "scenes": [
    {
      "nodes": [
        0
      ]
    }
  ]
}