{
  "accessors": [
    {
      "bufferView": 0,
      "componentType": 5126,
      "count": 372,
      "max": [
        0.11314114928245544,
        1.49053955078125,
        0.11677169799804688
      ],
      "min": [
        -0.12273600697517395,
        -0.000519581139087677,
        -0.11959784477949142
      ],
      "name": "low poly  baseball bat_Material0/POSITION",
      "type": "VEC3"
    },
    {
      "bufferView": 0,
      "byteOffset": 12,
      "componentType": 5126,
      "count": 372,
      "name": "low poly  baseball bat_Material0/NORMAL",
      "type": "VEC3"
    },
    {
      "bufferView": 0,
      "byteOffset": 24,
      "componentType": 5126,
      "count": 372,
      "name": "low poly  baseball bat_Material0/TEXCOORD_0",
      "type": "VEC2"
    },
    {
      "bufferView": 1,
      "componentType": 5125,
      "count": 402,
      "name": "low poly  baseball bat_Material0/INDICES",
      "type": "SCALAR"
    },
    {
      "bufferView": 2,
      "componentType": 5126,
      "count": 288,
      "max": [
        0.04213448986411095,
        0.2816423773765564,
        0.045861102640628815
      ],
      "min": [
        -0.052241917699575424,
        0.07515695691108704,
        -0.04962093010544777
      ],
      "name": "low poly  baseball bat_Material0/POSITION",
      "type": "VEC3"
    },
    {
      "bufferView": 2,
      "byteOffset": 12,
      "componentType": 5126,
      "count": 288,
      "name": "low poly  baseball bat_Material0/NORMAL",
      "type": "VEC3"
    },
    {
      "bufferView": 2,
      "byteOffset": 24,
      "componentType": 5126,
      "count": 288,
      "name": "low poly  baseball bat_Material0/TEXCOORD_0",
      "type": "VEC2"
    },
    {
      "bufferView": 3,
      "componentType": 5125,
      "count": 336,
      "name": "low poly  baseball bat_Material0/INDICES",
      "type": "SCALAR"
    },
    {
      "bufferView": 4,
      "componentType": 5126,
      "count": 776,
      "max": [
        0.05227276682853699,
        0.5553889274597168,
        0.055164746940135956
      ],
      "min": [
        -0.06239950284361839,
        0.28719913959503174,
        -0.059602946043014526
      ],
      "name": "low poly  baseball bat_Material0/POSITION",
      "type": "VEC3"
    },
    {
      "bufferView": 4,
      "byteOffset": 12,
      "componentType": 5126,
      "count": 776,
      "name": "low poly  baseball bat_Material0/NORMAL",
      "type": "VEC3"
    },
    {
      "bufferView": 4,
      "byteOffset": 24,
      "componentType": 5126,
      "count": 776,
      "name": "low poly  baseball bat_Material0/TEXCOORD_0",
      "type": "VEC2"
    },
    {
      "bufferView": 5,
      "componentType": 5125,
      "count": 900,
      "name": "low poly  baseball bat_Material0/INDICES",
      "type": "SCALAR"
    },
    {
      "bufferView": 6,
      "componentType": 5126,
      "count": 662,
      "max": [
        0.12400126457214355,
        1.4075186252593994,
        0.12620843946933746
      ],
      "min": [
        -0.13408222794532776,
        1.2235212326049805,
        -0.13169139623641968
      ],
      "name": "low poly  baseball bat_Material0/POSITION",
      "type": "VEC3"
    },
    {
      "bufferView": 6,
      "byteOffset": 12,
      "componentType": 5126,
      "count": 662,
      "name": "low poly  baseball bat_Material0/NORMAL",
      "type": "VEC3"
    },
    {
      "bufferView": 6,
      "byteOffset": 24,
      "componentType": 5126,
      "count": 662,
      "name": "low poly  baseball bat_Material0/TEXCOORD_0",
      "type": "VEC2"
    },
    {
      "bufferView": 7,
      "componentType": 5125,
      "count": 792,
      "name": "low poly  baseball bat_Material0/INDICES",
      "type": "SCALAR"
    }
  ],
  "asset": {
    "copyright": "Copyright (c) 2018-2020 Chukong Technologies Inc.",
    "generator": "FBX-glTF-conv",
    "version": "2.0"
  },
  "bufferViews": [
    {
      "buffer": 0,
      "byteLength": 11904,
      "byteStride": 32,
      "name": "low poly  baseball bat_Material0",
      "target": 34962
    },
    {
      "buffer": 0,
      "byteLength": 1608,
      "byteOffset": 11904
    },
    {
      "buffer": 0,
      "byteLength": 9216,
      "byteOffset": 13512,
      "byteStride": 32,
      "name": "low poly  baseball bat_Material0",
      "target": 34962
    },
    {
      "buffer": 0,
      "byteLength": 1344,
      "byteOffset": 22728
    },
    {
      "buffer": 0,
      "byteLength": 24832,
      "byteOffset": 24072,
      "byteStride": 32,
      "name": "low poly  baseball bat_Material0",
      "target": 34962
    },
    {
      "buffer": 0,
      "byteLength": 3600,
      "byteOffset": 48904
    },
    {
      "buffer": 0,
      "byteLength": 21184,
      "byteOffset": 52504,
      "byteStride": 32,
      "name": "low poly  baseball bat_Material0",
      "target": 34962
    },
    {
      "buffer": 0,
      "byteLength": 3168,
      "byteOffset": 73688
    }
  ],
  "buffers": [
    {
      "byteLength": 76856,
      "uri": "out.bin"
    }
  ],
  "extras": {
    "FBX-glTF-conv": {
      "animationFrameRate": 24.0
    }
  },
  "materials": [
    {
      "name": "wood",
      "pbrMetallicRoughness": {
        "baseColorFactor": [
          0.8829233646392822,
          0.10448691248893738,
          0.0,
          1.0
        ],
        "metallicFactor": 0.4000000059604645,
        "roughnessFactor": 0.27216553688049316
      }
    },
    {
      "name": "cover",
      "pbrMetallicRoughness": {
        "baseColorFactor": [
          0.8000000715255737,
          0.01140749454498291,
          0.0,
          1.0
        ],
        "metallicFactor": 0.4000000059604645,
        "roughnessFactor": 0.27216553688049316
      }
    },
    {
      "name": "cover hand",
      "pbrMetallicRoughness": {
        "baseColorFactor": [
          0.0,
          0.0,
          0.0,
          1.0
        ],
        "metallicFactor": 0.4000000059604645,
        "roughnessFactor": 0.27216553688049316
      }
    },
    {
      "name": "cover head ",
      "pbrMetallicRoughness": {
        "baseColorFactor": [
          1.0,
          0.9067512154579163,
          0.9348365068435669,
          1.0
        ],
        "metallicFactor": 0.4000000059604645,
        "roughnessFactor": 0.27216553688049316
      }
    }
  ],
  "meshes": [
    {
      "name": "low poly  baseball bat_Material0",
      "primitives": [
        {
          "attributes": {
            "NORMAL": 1,
            "POSITION": 0,
            "TEXCOORD_0": 2
          },
          "indices": 3,
          "material": 0
        },
        {
          "attributes": {
            "NORMAL": 5,
            "POSITION": 4,
            "TEXCOORD_0": 6
          },
          "indices": 7,
          "material": 1
        },
        {
          "attributes": {
            "NORMAL": 9,
            "POSITION": 8,
            "TEXCOORD_0": 10
          },
          "indices": 11,
          "material": 2
        },
        {
          "attributes": {
            "NORMAL": 13,
            "POSITION": 12,
            "TEXCOORD_0": 14
          },
          "indices": 15,
          "material": 3
        }
      ]
    }
  ],
  "nodes": [
    {
      "mesh": 0,
      "name": "low poly  baseball bat",
      "scale": [
        1.16241455078125,
        1.0059962272644043,
        1.1632424592971802
      ]
    }
  ],
  "scenes": [
    {
      "name": "Scene",
      "nodes": [
        0
      ]
    }
  ]
}