{
  "accessors": [
    {
      "bufferView": 0,
      "componentType": 5126,
      "count": 18,
      "max": [
        0.3545690178871155,
        0.4069956839084625,
        -0.03993034362792969
      ],
      "min": [
        -0.35939788818359375,
        -0.20497994124889374,
        -0.10258027911186218
      ],
      "name": "polySurface101/POSITION",
      "type": "VEC3"
    },
    {
      "bufferView": 0,
      "byteOffset": 12,
      "componentType": 5126,
      "count": 18,
      "name": "polySurface101/NORMAL",
      "type": "VEC3"
    },
    {
      "bufferView": 0,
      "byteOffset": 24,
      "componentType": 5126,
      "count": 18,
      "name": "polySurface101/TEXCOORD_0",
      "type": "VEC2"
    },
    {
      "bufferView": 1,
      "componentType": 5125,
      "count": 24,
      "name": "polySurface101/INDICES",
      "type": "SCALAR"
    },
    {
      "bufferView": 2,
      "componentType": 5126,
      "count": 70,
      "max": [
        0.6950503587722778,
        0.7011073231697083,
        -0.03842979297041893
      ],
      "min": [
        -0.7011072635650635,
        -0.20497995615005493,
        -0.1021929532289505
      ],
      "name": "polySurface105/POSITION",
      "type": "VEC3"
    },
    {
      "bufferView": 2,
      "byteOffset": 12,
      "componentType": 5126,
      "count": 70,
      "name": "polySurface105/NORMAL",
      "type": "VEC3"
    },
    {
      "bufferView": 2,
      "byteOffset": 24,
      "componentType": 5126,
      "count": 70,
      "name": "polySurface105/TEXCOORD_0",
      "type": "VEC2"
    },
    {
      "bufferView": 3,
      "componentType": 5125,
      "count": 96,
      "name": "polySurface105/INDICES",
      "type": "SCALAR"
    },
    {
      "bufferView": 4,
      "componentType": 5126,
      "count": 98,
      "max": [
        0.7011072635650635,
        0.6950504183769226,
        -0.03842979297041893
      ],
      "min": [
        -0.6950503587722778,
        -0.7011072039604187,
        -0.10219299048185349
      ],
      "name": "polySurface103/POSITION",
      "type": "VEC3"
    },
    {
      "bufferView": 4,
      "byteOffset": 12,
      "componentType": 5126,
      "count": 98,
      "name": "polySurface103/NORMAL",
      "type": "VEC3"
    },
    {
      "bufferView": 4,
      "byteOffset": 24,
      "componentType": 5126,
      "count": 98,
      "name": "polySurface103/TEXCOORD_0",
      "type": "VEC2"
    },
    {
      "bufferView": 5,
      "componentType": 5125,
      "count": 132,
      "name": "polySurface103/INDICES",
      "type": "SCALAR"
    },
    {
      "bufferView": 6,
      "componentType": 5126,
      "count": 50,
      "max": [
        -0.0024144581984728575,
        0.688993513584137,
        -0.03842979297041893
      ],
      "min": [
        -0.7011072635650635,
        -0.6950502991676331,
        -0.10219299048185349
      ],
      "name": "polySurface106/POSITION",
      "type": "VEC3"
    },
    {
      "bufferView": 6,
      "byteOffset": 12,
      "componentType": 5126,
      "count": 50,
      "name": "polySurface106/NORMAL",
      "type": "VEC3"
    },
    {
      "bufferView": 6,
      "byteOffset": 24,
      "componentType": 5126,
      "count": 50,
      "name": "polySurface106/TEXCOORD_0",
      "type": "VEC2"
    },
    {
      "bufferView": 7,
      "componentType": 5125,
      "count": 72,
      "name": "polySurface106/INDICES",
      "type": "SCALAR"
    },
    {
      "bufferView": 8,
      "componentType": 5126,
      "count": 2,
      "max": [
        3.3333332538604736
      ],
      "min": [
        0.0
      ],
      "name": "KeoTamGiac_Vo/Trs/Input",
      "type": "SCALAR"
    },
    {
      "bufferView": 9,
      "componentType": 5126,
      "count": 2,
      "name": "KeoTamGiac_Vo/rotation/Output",
      "type": "VEC4"
    }
  ],
  "animations": [
    {
      "channels": [
        {
          "sampler": 0,
          "target": {
            "node": 0,
            "path": "rotation"
          }
        }
      ],
      "name": "Take 001",
      "samplers": [
        {
          "input": 16,
          "output": 17
        }
      ]
    }
  ],
  "asset": {
    "copyright": "Copyright (c) 2018-2020 Chukong Technologies Inc.",
    "generator": "FBX-glTF-conv",
    "version": "2.0"
  },
  "bufferViews": [
    {
      "buffer": 0,
      "byteLength": 576,
      "byteStride": 32,
      "name": "polySurface101",
      "target": 34962
    },
    {
      "buffer": 0,
      "byteLength": 96,
      "byteOffset": 576
    },
    {
      "buffer": 0,
      "byteLength": 2240,
      "byteOffset": 672,
      "byteStride": 32,
      "name": "polySurface105",
      "target": 34962
    },
    {
      "buffer": 0,
      "byteLength": 384,
      "byteOffset": 2912
    },
    {
      "buffer": 0,
      "byteLength": 3136,
      "byteOffset": 3296,
      "byteStride": 32,
      "name": "polySurface103",
      "target": 34962
    },
    {
      "buffer": 0,
      "byteLength": 528,
      "byteOffset": 6432
    },
    {
      "buffer": 0,
      "byteLength": 1600,
      "byteOffset": 6960,
      "byteStride": 32,
      "name": "polySurface106",
      "target": 34962
    },
    {
      "buffer": 0,
      "byteLength": 288,
      "byteOffset": 8560
    },
    {
      "buffer": 0,
      "byteLength": 8,
      "byteOffset": 8848
    },
    {
      "buffer": 0,
      "byteLength": 32,
      "byteOffset": 8856
    }
  ],
  "buffers": [
    {
      "byteLength": 8888,
      "uri": "out.bin"
    }
  ],
  "extras": {
    "FBX-glTF-conv": {
      "animationFrameRate": 30.0
    }
  },
  "images": [
    {
      "extras": {
        "FBX-glTF-conv": {
          "fileName": "C:\\Users\\toannt\\Downloads\\KEOTEX.jpg",
          "relativeFileName": "KEOTEX.jpg"
        }
      },
      "name": "file4",
      "uri": "data:image/png;base64,"
    }
  ],
  "materials": [
    {
      "name": "keo2",
      "pbrMetallicRoughness": {
        "baseColorFactor": [
          0.800000011920929,
          0.800000011920929,
          0.800000011920929,
          1.0
        ],
        "baseColorTexture": {
          "index": 0
        }
      }
    }
  ],
  "meshes": [
    {
      "name": "polySurface101",
      "primitives": [
        {
          "attributes": {
            "NORMAL": 1,
            "POSITION": 0,
            "TEXCOORD_0": 2
          },
          "indices": 3,
          "material": 0
        }
      ]
    },
    {
      "name": "polySurface105",
      "primitives": [
        {
          "attributes": {
            "NORMAL": 5,
            "POSITION": 4,
            "TEXCOORD_0": 6
          },
          "indices": 7,
          "material": 0
        }
      ]
    },
    {
      "name": "polySurface103",
      "primitives": [
        {
          "attributes": {
            "NORMAL": 9,
            "POSITION": 8,
            "TEXCOORD_0": 10
          },
          "indices": 11,
          "material": 0
        }
      ]
    },
    {
      "name": "polySurface106",
      "primitives": [
        {
          "attributes": {
            "NORMAL": 13,
            "POSITION": 12,
            "TEXCOORD_0": 14
          },
          "indices": 15,
          "material": 0
        }
      ]
    }
  ],
  "nodes": [
    {
      "children": [
        1,
        2,
        3,
        4
      ],
      "name": "KeoTamGiac_Vo",
      "rotation": [
        -0.7071067690849304,
        -0.0,
        0.0,
        0.7071067690849304
      ],
      "translation": [
        0.0,
        0.10258026421070099,
        7.629394360719743e-08
      ]
    },
    {
      "mesh": 0,
      "name": "polySurface101"
    },
    {
      "mesh": 1,
      "name": "polySurface105"
    },
    {
      "mesh": 2,
      "name": "polySurface103"
    },
    {
      "mesh": 3,
      "name": "polySurface106"
    }
  ],
  "samplers": [
    {}
  ],
  "scenes": [
    {
      "nodes": [
        0
      ]
    }
  ],
  "textures": [
    {
      "name": "file4",
      "sampler": 0,
      "source": 0
    }
  ]
}