{
  "accessors": [
    {
      "bufferView": 0,
      "componentType": 5126,
      "count": 3339,
      "max": [
        24.982921600341797,
        41.59558868408203,
        67.02955627441406
      ],
      "min": [
        -29.672088623046875,
        4.930311679840088,
        -65.66395568847656
      ],
      "name": "_3_001_Material0/POSITION",
      "type": "VEC3"
    },
    {
      "bufferView": 0,
      "byteOffset": 12,
      "componentType": 5126,
      "count": 3339,
      "name": "_3_001_Material0/NORMAL",
      "type": "VEC3"
    },
    {
      "bufferView": 0,
      "byteOffset": 24,
      "componentType": 5126,
      "count": 3339,
      "name": "_3_001_Material0/TEXCOORD_0",
      "type": "VEC2"
    },
    {
      "bufferView": 0,
      "byteOffset": 32,
      "componentType": 5126,
      "count": 3339,
      "name": "_3_001_Material0/TEXCOORD_1",
      "type": "VEC2"
    },
    {
      "bufferView": 1,
      "componentType": 5125,
      "count": 9723,
      "name": "_3_001_Material0/INDICES",
      "type": "SCALAR"
    },
    {
      "bufferView": 2,
      "componentType": 5126,
      "count": 230,
      "max": [
        23.29109764099121,
        30.669485092163086,
        44.15285110473633
      ],
      "min": [
        -24.78914451599121,
        7.203258514404297,
        -50.01970672607422
      ],
      "name": "_3_001_Material0/POSITION",
      "type": "VEC3"
    },
    {
      "bufferView": 2,
      "byteOffset": 12,
      "componentType": 5126,
      "count": 230,
      "name": "_3_001_Material0/NORMAL",
      "type": "VEC3"
    },
    {
      "bufferView": 2,
      "byteOffset": 24,
      "componentType": 5126,
      "count": 230,
      "name": "_3_001_Material0/TEXCOORD_0",
      "type": "VEC2"
    },
    {
      "bufferView": 2,
      "byteOffset": 32,
      "componentType": 5126,
      "count": 230,
      "name": "_3_001_Material0/TEXCOORD_1",
      "type": "VEC2"
    },
    {
      "bufferView": 3,
      "componentType": 5125,
      "count": 543,
      "name": "_3_001_Material0/INDICES",
      "type": "SCALAR"
    },
    {
      "bufferView": 4,
      "componentType": 5126,
      "count": 122,
      "max": [
        17.609914779663086,
        28.77674674987793,
        19.302749633789063
      ],
      "min": [
        -17.837432861328125,
        8.163076400756836,
        2.7703871726989746
      ],
      "name": "_3_001_Material0/POSITION",
      "type": "VEC3"
    },
    {
      "bufferView": 4,
      "byteOffset": 12,
      "componentType": 5126,
      "count": 122,
      "name": "_3_001_Material0/NORMAL",
      "type": "VEC3"
    },
    {
      "bufferView": 4,
      "byteOffset": 24,
      "componentType": 5126,
      "count": 122,
      "name": "_3_001_Material0/TEXCOORD_0",
      "type": "VEC2"
    },
    {
      "bufferView": 4,
      "byteOffset": 32,
      "componentType": 5126,
      "count": 122,
      "name": "_3_001_Material0/TEXCOORD_1",
      "type": "VEC2"
    },
    {
      "bufferView": 5,
      "componentType": 5125,
      "count": 528,
      "name": "_3_001_Material0/INDICES",
      "type": "SCALAR"
    },
    {
      "bufferView": 6,
      "componentType": 5126,
      "count": 212,
      "max": [
        14.830625534057617,
        29.114442825317383,
        21.75758934020996
      ],
      "min": [
        7.8482666015625,
        23.309736251831055,
        17.2965087890625
      ],
      "name": "_3_001_Material0/POSITION",
      "type": "VEC3"
    },
    {
      "bufferView": 6,
      "byteOffset": 12,
      "componentType": 5126,
      "count": 212,
      "name": "_3_001_Material0/NORMAL",
      "type": "VEC3"
    },
    {
      "bufferView": 6,
      "byteOffset": 24,
      "componentType": 5126,
      "count": 212,
      "name": "_3_001_Material0/TEXCOORD_0",
      "type": "VEC2"
    },
    {
      "bufferView": 6,
      "byteOffset": 32,
      "componentType": 5126,
      "count": 212,
      "name": "_3_001_Material0/TEXCOORD_1",
      "type": "VEC2"
    },
    {
      "bufferView": 7,
      "componentType": 5125,
      "count": 1068,
      "name": "_3_001_Material0/INDICES",
      "type": "SCALAR"
    },
    {
      "bufferView": 8,
      "componentType": 5126,
      "count": 111,
      "max": [
        0.10107296705245972,
        0.27339446544647217,
        0.27761003375053406
      ],
      "min": [
        -0.10107262432575226,
        -0.273394376039505,
        -0.27761003375053406
      ],
      "name": "Scene/POSITION",
      "type": "VEC3"
    },
    {
      "bufferView": 8,
      "byteOffset": 12,
      "componentType": 5126,
      "count": 111,
      "name": "Scene/NORMAL",
      "type": "VEC3"
    },
    {
      "bufferView": 8,
      "byteOffset": 24,
      "componentType": 5126,
      "count": 111,
      "name": "Scene/TEXCOORD_0",
      "type": "VEC2"
    },
    {
      "bufferView": 9,
      "componentType": 5125,
      "count": 318,
      "name": "Scene/INDICES",
      "type": "SCALAR"
    },
    {
      "bufferView": 10,
      "componentType": 5126,
      "count": 111,
      "max": [
        0.10107296705245972,
        0.27339446544647217,
        0.27761003375053406
      ],
      "min": [
        -0.10107262432575226,
        -0.273394376039505,
        -0.27761003375053406
      ],
      "name": "Scene/POSITION",
      "type": "VEC3"
    },
    {
      "bufferView": 10,
      "byteOffset": 12,
      "componentType": 5126,
      "count": 111,
      "name": "Scene/NORMAL",
      "type": "VEC3"
    },
    {
      "bufferView": 10,
      "byteOffset": 24,
      "componentType": 5126,
      "count": 111,
      "name": "Scene/TEXCOORD_0",
      "type": "VEC2"
    },
    {
      "bufferView": 11,
      "componentType": 5125,
      "count": 318,
      "name": "Scene/INDICES",
      "type": "SCALAR"
    },
    {
      "bufferView": 12,
      "componentType": 5126,
      "count": 111,
      "max": [
        0.10107296705245972,
        0.27339446544647217,
        0.27761003375053406
      ],
      "min": [
        -0.10107262432575226,
        -0.273394376039505,
        -0.27761003375053406
      ],
      "name": "Scene/POSITION",
      "type": "VEC3"
    },
    {
      "bufferView": 12,
      "byteOffset": 12,
      "componentType": 5126,
      "count": 111,
      "name": "Scene/NORMAL",
      "type": "VEC3"
    },
    {
      "bufferView": 12,
      "byteOffset": 24,
      "componentType": 5126,
      "count": 111,
      "name": "Scene/TEXCOORD_0",
      "type": "VEC2"
    },
    {
      "bufferView": 13,
      "componentType": 5125,
      "count": 318,
      "name": "Scene/INDICES",
      "type": "SCALAR"
    },
    {
      "bufferView": 14,
      "componentType": 5126,
      "count": 111,
      "max": [
        0.10107296705245972,
        0.27339446544647217,
        0.27761003375053406
      ],
      "min": [
        -0.10107262432575226,
        -0.273394376039505,
        -0.27761003375053406
      ],
      "name": "Scene/POSITION",
      "type": "VEC3"
    },
    {
      "bufferView": 14,
      "byteOffset": 12,
      "componentType": 5126,
      "count": 111,
      "name": "Scene/NORMAL",
      "type": "VEC3"
    },
    {
      "bufferView": 14,
      "byteOffset": 24,
      "componentType": 5126,
      "count": 111,
      "name": "Scene/TEXCOORD_0",
      "type": "VEC2"
    },
    {
      "bufferView": 15,
      "componentType": 5125,
      "count": 318,
      "name": "Scene/INDICES",
      "type": "SCALAR"
    },
    {
      "bufferView": 16,
      "componentType": 5126,
      "count": 176,
      "max": [
        21.44802474975586,
        39.06145477294922,
        41.98659896850586
      ],
      "min": [
        -23.016298294067383,
        27.49363136291504,
        -50.80241012573242
      ],
      "name": "Scene/POSITION",
      "type": "VEC3"
    },
    {
      "bufferView": 16,
      "byteOffset": 12,
      "componentType": 5126,
      "count": 176,
      "name": "Scene/NORMAL",
      "type": "VEC3"
    },
    {
      "bufferView": 16,
      "byteOffset": 24,
      "componentType": 5126,
      "count": 176,
      "name": "Scene/TEXCOORD_0",
      "type": "VEC2"
    },
    {
      "bufferView": 17,
      "componentType": 5125,
      "count": 678,
      "name": "Scene/INDICES",
      "type": "SCALAR"
    },
    {
      "bufferView": 18,
      "componentType": 5126,
      "count": 20,
      "max": [
        21.703222274780273,
        38.07522201538086,
        23.625431060791016
      ],
      "min": [
        17.69114112854004,
        27.493642807006836,
        -3.7080254554748535
      ],
      "name": "Scene/POSITION",
      "type": "VEC3"
    },
    {
      "bufferView": 18,
      "byteOffset": 12,
      "componentType": 5126,
      "count": 20,
      "name": "Scene/NORMAL",
      "type": "VEC3"
    },
    {
      "bufferView": 18,
      "byteOffset": 24,
      "componentType": 5126,
      "count": 20,
      "name": "Scene/TEXCOORD_0",
      "type": "VEC2"
    },
    {
      "bufferView": 19,
      "componentType": 5125,
      "count": 54,
      "name": "Scene/INDICES",
      "type": "SCALAR"
    },
    {
      "bufferView": 20,
      "componentType": 5126,
      "count": 447,
      "max": [
        28.3590030670166,
        39.377540588378906,
        35.81006622314453
      ],
      "min": [
        16.659849166870117,
        5.925543308258057,
        -6.235910415649414
      ],
      "name": "Scene/POSITION",
      "type": "VEC3"
    },
    {
      "bufferView": 20,
      "byteOffset": 12,
      "componentType": 5126,
      "count": 447,
      "name": "Scene/NORMAL",
      "type": "VEC3"
    },
    {
      "bufferView": 20,
      "byteOffset": 24,
      "componentType": 5126,
      "count": 447,
      "name": "Scene/TEXCOORD_0",
      "type": "VEC2"
    },
    {
      "bufferView": 21,
      "componentType": 5125,
      "count": 1266,
      "name": "Scene/INDICES",
      "type": "SCALAR"
    }
  ],
  "asset": {
    "copyright": "Copyright (c) 2018-2020 Chukong Technologies Inc.",
    "generator": "FBX-glTF-conv",
    "version": "2.0"
  },
  "bufferViews": [
    {
      "buffer": 0,
      "byteLength": 133560,
      "byteStride": 40,
      "name": "_3_001_Material0",
      "target": 34962
    },
    {
      "buffer": 0,
      "byteLength": 38892,
      "byteOffset": 133560
    },
    {
      "buffer": 0,
      "byteLength": 9200,
      "byteOffset": 172452,
      "byteStride": 40,
      "name": "_3_001_Material0",
      "target": 34962
    },
    {
      "buffer": 0,
      "byteLength": 2172,
      "byteOffset": 181652
    },
    {
      "buffer": 0,
      "byteLength": 4880,
      "byteOffset": 183824,
      "byteStride": 40,
      "name": "_3_001_Material0",
      "target": 34962
    },
    {
      "buffer": 0,
      "byteLength": 2112,
      "byteOffset": 188704
    },
    {
      "buffer": 0,
      "byteLength": 8480,
      "byteOffset": 190816,
      "byteStride": 40,
      "name": "_3_001_Material0",
      "target": 34962
    },
    {
      "buffer": 0,
      "byteLength": 4272,
      "byteOffset": 199296
    },
    {
      "buffer": 0,
      "byteLength": 3552,
      "byteOffset": 203568,
      "byteStride": 32,
      "name": "Scene",
      "target": 34962
    },
    {
      "buffer": 0,
      "byteLength": 1272,
      "byteOffset": 207120
    },
    {
      "buffer": 0,
      "byteLength": 3552,
      "byteOffset": 208392,
      "byteStride": 32,
      "name": "Scene",
      "target": 34962
    },
    {
      "buffer": 0,
      "byteLength": 1272,
      "byteOffset": 211944
    },
    {
      "buffer": 0,
      "byteLength": 3552,
      "byteOffset": 213216,
      "byteStride": 32,
      "name": "Scene",
      "target": 34962
    },
    {
      "buffer": 0,
      "byteLength": 1272,
      "byteOffset": 216768
    },
    {
      "buffer": 0,
      "byteLength": 3552,
      "byteOffset": 218040,
      "byteStride": 32,
      "name": "Scene",
      "target": 34962
    },
    {
      "buffer": 0,
      "byteLength": 1272,
      "byteOffset": 221592
    },
    {
      "buffer": 0,
      "byteLength": 5632,
      "byteOffset": 222864,
      "byteStride": 32,
      "name": "Scene",
      "target": 34962
    },
    {
      "buffer": 0,
      "byteLength": 2712,
      "byteOffset": 228496
    },
    {
      "buffer": 0,
      "byteLength": 640,
      "byteOffset": 231208,
      "byteStride": 32,
      "name": "Scene",
      "target": 34962
    },
    {
      "buffer": 0,
      "byteLength": 216,
      "byteOffset": 231848
    },
    {
      "buffer": 0,
      "byteLength": 14304,
      "byteOffset": 232064,
      "byteStride": 32,
      "name": "Scene",
      "target": 34962
    },
    {
      "buffer": 0,
      "byteLength": 5064,
      "byteOffset": 246368
    }
  ],
  "buffers": [
    {
      "byteLength": 251432,
      "uri": "out.bin"
    }
  ],
  "extras": {
    "FBX-glTF-conv": {
      "animationFrameRate": 30.0
    }
  },
  "materials": [
    {
      "name": "car3"
    },
    {
      "name": "Default_Material"
    },
    {
      "name": "Textures_Wheel_008"
    }
  ],
  "meshes": [
    {
      "name": "_3_001_Material0",
      "primitives": [
        {
          "attributes": {
            "NORMAL": 1,
            "POSITION": 0,
            "TEXCOORD_0": 2,
            "TEXCOORD_1": 3
          },
          "indices": 4,
          "material": 0
        },
        {
          "attributes": {
            "NORMAL": 6,
            "POSITION": 5,
            "TEXCOORD_0": 7,
            "TEXCOORD_1": 8
          },
          "indices": 9,
          "material": 0
        },
        {
          "attributes": {
            "NORMAL": 11,
            "POSITION": 10,
            "TEXCOORD_0": 12,
            "TEXCOORD_1": 13
          },
          "indices": 14,
          "material": 0
        },
        {
          "attributes": {
            "NORMAL": 16,
            "POSITION": 15,
            "TEXCOORD_0": 17,
            "TEXCOORD_1": 18
          },
          "indices": 19,
          "material": 1
        }
      ]
    },
    {
      "name": "Scene",
      "primitives": [
        {
          "attributes": {
            "NORMAL": 21,
            "POSITION": 20,
            "TEXCOORD_0": 22
          },
          "indices": 23,
          "material": 2
        }
      ]
    },
    {
      "name": "Scene",
      "primitives": [
        {
          "attributes": {
            "NORMAL": 25,
            "POSITION": 24,
            "TEXCOORD_0": 26
          },
          "indices": 27,
          "material": 2
        }
      ]
    },
    {
      "name": "Scene",
      "primitives": [
        {
          "attributes": {
            "NORMAL": 29,
            "POSITION": 28,
            "TEXCOORD_0": 30
          },
          "indices": 31,
          "material": 2
        }
      ]
    },
    {
      "name": "Scene",
      "primitives": [
        {
          "attributes": {
            "NORMAL": 33,
            "POSITION": 32,
            "TEXCOORD_0": 34
          },
          "indices": 35,
          "material": 2
        }
      ]
    },
    {
      "name": "Scene",
      "primitives": [
        {
          "attributes": {
            "NORMAL": 37,
            "POSITION": 36,
            "TEXCOORD_0": 38
          },
          "indices": 39,
          "material": 0
        }
      ]
    },
    {
      "name": "Scene",
      "primitives": [
        {
          "attributes": {
            "NORMAL": 41,
            "POSITION": 40,
            "TEXCOORD_0": 42
          },
          "indices": 43,
          "material": 0
        }
      ]
    },
    {
      "name": "Scene",
      "primitives": [
        {
          "attributes": {
            "NORMAL": 45,
            "POSITION": 44,
            "TEXCOORD_0": 46
          },
          "indices": 47,
          "material": 0
        }
      ]
    }
  ],
  "nodes": [
    {
      "children": [
        1,
        6,
        7,
        8
      ],
      "name": "_3",
      "rotation": [
        -0.7069847583770752,
        -0.0,
        0.0,
        0.7072287797927856
      ],
      "scale": [
        100.0,
        99.99998474121094,
        99.99998474121094
      ]
    },
    {
      "children": [
        2,
        3,
        4,
        5
      ],
      "mesh": 0,
      "name": "_3_001",
      "rotation": [
        0.7071067690849304,
        0.0,
        0.0,
        0.7071067690849304
      ],
      "scale": [
        0.0002539999841246754,
        0.0002539999841246754,
        0.0002539999841246754
      ]
    },
    {
      "mesh": 1,
      "name": "Wheel_BR_004",
      "rotation": [
        -0.7069847583770752,
        1.686164807779278e-07,
        1.6855830153872375e-07,
        0.7072287797927856
      ],
      "scale": [
        35.131710052490234,
        33.01956558227539,
        33.01956558227539
      ],
      "translation": [
        -23.67043685913086,
        9.137345314025879,
        42.58722686767578
      ]
    },
    {
      "mesh": 2,
      "name": "Wheel_BR_019",
      "rotation": [
        -0.7069847583770752,
        1.686164807779278e-07,
        1.6855830153872375e-07,
        0.7072287797927856
      ],
      "scale": [
        35.131710052490234,
        33.01956558227539,
        33.01956558227539
      ],
      "translation": [
        -23.67043685913086,
        9.13741683959961,
        -36.2120361328125
      ]
    },
    {
      "mesh": 3,
      "name": "Wheel_BR_020",
      "rotation": [
        8.7157638429413e-33,
        -0.7071067690849304,
        0.7071067690849304,
        8.659560603426554e-17
      ],
      "scale": [
        35.131710052490234,
        33.01956558227539,
        33.01956558227539
      ],
      "translation": [
        21.764408111572266,
        9.137345314025879,
        42.58722686767578
      ]
    },
    {
      "mesh": 4,
      "name": "Wheel_BR_021",
      "rotation": [
        8.7157638429413e-33,
        -0.7071067690849304,
        0.7071067690849304,
        8.659560603426554e-17
      ],
      "scale": [
        35.131710052490234,
        33.01956558227539,
        33.01956558227539
      ],
      "translation": [
        21.76441192626953,
        9.13741683959961,
        -36.2120361328125
      ]
    },
    {
      "mesh": 5,
      "name": "Car_3_001",
      "rotation": [
        0.7071067690849304,
        0.0,
        0.0,
        0.7071067690849304
      ],
      "scale": [
        0.0002539999841246754,
        0.0002539999841246754,
        0.0002539999841246754
      ]
    },
    {
      "mesh": 6,
      "name": "Car_3_002",
      "rotation": [
        0.7071067690849304,
        0.0,
        0.0,
        0.7071067690849304
      ],
      "scale": [
        0.0002539999841246754,
        0.0002539999841246754,
        0.0002539999841246754
      ]
    },
    {
      "mesh": 7,
      "name": "Car_3_004",
      "rotation": [
        0.7071067690849304,
        0.0,
        0.0,
        0.7071067690849304
      ],
      "scale": [
        0.0002539999841246754,
        0.0002539999841246754,
        0.0002539999841246754
      ]
    }
  ],
  "scenes": [
    {
      "name": "Scene",
      "nodes": [
        0
      ]
    }
  ]
}