{
  "accessors": [
    {
      "bufferView": 0,
      "componentType": 5126,
      "count": 80,
      "max": [
        0.0072420500218868256,
        0.03428991883993149,
        0.009710079990327358
      ],
      "min": [
        -0.0072420500218868256,
        0.02058377116918564,
        -0.007242059800773859
      ],
      "name": "body_Cylinder.002_Material0/POSITION",
      "type": "VEC3"
    },
    {
      "bufferView": 0,
      "byteOffset": 12,
      "componentType": 5126,
      "count": 80,
      "name": "body_Cylinder.002_Material0/NORMAL",
      "type": "VEC3"
    },
    {
      "bufferView": 0,
      "byteOffset": 24,
      "componentType": 5126,
      "count": 80,
      "name": "body_Cylinder.002_Material0/TEXCOORD_0",
      "type": "VEC2"
    },
    {
      "bufferView": 1,
      "componentType": 5125,
      "count": 192,
      "name": "body_Cylinder.002_Material0/INDICES",
      "type": "SCALAR"
    },
    {
      "bufferView": 2,
      "componentType": 5126,
      "count": 6,
      "max": [
        0.003745419904589653,
        0.01657199114561081,
        0.009375009685754776
      ],
      "min": [
        -0.003745419904589653,
        0.012415989302098751,
        0.00812107976526022
      ],
      "name": "body_Cylinder.002_Material0/POSITION",
      "type": "VEC3"
    },
    {
      "bufferView": 2,
      "byteOffset": 12,
      "componentType": 5126,
      "count": 6,
      "name": "body_Cylinder.002_Material0/NORMAL",
      "type": "VEC3"
    },
    {
      "bufferView": 2,
      "byteOffset": 24,
      "componentType": 5126,
      "count": 6,
      "name": "body_Cylinder.002_Material0/TEXCOORD_0",
      "type": "VEC2"
    },
    {
      "bufferView": 3,
      "componentType": 5125,
      "count": 12,
      "name": "body_Cylinder.002_Material0/INDICES",
      "type": "SCALAR"
    },
    {
      "bufferView": 4,
      "componentType": 5126,
      "count": 192,
      "max": [
        0.009787250310182571,
        0.026912031695246696,
        0.009375009685754776
      ],
      "min": [
        -0.009787250310182571,
        0.00029630999779328704,
        -0.009787250310182571
      ],
      "name": "body_Cylinder.002_Material0/POSITION",
      "type": "VEC3"
    },
    {
      "bufferView": 4,
      "byteOffset": 12,
      "componentType": 5126,
      "count": 192,
      "name": "body_Cylinder.002_Material0/NORMAL",
      "type": "VEC3"
    },
    {
      "bufferView": 4,
      "byteOffset": 24,
      "componentType": 5126,
      "count": 192,
      "name": "body_Cylinder.002_Material0/TEXCOORD_0",
      "type": "VEC2"
    },
    {
      "bufferView": 5,
      "componentType": 5125,
      "count": 582,
      "name": "body_Cylinder.002_Material0/INDICES",
      "type": "SCALAR"
    },
    {
      "bufferView": 6,
      "componentType": 5126,
      "count": 212,
      "max": [
        0.0059072296135127544,
        0.0549694299697876,
        0.0022397299762815237
      ],
      "min": [
        -0.0059072296135127544,
        0.05048996955156326,
        -0.0022397299762815237
      ],
      "name": "bow_Cylinder.003/POSITION",
      "type": "VEC3"
    },
    {
      "bufferView": 6,
      "byteOffset": 12,
      "componentType": 5126,
      "count": 212,
      "name": "bow_Cylinder.003/NORMAL",
      "type": "VEC3"
    },
    {
      "bufferView": 6,
      "byteOffset": 24,
      "componentType": 5126,
      "count": 212,
      "name": "bow_Cylinder.003/TEXCOORD_0",
      "type": "VEC2"
    },
    {
      "bufferView": 7,
      "componentType": 5125,
      "count": 414,
      "name": "bow_Cylinder.003/INDICES",
      "type": "SCALAR"
    },
    {
      "bufferView": 8,
      "componentType": 5126,
      "count": 108,
      "max": [
        0.005735250189900398,
        0.03297068923711777,
        0.008285580202937126
      ],
      "min": [
        -0.005735250189900398,
        0.03162761032581329,
        0.006939219776540995
      ],
      "name": "eyes_Circle.002/POSITION",
      "type": "VEC3"
    },
    {
      "bufferView": 8,
      "byteOffset": 12,
      "componentType": 5126,
      "count": 108,
      "name": "eyes_Circle.002/NORMAL",
      "type": "VEC3"
    },
    {
      "bufferView": 8,
      "byteOffset": 24,
      "componentType": 5126,
      "count": 108,
      "name": "eyes_Circle.002/TEXCOORD_0",
      "type": "VEC2"
    },
    {
      "bufferView": 9,
      "componentType": 5125,
      "count": 192,
      "name": "eyes_Circle.002/INDICES",
      "type": "SCALAR"
    },
    {
      "bufferView": 10,
      "componentType": 5126,
      "count": 123,
      "max": [
        0.011682460084557533,
        0.05141177028417587,
        0.012257440015673637
      ],
      "min": [
        -0.011682449840009212,
        0.0277544092386961,
        -0.012104489840567112
      ],
      "name": "hair_Cylinder.004/POSITION",
      "type": "VEC3"
    },
    {
      "bufferView": 10,
      "byteOffset": 12,
      "componentType": 5126,
      "count": 123,
      "name": "hair_Cylinder.004/NORMAL",
      "type": "VEC3"
    },
    {
      "bufferView": 10,
      "byteOffset": 24,
      "componentType": 5126,
      "count": 123,
      "name": "hair_Cylinder.004/TEXCOORD_0",
      "type": "VEC2"
    },
    {
      "bufferView": 11,
      "componentType": 5125,
      "count": 360,
      "name": "hair_Cylinder.004/INDICES",
      "type": "SCALAR"
    },
    {
      "bufferView": 12,
      "componentType": 5126,
      "count": 36,
      "max": [
        0.01280864980071783,
        0.022102560847997665,
        0.009357360191643238
      ],
      "min": [
        -0.01280864980071783,
        0.007285260129719973,
        0.005329750012606382
      ],
      "name": "hands_Cube.002/POSITION",
      "type": "VEC3"
    },
    {
      "bufferView": 12,
      "byteOffset": 12,
      "componentType": 5126,
      "count": 36,
      "name": "hands_Cube.002/NORMAL",
      "type": "VEC3"
    },
    {
      "bufferView": 12,
      "byteOffset": 24,
      "componentType": 5126,
      "count": 36,
      "name": "hands_Cube.002/TEXCOORD_0",
      "type": "VEC2"
    },
    {
      "bufferView": 13,
      "componentType": 5125,
      "count": 120,
      "name": "hands_Cube.002/INDICES",
      "type": "SCALAR"
    },
    {
      "bufferView": 14,
      "componentType": 5126,
      "count": 166,
      "max": [
        0.0007791899843141437,
        0.03125914931297302,
        0.009349499829113483
      ],
      "min": [
        -0.0007791899843141437,
        0.0304486695677042,
        0.009261519648134708
      ],
      "name": "lips_Circle.001/POSITION",
      "type": "VEC3"
    },
    {
      "bufferView": 14,
      "byteOffset": 12,
      "componentType": 5126,
      "count": 166,
      "name": "lips_Circle.001/NORMAL",
      "type": "VEC3"
    },
    {
      "bufferView": 14,
      "byteOffset": 24,
      "componentType": 5126,
      "count": 166,
      "name": "lips_Circle.001/TEXCOORD_0",
      "type": "VEC2"
    },
    {
      "bufferView": 15,
      "componentType": 5125,
      "count": 366,
      "name": "lips_Circle.001/INDICES",
      "type": "SCALAR"
    }
  ],
  "asset": {
    "copyright": "Copyright (c) 2018-2020 Chukong Technologies Inc.",
    "generator": "FBX-glTF-conv",
    "version": "2.0"
  },
  "bufferViews": [
    {
      "buffer": 0,
      "byteLength": 2560,
      "byteStride": 32,
      "name": "body_Cylinder.002_Material0",
      "target": 34962
    },
    {
      "buffer": 0,
      "byteLength": 768,
      "byteOffset": 2560
    },
    {
      "buffer": 0,
      "byteLength": 192,
      "byteOffset": 3328,
      "byteStride": 32,
      "name": "body_Cylinder.002_Material0",
      "target": 34962
    },
    {
      "buffer": 0,
      "byteLength": 48,
      "byteOffset": 3520
    },
    {
      "buffer": 0,
      "byteLength": 6144,
      "byteOffset": 3568,
      "byteStride": 32,
      "name": "body_Cylinder.002_Material0",
      "target": 34962
    },
    {
      "buffer": 0,
      "byteLength": 2328,
      "byteOffset": 9712
    },
    {
      "buffer": 0,
      "byteLength": 6784,
      "byteOffset": 12040,
      "byteStride": 32,
      "name": "bow_Cylinder.003",
      "target": 34962
    },
    {
      "buffer": 0,
      "byteLength": 1656,
      "byteOffset": 18824
    },
    {
      "buffer": 0,
      "byteLength": 3456,
      "byteOffset": 20480,
      "byteStride": 32,
      "name": "eyes_Circle.002",
      "target": 34962
    },
    {
      "buffer": 0,
      "byteLength": 768,
      "byteOffset": 23936
    },
    {
      "buffer": 0,
      "byteLength": 3936,
      "byteOffset": 24704,
      "byteStride": 32,
      "name": "hair_Cylinder.004",
      "target": 34962
    },
    {
      "buffer": 0,
      "byteLength": 1440,
      "byteOffset": 28640
    },
    {
      "buffer": 0,
      "byteLength": 1152,
      "byteOffset": 30080,
      "byteStride": 32,
      "name": "hands_Cube.002",
      "target": 34962
    },
    {
      "buffer": 0,
      "byteLength": 480,
      "byteOffset": 31232
    },
    {
      "buffer": 0,
      "byteLength": 5312,
      "byteOffset": 31712,
      "byteStride": 32,
      "name": "lips_Circle.001",
      "target": 34962
    },
    {
      "buffer": 0,
      "byteLength": 1464,
      "byteOffset": 37024
    }
  ],
  "buffers": [
    {
      "byteLength": 38488,
      "uri": "out.bin"
    }
  ],
  "extras": {
    "FBX-glTF-conv": {
      "animationFrameRate": 24.0
    }
  },
  "materials": [
    {
      "name": "KokeshiSkin",
      "pbrMetallicRoughness": {
        "baseColorFactor": [
          0.800000011920929,
          0.800000011920929,
          0.800000011920929,
          1.0
        ],
        "metallicFactor": 0.4000000059604645,
        "roughnessFactor": 0.4150870442390442
      }
    },
    {
      "name": "KokeshiBelt",
      "pbrMetallicRoughness": {
        "baseColorFactor": [
          0.800000011920929,
          0.0055959997698664665,
          0.004484000150114298,
          1.0
        ],
        "metallicFactor": 0.4000000059604645,
        "roughnessFactor": 0.4150870442390442
      }
    },
    {
      "name": "KokeshiCloth",
      "pbrMetallicRoughness": {
        "baseColorFactor": [
          1.0,
          0.1954844892024994,
          0.026973731815814972,
          1.0
        ],
        "metallicFactor": 0.4000000059604645,
        "roughnessFactor": 0.4150870442390442
      }
    },
    {
      "name": "KokeshiBow",
      "pbrMetallicRoughness": {
        "baseColorFactor": [
          0.09996403753757477,
          0.012940382584929466,
          0.25854530930519104,
          1.0
        ],
        "metallicFactor": 0.4000000059604645,
        "roughnessFactor": 0.4150870442390442
      }
    },
    {
      "name": "KokeshiEyes",
      "pbrMetallicRoughness": {
        "baseColorFactor": [
          0.0,
          0.0,
          0.0,
          1.0
        ],
        "metallicFactor": 0.4000000059604645,
        "roughnessFactor": 0.4150870442390442
      }
    },
    {
      "name": "KokeshiHair",
      "pbrMetallicRoughness": {
        "baseColorFactor": [
          0.01037841010838747,
          0.01037841010838747,
          0.01037841010838747,
          1.0
        ],
        "metallicFactor": 0.4000000059604645,
        "roughnessFactor": 0.4150870442390442
      }
    },
    {
      "name": "KokeshiLips",
      "pbrMetallicRoughness": {
        "baseColorFactor": [
          0.800000011920929,
          0.044902998954057693,
          0.14757999777793884,
          1.0
        ],
        "metallicFactor": 0.4000000059604645,
        "roughnessFactor": 0.4150870442390442
      }
    }
  ],
  "meshes": [
    {
      "name": "body_Cylinder.002_Material0",
      "primitives": [
        {
          "attributes": {
            "NORMAL": 1,
            "POSITION": 0,
            "TEXCOORD_0": 2
          },
          "indices": 3,
          "material": 0
        },
        {
          "attributes": {
            "NORMAL": 5,
            "POSITION": 4,
            "TEXCOORD_0": 6
          },
          "indices": 7,
          "material": 1
        },
        {
          "attributes": {
            "NORMAL": 9,
            "POSITION": 8,
            "TEXCOORD_0": 10
          },
          "indices": 11,
          "material": 2
        }
      ]
    },
    {
      "name": "bow_Cylinder.003",
      "primitives": [
        {
          "attributes": {
            "NORMAL": 13,
            "POSITION": 12,
            "TEXCOORD_0": 14
          },
          "indices": 15,
          "material": 3
        }
      ]
    },
    {
      "name": "eyes_Circle.002",
      "primitives": [
        {
          "attributes": {
            "NORMAL": 17,
            "POSITION": 16,
            "TEXCOORD_0": 18
          },
          "indices": 19,
          "material": 4
        }
      ]
    },
    {
      "name": "hair_Cylinder.004",
      "primitives": [
        {
          "attributes": {
            "NORMAL": 21,
            "POSITION": 20,
            "TEXCOORD_0": 22
          },
          "indices": 23,
          "material": 5
        }
      ]
    },
    {
      "name": "hands_Cube.002",
      "primitives": [
        {
          "attributes": {
            "NORMAL": 25,
            "POSITION": 24,
            "TEXCOORD_0": 26
          },
          "indices": 27,
          "material": 2
        }
      ]
    },
    {
      "name": "lips_Circle.001",
      "primitives": [
        {
          "attributes": {
            "NORMAL": 29,
            "POSITION": 28,
            "TEXCOORD_0": 30
          },
          "indices": 31,
          "material": 6
        }
      ]
    }
  ],
  "nodes": [
    {
      "mesh": 0,
      "name": "body_Cylinder.002",
      "scale": [
        100.0,
        100.0,
        100.0
      ]
    },
    {
      "mesh": 1,
      "name": "bow_Cylinder.003",
      "scale": [
        100.0,
        100.0,
        100.0
      ]
    },
    {
      "mesh": 2,
      "name": "eyes_Circle.002",
      "scale": [
        100.0,
        100.0,
        100.0
      ]
    },
    {
      "mesh": 3,
      "name": "hair_Cylinder.004",
      "scale": [
        100.0,
        100.0,
        100.0
      ]
    },
    {
      "mesh": 4,
      "name": "hands_Cube.002",
      "scale": [
        100.0,
        100.0,
        100.0
      ]
    },
    {
      "mesh": 5,
      "name": "lips_Circle.001",
      "scale": [
        100.0,
        100.0,
        100.0
      ]
    }
  ],
  "scenes": [
    {
      "name": "Scene",
      "nodes": [
        0,
        1,
        2,
        3,
        4,
        5
      ]
    }
  ]
}