{
  "accessors": [
    {
      "bufferView": 0,
      "componentType": 5126,
      "count": 106,
      "max": [
        0.03377030789852142,
        0.015830565243959427,
        0.2633972465991974
      ],
      "min": [
        -0.015830514952540398,
        -0.015830565243959427,
        -0.00011602111044339836
      ],
      "name": "Cylinder.005_Material0/POSITION",
      "type": "VEC3"
    },
    {
      "bufferView": 0,
      "byteOffset": 12,
      "componentType": 5126,
      "count": 106,
      "name": "Cylinder.005_Material0/NORMAL",
      "type": "VEC3"
    },
    {
      "bufferView": 0,
      "byteOffset": 24,
      "componentType": 5126,
      "count": 106,
      "name": "Cylinder.005_Material0/TEXCOORD_0",
      "type": "VEC2"
    },
    {
      "bufferView": 1,
      "componentType": 5125,
      "count": 468,
      "name": "Cylinder.005_Material0/INDICES",
      "type": "SCALAR"
    },
    {
      "bufferView": 2,
      "componentType": 5126,
      "count": 297,
      "max": [
        0.25937145948410034,
        0.2265637069940567,
        0.3720952272415161
      ],
      "min": [
        -0.1757720708847046,
        -0.19555827975273132,
        0.06799817085266113
      ],
      "name": "Cylinder.005_Material0/POSITION",
      "type": "VEC3"
    },
    {
      "bufferView": 2,
      "byteOffset": 12,
      "componentType": 5126,
      "count": 297,
      "name": "Cylinder.005_Material0/NORMAL",
      "type": "VEC3"
    },
    {
      "bufferView": 2,
      "byteOffset": 24,
      "componentType": 5126,
      "count": 297,
      "name": "Cylinder.005_Material0/TEXCOORD_0",
      "type": "VEC2"
    },
    {
      "bufferView": 3,
      "componentType": 5125,
      "count": 1056,
      "name": "Cylinder.005_Material0/INDICES",
      "type": "SCALAR"
    }
  ],
  "asset": {
    "copyright": "Copyright (c) 2018-2020 Chukong Technologies Inc.",
    "generator": "FBX-glTF-conv",
    "version": "2.0"
  },
  "bufferViews": [
    {
      "buffer": 0,
      "byteLength": 3392,
      "byteStride": 32,
      "name": "Cylinder.005_Material0",
      "target": 34962
    },
    {
      "buffer": 0,
      "byteLength": 1872,
      "byteOffset": 3392
    },
    {
      "buffer": 0,
      "byteLength": 9504,
      "byteOffset": 5264,
      "byteStride": 32,
      "name": "Cylinder.005_Material0",
      "target": 34962
    },
    {
      "buffer": 0,
      "byteLength": 4224,
      "byteOffset": 14768
    }
  ],
  "buffers": [
    {
      "byteLength": 18992,
      "uri": "out.bin"
    }
  ],
  "extras": {
    "FBX-glTF-conv": {
      "animationFrameRate": 25.0
    }
  },
  "images": [
    {
      "extras": {
        "FBX-glTF-conv": {
          "fileName": "U:\\2023\\3\\GTA new\\tex\\fix map\\cay\\THAN CAY DUA.tif",
          "relativeFileName": "U:\\2023\\3\\GTA new\\tex\\fix map\\cay\\THAN CAY DUA.tif"
        }
      },
      "name": "base_color_texture",
      "uri": "data:image/png;base64,"
    },
    {
      "extras": {
        "FBX-glTF-conv": {
          "fileName": "U:\\2023\\3\\GTA new\\tex\\fix map\\cay\\la dua.png",
          "relativeFileName": "U:\\2023\\3\\GTA new\\tex\\fix map\\cay\\la dua.png"
        }
      },
      "name": "base_color_texture",
      "uri": "data:image/png;base64,"
    }
  ],
  "materials": [
    {
      "name": "THAN CAY DUA",
      "pbrMetallicRoughness": {
        "baseColorTexture": {
          "index": 0
        },
        "metallicFactor": 0.4000000059604645,
        "roughnessFactor": 0.27216553688049316
      }
    },
    {
      "name": "la dua",
      "pbrMetallicRoughness": {
        "baseColorTexture": {
          "index": 1
        },
        "metallicFactor": 0.4000000059604645,
        "roughnessFactor": 0.27216553688049316
      }
    }
  ],
  "meshes": [
    {
      "name": "Cylinder.005_Material0",
      "primitives": [
        {
          "attributes": {
            "NORMAL": 1,
            "POSITION": 0,
            "TEXCOORD_0": 2
          },
          "indices": 3,
          "material": 0
        },
        {
          "attributes": {
            "NORMAL": 5,
            "POSITION": 4,
            "TEXCOORD_0": 6
          },
          "indices": 7,
          "material": 1
        }
      ]
    }
  ],
  "nodes": [
    {
      "mesh": 0,
      "name": "Cylinder.005",
      "rotation": [
        -0.7071068286895752,
        0.0,
        0.0,
        0.7071067094802856
      ],
      "scale": [
        100.0,
        100.0,
        100.0
      ]
    }
  ],
  "samplers": [
    {}
  ],
  "scenes": [
    {
      "name": "Scene",
      "nodes": [
        0
      ]
    }
  ],
  "textures": [
    {
      "name": "base_color_texture",
      "sampler": 0,
      "source": 0
    },
    {
      "name": "base_color_texture",
      "sampler": 0,
      "source": 1
    }
  ]
}