{
  "accessors": [
    {
      "bufferView": 0,
      "componentType": 5126,
      "count": 1924,
      "max": [
        0.0013094000751152635,
        0.0036951499059796333,
        0.014833910390734673
      ],
      "min": [
        -0.0014120000414550304,
        -0.007019550073891878,
        -0.019817199558019638
      ],
      "name": "AssaultRIfle_01_Cube.002_Material0/POSITION",
      "type": "VEC3"
    },
    {
      "bufferView": 0,
      "byteOffset": 12,
      "componentType": 5126,
      "count": 1924,
      "name": "AssaultRIfle_01_Cube.002_Material0/NORMAL",
      "type": "VEC3"
    },
    {
      "bufferView": 0,
      "byteOffset": 24,
      "componentType": 5126,
      "count": 1924,
      "name": "AssaultRIfle_01_Cube.002_Material0/TEXCOORD_0",
      "type": "VEC2"
    },
    {
      "bufferView": 1,
      "componentType": 5125,
      "count": 2100,
      "name": "AssaultRIfle_01_Cube.002_Material0/INDICES",
      "type": "SCALAR"
    },
    {
      "bufferView": 2,
      "componentType": 5126,
      "count": 487,
      "max": [
        0.0012220999924466014,
        0.0005965600139461458,
        0.026450389996170998
      ],
      "min": [
        -0.0013246999587863684,
        -0.01103507075458765,
        -0.000835490005556494
      ],
      "name": "AssaultRIfle_01_Cube.002_Material0/POSITION",
      "type": "VEC3"
    },
    {
      "bufferView": 2,
      "byteOffset": 12,
      "componentType": 5126,
      "count": 487,
      "name": "AssaultRIfle_01_Cube.002_Material0/NORMAL",
      "type": "VEC3"
    },
    {
      "bufferView": 2,
      "byteOffset": 24,
      "componentType": 5126,
      "count": 487,
      "name": "AssaultRIfle_01_Cube.002_Material0/TEXCOORD_0",
      "type": "VEC2"
    },
    {
      "bufferView": 3,
      "componentType": 5125,
      "count": 504,
      "name": "AssaultRIfle_01_Cube.002_Material0/INDICES",
      "type": "SCALAR"
    },
    {
      "bufferView": 4,
      "componentType": 5126,
      "count": 224,
      "max": [
        0.0009105500066652894,
        0.003914779983460903,
        0.0027419901452958584
      ],
      "min": [
        -0.0005794800235889852,
        0.0030877399258315563,
        -0.01883953996002674
      ],
      "name": "AssaultRIfle_01_Cube.002_Material0/POSITION",
      "type": "VEC3"
    },
    {
      "bufferView": 4,
      "byteOffset": 12,
      "componentType": 5126,
      "count": 224,
      "name": "AssaultRIfle_01_Cube.002_Material0/NORMAL",
      "type": "VEC3"
    },
    {
      "bufferView": 4,
      "byteOffset": 24,
      "componentType": 5126,
      "count": 224,
      "name": "AssaultRIfle_01_Cube.002_Material0/TEXCOORD_0",
      "type": "VEC2"
    },
    {
      "bufferView": 5,
      "componentType": 5125,
      "count": 300,
      "name": "AssaultRIfle_01_Cube.002_Material0/INDICES",
      "type": "SCALAR"
    }
  ],
  "asset": {
    "copyright": "Copyright (c) 2018-2020 Chukong Technologies Inc.",
    "generator": "FBX-glTF-conv",
    "version": "2.0"
  },
  "bufferViews": [
    {
      "buffer": 0,
      "byteLength": 61568,
      "byteStride": 32,
      "name": "AssaultRIfle_01_Cube.002_Material0",
      "target": 34962
    },
    {
      "buffer": 0,
      "byteLength": 8400,
      "byteOffset": 61568
    },
    {
      "buffer": 0,
      "byteLength": 15584,
      "byteOffset": 69968,
      "byteStride": 32,
      "name": "AssaultRIfle_01_Cube.002_Material0",
      "target": 34962
    },
    {
      "buffer": 0,
      "byteLength": 2016,
      "byteOffset": 85552
    },
    {
      "buffer": 0,
      "byteLength": 7168,
      "byteOffset": 87568,
      "byteStride": 32,
      "name": "AssaultRIfle_01_Cube.002_Material0",
      "target": 34962
    },
    {
      "buffer": 0,
      "byteLength": 1200,
      "byteOffset": 94736
    }
  ],
  "buffers": [
    {
      "byteLength": 95936,
      "uri": "out.bin"
    }
  ],
  "extras": {
    "FBX-glTF-conv": {
      "animationFrameRate": 24.0
    }
  },
  "materials": [
    {
      "name": "Black_AssaultRIfle_01",
      "pbrMetallicRoughness": {
        "baseColorFactor": [
          0.013701999559998512,
          0.013701999559998512,
          0.013701999559998512,
          1.0
        ],
        "metallicFactor": 0.4000000059604645,
        "roughnessFactor": 0.2857142984867096
      }
    },
    {
      "name": "Brown_AssaultRIfle_01",
      "pbrMetallicRoughness": {
        "baseColorFactor": [
          0.09850499778985977,
          0.03531400114297867,
          0.01623300090432167,
          1.0
        ],
        "metallicFactor": 0.4000000059604645,
        "roughnessFactor": 0.24112141132354736
      }
    },
    {
      "name": "Gray_AssaultRIfle_01",
      "pbrMetallicRoughness": {
        "baseColorFactor": [
          0.13286800682544708,
          0.13286800682544708,
          0.13286800682544708,
          1.0
        ],
        "metallicFactor": 0.4000000059604645,
        "roughnessFactor": 0.2857142984867096
      }
    }
  ],
  "meshes": [
    {
      "name": "AssaultRIfle_01_Cube.002_Material0",
      "primitives": [
        {
          "attributes": {
            "NORMAL": 1,
            "POSITION": 0,
            "TEXCOORD_0": 2
          },
          "indices": 3,
          "material": 0
        },
        {
          "attributes": {
            "NORMAL": 5,
            "POSITION": 4,
            "TEXCOORD_0": 6
          },
          "indices": 7,
          "material": 1
        },
        {
          "attributes": {
            "NORMAL": 9,
            "POSITION": 8,
            "TEXCOORD_0": 10
          },
          "indices": 11,
          "material": 2
        }
      ]
    }
  ],
  "nodes": [
    {
      "mesh": 0,
      "name": "AssaultRIfle_01_Cube.002",
      "scale": [
        100.0,
        100.0,
        100.0
      ]
    }
  ],
  "scenes": [
    {
      "name": "Scene",
      "nodes": [
        0
      ]
    }
  ]
}