{
  "accessors": [
    {
      "bufferView": 0,
      "componentType": 5126,
      "count": 20,
      "max": [
        0.92058926820755,
        0.12725433707237244,
        0.9139834046363831
      ],
      "min": [
        -0.92058926820755,
        0.0,
        -0.9139834046363831
      ],
      "name": "decor_004/POSITION",
      "type": "VEC3"
    },
    {
      "bufferView": 0,
      "byteOffset": 12,
      "componentType": 5126,
      "count": 20,
      "name": "decor_004/NORMAL",
      "type": "VEC3"
    },
    {
      "bufferView": 0,
      "byteOffset": 24,
      "componentType": 5126,
      "count": 20,
      "name": "decor_004/TEXCOORD_0",
      "type": "VEC2"
    },
    {
      "bufferView": 1,
      "componentType": 5125,
      "count": 30,
      "name": "decor_004/INDICES",
      "type": "SCALAR"
    }
  ],
  "asset": {
    "copyright": "Copyright (c) 2018-2020 Chukong Technologies Inc.",
    "generator": "FBX-glTF-conv",
    "version": "2.0"
  },
  "bufferViews": [
    {
      "buffer": 0,
      "byteLength": 640,
      "byteStride": 32,
      "name": "decor_004",
      "target": 34962
    },
    {
      "buffer": 0,
      "byteLength": 120,
      "byteOffset": 640
    }
  ],
  "buffers": [
    {
      "byteLength": 760,
      "uri": "out.bin"
    }
  ],
  "extras": {
    "FBX-glTF-conv": {
      "animationFrameRate": 30.0
    }
  },
  "images": [
    {
      "extras": {
        "FBX-glTF-conv": {
          "fileName": "D:/toan2/squidrun/iteam/baibien/color.jpg",
          "relativeFileName": "D:\\toan2\\squidrun\\iteam\\baibien\\color.jpg"
        }
      },
      "name": "file1",
      "uri": "data:image/png;base64,"
    }
  ],
  "materials": [
    {
      "name": "color",
      "pbrMetallicRoughness": {
        "baseColorFactor": [
          0.800000011920929,
          0.800000011920929,
          0.800000011920929,
          1.0
        ],
        "baseColorTexture": {
          "index": 0
        }
      }
    }
  ],
  "meshes": [
    {
      "name": "decor_004",
      "primitives": [
        {
          "attributes": {
            "NORMAL": 1,
            "POSITION": 0,
            "TEXCOORD_0": 2
          },
          "indices": 3,
          "material": 0
        }
      ]
    }
  ],
  "nodes": [
    {
      "mesh": 0,
      "name": "decor_004"
    }
  ],
  "samplers": [
    {}
  ],
  "scenes": [
    {
      "nodes": [
        0
      ]
    }
  ],
  "textures": [
    {
      "name": "file1",
      "sampler": 0,
      "source": 0
    }
  ]
}