{
  "accessors": [
    {
      "bufferView": 0,
      "componentType": 5126,
      "count": 164,
      "max": [
        0.41768699884414673,
        2.640718936920166,
        -0.6049636602401733
      ],
      "min": [
        -0.41768699884414673,
        1.3592808246612549,
        -0.7567070126533508
      ],
      "name": "so2_T/POSITION",
      "type": "VEC3"
    },
    {
      "bufferView": 0,
      "byteOffset": 12,
      "componentType": 5126,
      "count": 164,
      "name": "so2_T/NORMAL",
      "type": "VEC3"
    },
    {
      "bufferView": 0,
      "byteOffset": 24,
      "componentType": 5126,
      "count": 164,
      "name": "so2_T/TEXCOORD_0",
      "type": "VEC2"
    },
    {
      "bufferView": 1,
      "componentType": 5125,
      "count": 444,
      "name": "so2_T/INDICES",
      "type": "SCALAR"
    }
  ],
  "asset": {
    "copyright": "Copyright (c) 2018-2020 Chukong Technologies Inc.",
    "generator": "FBX-glTF-conv",
    "version": "2.0"
  },
  "bufferViews": [
    {
      "buffer": 0,
      "byteLength": 5248,
      "byteStride": 32,
      "name": "so2_T",
      "target": 34962
    },
    {
      "buffer": 0,
      "byteLength": 1776,
      "byteOffset": 5248
    }
  ],
  "buffers": [
    {
      "byteLength": 7024,
      "uri": "out.bin"
    }
  ],
  "extras": {
    "FBX-glTF-conv": {
      "animationFrameRate": 24.0
    }
  },
  "materials": [
    {
      "name": "color",
      "pbrMetallicRoughness": {
        "baseColorFactor": [
          0.4000000059604645,
          0.4000000059604645,
          0.4000000059604645,
          1.0
        ]
      }
    }
  ],
  "meshes": [
    {
      "name": "so2_T",
      "primitives": [
        {
          "attributes": {
            "NORMAL": 1,
            "POSITION": 0,
            "TEXCOORD_0": 2
          },
          "indices": 3,
          "material": 0
        }
      ]
    }
  ],
  "nodes": [
    {
      "mesh": 0,
      "name": "so2_T"
    }
  ],
  "scenes": [
    {
      "nodes": [
        0
      ]
    }
  ]
}