{
  "accessors": [
    {
      "bufferView": 0,
      "componentType": 5126,
      "count": 661,
      "max": [
        0.0009693200117908418,
        -0.00012209999840706587,
        0.020008910447359085
      ],
      "min": [
        -0.0010879599722102284,
        -0.005957589950412512,
        -0.015415170229971409
      ],
      "name": "Sniper_01_Cube_Material0/POSITION",
      "type": "VEC3"
    },
    {
      "bufferView": 0,
      "byteOffset": 12,
      "componentType": 5126,
      "count": 661,
      "name": "Sniper_01_Cube_Material0/NORMAL",
      "type": "VEC3"
    },
    {
      "bufferView": 0,
      "byteOffset": 24,
      "componentType": 5126,
      "count": 661,
      "name": "Sniper_01_Cube_Material0/TEXCOORD_0",
      "type": "VEC2"
    },
    {
      "bufferView": 1,
      "componentType": 5125,
      "count": 696,
      "name": "Sniper_01_Cube_Material0/INDICES",
      "type": "SCALAR"
    },
    {
      "bufferView": 2,
      "componentType": 5126,
      "count": 1717,
      "max": [
        0.0010168199660256505,
        0.003005220089107752,
        0.006773399654775858
      ],
      "min": [
        -0.001135459984652698,
        -0.0006484299665316939,
        -0.02687705121934414
      ],
      "name": "Sniper_01_Cube_Material0/POSITION",
      "type": "VEC3"
    },
    {
      "bufferView": 2,
      "byteOffset": 12,
      "componentType": 5126,
      "count": 1717,
      "name": "Sniper_01_Cube_Material0/NORMAL",
      "type": "VEC3"
    },
    {
      "bufferView": 2,
      "byteOffset": 24,
      "componentType": 5126,
      "count": 1717,
      "name": "Sniper_01_Cube_Material0/TEXCOORD_0",
      "type": "VEC2"
    },
    {
      "bufferView": 3,
      "componentType": 5125,
      "count": 1920,
      "name": "Sniper_01_Cube_Material0/INDICES",
      "type": "SCALAR"
    },
    {
      "bufferView": 4,
      "componentType": 5126,
      "count": 328,
      "max": [
        0.0016712099313735962,
        0.00017395001486875117,
        0.005227519664913416
      ],
      "min": [
        -0.0003525000065565109,
        -0.0035141699481755495,
        0.0023095400538295507
      ],
      "name": "Sniper_01_Cube_Material0/POSITION",
      "type": "VEC3"
    },
    {
      "bufferView": 4,
      "byteOffset": 12,
      "componentType": 5126,
      "count": 328,
      "name": "Sniper_01_Cube_Material0/NORMAL",
      "type": "VEC3"
    },
    {
      "bufferView": 4,
      "byteOffset": 24,
      "componentType": 5126,
      "count": 328,
      "name": "Sniper_01_Cube_Material0/TEXCOORD_0",
      "type": "VEC2"
    },
    {
      "bufferView": 5,
      "componentType": 5125,
      "count": 348,
      "name": "Sniper_01_Cube_Material0/INDICES",
      "type": "SCALAR"
    },
    {
      "bufferView": 6,
      "componentType": 5126,
      "count": 18,
      "max": [
        0.00010075000318465754,
        8.875000639818609e-05,
        0.0007460199994966388
      ],
      "min": [
        -8.523000724380836e-05,
        -0.00031706999288871884,
        -0.0014842699747532606
      ],
      "name": "Sniper_01_Cube_Material0/POSITION",
      "type": "VEC3"
    },
    {
      "bufferView": 6,
      "byteOffset": 12,
      "componentType": 5126,
      "count": 18,
      "name": "Sniper_01_Cube_Material0/NORMAL",
      "type": "VEC3"
    },
    {
      "bufferView": 6,
      "byteOffset": 24,
      "componentType": 5126,
      "count": 18,
      "name": "Sniper_01_Cube_Material0/TEXCOORD_0",
      "type": "VEC2"
    },
    {
      "bufferView": 7,
      "componentType": 5125,
      "count": 18,
      "name": "Sniper_01_Cube_Material0/INDICES",
      "type": "SCALAR"
    }
  ],
  "asset": {
    "copyright": "Copyright (c) 2018-2020 Chukong Technologies Inc.",
    "generator": "FBX-glTF-conv",
    "version": "2.0"
  },
  "bufferViews": [
    {
      "buffer": 0,
      "byteLength": 21152,
      "byteStride": 32,
      "name": "Sniper_01_Cube_Material0",
      "target": 34962
    },
    {
      "buffer": 0,
      "byteLength": 2784,
      "byteOffset": 21152
    },
    {
      "buffer": 0,
      "byteLength": 54944,
      "byteOffset": 23936,
      "byteStride": 32,
      "name": "Sniper_01_Cube_Material0",
      "target": 34962
    },
    {
      "buffer": 0,
      "byteLength": 7680,
      "byteOffset": 78880
    },
    {
      "buffer": 0,
      "byteLength": 10496,
      "byteOffset": 86560,
      "byteStride": 32,
      "name": "Sniper_01_Cube_Material0",
      "target": 34962
    },
    {
      "buffer": 0,
      "byteLength": 1392,
      "byteOffset": 97056
    },
    {
      "buffer": 0,
      "byteLength": 576,
      "byteOffset": 98448,
      "byteStride": 32,
      "name": "Sniper_01_Cube_Material0",
      "target": 34962
    },
    {
      "buffer": 0,
      "byteLength": 72,
      "byteOffset": 99024
    }
  ],
  "buffers": [
    {
      "byteLength": 99096,
      "uri": "out.bin"
    }
  ],
  "extras": {
    "FBX-glTF-conv": {
      "animationFrameRate": 24.0
    }
  },
  "materials": [
    {
      "name": "Brown_Sniper01",
      "pbrMetallicRoughness": {
        "baseColorFactor": [
          0.12213899940252304,
          0.0481720007956028,
          0.024157999083399773,
          1.0
        ],
        "metallicFactor": 0.4000000059604645,
        "roughnessFactor": 0.24112141132354736
      }
    },
    {
      "name": "Black_sniper01",
      "pbrMetallicRoughness": {
        "baseColorFactor": [
          0.013701999559998512,
          0.013701999559998512,
          0.013701999559998512,
          1.0
        ],
        "metallicFactor": 0.4000000059604645,
        "roughnessFactor": 0.2857142984867096
      }
    },
    {
      "name": "Gray_Sniper_01",
      "pbrMetallicRoughness": {
        "baseColorFactor": [
          0.27049800753593445,
          0.27049800753593445,
          0.27049800753593445,
          1.0
        ],
        "metallicFactor": 0.4000000059604645,
        "roughnessFactor": 0.2857142984867096
      }
    },
    {
      "name": "White_Sniper01",
      "pbrMetallicRoughness": {
        "metallicFactor": 0.4000000059604645,
        "roughnessFactor": 0.2857142984867096
      }
    }
  ],
  "meshes": [
    {
      "name": "Sniper_01_Cube_Material0",
      "primitives": [
        {
          "attributes": {
            "NORMAL": 1,
            "POSITION": 0,
            "TEXCOORD_0": 2
          },
          "indices": 3,
          "material": 0
        },
        {
          "attributes": {
            "NORMAL": 5,
            "POSITION": 4,
            "TEXCOORD_0": 6
          },
          "indices": 7,
          "material": 1
        },
        {
          "attributes": {
            "NORMAL": 9,
            "POSITION": 8,
            "TEXCOORD_0": 10
          },
          "indices": 11,
          "material": 2
        },
        {
          "attributes": {
            "NORMAL": 13,
            "POSITION": 12,
            "TEXCOORD_0": 14
          },
          "indices": 15,
          "material": 3
        }
      ]
    }
  ],
  "nodes": [
    {
      "mesh": 0,
      "name": "Sniper_01_Cube",
      "scale": [
        100.0,
        100.0,
        100.0
      ]
    }
  ],
  "scenes": [
    {
      "name": "Scene",
      "nodes": [
        0
      ]
    }
  ]
}