{
  "accessors": [
    {
      "bufferView": 0,
      "componentType": 5126,
      "count": 304,
      "max": [
        1.4619245529174805,
        3.325444221496582,
        0.5601312518119812
      ],
      "min": [
        -1.4619245529174805,
        -2.5998029741458595e-05,
        -0.6335217356681824
      ],
      "name": "a11/POSITION",
      "type": "VEC3"
    },
    {
      "bufferView": 0,
      "byteOffset": 12,
      "componentType": 5126,
      "count": 304,
      "name": "a11/NORMAL",
      "type": "VEC3"
    },
    {
      "bufferView": 0,
      "byteOffset": 24,
      "componentType": 5126,
      "count": 304,
      "name": "a11/TEXCOORD_0",
      "type": "VEC2"
    },
    {
      "bufferView": 0,
      "byteOffset": 32,
      "componentType": 5123,
      "count": 304,
      "name": "a11/JOINTS_0",
      "type": "VEC4"
    },
    {
      "bufferView": 0,
      "byteOffset": 40,
      "componentType": 5126,
      "count": 304,
      "name": "a11/WEIGHTS_0",
      "type": "VEC4"
    },
    {
      "bufferView": 0,
      "byteOffset": 56,
      "componentType": 5123,
      "count": 304,
      "name": "a11/JOINTS_1",
      "type": "VEC4"
    },
    {
      "bufferView": 0,
      "byteOffset": 64,
      "componentType": 5126,
      "count": 304,
      "name": "a11/WEIGHTS_1",
      "type": "VEC4"
    },
    {
      "bufferView": 1,
      "componentType": 5125,
      "count": 1764,
      "name": "a11/INDICES",
      "type": "SCALAR"
    },
    {
      "bufferView": 2,
      "componentType": 5126,
      "count": 19,
      "name": "/InverseBindMatrices",
      "type": "MAT4"
    }
  ],
  "asset": {
    "copyright": "Copyright (c) 2018-2020 Chukong Technologies Inc.",
    "generator": "FBX-glTF-conv",
    "version": "2.0"
  },
  "bufferViews": [
    {
      "buffer": 0,
      "byteLength": 24320,
      "byteStride": 80,
      "name": "a11",
      "target": 34962
    },
    {
      "buffer": 0,
      "byteLength": 7056,
      "byteOffset": 24320
    },
    {
      "buffer": 0,
      "byteLength": 1216,
      "byteOffset": 31376
    }
  ],
  "buffers": [
    {
      "byteLength": 32592,
      "uri": "out.bin"
    }
  ],
  "extras": {
    "FBX-glTF-conv": {
      "animationFrameRate": 24.0
    }
  },
  "materials": [
    {
      "name": "lambert5",
      "pbrMetallicRoughness": {
        "baseColorFactor": [
          0.19408105313777924,
          0.38162627816200256,
          0.8826534152030945,
          1.0
        ],
        "metallicFactor": 0.4000000059604645,
        "roughnessFactor": 0.30151134729385376
      }
    }
  ],
  "meshes": [
    {
      "name": "a11",
      "primitives": [
        {
          "attributes": {
            "JOINTS_0": 3,
            "JOINTS_1": 5,
            "NORMAL": 1,
            "POSITION": 0,
            "TEXCOORD_0": 2,
            "WEIGHTS_0": 4,
            "WEIGHTS_1": 6
          },
          "indices": 7,
          "material": 0
        }
      ]
    }
  ],
  "nodes": [
    {
      "mesh": 0,
      "name": "a11",
      "skin": 0
    },
    {
      "children": [
        2,
        5,
        17
      ],
      "extras": {
        "FBX-glTF-conv": {
          "skeleton": {
            "skeletonType": "LimbNode"
          }
        }
      },
      "name": "Root_M",
      "rotation": [
        0.47586819529533386,
        0.523019552230835,
        0.47586819529533386,
        0.523019552230835
      ],
      "translation": [
        3.9149912452930515e-17,
        1.2360268831253052,
        -0.03519256040453911
      ]
    },
    {
      "children": [
        3
      ],
      "extras": {
        "FBX-glTF-conv": {
          "skeleton": {
            "skeletonType": "LimbNode"
          }
        }
      },
      "name": "Hip_R",
      "rotation": [
        0.038350898772478104,
        0.9974409341812134,
        -0.06006846949458122,
        0.005705660674721003
      ],
      "translation": [
        -0.122371606528759,
        -0.022258471697568893,
        -0.2751345932483673
      ]
    },
    {
      "children": [
        4
      ],
      "extras": {
        "FBX-glTF-conv": {
          "skeleton": {
            "skeletonType": "LimbNode"
          }
        }
      },
      "name": "Knee_R",
      "rotation": [
        -4.260346182069147e-19,
        -4.734681902835534e-17,
        -0.15544338524341583,
        0.9878448247909546
      ],
      "translation": [
        0.5244600772857666,
        -7.105427198782324e-17,
        -3.9967248260941446e-11
      ]
    },
    {
      "extras": {
        "FBX-glTF-conv": {
          "skeleton": {
            "skeletonType": "LimbNode"
          }
        }
      },
      "name": "Ankle_R",
      "translation": [
        0.5945743918418884,
        9.769962563761818e-17,
        7.105427198782324e-17
      ]
    },
    {
      "children": [
        6,
        9,
        13
      ],
      "extras": {
        "FBX-glTF-conv": {
          "skeleton": {
            "skeletonType": "LimbNode"
          }
        }
      },
      "name": "Chest_M",
      "rotation": [
        1.1083758310556521e-16,
        -2.2735755622095735e-17,
        0.05766116827726364,
        0.9983361959457397
      ],
      "translation": [
        0.6709528565406799,
        -3.552713599391162e-17,
        -1.6621606780145933e-16
      ]
    },
    {
      "children": [
        7
      ],
      "extras": {
        "FBX-glTF-conv": {
          "skeleton": {
            "skeletonType": "LimbNode"
          }
        }
      },
      "name": "Neck_M",
      "rotation": [
        1.1101808053266918e-16,
        -3.437808947884686e-18,
        0.008718781173229218,
        0.9999619722366333
      ],
      "translation": [
        0.2735850512981415,
        3.3750779525088285e-16,
        8.875475919126576e-16
      ]
    },
    {
      "children": [
        8
      ],
      "extras": {
        "FBX-glTF-conv": {
          "skeleton": {
            "skeletonType": "LimbNode"
          }
        }
      },
      "name": "Head_M",
      "rotation": [
        1.1101545340704371e-16,
        4.3793799537573656e-18,
        -0.011106741614639759,
        0.9999383091926575
      ],
      "translation": [
        0.1701909303665161,
        1.3855582839102185e-15,
        8.919429649899684e-17
      ]
    },
    {
      "extras": {
        "FBX-glTF-conv": {
          "skeleton": {
            "skeletonType": "LimbNode"
          }
        }
      },
      "name": "HeadEnd_M",
      "translation": [
        0.9933460354804993,
        -2.7533530163670935e-15,
        1.5741030335563628e-17
      ]
    },
    {
      "children": [
        10
      ],
      "extras": {
        "FBX-glTF-conv": {
          "skeleton": {
            "skeletonType": "LimbNode"
          }
        }
      },
      "name": "Scapula_R",
      "rotation": [
        -0.004283415153622627,
        0.8443697690963745,
        0.014893731102347374,
        0.5355366468429565
      ],
      "translation": [
        0.09612659364938736,
        -0.018371913582086563,
        -0.13711288571357727
      ]
    },
    {
      "children": [
        11
      ],
      "extras": {
        "FBX-glTF-conv": {
          "skeleton": {
            "skeletonType": "LimbNode"
          }
        }
      },
      "name": "Shoulder_R",
      "rotation": [
        -0.12766355276107788,
        -0.22634440660476685,
        -0.06555958092212677,
        0.9634169340133667
      ],
      "translation": [
        0.27385950088500977,
        2.4868995751603507e-14,
        1.98951966859861e-15
      ]
    },
    {
      "children": [
        12
      ],
      "extras": {
        "FBX-glTF-conv": {
          "skeleton": {
            "skeletonType": "LimbNode"
          }
        }
      },
      "name": "Elbow_R",
      "rotation": [
        -2.240661814025517e-16,
        2.88355724018802e-17,
        0.057327769696712494,
        0.9983553886413574
      ],
      "translation": [
        0.5828136205673218,
        5.684341759025859e-16,
        0.0
      ]
    },
    {
      "extras": {
        "FBX-glTF-conv": {
          "skeleton": {
            "skeletonType": "LimbNode"
          }
        }
      },
      "name": "Wrist_R",
      "translation": [
        0.429713636636734,
        1.4210854397564648e-16,
        5.684341759025859e-16
      ]
    },
    {
      "children": [
        14
      ],
      "extras": {
        "FBX-glTF-conv": {
          "skeleton": {
            "skeletonType": "LimbNode"
          }
        }
      },
      "name": "Scapula_L",
      "rotation": [
        0.8443697690963745,
        0.004283415153622627,
        -0.5355366468429565,
        0.014893731102347374
      ],
      "translation": [
        0.09612659364938736,
        -0.018371913582086563,
        0.13711288571357727
      ]
    },
    {
      "children": [
        15
      ],
      "extras": {
        "FBX-glTF-conv": {
          "skeleton": {
            "skeletonType": "LimbNode"
          }
        }
      },
      "name": "Shoulder_L",
      "rotation": [
        -0.12766355276107788,
        -0.22634440660476685,
        -0.06555958092212677,
        0.9634169340133667
      ],
      "translation": [
        -0.27385950088500977,
        -2.4691359390037124e-14,
        -1.7053025277077578e-15
      ]
    },
    {
      "children": [
        16
      ],
      "extras": {
        "FBX-glTF-conv": {
          "skeleton": {
            "skeletonType": "LimbNode"
          }
        }
      },
      "name": "Elbow_L",
      "rotation": [
        -7.020156789028928e-17,
        -2.2991666443901676e-16,
        0.057327769696712494,
        0.9983553886413574
      ],
      "translation": [
        -0.5828136205673218,
        -9.94759834299305e-16,
        1.1368683518051719e-15
      ]
    },
    {
      "extras": {
        "FBX-glTF-conv": {
          "skeleton": {
            "skeletonType": "LimbNode"
          }
        }
      },
      "name": "Wrist_L",
      "translation": [
        -0.429713636636734,
        0.0,
        5.684341759025859e-16
      ]
    },
    {
      "children": [
        18
      ],
      "extras": {
        "FBX-glTF-conv": {
          "skeleton": {
            "skeletonType": "LimbNode"
          }
        }
      },
      "name": "Hip_L",
      "rotation": [
        0.9974409341812134,
        -0.038350898772478104,
        -0.005705667193979025,
        -0.06006847321987152
      ],
      "translation": [
        -0.122371606528759,
        -0.022258471697568893,
        0.2751345932483673
      ]
    },
    {
      "children": [
        19
      ],
      "extras": {
        "FBX-glTF-conv": {
          "skeleton": {
            "skeletonType": "LimbNode"
          }
        }
      },
      "name": "Knee_L",
      "rotation": [
        1.4718137135719329e-16,
        -2.087057749171319e-18,
        -0.15544338524341583,
        0.9878448247909546
      ],
      "translation": [
        -0.5244600772857666,
        -6.750155905017657e-16,
        3.9967140708085935e-11
      ]
    },
    {
      "extras": {
        "FBX-glTF-conv": {
          "skeleton": {
            "skeletonType": "LimbNode"
          }
        }
      },
      "name": "Ankle_L",
      "translation": [
        -0.5945743918418884,
        -6.12843107475504e-16,
        3.552713599391162e-17
      ]
    }
  ],
  "scenes": [
    {
      "nodes": [
        0,
        1
      ]
    }
  ],
  "skins": [
    {
      "inverseBindMatrices": 8,
      "joints": [
        1,
        2,
        3,
        4,
        5,
        6,
        7,
        8,
        9,
        10,
        11,
        12,
        13,
        14,
        15,
        16,
        17,
        18,
        19
      ]
    }
  ]
}