{
  "accessors": [
    {
      "bufferView": 0,
      "componentType": 5126,
      "count": 532,
      "max": [
        1.0102946758270264,
        0.17934314906597137,
        -16.346670150756836
      ],
      "min": [
        -3.2270846366882324,
        -0.023485751822590828,
        -21.581951141357422
      ],
      "name": "extracted_03/POSITION",
      "type": "VEC3"
    },
    {
      "bufferView": 0,
      "byteOffset": 12,
      "componentType": 5126,
      "count": 532,
      "name": "extracted_03/NORMAL",
      "type": "VEC3"
    },
    {
      "bufferView": 0,
      "byteOffset": 24,
      "componentType": 5126,
      "count": 532,
      "name": "extracted_03/TEXCOORD_0",
      "type": "VEC2"
    },
    {
      "bufferView": 1,
      "componentType": 5125,
      "count": 828,
      "name": "extracted_03/INDICES",
      "type": "SCALAR"
    },
    {
      "bufferView": 2,
      "componentType": 5126,
      "count": 532,
      "max": [
        -2.502535343170166,
        0.17934314906597137,
        -16.346670150756836
      ],
      "min": [
        -6.739914417266846,
        -0.023485751822590828,
        -21.581951141357422
      ],
      "name": "extracted_04/POSITION",
      "type": "VEC3"
    },
    {
      "bufferView": 2,
      "byteOffset": 12,
      "componentType": 5126,
      "count": 532,
      "name": "extracted_04/NORMAL",
      "type": "VEC3"
    },
    {
      "bufferView": 2,
      "byteOffset": 24,
      "componentType": 5126,
      "count": 532,
      "name": "extracted_04/TEXCOORD_0",
      "type": "VEC2"
    },
    {
      "bufferView": 3,
      "componentType": 5125,
      "count": 828,
      "name": "extracted_04/INDICES",
      "type": "SCALAR"
    },
    {
      "bufferView": 4,
      "componentType": 5126,
      "count": 100,
      "max": [
        32.427555084228516,
        0.23693186044692993,
        -15.508254051208496
      ],
      "min": [
        -39.89311218261719,
        -0.28957995772361755,
        -60.34162902832031
      ],
      "name": "pasted__Plane.011/POSITION",
      "type": "VEC3"
    },
    {
      "bufferView": 4,
      "byteOffset": 12,
      "componentType": 5126,
      "count": 100,
      "name": "pasted__Plane.011/NORMAL",
      "type": "VEC3"
    },
    {
      "bufferView": 4,
      "byteOffset": 24,
      "componentType": 5126,
      "count": 100,
      "name": "pasted__Plane.011/TEXCOORD_0",
      "type": "VEC2"
    },
    {
      "bufferView": 5,
      "componentType": 5125,
      "count": 150,
      "name": "pasted__Plane.011/INDICES",
      "type": "SCALAR"
    },
    {
      "bufferView": 6,
      "componentType": 5126,
      "count": 532,
      "max": [
        8.035954475402832,
        0.17934314906597137,
        -16.346670150756836
      ],
      "min": [
        3.7985754013061523,
        -0.023485751822590828,
        -21.581951141357422
      ],
      "name": "extracted_01/POSITION",
      "type": "VEC3"
    },
    {
      "bufferView": 6,
      "byteOffset": 12,
      "componentType": 5126,
      "count": 532,
      "name": "extracted_01/NORMAL",
      "type": "VEC3"
    },
    {
      "bufferView": 6,
      "byteOffset": 24,
      "componentType": 5126,
      "count": 532,
      "name": "extracted_01/TEXCOORD_0",
      "type": "VEC2"
    },
    {
      "bufferView": 7,
      "componentType": 5125,
      "count": 828,
      "name": "extracted_01/INDICES",
      "type": "SCALAR"
    },
    {
      "bufferView": 8,
      "componentType": 5126,
      "count": 532,
      "max": [
        -16.553855895996094,
        0.17934314906597137,
        -16.346670150756836
      ],
      "min": [
        -20.79123306274414,
        -0.023485751822590828,
        -21.581951141357422
      ],
      "name": "extracted_08/POSITION",
      "type": "VEC3"
    },
    {
      "bufferView": 8,
      "byteOffset": 12,
      "componentType": 5126,
      "count": 532,
      "name": "extracted_08/NORMAL",
      "type": "VEC3"
    },
    {
      "bufferView": 8,
      "byteOffset": 24,
      "componentType": 5126,
      "count": 532,
      "name": "extracted_08/TEXCOORD_0",
      "type": "VEC2"
    },
    {
      "bufferView": 9,
      "componentType": 5125,
      "count": 828,
      "name": "extracted_08/INDICES",
      "type": "SCALAR"
    },
    {
      "bufferView": 10,
      "componentType": 5126,
      "count": 532,
      "max": [
        -9.52819538116455,
        0.17934314906597137,
        -16.346670150756836
      ],
      "min": [
        -13.765575408935547,
        -0.023485751822590828,
        -21.581951141357422
      ],
      "name": "extracted_06/POSITION",
      "type": "VEC3"
    },
    {
      "bufferView": 10,
      "byteOffset": 12,
      "componentType": 5126,
      "count": 532,
      "name": "extracted_06/NORMAL",
      "type": "VEC3"
    },
    {
      "bufferView": 10,
      "byteOffset": 24,
      "componentType": 5126,
      "count": 532,
      "name": "extracted_06/TEXCOORD_0",
      "type": "VEC2"
    },
    {
      "bufferView": 11,
      "componentType": 5125,
      "count": 828,
      "name": "extracted_06/INDICES",
      "type": "SCALAR"
    },
    {
      "bufferView": 12,
      "componentType": 5126,
      "count": 532,
      "max": [
        4.5231242179870605,
        0.17934314906597137,
        -16.346670150756836
      ],
      "min": [
        0.2857454717159271,
        -0.023485751822590828,
        -21.581951141357422
      ],
      "name": "extracted_02/POSITION",
      "type": "VEC3"
    },
    {
      "bufferView": 12,
      "byteOffset": 12,
      "componentType": 5126,
      "count": 532,
      "name": "extracted_02/NORMAL",
      "type": "VEC3"
    },
    {
      "bufferView": 12,
      "byteOffset": 24,
      "componentType": 5126,
      "count": 532,
      "name": "extracted_02/TEXCOORD_0",
      "type": "VEC2"
    },
    {
      "bufferView": 13,
      "componentType": 5125,
      "count": 828,
      "name": "extracted_02/INDICES",
      "type": "SCALAR"
    },
    {
      "bufferView": 14,
      "componentType": 5126,
      "count": 532,
      "max": [
        -13.041025161743164,
        0.17934314906597137,
        -16.346670150756836
      ],
      "min": [
        -17.278404235839844,
        -0.023485751822590828,
        -21.581951141357422
      ],
      "name": "extracted_07/POSITION",
      "type": "VEC3"
    },
    {
      "bufferView": 14,
      "byteOffset": 12,
      "componentType": 5126,
      "count": 532,
      "name": "extracted_07/NORMAL",
      "type": "VEC3"
    },
    {
      "bufferView": 14,
      "byteOffset": 24,
      "componentType": 5126,
      "count": 532,
      "name": "extracted_07/TEXCOORD_0",
      "type": "VEC2"
    },
    {
      "bufferView": 15,
      "componentType": 5125,
      "count": 828,
      "name": "extracted_07/INDICES",
      "type": "SCALAR"
    },
    {
      "bufferView": 16,
      "componentType": 5126,
      "count": 532,
      "max": [
        -6.0153656005859375,
        0.17934314906597137,
        -16.346670150756836
      ],
      "min": [
        -10.2527437210083,
        -0.023485751822590828,
        -21.581951141357422
      ],
      "name": "extracted_05/POSITION",
      "type": "VEC3"
    },
    {
      "bufferView": 16,
      "byteOffset": 12,
      "componentType": 5126,
      "count": 532,
      "name": "extracted_05/NORMAL",
      "type": "VEC3"
    },
    {
      "bufferView": 16,
      "byteOffset": 24,
      "componentType": 5126,
      "count": 532,
      "name": "extracted_05/TEXCOORD_0",
      "type": "VEC2"
    },
    {
      "bufferView": 17,
      "componentType": 5125,
      "count": 828,
      "name": "extracted_05/INDICES",
      "type": "SCALAR"
    }
  ],
  "asset": {
    "copyright": "Copyright (c) 2018-2020 Chukong Technologies Inc.",
    "generator": "FBX-glTF-conv",
    "version": "2.0"
  },
  "bufferViews": [
    {
      "buffer": 0,
      "byteLength": 17024,
      "byteStride": 32,
      "name": "extracted_03",
      "target": 34962
    },
    {
      "buffer": 0,
      "byteLength": 3312,
      "byteOffset": 17024
    },
    {
      "buffer": 0,
      "byteLength": 17024,
      "byteOffset": 20336,
      "byteStride": 32,
      "name": "extracted_04",
      "target": 34962
    },
    {
      "buffer": 0,
      "byteLength": 3312,
      "byteOffset": 37360
    },
    {
      "buffer": 0,
      "byteLength": 3200,
      "byteOffset": 40672,
      "byteStride": 32,
      "name": "pasted__Plane.011",
      "target": 34962
    },
    {
      "buffer": 0,
      "byteLength": 600,
      "byteOffset": 43872
    },
    {
      "buffer": 0,
      "byteLength": 17024,
      "byteOffset": 44472,
      "byteStride": 32,
      "name": "extracted_01",
      "target": 34962
    },
    {
      "buffer": 0,
      "byteLength": 3312,
      "byteOffset": 61496
    },
    {
      "buffer": 0,
      "byteLength": 17024,
      "byteOffset": 64808,
      "byteStride": 32,
      "name": "extracted_08",
      "target": 34962
    },
    {
      "buffer": 0,
      "byteLength": 3312,
      "byteOffset": 81832
    },
    {
      "buffer": 0,
      "byteLength": 17024,
      "byteOffset": 85144,
      "byteStride": 32,
      "name": "extracted_06",
      "target": 34962
    },
    {
      "buffer": 0,
      "byteLength": 3312,
      "byteOffset": 102168
    },
    {
      "buffer": 0,
      "byteLength": 17024,
      "byteOffset": 105480,
      "byteStride": 32,
      "name": "extracted_02",
      "target": 34962
    },
    {
      "buffer": 0,
      "byteLength": 3312,
      "byteOffset": 122504
    },
    {
      "buffer": 0,
      "byteLength": 17024,
      "byteOffset": 125816,
      "byteStride": 32,
      "name": "extracted_07",
      "target": 34962
    },
    {
      "buffer": 0,
      "byteLength": 3312,
      "byteOffset": 142840
    },
    {
      "buffer": 0,
      "byteLength": 17024,
      "byteOffset": 146152,
      "byteStride": 32,
      "name": "extracted_05",
      "target": 34962
    },
    {
      "buffer": 0,
      "byteLength": 3312,
      "byteOffset": 163176
    }
  ],
  "buffers": [
    {
      "byteLength": 166488,
      "uri": "out.bin"
    }
  ],
  "extras": {
    "FBX-glTF-conv": {
      "animationFrameRate": 24.0
    }
  },
  "images": [
    {
      "extras": {
        "FBX-glTF-conv": {
          "fileName": "C:\\Users\\toannt\\Downloads\\art\\art\\Color_All.psd",
          "relativeFileName": "..\\Downloads\\art\\art\\Color_All.psd"
        }
      },
      "name": "base_color_texture",
      "uri": "data:image/png;base64,"
    }
  ],
  "materials": [
    {
      "name": "Color_Building",
      "pbrMetallicRoughness": {
        "baseColorTexture": {
          "index": 0
        },
        "metallicFactor": 0.4000000059604645,
        "roughnessFactor": 0.14002801477909088
      }
    }
  ],
  "meshes": [
    {
      "name": "extracted_03",
      "primitives": [
        {
          "attributes": {
            "NORMAL": 1,
            "POSITION": 0,
            "TEXCOORD_0": 2
          },
          "indices": 3,
          "material": 0
        }
      ]
    },
    {
      "name": "extracted_04",
      "primitives": [
        {
          "attributes": {
            "NORMAL": 5,
            "POSITION": 4,
            "TEXCOORD_0": 6
          },
          "indices": 7,
          "material": 0
        }
      ]
    },
    {
      "name": "pasted__Plane.011",
      "primitives": [
        {
          "attributes": {
            "NORMAL": 9,
            "POSITION": 8,
            "TEXCOORD_0": 10
          },
          "indices": 11,
          "material": 0
        }
      ]
    },
    {
      "name": "extracted_01",
      "primitives": [
        {
          "attributes": {
            "NORMAL": 13,
            "POSITION": 12,
            "TEXCOORD_0": 14
          },
          "indices": 15,
          "material": 0
        }
      ]
    },
    {
      "name": "extracted_08",
      "primitives": [
        {
          "attributes": {
            "NORMAL": 17,
            "POSITION": 16,
            "TEXCOORD_0": 18
          },
          "indices": 19,
          "material": 0
        }
      ]
    },
    {
      "name": "extracted_06",
      "primitives": [
        {
          "attributes": {
            "NORMAL": 21,
            "POSITION": 20,
            "TEXCOORD_0": 22
          },
          "indices": 23,
          "material": 0
        }
      ]
    },
    {
      "name": "extracted_02",
      "primitives": [
        {
          "attributes": {
            "NORMAL": 25,
            "POSITION": 24,
            "TEXCOORD_0": 26
          },
          "indices": 27,
          "material": 0
        }
      ]
    },
    {
      "name": "extracted_07",
      "primitives": [
        {
          "attributes": {
            "NORMAL": 29,
            "POSITION": 28,
            "TEXCOORD_0": 30
          },
          "indices": 31,
          "material": 0
        }
      ]
    },
    {
      "name": "extracted_05",
      "primitives": [
        {
          "attributes": {
            "NORMAL": 33,
            "POSITION": 32,
            "TEXCOORD_0": 34
          },
          "indices": 35,
          "material": 0
        }
      ]
    }
  ],
  "nodes": [
    {
      "children": [
        1,
        2,
        3,
        4,
        5,
        6,
        7,
        8,
        9
      ],
      "name": "Road"
    },
    {
      "mesh": 0,
      "name": "extracted_03"
    },
    {
      "mesh": 1,
      "name": "extracted_04"
    },
    {
      "mesh": 2,
      "name": "pasted__Plane.011"
    },
    {
      "mesh": 3,
      "name": "extracted_01"
    },
    {
      "mesh": 4,
      "name": "extracted_08"
    },
    {
      "mesh": 5,
      "name": "extracted_06"
    },
    {
      "mesh": 6,
      "name": "extracted_02"
    },
    {
      "mesh": 7,
      "name": "extracted_07"
    },
    {
      "mesh": 8,
      "name": "extracted_05"
    }
  ],
  "samplers": [
    {}
  ],
  "scenes": [
    {
      "nodes": [
        0
      ]
    }
  ],
  "textures": [
    {
      "name": "base_color_texture",
      "sampler": 0,
      "source": 0
    }
  ]
}