{
  "accessors": [
    {
      "bufferView": 0,
      "componentType": 5126,
      "count": 93,
      "max": [
        1.4707238674163818,
        1.7599416971206665,
        0.0809173583984375
      ],
      "min": [
        -1.4707238674163818,
        1.0678701400756836,
        -0.0809173583984375
      ],
      "name": "B_BrickBall_holl_Material0/POSITION",
      "type": "VEC3"
    },
    {
      "bufferView": 0,
      "byteOffset": 12,
      "componentType": 5126,
      "count": 93,
      "name": "B_BrickBall_holl_Material0/NORMAL",
      "type": "VEC3"
    },
    {
      "bufferView": 0,
      "byteOffset": 24,
      "componentType": 5126,
      "count": 93,
      "name": "B_BrickBall_holl_Material0/TEXCOORD_0",
      "type": "VEC2"
    },
    {
      "bufferView": 1,
      "componentType": 5125,
      "count": 240,
      "name": "B_BrickBall_holl_Material0/INDICES",
      "type": "SCALAR"
    },
    {
      "bufferView": 2,
      "componentType": 5126,
      "count": 64,
      "max": [
        0.2873668074607849,
        1.7012726068496704,
        0.0809173583984375
      ],
      "min": [
        -0.28736671805381775,
        1.1265393495559692,
        -0.0809173583984375
      ],
      "name": "B_BrickBall_holl_Material0/POSITION",
      "type": "VEC3"
    },
    {
      "bufferView": 2,
      "byteOffset": 12,
      "componentType": 5126,
      "count": 64,
      "name": "B_BrickBall_holl_Material0/NORMAL",
      "type": "VEC3"
    },
    {
      "bufferView": 2,
      "byteOffset": 24,
      "componentType": 5126,
      "count": 64,
      "name": "B_BrickBall_holl_Material0/TEXCOORD_0",
      "type": "VEC2"
    },
    {
      "bufferView": 3,
      "componentType": 5125,
      "count": 192,
      "name": "B_BrickBall_holl_Material0/INDICES",
      "type": "SCALAR"
    }
  ],
  "asset": {
    "copyright": "Copyright (c) 2018-2020 Chukong Technologies Inc.",
    "generator": "FBX-glTF-conv",
    "version": "2.0"
  },
  "bufferViews": [
    {
      "buffer": 0,
      "byteLength": 2976,
      "byteStride": 32,
      "name": "B_BrickBall_holl_Material0",
      "target": 34962
    },
    {
      "buffer": 0,
      "byteLength": 960,
      "byteOffset": 2976
    },
    {
      "buffer": 0,
      "byteLength": 2048,
      "byteOffset": 3936,
      "byteStride": 32,
      "name": "B_BrickBall_holl_Material0",
      "target": 34962
    },
    {
      "buffer": 0,
      "byteLength": 768,
      "byteOffset": 5984
    }
  ],
  "buffers": [
    {
      "byteLength": 6752,
      "uri": "out.bin"
    }
  ],
  "extras": {
    "FBX-glTF-conv": {
      "animationFrameRate": 24.0
    }
  },
  "images": [
    {
      "extras": {
        "FBX-glTF-conv": {
          "fileName": "D:/Unity/ball/Assets/Scenes/3D/Models/Texture/T_animal.png",
          "relativeFileName": "D:\\Unity\\ball\\Assets\\Scenes\\3D\\Models\\Texture\\T_animal.png"
        }
      },
      "name": "file1",
      "uri": "data:image/png;base64,"
    },
    {
      "extras": {
        "FBX-glTF-conv": {
          "fileName": "D:/Unity/ball/Assets/Scenes/3D/Models/Texture/Wood.jpg",
          "relativeFileName": "D:\\Unity\\ball\\Assets\\Scenes\\3D\\Models\\Texture\\Wood.jpg"
        }
      },
      "name": "file4",
      "uri": "data:image/png;base64,"
    }
  ],
  "materials": [
    {
      "alphaMode": "BLEND",
      "name": "T_animal",
      "pbrMetallicRoughness": {
        "baseColorFactor": [
          0.800000011920929,
          0.800000011920929,
          0.800000011920929,
          0.0
        ],
        "baseColorTexture": {
          "index": 0
        }
      }
    },
    {
      "name": "T_B_Brick",
      "pbrMetallicRoughness": {
        "baseColorFactor": [
          0.800000011920929,
          0.800000011920929,
          0.800000011920929,
          1.0
        ],
        "baseColorTexture": {
          "index": 1
        }
      }
    }
  ],
  "meshes": [
    {
      "name": "B_BrickBall_holl_Material0",
      "primitives": [
        {
          "attributes": {
            "NORMAL": 1,
            "POSITION": 0,
            "TEXCOORD_0": 2
          },
          "indices": 3,
          "material": 0
        },
        {
          "attributes": {
            "NORMAL": 5,
            "POSITION": 4,
            "TEXCOORD_0": 6
          },
          "indices": 7,
          "material": 1
        }
      ]
    }
  ],
  "nodes": [
    {
      "mesh": 0,
      "name": "B_BrickBall_holl"
    }
  ],
  "samplers": [
    {}
  ],
  "scenes": [
    {
      "nodes": [
        0
      ]
    }
  ],
  "textures": [
    {
      "name": "file1",
      "sampler": 0,
      "source": 0
    },
    {
      "name": "file4",
      "sampler": 0,
      "source": 1
    }
  ]
}