{
  "accessors": [
    {
      "bufferView": 0,
      "componentType": 5126,
      "count": 1069,
      "max": [
        0.1720123291015625,
        1.0517518520355225,
        0.8668010830879211
      ],
      "min": [
        -0.2157421112060547,
        0.07858250290155411,
        -0.681315004825592
      ],
      "name": "Chopper_Body.001/POSITION",
      "type": "VEC3"
    },
    {
      "bufferView": 0,
      "byteOffset": 12,
      "componentType": 5126,
      "count": 1069,
      "name": "Chopper_Body.001/NORMAL",
      "type": "VEC3"
    },
    {
      "bufferView": 0,
      "byteOffset": 24,
      "componentType": 5126,
      "count": 1069,
      "name": "Chopper_Body.001/TEXCOORD_0",
      "type": "VEC2"
    },
    {
      "bufferView": 1,
      "componentType": 5125,
      "count": 3498,
      "name": "Chopper_Body.001/INDICES",
      "type": "SCALAR"
    },
    {
      "bufferView": 2,
      "componentType": 5126,
      "count": 723,
      "max": [
        0.5887222290039063,
        0.22654245793819427,
        0.7356772422790527
      ],
      "min": [
        -0.5887184143066406,
        -0.7220369577407837,
        -0.35428231954574585
      ],
      "name": "Chopper_HandelBars.001/POSITION",
      "type": "VEC3"
    },
    {
      "bufferView": 2,
      "byteOffset": 12,
      "componentType": 5126,
      "count": 723,
      "name": "Chopper_HandelBars.001/NORMAL",
      "type": "VEC3"
    },
    {
      "bufferView": 2,
      "byteOffset": 24,
      "componentType": 5126,
      "count": 723,
      "name": "Chopper_HandelBars.001/TEXCOORD_0",
      "type": "VEC2"
    },
    {
      "bufferView": 3,
      "componentType": 5125,
      "count": 1992,
      "name": "Chopper_HandelBars.001/INDICES",
      "type": "SCALAR"
    },
    {
      "bufferView": 4,
      "componentType": 5126,
      "count": 638,
      "max": [
        0.09253120422363281,
        0.31770408153533936,
        0.32202261686325073
      ],
      "min": [
        -0.09253835678100586,
        -0.3251337707042694,
        -0.32147467136383057
      ],
      "name": "Chopper_BackWheel001.001/POSITION",
      "type": "VEC3"
    },
    {
      "bufferView": 4,
      "byteOffset": 12,
      "componentType": 5126,
      "count": 638,
      "name": "Chopper_BackWheel001.001/NORMAL",
      "type": "VEC3"
    },
    {
      "bufferView": 4,
      "byteOffset": 24,
      "componentType": 5126,
      "count": 638,
      "name": "Chopper_BackWheel001.001/TEXCOORD_0",
      "type": "VEC2"
    },
    {
      "bufferView": 5,
      "componentType": 5125,
      "count": 1410,
      "name": "Chopper_BackWheel001.001/INDICES",
      "type": "SCALAR"
    },
    {
      "bufferView": 6,
      "componentType": 5126,
      "count": 110,
      "max": [
        0.08858919143676758,
        0.22611486911773682,
        0.25118476152420044
      ],
      "min": [
        -0.08858942985534668,
        -0.29963886737823486,
        -0.18894366919994354
      ],
      "name": "Chopper_FrontWheelCover.001/POSITION",
      "type": "VEC3"
    },
    {
      "bufferView": 6,
      "byteOffset": 12,
      "componentType": 5126,
      "count": 110,
      "name": "Chopper_FrontWheelCover.001/NORMAL",
      "type": "VEC3"
    },
    {
      "bufferView": 6,
      "byteOffset": 24,
      "componentType": 5126,
      "count": 110,
      "name": "Chopper_FrontWheelCover.001/TEXCOORD_0",
      "type": "VEC2"
    },
    {
      "bufferView": 7,
      "componentType": 5125,
      "count": 408,
      "name": "Chopper_FrontWheelCover.001/INDICES",
      "type": "SCALAR"
    },
    {
      "bufferView": 8,
      "componentType": 5126,
      "count": 638,
      "max": [
        0.09253120422363281,
        0.31853166222572327,
        0.326491117477417
      ],
      "min": [
        -0.09253835678100586,
        -0.3172950744628906,
        -0.3191443085670471
      ],
      "name": "Chopper_BackWheel.001/POSITION",
      "type": "VEC3"
    },
    {
      "bufferView": 8,
      "byteOffset": 12,
      "componentType": 5126,
      "count": 638,
      "name": "Chopper_BackWheel.001/NORMAL",
      "type": "VEC3"
    },
    {
      "bufferView": 8,
      "byteOffset": 24,
      "componentType": 5126,
      "count": 638,
      "name": "Chopper_BackWheel.001/TEXCOORD_0",
      "type": "VEC2"
    },
    {
      "bufferView": 9,
      "componentType": 5125,
      "count": 1410,
      "name": "Chopper_BackWheel.001/INDICES",
      "type": "SCALAR"
    }
  ],
  "asset": {
    "copyright": "Copyright (c) 2018-2020 Chukong Technologies Inc.",
    "generator": "FBX-glTF-conv",
    "version": "2.0"
  },
  "bufferViews": [
    {
      "buffer": 0,
      "byteLength": 34208,
      "byteStride": 32,
      "name": "Chopper_Body.001",
      "target": 34962
    },
    {
      "buffer": 0,
      "byteLength": 13992,
      "byteOffset": 34208
    },
    {
      "buffer": 0,
      "byteLength": 23136,
      "byteOffset": 48200,
      "byteStride": 32,
      "name": "Chopper_HandelBars.001",
      "target": 34962
    },
    {
      "buffer": 0,
      "byteLength": 7968,
      "byteOffset": 71336
    },
    {
      "buffer": 0,
      "byteLength": 20416,
      "byteOffset": 79304,
      "byteStride": 32,
      "name": "Chopper_BackWheel001.001",
      "target": 34962
    },
    {
      "buffer": 0,
      "byteLength": 5640,
      "byteOffset": 99720
    },
    {
      "buffer": 0,
      "byteLength": 3520,
      "byteOffset": 105360,
      "byteStride": 32,
      "name": "Chopper_FrontWheelCover.001",
      "target": 34962
    },
    {
      "buffer": 0,
      "byteLength": 1632,
      "byteOffset": 108880
    },
    {
      "buffer": 0,
      "byteLength": 20416,
      "byteOffset": 110512,
      "byteStride": 32,
      "name": "Chopper_BackWheel.001",
      "target": 34962
    },
    {
      "buffer": 0,
      "byteLength": 5640,
      "byteOffset": 130928
    }
  ],
  "buffers": [
    {
      "byteLength": 136568,
      "uri": "out.bin"
    }
  ],
  "extras": {
    "FBX-glTF-conv": {
      "animationFrameRate": 30.0
    }
  },
  "meshes": [
    {
      "name": "Chopper_Body.001",
      "primitives": [
        {
          "attributes": {
            "NORMAL": 1,
            "POSITION": 0,
            "TEXCOORD_0": 2
          },
          "indices": 3
        }
      ]
    },
    {
      "name": "Chopper_HandelBars.001",
      "primitives": [
        {
          "attributes": {
            "NORMAL": 5,
            "POSITION": 4,
            "TEXCOORD_0": 6
          },
          "indices": 7
        }
      ]
    },
    {
      "name": "Chopper_BackWheel001.001",
      "primitives": [
        {
          "attributes": {
            "NORMAL": 9,
            "POSITION": 8,
            "TEXCOORD_0": 10
          },
          "indices": 11
        }
      ]
    },
    {
      "name": "Chopper_FrontWheelCover.001",
      "primitives": [
        {
          "attributes": {
            "NORMAL": 13,
            "POSITION": 12,
            "TEXCOORD_0": 14
          },
          "indices": 15
        }
      ]
    },
    {
      "name": "Chopper_BackWheel.001",
      "primitives": [
        {
          "attributes": {
            "NORMAL": 17,
            "POSITION": 16,
            "TEXCOORD_0": 18
          },
          "indices": 19
        }
      ]
    }
  ],
  "nodes": [
    {
      "children": [
        1,
        4
      ],
      "mesh": 0,
      "name": "Chopper_Body.001"
    },
    {
      "children": [
        2,
        3
      ],
      "mesh": 1,
      "name": "Chopper_HandelBars.001",
      "translation": [
        0.003931999206542969,
        0.9715642929077148,
        0.791586697101593
      ]
    },
    {
      "mesh": 2,
      "name": "Chopper_BackWheel001.001",
      "translation": [
        5.4836273193359375e-06,
        -0.6553397178649902,
        0.6882984042167664
      ]
    },
    {
      "mesh": 3,
      "name": "Chopper_FrontWheelCover.001",
      "translation": [
        1.6689300537109375e-06,
        -0.5348312854766846,
        0.5248004794120789
      ]
    },
    {
      "mesh": 4,
      "name": "Chopper_BackWheel.001",
      "translation": [
        0.003937482833862305,
        0.3118910491466522,
        -0.4438759386539459
      ]
    }
  ],
  "scenes": [
    {
      "name": "Scene",
      "nodes": [
        0
      ]
    }
  ]
}