{
  "accessors": [
    {
      "bufferView": 0,
      "componentType": 5126,
      "count": 95,
      "max": [
        -0.2447834014892578,
        -3.856893115994353e-08,
        0.04105000197887421
      ],
      "min": [
        -0.7015085816383362,
        -0.5472837686538696,
        -0.0410500131547451
      ],
      "name": "Object005/POSITION",
      "type": "VEC3"
    },
    {
      "bufferView": 0,
      "byteOffset": 12,
      "componentType": 5126,
      "count": 95,
      "name": "Object005/NORMAL",
      "type": "VEC3"
    },
    {
      "bufferView": 0,
      "byteOffset": 24,
      "componentType": 5126,
      "count": 95,
      "name": "Object005/TEXCOORD_0",
      "type": "VEC2"
    },
    {
      "bufferView": 1,
      "componentType": 5125,
      "count": 198,
      "name": "Object005/INDICES",
      "type": "SCALAR"
    },
    {
      "bufferView": 2,
      "componentType": 5126,
      "count": 140,
      "max": [
        0.4386196434497833,
        -0.3054329752922058,
        0.04105000197887421
      ],
      "min": [
        -0.4386196434497833,
        -0.7015085816383362,
        -0.0410500131547451
      ],
      "name": "Object006/POSITION",
      "type": "VEC3"
    },
    {
      "bufferView": 2,
      "byteOffset": 12,
      "componentType": 5126,
      "count": 140,
      "name": "Object006/NORMAL",
      "type": "VEC3"
    },
    {
      "bufferView": 2,
      "byteOffset": 24,
      "componentType": 5126,
      "count": 140,
      "name": "Object006/TEXCOORD_0",
      "type": "VEC2"
    },
    {
      "bufferView": 3,
      "componentType": 5125,
      "count": 282,
      "name": "Object006/INDICES",
      "type": "SCALAR"
    },
    {
      "bufferView": 4,
      "componentType": 5126,
      "count": 148,
      "max": [
        0.7015085816383362,
        0.4386196434497833,
        0.04105000197887421
      ],
      "min": [
        0.244783416390419,
        -0.5472835302352905,
        -0.0410500131547451
      ],
      "name": "Object007/POSITION",
      "type": "VEC3"
    },
    {
      "bufferView": 4,
      "byteOffset": 12,
      "componentType": 5126,
      "count": 148,
      "name": "Object007/NORMAL",
      "type": "VEC3"
    },
    {
      "bufferView": 4,
      "byteOffset": 24,
      "componentType": 5126,
      "count": 148,
      "name": "Object007/TEXCOORD_0",
      "type": "VEC2"
    },
    {
      "bufferView": 5,
      "componentType": 5125,
      "count": 324,
      "name": "Object007/INDICES",
      "type": "SCALAR"
    },
    {
      "bufferView": 6,
      "componentType": 5126,
      "count": 244,
      "max": [
        0.5472835302352905,
        0.7015085816383362,
        0.04105000197887421
      ],
      "min": [
        -0.7015085816383362,
        -0.0507785901427269,
        -0.0410500131547451
      ],
      "name": "Object008/POSITION",
      "type": "VEC3"
    },
    {
      "bufferView": 6,
      "byteOffset": 12,
      "componentType": 5126,
      "count": 244,
      "name": "Object008/NORMAL",
      "type": "VEC3"
    },
    {
      "bufferView": 6,
      "byteOffset": 24,
      "componentType": 5126,
      "count": 244,
      "name": "Object008/TEXCOORD_0",
      "type": "VEC2"
    },
    {
      "bufferView": 7,
      "componentType": 5125,
      "count": 492,
      "name": "Object008/INDICES",
      "type": "SCALAR"
    },
    {
      "bufferView": 8,
      "componentType": 5126,
      "count": 198,
      "max": [
        0.39150336384773254,
        0.39150336384773254,
        0.04105000197887421
      ],
      "min": [
        -0.39150336384773254,
        -0.39150336384773254,
        -0.041050028055906296
      ],
      "name": "Object002/POSITION",
      "type": "VEC3"
    },
    {
      "bufferView": 8,
      "byteOffset": 12,
      "componentType": 5126,
      "count": 198,
      "name": "Object002/NORMAL",
      "type": "VEC3"
    },
    {
      "bufferView": 8,
      "byteOffset": 24,
      "componentType": 5126,
      "count": 198,
      "name": "Object002/TEXCOORD_0",
      "type": "VEC2"
    },
    {
      "bufferView": 9,
      "componentType": 5125,
      "count": 336,
      "name": "Object002/INDICES",
      "type": "SCALAR"
    },
    {
      "bufferView": 10,
      "componentType": 5126,
      "count": 343,
      "max": [
        0.7015085816383362,
        0.7015085816383362,
        0.04105000197887421
      ],
      "min": [
        -0.7015085816383362,
        -0.7015085816383362,
        -0.0410500131547451
      ],
      "name": "vO/POSITION",
      "type": "VEC3"
    },
    {
      "bufferView": 10,
      "byteOffset": 12,
      "componentType": 5126,
      "count": 343,
      "name": "vO/NORMAL",
      "type": "VEC3"
    },
    {
      "bufferView": 10,
      "byteOffset": 24,
      "componentType": 5126,
      "count": 343,
      "name": "vO/TEXCOORD_0",
      "type": "VEC2"
    },
    {
      "bufferView": 11,
      "componentType": 5125,
      "count": 840,
      "name": "vO/INDICES",
      "type": "SCALAR"
    },
    {
      "bufferView": 12,
      "componentType": 5126,
      "count": 198,
      "max": [
        0.39150336384773254,
        0.39150336384773254,
        0.04105000197887421
      ],
      "min": [
        -0.39150336384773254,
        -0.39150336384773254,
        -0.041050028055906296
      ],
      "name": "LOI/POSITION",
      "type": "VEC3"
    },
    {
      "bufferView": 12,
      "byteOffset": 12,
      "componentType": 5126,
      "count": 198,
      "name": "LOI/NORMAL",
      "type": "VEC3"
    },
    {
      "bufferView": 12,
      "byteOffset": 24,
      "componentType": 5126,
      "count": 198,
      "name": "LOI/TEXCOORD_0",
      "type": "VEC2"
    },
    {
      "bufferView": 13,
      "componentType": 5125,
      "count": 336,
      "name": "LOI/INDICES",
      "type": "SCALAR"
    }
  ],
  "asset": {
    "copyright": "Copyright (c) 2018-2020 Chukong Technologies Inc.",
    "generator": "FBX-glTF-conv",
    "version": "2.0"
  },
  "bufferViews": [
    {
      "buffer": 0,
      "byteLength": 3040,
      "byteStride": 32,
      "name": "Object005",
      "target": 34962
    },
    {
      "buffer": 0,
      "byteLength": 792,
      "byteOffset": 3040
    },
    {
      "buffer": 0,
      "byteLength": 4480,
      "byteOffset": 3832,
      "byteStride": 32,
      "name": "Object006",
      "target": 34962
    },
    {
      "buffer": 0,
      "byteLength": 1128,
      "byteOffset": 8312
    },
    {
      "buffer": 0,
      "byteLength": 4736,
      "byteOffset": 9440,
      "byteStride": 32,
      "name": "Object007",
      "target": 34962
    },
    {
      "buffer": 0,
      "byteLength": 1296,
      "byteOffset": 14176
    },
    {
      "buffer": 0,
      "byteLength": 7808,
      "byteOffset": 15472,
      "byteStride": 32,
      "name": "Object008",
      "target": 34962
    },
    {
      "buffer": 0,
      "byteLength": 1968,
      "byteOffset": 23280
    },
    {
      "buffer": 0,
      "byteLength": 6336,
      "byteOffset": 25248,
      "byteStride": 32,
      "name": "Object002",
      "target": 34962
    },
    {
      "buffer": 0,
      "byteLength": 1344,
      "byteOffset": 31584
    },
    {
      "buffer": 0,
      "byteLength": 10976,
      "byteOffset": 32928,
      "byteStride": 32,
      "name": "vO",
      "target": 34962
    },
    {
      "buffer": 0,
      "byteLength": 3360,
      "byteOffset": 43904
    },
    {
      "buffer": 0,
      "byteLength": 6336,
      "byteOffset": 47264,
      "byteStride": 32,
      "name": "LOI",
      "target": 34962
    },
    {
      "buffer": 0,
      "byteLength": 1344,
      "byteOffset": 53600
    }
  ],
  "buffers": [
    {
      "byteLength": 54944,
      "uri": "out.bin"
    }
  ],
  "extras": {
    "FBX-glTF-conv": {
      "animationFrameRate": 30.0
    }
  },
  "images": [
    {
      "extras": {
        "FBX-glTF-conv": {
          "fileName": "D:\\CocosProjects\\Amobear\\Squid\\assets\\Art\\Models\\Models\\Candys\\KEOTEX.jpg",
          "relativeFileName": "KEOTEX.jpg"
        }
      },
      "name": "Map #2",
      "uri": "KEOTEX.jpg"
    }
  ],
  "materials": [
    {
      "extras": {
        "FBX-glTF-conv": {
          "originalMaterial": {
            "properties": {
              "3dsMax": {
                "ClassIDa": 1030429932,
                "ClassIDb": -559038463,
                "ORIGINAL_MTL": "PHYSICAL_MTL",
                "Parameters": {
                  "aniso_angle_map_on": true,
                  "aniso_channel": 0,
                  "aniso_mode": 0,
                  "anisoangle": 0.25,
                  "anisotropy": 0.0,
                  "anisotropy_map_on": true,
                  "base_color": [
                    0.5,
                    0.5,
                    0.5,
                    1.0
                  ],
                  "base_color_map": {
                    "index": 0
                  },
                  "base_color_map_on": true,
                  "base_weight": 1.0,
                  "base_weight_map_on": true,
                  "brdf_curve": 5.0,
                  "brdf_high": 1.0,
                  "brdf_low": 0.05000000074505806,
                  "brdf_mode": true,
                  "coat_affect_color": 0.5,
                  "coat_affect_roughness": 0.5,
                  "coat_aniso_angle_map_on": true,
                  "coat_aniso_map_on": true,
                  "coat_anisoangle": 0.25,
                  "coat_anisotropy": 0.0,
                  "coat_color": [
                    1.0,
                    1.0,
                    1.0,
                    1.0
                  ],
                  "coat_color_map_on": true,
                  "coat_ior": 1.5199999809265137,
                  "coat_map_on": true,
                  "coat_rough_map_on": true,
                  "coat_roughness": 0.0,
                  "coat_roughness_inv": false,
                  "coating": 0.0,
                  "cutout_map_on": true,
                  "diff_rough_map_on": true,
                  "diff_roughness": 0.0,
                  "dispersion": 0.0,
                  "displacement_map_amt": 1.0,
                  "displacement_map_on": true,
                  "emission": 1.0,
                  "emission_map_on": true,
                  "emit_color": [
                    0.0,
                    0.0,
                    0.0,
                    1.0
                  ],
                  "emit_color_map_on": true,
                  "emit_kelvin": 6500.0,
                  "emit_luminance": 1500.0,
                  "material_mode": 2,
                  "metalness": 0.0,
                  "metalness_map_on": true,
                  "refl_color": [
                    1.0,
                    1.0,
                    1.0,
                    1.0
                  ],
                  "refl_color_map_on": true,
                  "reflectivity": 1.0,
                  "reflectivity_map_on": true,
                  "roughness": 0.0,
                  "roughness_inv": false,
                  "roughness_map_on": true,
                  "scattering": 0.0,
                  "scattering_map_on": true,
                  "sheen": 0.0,
                  "sheen_color": [
                    1.0,
                    1.0,
                    1.0,
                    1.0
                  ],
                  "sheen_color_map_on": true,
                  "sheen_map_on": true,
                  "sheen_rough_map_on": true,
                  "sheen_roughness": 0.30000001192092896,
                  "sss_color": [
                    1.0,
                    1.0,
                    1.0,
                    1.0
                  ],
                  "sss_color_map_on": true,
                  "sss_depth": 10.0,
                  "sss_scale": 1.0,
                  "sss_scale_map_on": true,
                  "sss_scatter_color": [
                    100.0,
                    50.0,
                    25.0,
                    1.0
                  ],
                  "thin_film": 0.0,
                  "thin_film_ior": 1.2999999523162842,
                  "thin_film_ior_map_on": true,
                  "thin_film_map_on": true,
                  "thin_film_thickness": 0.0,
                  "thin_walled": false,
                  "trans_color": [
                    1.0,
                    1.0,
                    1.0,
                    1.0
                  ],
                  "trans_color_map_on": true,
                  "trans_depth": 0.0,
                  "trans_ior": 1.5199999809265137,
                  "trans_ior_map_on": true,
                  "trans_rough_map_on": true,
                  "trans_roughness": 0.0,
                  "trans_roughness_inv": false,
                  "trans_roughness_lock": true,
                  "trans_scatter_aniso": 0.0,
                  "trans_scatter_color": [
                    0.0,
                    0.0,
                    0.0,
                    1.0
                  ],
                  "transparency": 0.0,
                  "transparency_map_on": true
                },
                "SuperClassID": 3072
              },
              "AmbientColor": [
                0.5,
                0.5,
                0.5
              ],
              "DiffuseColor": [
                0.5,
                0.5,
                0.5
              ],
              "EmissiveColor": [
                0.0,
                0.0,
                0.0
              ],
              "EmissiveFactor": 0.0,
              "MultiLayer": false,
              "ShadingModel": "unknown",
              "ShininessExponent": 1024.0,
              "SpecularColor": [
                1.0,
                1.0,
                1.0
              ],
              "SpecularFactor": 2.0,
              "TransparencyFactor": 0.0
            }
          }
        }
      },
      "name": "Material #105",
      "pbrMetallicRoughness": {
        "roughnessFactor": 0.031234752386808395
      }
    }
  ],
  "meshes": [
    {
      "name": "Object005",
      "primitives": [
        {
          "attributes": {
            "NORMAL": 1,
            "POSITION": 0,
            "TEXCOORD_0": 2
          },
          "indices": 3,
          "material": 0
        }
      ]
    },
    {
      "name": "Object006",
      "primitives": [
        {
          "attributes": {
            "NORMAL": 5,
            "POSITION": 4,
            "TEXCOORD_0": 6
          },
          "indices": 7,
          "material": 0
        }
      ]
    },
    {
      "name": "Object007",
      "primitives": [
        {
          "attributes": {
            "NORMAL": 9,
            "POSITION": 8,
            "TEXCOORD_0": 10
          },
          "indices": 11,
          "material": 0
        }
      ]
    },
    {
      "name": "Object008",
      "primitives": [
        {
          "attributes": {
            "NORMAL": 13,
            "POSITION": 12,
            "TEXCOORD_0": 14
          },
          "indices": 15,
          "material": 0
        }
      ]
    },
    {
      "name": "Object002",
      "primitives": [
        {
          "attributes": {
            "NORMAL": 17,
            "POSITION": 16,
            "TEXCOORD_0": 18
          },
          "indices": 19,
          "material": 0
        }
      ]
    },
    {
      "name": "vO",
      "primitives": [
        {
          "attributes": {
            "NORMAL": 21,
            "POSITION": 20,
            "TEXCOORD_0": 22
          },
          "indices": 23,
          "material": 0
        }
      ]
    },
    {
      "name": "LOI",
      "primitives": [
        {
          "attributes": {
            "NORMAL": 25,
            "POSITION": 24,
            "TEXCOORD_0": 26
          },
          "indices": 27,
          "material": 0
        }
      ]
    }
  ],
  "nodes": [
    {
      "children": [
        1,
        2,
        3,
        4,
        5,
        6
      ],
      "name": "KEOVO",
      "rotation": [
        -0.7071067690849304,
        -0.0,
        0.0,
        0.7071067690849304
      ],
      "translation": [
        0.0,
        0.10258026421070099,
        1.1147162126690091e-07
      ]
    },
    {
      "name": "Object004",
      "scale": [
        1.0,
        1.0,
        0.7049000263214111
      ],
      "translation": [
        0.0,
        1.4305114426349519e-08,
        9.53674295089968e-09
      ]
    },
    {
      "mesh": 0,
      "name": "Object005",
      "scale": [
        1.0,
        1.0,
        0.7049000263214111
      ],
      "translation": [
        0.0,
        1.4305114426349519e-08,
        9.53674295089968e-09
      ]
    },
    {
      "mesh": 1,
      "name": "Object006",
      "scale": [
        1.0,
        1.0,
        0.7049000263214111
      ],
      "translation": [
        0.0,
        1.4305114426349519e-08,
        9.53674295089968e-09
      ]
    },
    {
      "mesh": 2,
      "name": "Object007",
      "scale": [
        1.0,
        1.0,
        0.7049000263214111
      ],
      "translation": [
        0.0,
        1.4305114426349519e-08,
        9.53674295089968e-09
      ]
    },
    {
      "mesh": 3,
      "name": "Object008",
      "scale": [
        1.0,
        1.0,
        0.7049000263214111
      ],
      "translation": [
        0.0,
        1.4305114426349519e-08,
        9.53674295089968e-09
      ]
    },
    {
      "mesh": 4,
      "name": "Object002",
      "scale": [
        1.0,
        1.0,
        0.7049000263214111
      ],
      "translation": [
        0.0,
        1.4305114426349519e-08,
        9.53674295089968e-09
      ]
    },
    {
      "children": [
        8,
        9
      ],
      "name": "KeoThuong",
      "rotation": [
        -0.7071067690849304,
        -0.0,
        0.0,
        0.7071067690849304
      ],
      "translation": [
        0.0,
        0.10258026421070099,
        1.1147162126690091e-07
      ]
    },
    {
      "mesh": 5,
      "name": "vO",
      "scale": [
        1.0,
        1.0,
        0.7049000263214111
      ],
      "translation": [
        0.0,
        1.4305114426349519e-08,
        9.53674295089968e-09
      ]
    },
    {
      "mesh": 6,
      "name": "LOI",
      "scale": [
        1.0,
        1.0,
        0.7049000263214111
      ],
      "translation": [
        0.0,
        1.4305114426349519e-08,
        9.53674295089968e-09
      ]
    }
  ],
  "samplers": [
    {}
  ],
  "scenes": [
    {
      "nodes": [
        0,
        7
      ]
    }
  ],
  "textures": [
    {
      "name": "Map #2",
      "sampler": 0,
      "source": 0
    }
  ]
}