{
  "accessors": [
    {
      "bufferView": 0,
      "componentType": 5126,
      "count": 4,
      "max": [
        -1.6109800338745117,
        3.8543026447296143,
        59.72098159790039
      ],
      "min": [
        -1.6109800338745117,
        0.3589128255844116,
        -8.478559494018555
      ],
      "name": "polySurface2/POSITION",
      "type": "VEC3"
    },
    {
      "bufferView": 0,
      "byteOffset": 12,
      "componentType": 5126,
      "count": 4,
      "name": "polySurface2/NORMAL",
      "type": "VEC3"
    },
    {
      "bufferView": 0,
      "byteOffset": 24,
      "componentType": 5126,
      "count": 4,
      "name": "polySurface2/TEXCOORD_0",
      "type": "VEC2"
    },
    {
      "bufferView": 1,
      "componentType": 5125,
      "count": 6,
      "name": "polySurface2/INDICES",
      "type": "SCALAR"
    },
    {
      "bufferView": 2,
      "componentType": 5126,
      "count": 4,
      "max": [
        -2.39582896232605,
        3.8543026447296143,
        59.72098159790039
      ],
      "min": [
        -2.395829200744629,
        0.3589128255844116,
        -8.478559494018555
      ],
      "name": "polySurface3/POSITION",
      "type": "VEC3"
    },
    {
      "bufferView": 2,
      "byteOffset": 12,
      "componentType": 5126,
      "count": 4,
      "name": "polySurface3/NORMAL",
      "type": "VEC3"
    },
    {
      "bufferView": 2,
      "byteOffset": 24,
      "componentType": 5126,
      "count": 4,
      "name": "polySurface3/TEXCOORD_0",
      "type": "VEC2"
    },
    {
      "bufferView": 3,
      "componentType": 5125,
      "count": 6,
      "name": "polySurface3/INDICES",
      "type": "SCALAR"
    }
  ],
  "asset": {
    "copyright": "Copyright (c) 2018-2020 Chukong Technologies Inc.",
    "generator": "FBX-glTF-conv",
    "version": "2.0"
  },
  "bufferViews": [
    {
      "buffer": 0,
      "byteLength": 128,
      "byteStride": 32,
      "name": "polySurface2",
      "target": 34962
    },
    {
      "buffer": 0,
      "byteLength": 24,
      "byteOffset": 128
    },
    {
      "buffer": 0,
      "byteLength": 128,
      "byteOffset": 152,
      "byteStride": 32,
      "name": "polySurface3",
      "target": 34962
    },
    {
      "buffer": 0,
      "byteLength": 24,
      "byteOffset": 280
    }
  ],
  "buffers": [
    {
      "byteLength": 304,
      "uri": "out.bin"
    }
  ],
  "extras": {
    "FBX-glTF-conv": {
      "animationFrameRate": 24.0
    }
  },
  "images": [
    {
      "extras": {
        "FBX-glTF-conv": {
          "fileName": "C:/Users/toannt/Downloads/bg_1 (1).png",
          "relativeFileName": "..\\..\\..\\..\\..\\..\\..\\Downloads\\bg_1 (1).png"
        }
      },
      "name": "file4",
      "uri": "data:image/png;base64,"
    },
    {
      "extras": {
        "FBX-glTF-conv": {
          "fileName": "C:/Users/toannt/Downloads/bg_2 (1).png",
          "relativeFileName": "..\\..\\..\\..\\..\\..\\..\\Downloads\\bg_2 (1).png"
        }
      },
      "name": "file5",
      "uri": "data:image/png;base64,"
    }
  ],
  "materials": [
    {
      "alphaMode": "BLEND",
      "name": "lambert2",
      "pbrMetallicRoughness": {
        "baseColorFactor": [
          0.800000011920929,
          0.800000011920929,
          0.800000011920929,
          0.0
        ],
        "baseColorTexture": {
          "index": 0
        }
      }
    },
    {
      "alphaMode": "BLEND",
      "name": "lambert3",
      "pbrMetallicRoughness": {
        "baseColorFactor": [
          0.800000011920929,
          0.800000011920929,
          0.800000011920929,
          0.0
        ],
        "baseColorTexture": {
          "index": 1
        }
      }
    }
  ],
  "meshes": [
    {
      "name": "polySurface2",
      "primitives": [
        {
          "attributes": {
            "NORMAL": 1,
            "POSITION": 0,
            "TEXCOORD_0": 2
          },
          "indices": 3,
          "material": 0
        }
      ]
    },
    {
      "name": "polySurface3",
      "primitives": [
        {
          "attributes": {
            "NORMAL": 5,
            "POSITION": 4,
            "TEXCOORD_0": 6
          },
          "indices": 7,
          "material": 1
        }
      ]
    }
  ],
  "nodes": [
    {
      "mesh": 0,
      "name": "polySurface2",
      "scale": [
        1.8967881202697754,
        1.8967881202697754,
        1.8967881202697754
      ],
      "translation": [
        8.248406410217285,
        -1.4720690250396729,
        -22.97679901123047
      ]
    },
    {
      "mesh": 1,
      "name": "polySurface3",
      "scale": [
        1.8967881202697754,
        1.8967881202697754,
        1.8967881202697754
      ],
      "translation": [
        10.746139526367188,
        -1.8891808986663818,
        -22.97679901123047
      ]
    }
  ],
  "samplers": [
    {}
  ],
  "scenes": [
    {
      "nodes": [
        0,
        1
      ]
    }
  ],
  "textures": [
    {
      "name": "file4",
      "sampler": 0,
      "source": 0
    },
    {
      "name": "file5",
      "sampler": 0,
      "source": 1
    }
  ]
}