{
  "accessors": [
    {
      "bufferView": 0,
      "componentType": 5126,
      "count": 107,
      "max": [
        1.0576001405715942,
        1.6295065879821777,
        0.04016635939478874
      ],
      "min": [
        -1.0576001405715942,
        4.76837147544984e-09,
        -0.04016635939478874
      ],
      "name": "co/POSITION",
      "type": "VEC3"
    },
    {
      "bufferView": 0,
      "byteOffset": 12,
      "componentType": 5126,
      "count": 107,
      "name": "co/NORMAL",
      "type": "VEC3"
    },
    {
      "bufferView": 0,
      "byteOffset": 24,
      "componentType": 5126,
      "count": 107,
      "name": "co/TEXCOORD_0",
      "type": "VEC2"
    },
    {
      "bufferView": 1,
      "componentType": 5125,
      "count": 222,
      "name": "co/INDICES",
      "type": "SCALAR"
    }
  ],
  "asset": {
    "copyright": "Copyright (c) 2018-2020 Chukong Technologies Inc.",
    "generator": "FBX-glTF-conv",
    "version": "2.0"
  },
  "bufferViews": [
    {
      "buffer": 0,
      "byteLength": 3424,
      "byteStride": 32,
      "name": "co",
      "target": 34962
    },
    {
      "buffer": 0,
      "byteLength": 888,
      "byteOffset": 3424
    }
  ],
  "buffers": [
    {
      "byteLength": 4312,
      "uri": "out.bin"
    }
  ],
  "extras": {
    "FBX-glTF-conv": {
      "animationFrameRate": 30.0
    }
  },
  "images": [
    {
      "extras": {
        "FBX-glTF-conv": {
          "fileName": "D:\\toan2\\squidrun\\iteam\\baibien\\color.jpg",
          "relativeFileName": "..\\color.jpg"
        }
      },
      "name": "file2",
      "uri": "data:image/png;base64,"
    }
  ],
  "materials": [
    {
      "name": "color1",
      "pbrMetallicRoughness": {
        "baseColorFactor": [
          0.800000011920929,
          0.800000011920929,
          0.800000011920929,
          1.0
        ],
        "baseColorTexture": {
          "index": 0
        }
      }
    }
  ],
  "meshes": [
    {
      "name": "co",
      "primitives": [
        {
          "attributes": {
            "NORMAL": 1,
            "POSITION": 0,
            "TEXCOORD_0": 2
          },
          "indices": 3,
          "material": 0
        }
      ]
    }
  ],
  "nodes": [
    {
      "mesh": 0,
      "name": "co"
    }
  ],
  "samplers": [
    {}
  ],
  "scenes": [
    {
      "nodes": [
        0
      ]
    }
  ],
  "textures": [
    {
      "name": "file2",
      "sampler": 0,
      "source": 0
    }
  ]
}