{
  "accessors": [
    {
      "bufferView": 0,
      "componentType": 5126,
      "count": 135,
      "max": [
        1.170041799545288,
        2.558701276779175,
        0.16385169327259064
      ],
      "min": [
        -1.1700421571731567,
        0.0,
        -0.1638517826795578
      ],
      "name": "khung/POSITION",
      "type": "VEC3"
    },
    {
      "bufferView": 0,
      "byteOffset": 12,
      "componentType": 5126,
      "count": 135,
      "name": "khung/NORMAL",
      "type": "VEC3"
    },
    {
      "bufferView": 0,
      "byteOffset": 24,
      "componentType": 5126,
      "count": 135,
      "name": "khung/TEXCOORD_0",
      "type": "VEC2"
    },
    {
      "bufferView": 1,
      "componentType": 5125,
      "count": 234,
      "name": "khung/INDICES",
      "type": "SCALAR"
    }
  ],
  "asset": {
    "copyright": "Copyright (c) 2018-2020 Chukong Technologies Inc.",
    "generator": "FBX-glTF-conv",
    "version": "2.0"
  },
  "bufferViews": [
    {
      "buffer": 0,
      "byteLength": 4320,
      "byteStride": 32,
      "name": "khung",
      "target": 34962
    },
    {
      "buffer": 0,
      "byteLength": 936,
      "byteOffset": 4320
    }
  ],
  "buffers": [
    {
      "byteLength": 5256,
      "uri": "out.bin"
    }
  ],
  "extras": {
    "FBX-glTF-conv": {
      "animationFrameRate": 30.0
    }
  },
  "images": [
    {
      "extras": {
        "FBX-glTF-conv": {
          "fileName": "D:/toan2/squidrun/iteam/baibien/color.jpg",
          "relativeFileName": "D:\\toan2\\squidrun\\iteam\\baibien\\color.jpg"
        }
      },
      "name": "file1",
      "uri": "data:image/png;base64,"
    }
  ],
  "materials": [
    {
      "name": "color",
      "pbrMetallicRoughness": {
        "baseColorFactor": [
          0.800000011920929,
          0.800000011920929,
          0.800000011920929,
          1.0
        ],
        "baseColorTexture": {
          "index": 0
        }
      }
    }
  ],
  "meshes": [
    {
      "name": "khung",
      "primitives": [
        {
          "attributes": {
            "NORMAL": 1,
            "POSITION": 0,
            "TEXCOORD_0": 2
          },
          "indices": 3,
          "material": 0
        }
      ]
    }
  ],
  "nodes": [
    {
      "mesh": 0,
      "name": "khung"
    }
  ],
  "samplers": [
    {}
  ],
  "scenes": [
    {
      "nodes": [
        0
      ]
    }
  ],
  "textures": [
    {
      "name": "file1",
      "sampler": 0,
      "source": 0
    }
  ]
}