{"buffers":[{"uri":"out.bin","byteLength":54588}],"asset":{"version":"2.0","generator":"gltfpack 0.14"},"bufferViews":[{"buffer":0,"byteOffset":0,"byteLength":4472,"byteStride":4,"target":34962},{"buffer":0,"byteOffset":4472,"byteLength":13416,"byteStride":12,"target":34962},{"buffer":0,"byteOffset":17888,"byteLength":13416,"byteStride":12,"target":34962},{"buffer":0,"byteOffset":31304,"byteLength":4472,"byteStride":4,"target":34962},{"buffer":0,"byteOffset":35776,"byteLength":10296,"target":34963},{"buffer":0,"byteOffset":46072,"byteLength":3328},{"buffer":0,"byteOffset":49400,"byteLength":80},{"buffer":0,"byteOffset":49480,"byteLength":228},{"buffer":0,"byteOffset":49708,"byteLength":4880}],"accessors":[{"bufferView":0,"byteOffset":0,"componentType":5121,"count":1118,"type":"VEC4"},{"bufferView":1,"byteOffset":0,"componentType":5126,"count":1118,"type":"VEC3"},{"bufferView":2,"byteOffset":0,"componentType":5126,"count":1118,"type":"VEC3","min":[-0.80874455,-0.236570671,-0.00160122709],"max":[0.80874455,0.157429308,2.07347417]},{"bufferView":3,"byteOffset":0,"componentType":5121,"count":1118,"type":"VEC4","normalized":true},{"bufferView":4,"byteOffset":0,"componentType":5123,"count":5148,"type":"SCALAR"},{"bufferView":5,"byteOffset":0,"componentType":5126,"count":52,"type":"MAT4"},{"bufferView":6,"byteOffset":0,"componentType":5126,"count":19,"type":"SCALAR","min":[0],"max":[0.600000024]},{"bufferView":6,"byteOffset":76,"componentType":5126,"count":1,"type":"SCALAR","min":[0],"max":[0]},{"bufferView":7,"byteOffset":0,"componentType":5126,"count":19,"type":"VEC3"},{"bufferView":8,"byteOffset":0,"componentType":5122,"count":19,"type":"VEC4","normalized":true},{"bufferView":8,"byteOffset":152,"componentType":5122,"count":19,"type":"VEC4","normalized":true},{"bufferView":8,"byteOffset":304,"componentType":5122,"count":19,"type":"VEC4","normalized":true},{"bufferView":8,"byteOffset":456,"componentType":5122,"count":19,"type":"VEC4","normalized":true},{"bufferView":8,"byteOffset":608,"componentType":5122,"count":19,"type":"VEC4","normalized":true},{"bufferView":8,"byteOffset":760,"componentType":5122,"count":19,"type":"VEC4","normalized":true},{"bufferView":8,"byteOffset":912,"componentType":5122,"count":19,"type":"VEC4","normalized":true},{"bufferView":8,"byteOffset":1064,"componentType":5122,"count":19,"type":"VEC4","normalized":true},{"bufferView":8,"byteOffset":1216,"componentType":5122,"count":19,"type":"VEC4","normalized":true},{"bufferView":8,"byteOffset":1368,"componentType":5122,"count":19,"type":"VEC4","normalized":true},{"bufferView":8,"byteOffset":1520,"componentType":5122,"count":1,"type":"VEC4","normalized":true},{"bufferView":8,"byteOffset":1528,"componentType":5122,"count":19,"type":"VEC4","normalized":true},{"bufferView":8,"byteOffset":1680,"componentType":5122,"count":1,"type":"VEC4","normalized":true},{"bufferView":8,"byteOffset":1688,"componentType":5122,"count":1,"type":"VEC4","normalized":true},{"bufferView":8,"byteOffset":1696,"componentType":5122,"count":19,"type":"VEC4","normalized":true},{"bufferView":8,"byteOffset":1848,"componentType":5122,"count":1,"type":"VEC4","normalized":true},{"bufferView":8,"byteOffset":1856,"componentType":5122,"count":1,"type":"VEC4","normalized":true},{"bufferView":8,"byteOffset":1864,"componentType":5122,"count":19,"type":"VEC4","normalized":true},{"bufferView":8,"byteOffset":2016,"componentType":5122,"count":1,"type":"VEC4","normalized":true},{"bufferView":8,"byteOffset":2024,"componentType":5122,"count":1,"type":"VEC4","normalized":true},{"bufferView":8,"byteOffset":2032,"componentType":5122,"count":19,"type":"VEC4","normalized":true},{"bufferView":8,"byteOffset":2184,"componentType":5122,"count":1,"type":"VEC4","normalized":true},{"bufferView":8,"byteOffset":2192,"componentType":5122,"count":1,"type":"VEC4","normalized":true},{"bufferView":8,"byteOffset":2200,"componentType":5122,"count":19,"type":"VEC4","normalized":true},{"bufferView":8,"byteOffset":2352,"componentType":5122,"count":1,"type":"VEC4","normalized":true},{"bufferView":8,"byteOffset":2360,"componentType":5122,"count":19,"type":"VEC4","normalized":true},{"bufferView":8,"byteOffset":2512,"componentType":5122,"count":19,"type":"VEC4","normalized":true},{"bufferView":8,"byteOffset":2664,"componentType":5122,"count":19,"type":"VEC4","normalized":true},{"bufferView":8,"byteOffset":2816,"componentType":5122,"count":19,"type":"VEC4","normalized":true},{"bufferView":8,"byteOffset":2968,"componentType":5122,"count":1,"type":"VEC4","normalized":true},{"bufferView":8,"byteOffset":2976,"componentType":5122,"count":19,"type":"VEC4","normalized":true},{"bufferView":8,"byteOffset":3128,"componentType":5122,"count":1,"type":"VEC4","normalized":true},{"bufferView":8,"byteOffset":3136,"componentType":5122,"count":1,"type":"VEC4","normalized":true},{"bufferView":8,"byteOffset":3144,"componentType":5122,"count":19,"type":"VEC4","normalized":true},{"bufferView":8,"byteOffset":3296,"componentType":5122,"count":1,"type":"VEC4","normalized":true},{"bufferView":8,"byteOffset":3304,"componentType":5122,"count":1,"type":"VEC4","normalized":true},{"bufferView":8,"byteOffset":3312,"componentType":5122,"count":19,"type":"VEC4","normalized":true},{"bufferView":8,"byteOffset":3464,"componentType":5122,"count":1,"type":"VEC4","normalized":true},{"bufferView":8,"byteOffset":3472,"componentType":5122,"count":1,"type":"VEC4","normalized":true},{"bufferView":8,"byteOffset":3480,"componentType":5122,"count":19,"type":"VEC4","normalized":true},{"bufferView":8,"byteOffset":3632,"componentType":5122,"count":1,"type":"VEC4","normalized":true},{"bufferView":8,"byteOffset":3640,"componentType":5122,"count":1,"type":"VEC4","normalized":true},{"bufferView":8,"byteOffset":3648,"componentType":5122,"count":19,"type":"VEC4","normalized":true},{"bufferView":8,"byteOffset":3800,"componentType":5122,"count":1,"type":"VEC4","normalized":true},{"bufferView":8,"byteOffset":3808,"componentType":5122,"count":19,"type":"VEC4","normalized":true},{"bufferView":8,"byteOffset":3960,"componentType":5122,"count":19,"type":"VEC4","normalized":true},{"bufferView":8,"byteOffset":4112,"componentType":5122,"count":19,"type":"VEC4","normalized":true},{"bufferView":8,"byteOffset":4264,"componentType":5122,"count":19,"type":"VEC4","normalized":true},{"bufferView":8,"byteOffset":4416,"componentType":5122,"count":19,"type":"VEC4","normalized":true},{"bufferView":8,"byteOffset":4568,"componentType":5122,"count":19,"type":"VEC4","normalized":true},{"bufferView":8,"byteOffset":4720,"componentType":5122,"count":19,"type":"VEC4","normalized":true},{"bufferView":8,"byteOffset":4872,"componentType":5122,"count":1,"type":"VEC4","normalized":true}],"materials":[{"name":"Default_Material"}],"meshes":[{"primitives":[{"attributes":{"JOINTS_0":0,"NORMAL":1,"POSITION":2,"WEIGHTS_0":3},"mode":4,"indices":4,"material":0}]}],"skins":[{"joints":[6,7,47,48,49,5,9,10,8,11,4,15,16,17,18,19,21,12,13,24,25,14,22,20,23,26,3,2,46,50,27,28,29,51,52,53,30,35,36,34,37,38,40,43,31,32,33,41,39,42,44,45],"inverseBindMatrices":5}],"animations":[{"name":"mixamo.com","samplers":[{"input":6,"output":8},{"input":6,"output":9},{"input":6,"output":10},{"input":6,"output":11},{"input":6,"output":12},{"input":6,"output":13},{"input":6,"output":14},{"input":6,"output":15},{"input":6,"output":16},{"input":6,"output":17},{"input":6,"output":18},{"input":7,"output":19},{"input":6,"output":20},{"input":7,"output":21},{"input":7,"output":22},{"input":6,"output":23},{"input":7,"output":24},{"input":7,"output":25},{"input":6,"output":26},{"input":7,"output":27},{"input":7,"output":28},{"input":6,"output":29},{"input":7,"output":30},{"input":7,"output":31},{"input":6,"output":32},{"input":7,"output":33},{"input":6,"output":34},{"input":6,"output":35},{"input":6,"output":36},{"input":6,"output":37},{"input":7,"output":38},{"input":6,"output":39},{"input":7,"output":40},{"input":7,"output":41},{"input":6,"output":42},{"input":7,"output":43},{"input":7,"output":44},{"input":6,"output":45},{"input":7,"output":46},{"input":7,"output":47},{"input":6,"output":48},{"input":7,"output":49},{"input":7,"output":50},{"input":6,"output":51},{"input":7,"output":52},{"input":6,"output":53},{"input":6,"output":54},{"input":6,"output":55},{"input":6,"output":56},{"input":6,"output":57},{"input":6,"output":58},{"input":6,"output":59},{"input":7,"output":60}],"channels":[{"sampler":0,"target":{"node":2,"path":"translation"}},{"sampler":1,"target":{"node":2,"path":"rotation"}},{"sampler":2,"target":{"node":3,"path":"rotation"}},{"sampler":3,"target":{"node":4,"path":"rotation"}},{"sampler":4,"target":{"node":5,"path":"rotation"}},{"sampler":5,"target":{"node":6,"path":"rotation"}},{"sampler":6,"target":{"node":7,"path":"rotation"}},{"sampler":7,"target":{"node":8,"path":"rotation"}},{"sampler":8,"target":{"node":9,"path":"rotation"}},{"sampler":9,"target":{"node":10,"path":"rotation"}},{"sampler":10,"target":{"node":11,"path":"rotation"}},{"sampler":11,"target":{"node":12,"path":"rotation"}},{"sampler":12,"target":{"node":13,"path":"rotation"}},{"sampler":13,"target":{"node":14,"path":"rotation"}},{"sampler":14,"target":{"node":15,"path":"rotation"}},{"sampler":15,"target":{"node":16,"path":"rotation"}},{"sampler":16,"target":{"node":17,"path":"rotation"}},{"sampler":17,"target":{"node":18,"path":"rotation"}},{"sampler":18,"target":{"node":19,"path":"rotation"}},{"sampler":19,"target":{"node":20,"path":"rotation"}},{"sampler":20,"target":{"node":21,"path":"rotation"}},{"sampler":21,"target":{"node":22,"path":"rotation"}},{"sampler":22,"target":{"node":23,"path":"rotation"}},{"sampler":23,"target":{"node":24,"path":"rotation"}},{"sampler":24,"target":{"node":25,"path":"rotation"}},{"sampler":25,"target":{"node":26,"path":"rotation"}},{"sampler":26,"target":{"node":27,"path":"rotation"}},{"sampler":27,"target":{"node":28,"path":"rotation"}},{"sampler":28,"target":{"node":29,"path":"rotation"}},{"sampler":29,"target":{"node":30,"path":"rotation"}},{"sampler":30,"target":{"node":31,"path":"rotation"}},{"sampler":31,"target":{"node":32,"path":"rotation"}},{"sampler":32,"target":{"node":33,"path":"rotation"}},{"sampler":33,"target":{"node":34,"path":"rotation"}},{"sampler":34,"target":{"node":35,"path":"rotation"}},{"sampler":35,"target":{"node":36,"path":"rotation"}},{"sampler":36,"target":{"node":37,"path":"rotation"}},{"sampler":37,"target":{"node":38,"path":"rotation"}},{"sampler":38,"target":{"node":39,"path":"rotation"}},{"sampler":39,"target":{"node":40,"path":"rotation"}},{"sampler":40,"target":{"node":41,"path":"rotation"}},{"sampler":41,"target":{"node":42,"path":"rotation"}},{"sampler":42,"target":{"node":43,"path":"rotation"}},{"sampler":43,"target":{"node":44,"path":"rotation"}},{"sampler":44,"target":{"node":45,"path":"rotation"}},{"sampler":45,"target":{"node":46,"path":"rotation"}},{"sampler":46,"target":{"node":47,"path":"rotation"}},{"sampler":47,"target":{"node":48,"path":"rotation"}},{"sampler":48,"target":{"node":49,"path":"rotation"}},{"sampler":49,"target":{"node":50,"path":"rotation"}},{"sampler":50,"target":{"node":51,"path":"rotation"}},{"sampler":51,"target":{"node":52,"path":"rotation"}},{"sampler":52,"target":{"node":53,"path":"rotation"}}]}],"nodes":[{"mesh":0,"skin":0},{"name":"real_gangster_crime__56_street_band_Med","children":[0]},{"name":"mixamorig:Hips","translation":[0,-0.000406265812,1.10065794],"children":[3,46,50]},{"name":"mixamorig:Spine","translation":[0,0.122023009,-0.00468351366],"rotation":[-0.0191805288,-0,0,0.99981606],"children":[4]},{"name":"mixamorig:Spine1","translation":[0,0.142464906,2.71127759e-10],"children":[5]},{"name":"mixamorig:Spine2","translation":[0,0.162817106,-6.44527626e-11],"children":[6,8,27]},{"name":"mixamorig:Neck","translation":[0,0.18316929,6.21692831e-09],"rotation":[0.0191805307,0,0,0.99981606],"children":[7]},{"name":"mixamorig:Head","translation":[0,0.0866125524,0.01715702],"children":[]},{"name":"mixamorig:LeftShoulder","translation":[0.0693511665,0.150967166,-0.00084530696],"rotation":[-0.590710759,-0.385415524,0.597828269,-0.380942345],"children":[9]},{"name":"mixamorig:LeftArm","translation":[-9.59654786e-11,0.154165983,-2.7057192e-09],"rotation":[0.0984695777,-0.00280653918,-0.0283514336,0.994732141],"children":[10]},{"name":"mixamorig:LeftForeArm","translation":[-5.51706458e-10,0.197135419,-2.38687026e-09],"rotation":[-0.00829952955,-0.000275844737,0.0332168899,0.999413669],"children":[11]},{"name":"mixamorig:LeftHand","translation":[1.73083943e-11,0.313936442,4.64417704e-09],"rotation":[0.0169846769,-0.0162310153,0.0193688963,0.999536335],"children":[12,15,18,21,24]},{"name":"mixamorig:LeftHandThumb1","translation":[-0.0249103159,0.0335477479,0.0163216069],"rotation":[0.174944013,0.0607512109,0.322369814,0.928321898],"children":[13]},{"name":"mixamorig:LeftHandThumb2","translation":[0.000994620379,0.0358737223,-6.02487782e-10],"rotation":[0.0469723158,9.53872174e-18,5.51239414e-17,0.998896182],"children":[14]},{"name":"mixamorig:LeftHandThumb3","translation":[-0.00459974306,0.0379326679,-7.0845263e-10],"rotation":[-0.0166703109,5.64288254e-17,-5.45780485e-17,0.999861062],"children":[]},{"name":"mixamorig:LeftHandIndex1","translation":[-0.0384093523,0.124511823,0.00265879836],"rotation":[-0.067424804,-0.00732403109,0.107741363,0.991862893],"children":[16]},{"name":"mixamorig:LeftHandIndex2","translation":[0.000483666401,0.0292188339,-1.2949726e-10],"rotation":[0.116544627,1.42052984e-17,-5.75589394e-17,0.993185461],"children":[17]},{"name":"mixamorig:LeftHandIndex3","translation":[-0.000123627629,0.02796866,-6.28964381e-10],"rotation":[0.0530369021,-1.23861859e-17,2.84525448e-17,0.998592556],"children":[]},{"name":"mixamorig:LeftHandMiddle1","translation":[-0.0148600833,0.126548707,-0.000625505752],"rotation":[-0.0130216507,-0.000724169193,0.0555226319,0.998372257],"children":[19]},{"name":"mixamorig:LeftHandMiddle2","translation":[0.000168865023,0.0352296457,-1.98883043e-09],"rotation":[0.0289557036,-8.03682221e-19,-2.77439372e-17,0.999580681],"children":[20]},{"name":"mixamorig:LeftHandMiddle3","translation":[-4.16086732e-06,0.0329161137,-2.28232588e-09],"rotation":[0.0317249,-1.34305304e-17,1.43110733e-17,0.999496639],"children":[]},{"name":"mixamorig:LeftHandRing1","translation":[0.0145608773,0.121827424,-0.00156763941],"rotation":[0.0134783285,0.000376274402,0.0279036239,0.999519646],"children":[22]},{"name":"mixamorig:LeftHandRing2","translation":[0.000178221715,0.0338130891,-1.0988539e-09],"rotation":[0.0449239761,-1.41755e-17,-6.3084429e-18,0.998990417],"children":[23]},{"name":"mixamorig:LeftHandRing3","translation":[-6.9331596e-05,0.0328468755,-4.26892938e-10],"rotation":[0.0112283155,-7.25010489e-18,-2.76759132e-17,0.999936938],"children":[]},{"name":"mixamorig:LeftHandPinky1","translation":[0.0387085602,0.115165107,0.000246256939],"rotation":[0.0459643863,-0.000440330215,-0.009569305,0.998897135],"children":[25]},{"name":"mixamorig:LeftHandPinky2","translation":[0.000473767897,0.0281822961,1.35458667e-09],"rotation":[0.0688126236,0,0,0.997629583],"children":[26]},{"name":"mixamorig:LeftHandPinky3","translation":[-0.000100493453,0.022936089,4.7935883e-10],"rotation":[0.0828509778,-1.32551814e-17,8.06482568e-18,0.996561944],"children":[]},{"name":"mixamorig:RightShoulder","translation":[-0.0693511665,0.150997117,-0.00162551273],"rotation":[0.587282896,-0.38764292,0.601034284,0.378932059],"children":[28]},{"name":"mixamorig:RightArm","translation":[1.63237535e-10,0.154165983,-2.70280198e-09],"rotation":[0.0987266675,0.002082363,0.0209844597,0.994891107],"children":[29]},{"name":"mixamorig:RightForeArm","translation":[-1.35466541e-10,0.197091579,4.99276531e-09],"rotation":[-0.00798020884,0.000294685655,-0.0369005948,0.999287009],"children":[30]},{"name":"mixamorig:RightHand","translation":[-2.62135563e-10,0.314053118,2.91664404e-09],"rotation":[0.0154900895,0.0323881395,0.00209484925,0.999353111],"children":[31,34,37,40,43]},{"name":"mixamorig:RightHandThumb1","translation":[0.0248582307,0.0317489095,0.0176321268],"rotation":[0.192663983,-0.0691905469,-0.330832988,0.921218097],"children":[32]},{"name":"mixamorig:RightHandThumb2","translation":[-0.000815897016,0.0351979174,1.0191073e-10],"rotation":[0.0335766226,3.46749084e-17,-1.16492311e-18,0.99943614],"children":[33]},{"name":"mixamorig:RightHandThumb3","translation":[0.00215176959,0.0381038152,3.27209482e-10],"rotation":[0.00555706723,2.74466683e-17,-5.5664537e-17,0.999984562],"children":[]},{"name":"mixamorig:RightHandIndex1","translation":[0.0397765636,0.121984452,0.000107443062],"rotation":[0.0184515938,-0.00228142785,-0.122689009,0.992271006],"children":[35]},{"name":"mixamorig:RightHandIndex2","translation":[-0.000112599628,0.0305664465,5.9202987e-10],"rotation":[0.0112329414,-2.05035922e-17,2.7987656e-17,0.999936938],"children":[36]},{"name":"mixamorig:RightHandIndex3","translation":[-7.2321287e-05,0.0280391332,2.24437136e-09],"rotation":[0.0861963853,-6.9130685e-18,5.98107573e-19,0.996278167],"children":[]},{"name":"mixamorig:RightHandMiddle1","translation":[0.0145783303,0.120569602,0.000132902424],"rotation":[-0.011482209,0.000852238212,-0.0740135908,0.997190773],"children":[38]},{"name":"mixamorig:RightHandMiddle2","translation":[-0.000161014745,0.0358786993,6.86821711e-10],"rotation":[0.0344958454,-2.03255664e-17,1.4587618e-17,0.999404848],"children":[39]},{"name":"mixamorig:RightHandMiddle3","translation":[-3.88314838e-05,0.0351491384,-4.61724894e-11],"rotation":[0.0758960992,6.91888027e-18,-5.2663498e-19,0.997115731],"children":[]},{"name":"mixamorig:RightHandRing1","translation":[-0.0137179447,0.121755637,-0.00134071452],"rotation":[0.00658482593,-0.000351805822,-0.053350687,0.998554051],"children":[41]},{"name":"mixamorig:RightHandRing2","translation":[-0.000132349523,0.0347607844,1.31568045e-09],"rotation":[0.0446673818,-2.14157888e-17,-1.29341096e-17,0.99900192],"children":[42]},{"name":"mixamorig:RightHandRing3","translation":[1.2878224e-05,0.0324823484,7.030585e-10],"rotation":[0.0390687138,-3.35836057e-17,2.90898543e-17,0.999236524],"children":[]},{"name":"mixamorig:RightHandPinky1","translation":[-0.040636953,0.119786732,-0.000276321778],"rotation":[0.0516938865,-0.00242662826,-0.0468278639,0.997561514],"children":[44]},{"name":"mixamorig:RightHandPinky2","translation":[-0.000359302736,0.0262639951,7.25652455e-11],"rotation":[0.0750189498,-1.00426319e-17,-4.0995498e-17,0.997182131],"children":[45]},{"name":"mixamorig:RightHandPinky3","translation":[4.62164826e-05,0.0232449975,-5.72673686e-10],"rotation":[0.0624410063,2.77014151e-17,-1.73308607e-18,0.998048663],"children":[]},{"name":"mixamorig:LeftUpLeg","translation":[0.098919332,-0.0677636713,-0.000873694953],"rotation":[-0.000344460947,-0.0109588783,0.999446273,-0.0314147361],"children":[47]},{"name":"mixamorig:LeftLeg","translation":[-1.43220921e-10,0.410418272,-2.59683192e-10],"rotation":[0.00102771644,-1.28773554e-05,-0.0125291506,0.999920964],"children":[48]},{"name":"mixamorig:LeftFoot","translation":[-4.27298114e-10,0.454618454,-1.89840824e-10],"rotation":[0.418511689,0.0316323675,-0.0145872012,0.907543123],"children":[49]},{"name":"mixamorig:LeftToeBase","translation":[-2.92651958e-10,0.223381773,-1.14550813e-09],"rotation":[0.372071385,-0.0578930676,0.0232590828,0.926104903],"children":[]},{"name":"mixamorig:RightUpLeg","translation":[-0.098919332,-0.0677636713,-0.000370665162],"rotation":[0.000396662392,-0.0126206316,0.999426782,0.031411659],"children":[51]},{"name":"mixamorig:RightLeg","translation":[1.28224897e-09,0.410450399,1.7927064e-10],"rotation":[0.00514878193,6.44891261e-05,0.0125239734,0.999908328],"children":[52]},{"name":"mixamorig:RightFoot","translation":[-3.14477694e-10,0.454579651,2.57419693e-11],"rotation":[0.411557555,-0.0324933082,0.0146843866,0.910685956],"children":[53]},{"name":"mixamorig:RightToeBase","translation":[6.99957925e-10,0.220814288,6.63156818e-09],"rotation":[0.377055287,0.0584209152,-0.0238387268,0.924038947],"children":[]}],"scenes":[{"nodes":[1,2]}],"scene":0}