{
  "accessors": [
    {
      "bufferView": 0,
      "componentType": 5126,
      "count": 183,
      "max": [
        9.910379409790039,
        0.23848547041416168,
        13.498787879943848
      ],
      "min": [
        -9.910379409790039,
        0.0,
        -13.498787879943848
      ],
      "name": "san1/POSITION",
      "type": "VEC3"
    },
    {
      "bufferView": 0,
      "byteOffset": 12,
      "componentType": 5126,
      "count": 183,
      "name": "san1/NORMAL",
      "type": "VEC3"
    },
    {
      "bufferView": 0,
      "byteOffset": 24,
      "componentType": 5126,
      "count": 183,
      "name": "san1/TEXCOORD_0",
      "type": "VEC2"
    },
    {
      "bufferView": 1,
      "componentType": 5125,
      "count": 864,
      "name": "san1/INDICES",
      "type": "SCALAR"
    }
  ],
  "asset": {
    "copyright": "Copyright (c) 2018-2020 Chukong Technologies Inc.",
    "generator": "FBX-glTF-conv",
    "version": "2.0"
  },
  "bufferViews": [
    {
      "buffer": 0,
      "byteLength": 5856,
      "byteStride": 32,
      "name": "san1",
      "target": 34962
    },
    {
      "buffer": 0,
      "byteLength": 3456,
      "byteOffset": 5856
    }
  ],
  "buffers": [
    {
      "byteLength": 9312,
      "uri": "out.bin"
    }
  ],
  "extras": {
    "FBX-glTF-conv": {
      "animationFrameRate": 30.0
    }
  },
  "images": [
    {
      "extras": {
        "FBX-glTF-conv": {
          "fileName": "D:/toan2/squidrun/iteam/san.jpg",
          "relativeFileName": "..\\..\\san.jpg"
        }
      },
      "name": "file6",
      "uri": "data:image/png;base64,"
    }
  ],
  "materials": [
    {
      "name": "san",
      "pbrMetallicRoughness": {
        "baseColorFactor": [
          0.800000011920929,
          0.800000011920929,
          0.800000011920929,
          1.0
        ],
        "baseColorTexture": {
          "index": 0
        }
      }
    }
  ],
  "meshes": [
    {
      "name": "san1",
      "primitives": [
        {
          "attributes": {
            "NORMAL": 1,
            "POSITION": 0,
            "TEXCOORD_0": 2
          },
          "indices": 3,
          "material": 0
        }
      ]
    }
  ],
  "nodes": [
    {
      "mesh": 0,
      "name": "san1"
    }
  ],
  "samplers": [
    {}
  ],
  "scenes": [
    {
      "nodes": [
        0
      ]
    }
  ],
  "textures": [
    {
      "name": "file6",
      "sampler": 0,
      "source": 0
    }
  ]
}