{
  "accessors": [
    {
      "bufferView": 0,
      "componentType": 5126,
      "count": 60,
      "max": [
        26.481054306030273,
        0.19735150039196014,
        -14.913683891296387
      ],
      "min": [
        -34.966243743896484,
        -0.24999959766864777,
        -53.00639343261719
      ],
      "name": "pasted__Plane.011_Material0/POSITION",
      "type": "VEC3"
    },
    {
      "bufferView": 0,
      "byteOffset": 12,
      "componentType": 5126,
      "count": 60,
      "name": "pasted__Plane.011_Material0/NORMAL",
      "type": "VEC3"
    },
    {
      "bufferView": 0,
      "byteOffset": 24,
      "componentType": 5126,
      "count": 60,
      "name": "pasted__Plane.011_Material0/TEXCOORD_0",
      "type": "VEC2"
    },
    {
      "bufferView": 1,
      "componentType": 5125,
      "count": 90,
      "name": "pasted__Plane.011_Material0/INDICES",
      "type": "SCALAR"
    },
    {
      "bufferView": 2,
      "componentType": 5126,
      "count": 40,
      "max": [
        26.205175399780273,
        0.14935949444770813,
        -20.536439895629883
      ],
      "min": [
        -34.71783447265625,
        -0.24999943375587463,
        -23.269250869750977
      ],
      "name": "pasted__Plane.011_Material0/POSITION",
      "type": "VEC3"
    },
    {
      "bufferView": 2,
      "byteOffset": 12,
      "componentType": 5126,
      "count": 40,
      "name": "pasted__Plane.011_Material0/NORMAL",
      "type": "VEC3"
    },
    {
      "bufferView": 2,
      "byteOffset": 24,
      "componentType": 5126,
      "count": 40,
      "name": "pasted__Plane.011_Material0/TEXCOORD_0",
      "type": "VEC2"
    },
    {
      "bufferView": 3,
      "componentType": 5125,
      "count": 60,
      "name": "pasted__Plane.011_Material0/INDICES",
      "type": "SCALAR"
    },
    {
      "bufferView": 4,
      "componentType": 5126,
      "count": 5414,
      "max": [
        31.921098709106445,
        7.762840747833252,
        15.855711936950684
      ],
      "min": [
        -38.02988052368164,
        -5.294243692333112e-07,
        -16.116750717163086
      ],
      "name": "Block_001_Material0/POSITION",
      "type": "VEC3"
    },
    {
      "bufferView": 4,
      "byteOffset": 12,
      "componentType": 5126,
      "count": 5414,
      "name": "Block_001_Material0/NORMAL",
      "type": "VEC3"
    },
    {
      "bufferView": 4,
      "byteOffset": 24,
      "componentType": 5126,
      "count": 5414,
      "name": "Block_001_Material0/TEXCOORD_0",
      "type": "VEC2"
    },
    {
      "bufferView": 4,
      "byteOffset": 32,
      "componentType": 5126,
      "count": 5414,
      "name": "Block_001_Material0/TEXCOORD_1",
      "type": "VEC2"
    },
    {
      "bufferView": 5,
      "componentType": 5125,
      "count": 11094,
      "name": "Block_001_Material0/INDICES",
      "type": "SCALAR"
    },
    {
      "bufferView": 6,
      "componentType": 5126,
      "count": 115,
      "max": [
        4.841840744018555,
        0.7784430980682373,
        3.743690252304077
      ],
      "min": [
        -15.119339942932129,
        0.3077823519706726,
        -3.2194321155548096
      ],
      "name": "Block_001_Material0/POSITION",
      "type": "VEC3"
    },
    {
      "bufferView": 6,
      "byteOffset": 12,
      "componentType": 5126,
      "count": 115,
      "name": "Block_001_Material0/NORMAL",
      "type": "VEC3"
    },
    {
      "bufferView": 6,
      "byteOffset": 24,
      "componentType": 5126,
      "count": 115,
      "name": "Block_001_Material0/TEXCOORD_0",
      "type": "VEC2"
    },
    {
      "bufferView": 6,
      "byteOffset": 32,
      "componentType": 5126,
      "count": 115,
      "name": "Block_001_Material0/TEXCOORD_1",
      "type": "VEC2"
    },
    {
      "bufferView": 7,
      "componentType": 5125,
      "count": 189,
      "name": "Block_001_Material0/INDICES",
      "type": "SCALAR"
    }
  ],
  "asset": {
    "copyright": "Copyright (c) 2018-2020 Chukong Technologies Inc.",
    "generator": "FBX-glTF-conv",
    "version": "2.0"
  },
  "bufferViews": [
    {
      "buffer": 0,
      "byteLength": 1920,
      "byteStride": 32,
      "name": "pasted__Plane.011_Material0",
      "target": 34962
    },
    {
      "buffer": 0,
      "byteLength": 360,
      "byteOffset": 1920
    },
    {
      "buffer": 0,
      "byteLength": 1280,
      "byteOffset": 2280,
      "byteStride": 32,
      "name": "pasted__Plane.011_Material0",
      "target": 34962
    },
    {
      "buffer": 0,
      "byteLength": 240,
      "byteOffset": 3560
    },
    {
      "buffer": 0,
      "byteLength": 216560,
      "byteOffset": 3800,
      "byteStride": 40,
      "name": "Block_001_Material0",
      "target": 34962
    },
    {
      "buffer": 0,
      "byteLength": 44376,
      "byteOffset": 220360
    },
    {
      "buffer": 0,
      "byteLength": 4600,
      "byteOffset": 264736,
      "byteStride": 40,
      "name": "Block_001_Material0",
      "target": 34962
    },
    {
      "buffer": 0,
      "byteLength": 756,
      "byteOffset": 269336
    }
  ],
  "buffers": [
    {
      "byteLength": 270092,
      "uri": "out.bin"
    }
  ],
  "extras": {
    "FBX-glTF-conv": {
      "animationFrameRate": 24.0
    }
  },
  "images": [
    {
      "extras": {
        "FBX-glTF-conv": {
          "fileName": "C:/Users/toannt/Downloads/art/art/Color_All.psd",
          "relativeFileName": "..\\Downloads\\art\\art\\Color_All.psd"
        }
      },
      "name": "base_color_texture",
      "uri": "data:image/png;base64,"
    },
    {
      "extras": {
        "FBX-glTF-conv": {
          "fileName": "D:\\1. HUNG\\13. Car Jam\\Car_Jam\\Assets\\Scenes\\Texture\\Color_Jam_Car.psd",
          "relativeFileName": "D:\\1. HUNG\\13. Car Jam\\Car_Jam\\Assets\\Scenes\\Texture\\Color_Jam_Car.psd"
        }
      },
      "name": "pasted__base_color_texture",
      "uri": "data:image/png;base64,"
    },
    {
      "extras": {
        "FBX-glTF-conv": {
          "fileName": "D:\\Fork\\cam-jam\\Assets\\_Game\\Cung\\33731252782041fafc245047938bdeb5.jpg",
          "relativeFileName": "D:\\Fork\\cam-jam\\Assets\\_Game\\Cung\\33731252782041fafc245047938bdeb5.jpg"
        }
      },
      "name": "base_color_texture",
      "uri": "data:image/png;base64,"
    }
  ],
  "materials": [
    {
      "name": "Color_Building",
      "pbrMetallicRoughness": {
        "baseColorTexture": {
          "index": 0
        },
        "metallicFactor": 0.4000000059604645,
        "roughnessFactor": 0.14002801477909088
      }
    },
    {
      "name": "pasted__Color",
      "pbrMetallicRoughness": {
        "baseColorTexture": {
          "index": 1
        },
        "metallicFactor": 0.4000000059604645,
        "roughnessFactor": 0.7071067690849304
      }
    },
    {
      "name": "test",
      "pbrMetallicRoughness": {
        "baseColorTexture": {
          "extensions": {
            "KHR_texture_transform": {
              "offset": [
                0.0,
                0.0
              ],
              "scale": [
                10.0,
                0.6800000071525574
              ]
            }
          },
          "index": 2
        },
        "metallicFactor": 0.4000000059604645,
        "roughnessFactor": 0.30151134729385376
      }
    }
  ],
  "meshes": [
    {
      "name": "pasted__Plane.011_Material0",
      "primitives": [
        {
          "attributes": {
            "NORMAL": 1,
            "POSITION": 0,
            "TEXCOORD_0": 2
          },
          "indices": 3,
          "material": 0
        },
        {
          "attributes": {
            "NORMAL": 5,
            "POSITION": 4,
            "TEXCOORD_0": 6
          },
          "indices": 7,
          "material": 1
        }
      ]
    },
    {
      "name": "Block_001_Material0",
      "primitives": [
        {
          "attributes": {
            "NORMAL": 9,
            "POSITION": 8,
            "TEXCOORD_0": 10,
            "TEXCOORD_1": 11
          },
          "indices": 12,
          "material": 0
        },
        {
          "attributes": {
            "NORMAL": 14,
            "POSITION": 13,
            "TEXCOORD_0": 15,
            "TEXCOORD_1": 16
          },
          "indices": 17,
          "material": 2
        }
      ]
    }
  ],
  "nodes": [
    {
      "mesh": 0,
      "name": "pasted__Plane.011",
      "translation": [
        0.2551118731498718,
        0.0,
        0.0
      ]
    },
    {
      "mesh": 1,
      "name": "Block_001"
    }
  ],
  "samplers": [
    {}
  ],
  "scenes": [
    {
      "nodes": [
        0,
        1
      ]
    }
  ],
  "textures": [
    {
      "name": "base_color_texture",
      "sampler": 0,
      "source": 0
    },
    {
      "name": "pasted__base_color_texture",
      "sampler": 0,
      "source": 1
    },
    {
      "name": "base_color_texture",
      "sampler": 0,
      "source": 2
    }
  ]
}