{"buffers":[{"uri":"out.bin","byteLength":10360}],"asset":{"version":"2.0","generator":"gltfpack 0.14"},"bufferViews":[{"buffer":0,"byteOffset":0,"byteLength":3552,"byteStride":12,"target":34962},{"buffer":0,"byteOffset":3552,"byteLength":3552,"byteStride":12,"target":34962},{"buffer":0,"byteOffset":7104,"byteLength":2368,"byteStride":8,"target":34962},{"buffer":0,"byteOffset":9472,"byteLength":888,"target":34963}],"accessors":[{"bufferView":0,"byteOffset":0,"componentType":5126,"count":296,"type":"VEC3"},{"bufferView":1,"byteOffset":0,"componentType":5126,"count":296,"type":"VEC3","min":[-16.7410507,-5.81038557e-06,-16.741066],"max":[16.7410507,208.104446,16.7410488]},{"bufferView":2,"byteOffset":0,"componentType":5126,"count":296,"type":"VEC2"},{"bufferView":3,"byteOffset":0,"componentType":5123,"count":444,"type":"SCALAR"}],"images":[{"uri":"wool_worth_2.png"}],"textures":[{"source":0}],"materials":[{"name":"Material.003","pbrMetallicRoughness":{"baseColorTexture":{"index":0,"texCoord":0},"metallicFactor":0.400000006,"roughnessFactor":0.272165537}}],"meshes":[{"primitives":[{"attributes":{"NORMAL":0,"POSITION":1,"TEXCOORD_0":2},"mode":4,"indices":3,"material":0}]}],"nodes":[{"mesh":0}],"scenes":[{"nodes":[0]}],"scene":0}