{
  "accessors": [
    {
      "bufferView": 0,
      "componentType": 5126,
      "count": 482,
      "max": [
        1.0342321395874023,
        0.534859299659729,
        0.2376226782798767
      ],
      "min": [
        -1.0343295335769653,
        -1.4324570894241333,
        -0.3432939946651459
      ],
      "name": "Lock/POSITION",
      "type": "VEC3"
    },
    {
      "bufferView": 0,
      "byteOffset": 12,
      "componentType": 5126,
      "count": 482,
      "name": "Lock/NORMAL",
      "type": "VEC3"
    },
    {
      "bufferView": 0,
      "byteOffset": 24,
      "componentType": 5126,
      "count": 482,
      "name": "Lock/TEXCOORD_0",
      "type": "VEC2"
    },
    {
      "bufferView": 1,
      "componentType": 5125,
      "count": 2226,
      "name": "Lock/INDICES",
      "type": "SCALAR"
    },
    {
      "bufferView": 2,
      "componentType": 5126,
      "count": 344,
      "max": [
        0.774330735206604,
        1.351804256439209,
        0.15297135710716248
      ],
      "min": [
        -0.7778559923171997,
        -0.5465071797370911,
        -0.15297135710716248
      ],
      "name": "Lock.001/POSITION",
      "type": "VEC3"
    },
    {
      "bufferView": 2,
      "byteOffset": 12,
      "componentType": 5126,
      "count": 344,
      "name": "Lock.001/NORMAL",
      "type": "VEC3"
    },
    {
      "bufferView": 2,
      "byteOffset": 24,
      "componentType": 5126,
      "count": 344,
      "name": "Lock.001/TEXCOORD_0",
      "type": "VEC2"
    },
    {
      "bufferView": 3,
      "componentType": 5125,
      "count": 528,
      "name": "Lock.001/INDICES",
      "type": "SCALAR"
    }
  ],
  "asset": {
    "copyright": "Copyright (c) 2018-2020 Chukong Technologies Inc.",
    "generator": "FBX-glTF-conv",
    "version": "2.0"
  },
  "bufferViews": [
    {
      "buffer": 0,
      "byteLength": 15424,
      "byteStride": 32,
      "name": "Lock",
      "target": 34962
    },
    {
      "buffer": 0,
      "byteLength": 8904,
      "byteOffset": 15424
    },
    {
      "buffer": 0,
      "byteLength": 11008,
      "byteOffset": 24328,
      "byteStride": 32,
      "name": "Lock.001",
      "target": 34962
    },
    {
      "buffer": 0,
      "byteLength": 2112,
      "byteOffset": 35336
    }
  ],
  "buffers": [
    {
      "byteLength": 37448,
      "uri": "out.bin"
    }
  ],
  "extras": {
    "FBX-glTF-conv": {
      "animationFrameRate": 24.0
    }
  },
  "images": [
    {
      "extras": {
        "FBX-glTF-conv": {
          "fileName": "D:\\Fork\\cam-jam\\Assets\\_Game\\Hung\\Tex\\Color_stick.psd",
          "relativeFileName": "D:\\Fork\\cam-jam\\Assets\\_Game\\Hung\\Tex\\Color_stick.psd"
        }
      },
      "name": "base_color_texture",
      "uri": "data:image/png;base64,"
    },
    {
      "extras": {
        "FBX-glTF-conv": {
          "fileName": "E:\\Car Jam\\3d\\block\\key_parking\\Color_Jam_Car.psd",
          "relativeFileName": "..\\..\\..\\Car Jam\\3d\\block\\key_parking\\Color_Jam_Car.psd"
        }
      },
      "name": "base_color_texture",
      "uri": "data:image/png;base64,"
    }
  ],
  "materials": [
    {
      "name": "color.003",
      "pbrMetallicRoughness": {
        "baseColorTexture": {
          "index": 0
        },
        "metallicFactor": 0.4000000059604645,
        "roughnessFactor": 0.30151134729385376
      }
    },
    {
      "name": "color",
      "pbrMetallicRoughness": {
        "baseColorTexture": {
          "index": 1
        },
        "metallicFactor": 0.4000000059604645,
        "roughnessFactor": 0.30151134729385376
      }
    }
  ],
  "meshes": [
    {
      "name": "Lock",
      "primitives": [
        {
          "attributes": {
            "NORMAL": 1,
            "POSITION": 0,
            "TEXCOORD_0": 2
          },
          "indices": 3,
          "material": 0
        }
      ]
    },
    {
      "name": "Lock.001",
      "primitives": [
        {
          "attributes": {
            "NORMAL": 5,
            "POSITION": 4,
            "TEXCOORD_0": 6
          },
          "indices": 7,
          "material": 1
        }
      ]
    }
  ],
  "nodes": [
    {
      "children": [
        1
      ],
      "mesh": 0,
      "name": "Lock",
      "translation": [
        4.8242360207950696e-05,
        1.4324573278427124,
        -4.1961669921875
      ]
    },
    {
      "mesh": 1,
      "name": "Lock.001",
      "translation": [
        0.0,
        -0.0574006550014019,
        0.0
      ]
    }
  ],
  "samplers": [
    {}
  ],
  "scenes": [
    {
      "nodes": [
        0
      ]
    }
  ],
  "textures": [
    {
      "name": "base_color_texture",
      "sampler": 0,
      "source": 0
    },
    {
      "name": "base_color_texture",
      "sampler": 0,
      "source": 1
    }
  ]
}