{
  "accessors": [
    {
      "bufferView": 0,
      "componentType": 5126,
      "count": 524,
      "max": [
        0.0019322267035022378,
        0.0063340854831039906,
        0.0002219197922386229
      ],
      "min": [
        -0.00021386813023127615,
        -0.0010283675510436296,
        -0.0002062514831777662
      ],
      "name": "Police_baton/POSITION",
      "type": "VEC3"
    },
    {
      "bufferView": 0,
      "byteOffset": 12,
      "componentType": 5126,
      "count": 524,
      "name": "Police_baton/NORMAL",
      "type": "VEC3"
    },
    {
      "bufferView": 0,
      "byteOffset": 24,
      "componentType": 5126,
      "count": 524,
      "name": "Police_baton/TEXCOORD_0",
      "type": "VEC2"
    },
    {
      "bufferView": 1,
      "componentType": 5125,
      "count": 756,
      "name": "Police_baton/INDICES",
      "type": "SCALAR"
    }
  ],
  "asset": {
    "copyright": "Copyright (c) 2018-2020 Chukong Technologies Inc.",
    "generator": "FBX-glTF-conv",
    "version": "2.0"
  },
  "bufferViews": [
    {
      "buffer": 0,
      "byteLength": 16768,
      "byteStride": 32,
      "name": "Police_baton",
      "target": 34962
    },
    {
      "buffer": 0,
      "byteLength": 3024,
      "byteOffset": 16768
    }
  ],
  "buffers": [
    {
      "byteLength": 19792,
      "uri": "out.bin"
    }
  ],
  "extras": {
    "FBX-glTF-conv": {
      "animationFrameRate": 24.0
    }
  },
  "images": [
    {
      "extras": {
        "FBX-glTF-conv": {
          "fileName": "D:\\Downloads\\Police Baton\\Police_baton.fbm\\Diffuse_palette_2.jpg",
          "relativeFileName": "D:\\Downloads\\Police Baton\\Police_baton.fbm\\Diffuse_palette_2.jpg"
        }
      },
      "name": "base_color_texture",
      "uri": "data:image/png;base64,"
    }
  ],
  "materials": [
    {
      "name": "Diffuse_Color",
      "pbrMetallicRoughness": {
        "baseColorTexture": {
          "index": 0
        },
        "metallicFactor": 0.4000000059604645,
        "roughnessFactor": 0.27216553688049316
      }
    }
  ],
  "meshes": [
    {
      "name": "Police_baton",
      "primitives": [
        {
          "attributes": {
            "NORMAL": 1,
            "POSITION": 0,
            "TEXCOORD_0": 2
          },
          "indices": 3,
          "material": 0
        }
      ]
    }
  ],
  "nodes": [
    {
      "mesh": 0,
      "name": "Police_baton",
      "rotation": [
        -0.7071068286895752,
        0.0,
        0.0,
        0.7071067094802856
      ],
      "scale": [
        100.0,
        100.0,
        100.0
      ]
    }
  ],
  "samplers": [
    {}
  ],
  "scenes": [
    {
      "name": "Scene",
      "nodes": [
        0
      ]
    }
  ],
  "textures": [
    {
      "name": "base_color_texture",
      "sampler": 0,
      "source": 0
    }
  ]
}