{"buffers":[{"uri":"out.bin","byteLength":152788}],"asset":{"version":"2.0","generator":"gltfpack 0.14"},"bufferViews":[{"buffer":0,"byteOffset":0,"byteLength":70},{"buffer":0,"byteOffset":72,"byteLength":70},{"buffer":0,"byteOffset":144,"byteLength":70},{"buffer":0,"byteOffset":216,"byteLength":70},{"buffer":0,"byteOffset":288,"byteLength":70},{"buffer":0,"byteOffset":360,"byteLength":70},{"buffer":0,"byteOffset":432,"byteLength":70},{"buffer":0,"byteOffset":504,"byteLength":70},{"buffer":0,"byteOffset":576,"byteLength":70},{"buffer":0,"byteOffset":648,"byteLength":70},{"buffer":0,"byteOffset":720,"byteLength":70},{"buffer":0,"byteOffset":792,"byteLength":49668,"byteStride":12,"target":34962},{"buffer":0,"byteOffset":50460,"byteLength":49668,"byteStride":12,"target":34962},{"buffer":0,"byteOffset":100128,"byteLength":33112,"byteStride":8,"target":34962},{"buffer":0,"byteOffset":133240,"byteLength":19548,"target":34963}],"accessors":[{"bufferView":11,"byteOffset":0,"componentType":5126,"count":862,"type":"VEC3"},{"bufferView":12,"byteOffset":0,"componentType":5126,"count":862,"type":"VEC3","min":[563.914124,1.68263566,-775.036377],"max":[1011.70398,14.5934534,-19.9141006]},{"bufferView":13,"byteOffset":0,"componentType":5126,"count":862,"type":"VEC2"},{"bufferView":14,"byteOffset":0,"componentType":5123,"count":1659,"type":"SCALAR"},{"bufferView":11,"byteOffset":10344,"componentType":5126,"count":405,"type":"VEC3"},{"bufferView":12,"byteOffset":10344,"componentType":5126,"count":405,"type":"VEC3","min":[563.982605,1.68263566,-768.30835],"max":[1011.70398,14.5934534,-20.2883739]},{"bufferView":13,"byteOffset":6896,"componentType":5126,"count":405,"type":"VEC2"},{"bufferView":14,"byteOffset":3318,"componentType":5123,"count":657,"type":"SCALAR"},{"bufferView":11,"byteOffset":15204,"componentType":5126,"count":20,"type":"VEC3"},{"bufferView":12,"byteOffset":15204,"componentType":5126,"count":20,"type":"VEC3","min":[771.838745,1.68286693,-445.973846],"max":[939.553162,1.68289423,-275.973907]},{"bufferView":13,"byteOffset":10136,"componentType":5126,"count":20,"type":"VEC2"},{"bufferView":14,"byteOffset":4632,"componentType":5123,"count":30,"type":"SCALAR"},{"bufferView":11,"byteOffset":15444,"componentType":5126,"count":453,"type":"VEC3"},{"bufferView":12,"byteOffset":15444,"componentType":5126,"count":453,"type":"VEC3","min":[595.359558,-25.3333893,-862.484863],"max":[1093.24646,14.6068478,-41.4010582]},{"bufferView":13,"byteOffset":10296,"componentType":5126,"count":453,"type":"VEC2"},{"bufferView":14,"byteOffset":4692,"componentType":5123,"count":1254,"type":"SCALAR"},{"bufferView":11,"byteOffset":20880,"componentType":5126,"count":374,"type":"VEC3"},{"bufferView":12,"byteOffset":20880,"componentType":5126,"count":374,"type":"VEC3","min":[564.389587,1.6200645,-586.812073],"max":[991.514221,2.37355351,-40.0729294]},{"bufferView":13,"byteOffset":13920,"componentType":5126,"count":374,"type":"VEC2"},{"bufferView":14,"byteOffset":7200,"componentType":5123,"count":924,"type":"SCALAR"},{"bufferView":11,"byteOffset":25368,"componentType":5126,"count":31,"type":"VEC3"},{"bufferView":12,"byteOffset":25368,"componentType":5126,"count":31,"type":"VEC3","min":[591.605286,14.5932055,-775.03833],"max":[682.931885,14.5936165,-737.139587]},{"bufferView":13,"byteOffset":16912,"componentType":5126,"count":31,"type":"VEC2"},{"bufferView":14,"byteOffset":9048,"componentType":5123,"count":78,"type":"SCALAR"},{"bufferView":11,"byteOffset":25740,"componentType":5126,"count":24,"type":"VEC3"},{"bufferView":12,"byteOffset":25740,"componentType":5126,"count":24,"type":"VEC3","min":[676.18512,1.68224132,-344.377563],"max":[868.62262,1.68224406,-341.353088]},{"bufferView":13,"byteOffset":17160,"componentType":5126,"count":24,"type":"VEC2"},{"bufferView":14,"byteOffset":9204,"componentType":5123,"count":72,"type":"SCALAR"},{"bufferView":11,"byteOffset":26028,"componentType":5126,"count":1433,"type":"VEC3"},{"bufferView":12,"byteOffset":26028,"componentType":5126,"count":1433,"type":"VEC3","min":[563.914124,-4.91714191,-775.038513],"max":[1016.06793,14.5936947,-15.0504284]},{"bufferView":13,"byteOffset":17352,"componentType":5126,"count":1433,"type":"VEC2"},{"bufferView":14,"byteOffset":9348,"componentType":5123,"count":3954,"type":"SCALAR"},{"bufferView":11,"byteOffset":43224,"componentType":5126,"count":155,"type":"VEC3"},{"bufferView":12,"byteOffset":43224,"componentType":5126,"count":155,"type":"VEC3","min":[563.914124,1.6824398,-698.171387],"max":[697.75293,14.5931101,-79.3457336]},{"bufferView":13,"byteOffset":28816,"componentType":5126,"count":155,"type":"VEC2"},{"bufferView":14,"byteOffset":17256,"componentType":5123,"count":213,"type":"SCALAR"},{"bufferView":11,"byteOffset":45084,"componentType":5126,"count":265,"type":"VEC3"},{"bufferView":12,"byteOffset":45084,"componentType":5126,"count":265,"type":"VEC3","min":[564.401428,-3.28579545,-852.762634],"max":[1084.64734,14.592557,-50.3604622]},{"bufferView":13,"byteOffset":30056,"componentType":5126,"count":265,"type":"VEC2"},{"bufferView":14,"byteOffset":17682,"componentType":5123,"count":612,"type":"SCALAR"},{"bufferView":11,"byteOffset":48264,"componentType":5126,"count":22,"type":"VEC3"},{"bufferView":12,"byteOffset":48264,"componentType":5126,"count":22,"type":"VEC3","min":[573.348877,1.68168461,-591.749573],"max":[865.507935,1.68195915,-239.396164]},{"bufferView":13,"byteOffset":32176,"componentType":5126,"count":22,"type":"VEC2"},{"bufferView":14,"byteOffset":18906,"componentType":5123,"count":60,"type":"SCALAR"},{"bufferView":11,"byteOffset":48528,"componentType":5126,"count":95,"type":"VEC3"},{"bufferView":12,"byteOffset":48528,"componentType":5126,"count":95,"type":"VEC3","min":[791.575012,-25.0517349,-771.78302],"max":[1014.66101,1.66086423,-595.786682]},{"bufferView":13,"byteOffset":32352,"componentType":5126,"count":95,"type":"VEC2"},{"bufferView":14,"byteOffset":19026,"componentType":5123,"count":261,"type":"SCALAR"}],"images":[{"bufferView":0,"mimeType":"image/png"},{"bufferView":1,"mimeType":"image/png"},{"bufferView":2,"mimeType":"image/png"},{"bufferView":3,"mimeType":"image/png"},{"bufferView":4,"mimeType":"image/png"},{"bufferView":5,"mimeType":"image/png"},{"bufferView":6,"mimeType":"image/png"},{"bufferView":7,"mimeType":"image/png"},{"bufferView":8,"mimeType":"image/png"},{"bufferView":9,"mimeType":"image/png"},{"bufferView":10,"mimeType":"image/png"}],"textures":[{"source":0},{"source":1},{"source":2},{"source":3},{"source":4},{"source":5},{"source":6},{"source":7},{"source":8},{"source":9},{"source":10}],"materials":[{"name":"road_test","pbrMetallicRoughness":{"baseColorTexture":{"index":0,"texCoord":0}},"normalTexture":{"index":1,"texCoord":0}},{"name":"vach_qua_duong","normalTexture":{"index":1,"texCoord":0}},{"name":"road_1","pbrMetallicRoughness":{"baseColorTexture":{"index":2,"texCoord":0}},"normalTexture":{"index":3,"texCoord":0}},{"name":"da_1","pbrMetallicRoughness":{"baseColorTexture":{"index":4,"texCoord":0}}},{"name":"via_he_2_001","pbrMetallicRoughness":{"baseColorTexture":{"index":5,"texCoord":0}}},{"name":"bac_da_001","pbrMetallicRoughness":{"baseColorTexture":{"index":6,"texCoord":0}}},{"name":"co_001","pbrMetallicRoughness":{"baseColorTexture":{"index":7,"texCoord":0}}},{"name":"be_tong_001","pbrMetallicRoughness":{"baseColorTexture":{"index":8,"texCoord":0}}},{"name":"via_he_1_001","pbrMetallicRoughness":{"baseColorTexture":{"index":9,"texCoord":0}}},{"name":"SandMudRgb","pbrMetallicRoughness":{"baseColorTexture":{"index":10,"texCoord":0}}}],"meshes":[{"primitives":[{"attributes":{"NORMAL":0,"POSITION":1,"TEXCOORD_0":2},"mode":4,"indices":3,"material":0},{"attributes":{"NORMAL":4,"POSITION":5,"TEXCOORD_0":6},"mode":4,"indices":7,"material":1},{"attributes":{"NORMAL":8,"POSITION":9,"TEXCOORD_0":10},"mode":4,"indices":11,"material":2},{"attributes":{"NORMAL":12,"POSITION":13,"TEXCOORD_0":14},"mode":4,"indices":15,"material":3},{"attributes":{"NORMAL":16,"POSITION":17,"TEXCOORD_0":18},"mode":4,"indices":19,"material":4},{"attributes":{"NORMAL":20,"POSITION":21,"TEXCOORD_0":22},"mode":4,"indices":23,"material":5},{"attributes":{"NORMAL":24,"POSITION":25,"TEXCOORD_0":26},"mode":4,"indices":27,"material":6},{"attributes":{"NORMAL":28,"POSITION":29,"TEXCOORD_0":30},"mode":4,"indices":31,"material":7},{"attributes":{"NORMAL":32,"POSITION":33,"TEXCOORD_0":34},"mode":4,"indices":35,"material":8},{"attributes":{"NORMAL":36,"POSITION":37,"TEXCOORD_0":38},"mode":4,"indices":39,"material":6},{"attributes":{"NORMAL":40,"POSITION":41,"TEXCOORD_0":42},"mode":4,"indices":43,"material":4},{"attributes":{"NORMAL":44,"POSITION":45,"TEXCOORD_0":46},"mode":4,"indices":47,"material":9}]}],"nodes":[{"mesh":0}],"scenes":[{"nodes":[0]}],"scene":0}