{
  "accessors": [
    {
      "bufferView": 0,
      "componentType": 5126,
      "count": 1564,
      "max": [
        0.015201483853161335,
        0.01520148478448391,
        0.07321301847696304
      ],
      "min": [
        -0.015201483853161335,
        -0.01520148292183876,
        -0.009999997913837433
      ],
      "name": "Cylinder/POSITION",
      "type": "VEC3"
    },
    {
      "bufferView": 0,
      "byteOffset": 12,
      "componentType": 5126,
      "count": 1564,
      "name": "Cylinder/NORMAL",
      "type": "VEC3"
    },
    {
      "bufferView": 0,
      "byteOffset": 24,
      "componentType": 5126,
      "count": 1564,
      "name": "Cylinder/TEXCOORD_0",
      "type": "VEC2"
    },
    {
      "bufferView": 1,
      "componentType": 5125,
      "count": 5901,
      "name": "Cylinder/INDICES",
      "type": "SCALAR"
    }
  ],
  "asset": {
    "copyright": "Copyright (c) 2018-2020 Chukong Technologies Inc.",
    "generator": "FBX-glTF-conv",
    "version": "2.0"
  },
  "bufferViews": [
    {
      "buffer": 0,
      "byteLength": 50048,
      "byteStride": 32,
      "name": "Cylinder",
      "target": 34962
    },
    {
      "buffer": 0,
      "byteLength": 23604,
      "byteOffset": 50048
    }
  ],
  "buffers": [
    {
      "byteLength": 73652,
      "uri": "out.bin"
    }
  ],
  "extras": {
    "FBX-glTF-conv": {
      "animationFrameRate": 24.0
    }
  },
  "meshes": [
    {
      "name": "Cylinder",
      "primitives": [
        {
          "attributes": {
            "NORMAL": 1,
            "POSITION": 0,
            "TEXCOORD_0": 2
          },
          "indices": 3
        }
      ]
    }
  ],
  "nodes": [
    {
      "mesh": 0,
      "name": "Cylinder",
      "rotation": [
        -0.7071068286895752,
        0.0,
        0.0,
        0.7071067094802856
      ],
      "scale": [
        148.7732696533203,
        148.7732696533203,
        56.322120666503906
      ]
    }
  ],
  "scenes": [
    {
      "name": "Scene",
      "nodes": [
        0
      ]
    }
  ]
}