{"buffers":[{"uri":"out.bin","byteLength":577524}],"asset":{"version":"2.0","generator":"gltfpack 0.14"},"bufferViews":[{"buffer":0,"byteOffset":0,"byteLength":70},{"buffer":0,"byteOffset":72,"byteLength":70},{"buffer":0,"byteOffset":144,"byteLength":70},{"buffer":0,"byteOffset":216,"byteLength":70},{"buffer":0,"byteOffset":288,"byteLength":70},{"buffer":0,"byteOffset":360,"byteLength":70},{"buffer":0,"byteOffset":432,"byteLength":70},{"buffer":0,"byteOffset":504,"byteLength":70},{"buffer":0,"byteOffset":576,"byteLength":70},{"buffer":0,"byteOffset":648,"byteLength":70},{"buffer":0,"byteOffset":720,"byteLength":190440,"byteStride":12,"target":34962},{"buffer":0,"byteOffset":191160,"byteLength":190440,"byteStride":12,"target":34962},{"buffer":0,"byteOffset":381600,"byteLength":126960,"byteStride":8,"target":34962},{"buffer":0,"byteOffset":508560,"byteLength":68964,"target":34963}],"accessors":[{"bufferView":10,"byteOffset":0,"componentType":5126,"count":4151,"type":"VEC3"},{"bufferView":11,"byteOffset":0,"componentType":5126,"count":4151,"type":"VEC3","min":[-794.697021,7.68172169,-476.828674],"max":[868.71582,23.1835594,511.946442]},{"bufferView":12,"byteOffset":0,"componentType":5126,"count":4151,"type":"VEC2"},{"bufferView":13,"byteOffset":0,"componentType":5123,"count":7914,"type":"SCALAR"},{"bufferView":10,"byteOffset":49812,"componentType":5126,"count":36,"type":"VEC3"},{"bufferView":11,"byteOffset":49812,"componentType":5126,"count":36,"type":"VEC3","min":[-641.151428,7.68204069,14.0598755],"max":[796.636414,7.68216085,432.287537]},{"bufferView":12,"byteOffset":33208,"componentType":5126,"count":36,"type":"VEC2"},{"bufferView":13,"byteOffset":15828,"componentType":5123,"count":54,"type":"SCALAR"},{"bufferView":10,"byteOffset":50244,"componentType":5126,"count":689,"type":"VEC3"},{"bufferView":11,"byteOffset":50244,"componentType":5126,"count":689,"type":"VEC3","min":[-552.62616,-23.6610012,-598.702759],"max":[871.672852,11.2265692,598.70282]},{"bufferView":12,"byteOffset":33496,"componentType":5126,"count":689,"type":"VEC2"},{"bufferView":13,"byteOffset":15936,"componentType":5123,"count":1947,"type":"SCALAR"},{"bufferView":10,"byteOffset":58512,"componentType":5126,"count":4331,"type":"VEC3"},{"bufferView":11,"byteOffset":58512,"componentType":5126,"count":4331,"type":"VEC3","min":[-794.696472,1.0820837,-481.189697],"max":[873.079773,23.1835232,516.811768]},{"bufferView":12,"byteOffset":39008,"componentType":5126,"count":4331,"type":"VEC2"},{"bufferView":13,"byteOffset":19830,"componentType":5123,"count":11850,"type":"SCALAR"},{"bufferView":10,"byteOffset":110484,"componentType":5126,"count":1728,"type":"VEC3"},{"bufferView":11,"byteOffset":110484,"componentType":5126,"count":1728,"type":"VEC3","min":[-713.52948,-16.4692097,-426.85199],"max":[554.764771,23.6608448,453.730682]},{"bufferView":12,"byteOffset":73656,"componentType":5126,"count":1728,"type":"VEC2"},{"bufferView":13,"byteOffset":43530,"componentType":5123,"count":1929,"type":"SCALAR"},{"bufferView":10,"byteOffset":131220,"componentType":5126,"count":832,"type":"VEC3"},{"bufferView":11,"byteOffset":131220,"componentType":5126,"count":832,"type":"VEC3","min":[-325.106842,7.48951817,-279.675476],"max":[848.526062,8.37277889,491.79361]},{"bufferView":12,"byteOffset":87480,"componentType":5126,"count":832,"type":"VEC2"},{"bufferView":13,"byteOffset":47388,"componentType":5123,"count":2085,"type":"SCALAR"},{"bufferView":10,"byteOffset":141204,"componentType":5126,"count":31,"type":"VEC3"},{"bufferView":11,"byteOffset":141204,"componentType":5126,"count":31,"type":"VEC3","min":[448.617126,20.5924301,-244.972046],"max":[539.943726,20.5928421,-207.073303]},{"bufferView":12,"byteOffset":94136,"componentType":5126,"count":31,"type":"VEC2"},{"bufferView":13,"byteOffset":51558,"componentType":5123,"count":78,"type":"SCALAR"},{"bufferView":10,"byteOffset":141576,"componentType":5126,"count":32,"type":"VEC3"},{"bufferView":11,"byteOffset":141576,"componentType":5126,"count":32,"type":"VEC3","min":[-68.6068954,7.68146706,185.688721],"max":[725.63446,7.6817441,372.584991]},{"bufferView":12,"byteOffset":94384,"componentType":5126,"count":32,"type":"VEC2"},{"bufferView":13,"byteOffset":51714,"componentType":5123,"count":90,"type":"SCALAR"},{"bufferView":10,"byteOffset":141960,"componentType":5126,"count":2568,"type":"VEC3"},{"bufferView":11,"byteOffset":141960,"componentType":5126,"count":2568,"type":"VEC3","min":[-911.488831,-22.1647797,-552.340698],"max":[911.488892,23.1832123,567.546875]},{"bufferView":12,"byteOffset":94640,"componentType":5126,"count":2568,"type":"VEC2"},{"bufferView":13,"byteOffset":51894,"componentType":5123,"count":4641,"type":"SCALAR"},{"bufferView":10,"byteOffset":172776,"componentType":5126,"count":1454,"type":"VEC3"},{"bufferView":11,"byteOffset":172776,"componentType":5126,"count":1454,"type":"VEC3","min":[-892.896484,-3.18880844,-530.759766],"max":[902.460815,22.2288589,522.740784]},{"bufferView":12,"byteOffset":115184,"componentType":5126,"count":1454,"type":"VEC2"},{"bufferView":13,"byteOffset":61176,"componentType":5123,"count":3846,"type":"SCALAR"},{"bufferView":10,"byteOffset":190224,"componentType":5126,"count":18,"type":"VEC3"},{"bufferView":11,"byteOffset":190224,"componentType":5126,"count":18,"type":"VEC3","min":[263.62381,7.68168545,-64.661499],"max":[722.508057,7.68203163,290.670105]},{"bufferView":12,"byteOffset":126816,"componentType":5126,"count":18,"type":"VEC2"},{"bufferView":13,"byteOffset":68868,"componentType":5123,"count":48,"type":"SCALAR"}],"images":[{"bufferView":0,"mimeType":"image/png"},{"bufferView":1,"mimeType":"image/png"},{"bufferView":2,"mimeType":"image/png"},{"bufferView":3,"mimeType":"image/png"},{"bufferView":4,"mimeType":"image/png"},{"bufferView":5,"mimeType":"image/png"},{"bufferView":6,"mimeType":"image/png"},{"bufferView":7,"mimeType":"image/png"},{"bufferView":8,"mimeType":"image/png"},{"bufferView":9,"mimeType":"image/png"}],"textures":[{"source":0},{"source":1},{"source":2},{"source":3},{"source":4},{"source":5},{"source":6},{"source":7},{"source":8},{"source":9}],"materials":[{"name":"road_test","normalTexture":{"index":0,"texCoord":0}},{"name":"road_1","normalTexture":{"index":1,"texCoord":0}},{"name":"cat","pbrMetallicRoughness":{"baseColorTexture":{"index":2,"texCoord":0}},"normalTexture":{"index":3,"texCoord":0}},{"name":"be_tong","pbrMetallicRoughness":{"baseColorTexture":{"index":4,"texCoord":0}}},{"name":"via_he_1","pbrMetallicRoughness":{"baseColorTexture":{"index":5,"texCoord":0}}},{"name":"via_he_2","pbrMetallicRoughness":{"baseColorTexture":{"index":6,"texCoord":0}}},{"name":"bac_da","pbrMetallicRoughness":{"baseColorTexture":{"index":7,"texCoord":0}}},{"name":"co","pbrMetallicRoughness":{"baseColorTexture":{"index":8,"texCoord":0}}},{"name":"da","pbrMetallicRoughness":{"baseColorTexture":{"index":9,"texCoord":0}}}],"meshes":[{"primitives":[{"attributes":{"NORMAL":0,"POSITION":1,"TEXCOORD_0":2},"mode":4,"indices":3,"material":0},{"attributes":{"NORMAL":4,"POSITION":5,"TEXCOORD_0":6},"mode":4,"indices":7,"material":1},{"attributes":{"NORMAL":8,"POSITION":9,"TEXCOORD_0":10},"mode":4,"indices":11,"material":2},{"attributes":{"NORMAL":12,"POSITION":13,"TEXCOORD_0":14},"mode":4,"indices":15,"material":3},{"attributes":{"NORMAL":16,"POSITION":17,"TEXCOORD_0":18},"mode":4,"indices":19,"material":4},{"attributes":{"NORMAL":20,"POSITION":21,"TEXCOORD_0":22},"mode":4,"indices":23,"material":5},{"attributes":{"NORMAL":24,"POSITION":25,"TEXCOORD_0":26},"mode":4,"indices":27,"material":6},{"attributes":{"NORMAL":28,"POSITION":29,"TEXCOORD_0":30},"mode":4,"indices":31,"material":7},{"attributes":{"NORMAL":32,"POSITION":33,"TEXCOORD_0":34},"mode":4,"indices":35,"material":8},{"attributes":{"NORMAL":36,"POSITION":37,"TEXCOORD_0":38},"mode":4,"indices":39,"material":7},{"attributes":{"NORMAL":40,"POSITION":41,"TEXCOORD_0":42},"mode":4,"indices":43,"material":5}]}],"nodes":[{"mesh":0}],"scenes":[{"nodes":[0]}],"scene":0}