{
  "accessors": [
    {
      "bufferView": 0,
      "componentType": 5126,
      "count": 366,
      "max": [
        0.013075340539216995,
        0.013074692338705063,
        0.04203091561794281
      ],
      "min": [
        -0.01307533960789442,
        -0.013074692338705063,
        -0.04203086718916893
      ],
      "name": "Cylinder.001/POSITION",
      "type": "VEC3"
    },
    {
      "bufferView": 0,
      "byteOffset": 12,
      "componentType": 5126,
      "count": 366,
      "name": "Cylinder.001/NORMAL",
      "type": "VEC3"
    },
    {
      "bufferView": 0,
      "byteOffset": 24,
      "componentType": 5126,
      "count": 366,
      "name": "Cylinder.001/TEXCOORD_0",
      "type": "VEC2"
    },
    {
      "bufferView": 1,
      "componentType": 5125,
      "count": 810,
      "name": "Cylinder.001/INDICES",
      "type": "SCALAR"
    },
    {
      "bufferView": 2,
      "componentType": 5126,
      "count": 230,
      "max": [
        0.008009737357497215,
        0.008009737357497215,
        0.009416204877197742
      ],
      "min": [
        -0.008009735494852066,
        -0.008009737357497215,
        -0.009416204877197742
      ],
      "name": "Cylinder.002/POSITION",
      "type": "VEC3"
    },
    {
      "bufferView": 2,
      "byteOffset": 12,
      "componentType": 5126,
      "count": 230,
      "name": "Cylinder.002/NORMAL",
      "type": "VEC3"
    },
    {
      "bufferView": 2,
      "byteOffset": 24,
      "componentType": 5126,
      "count": 230,
      "name": "Cylinder.002/TEXCOORD_0",
      "type": "VEC2"
    },
    {
      "bufferView": 3,
      "componentType": 5125,
      "count": 720,
      "name": "Cylinder.002/INDICES",
      "type": "SCALAR"
    },
    {
      "bufferView": 4,
      "componentType": 5126,
      "count": 39,
      "max": [
        1.5833333730697632
      ],
      "min": [
        0.0
      ],
      "name": "rotating_saw/Trs/Input",
      "type": "SCALAR"
    },
    {
      "bufferView": 5,
      "componentType": 5126,
      "count": 39,
      "name": "rotating_saw/translation/Output",
      "type": "VEC3"
    },
    {
      "bufferView": 6,
      "componentType": 5126,
      "count": 39,
      "name": "rotating_saw/rotation/Output",
      "type": "VEC4"
    },
    {
      "bufferView": 7,
      "componentType": 5126,
      "count": 39,
      "name": "rotating_saw/scale/Output",
      "type": "VEC3"
    }
  ],
  "animations": [
    {
      "channels": [
        {
          "sampler": 0,
          "target": {
            "node": 0,
            "path": "translation"
          }
        },
        {
          "sampler": 1,
          "target": {
            "node": 0,
            "path": "rotation"
          }
        },
        {
          "sampler": 2,
          "target": {
            "node": 0,
            "path": "scale"
          }
        }
      ],
      "name": "rotating_saw|rotating_sawAction",
      "samplers": [
        {
          "input": 8,
          "output": 9
        },
        {
          "input": 8,
          "output": 10
        },
        {
          "input": 8,
          "output": 11
        }
      ]
    }
  ],
  "asset": {
    "copyright": "Copyright (c) 2018-2020 Chukong Technologies Inc.",
    "generator": "FBX-glTF-conv",
    "version": "2.0"
  },
  "bufferViews": [
    {
      "buffer": 0,
      "byteLength": 11712,
      "byteStride": 32,
      "name": "Cylinder.001",
      "target": 34962
    },
    {
      "buffer": 0,
      "byteLength": 3240,
      "byteOffset": 11712
    },
    {
      "buffer": 0,
      "byteLength": 7360,
      "byteOffset": 14952,
      "byteStride": 32,
      "name": "Cylinder.002",
      "target": 34962
    },
    {
      "buffer": 0,
      "byteLength": 2880,
      "byteOffset": 22312
    },
    {
      "buffer": 0,
      "byteLength": 156,
      "byteOffset": 25192
    },
    {
      "buffer": 0,
      "byteLength": 468,
      "byteOffset": 25348
    },
    {
      "buffer": 0,
      "byteLength": 624,
      "byteOffset": 25816
    },
    {
      "buffer": 0,
      "byteLength": 468,
      "byteOffset": 26440
    }
  ],
  "buffers": [
    {
      "byteLength": 26908,
      "uri": "out.bin"
    }
  ],
  "extras": {
    "FBX-glTF-conv": {
      "animationFrameRate": 24.0
    }
  },
  "materials": [
    {
      "name": "rotating_saw",
      "pbrMetallicRoughness": {
        "baseColorFactor": [
          0.0032031810842454433,
          0.2507675588130951,
          0.8000000715255737,
          1.0
        ],
        "metallicFactor": 0.4000000059604645,
        "roughnessFactor": 0.27216553688049316
      }
    },
    {
      "name": "rotating_saw_body",
      "pbrMetallicRoughness": {
        "baseColorFactor": [
          0.00660563912242651,
          0.04777637496590614,
          0.7842311263084412,
          1.0
        ],
        "metallicFactor": 0.4000000059604645,
        "roughnessFactor": 0.27216553688049316
      }
    }
  ],
  "meshes": [
    {
      "name": "Cylinder.001",
      "primitives": [
        {
          "attributes": {
            "NORMAL": 1,
            "POSITION": 0,
            "TEXCOORD_0": 2
          },
          "indices": 3,
          "material": 0
        }
      ]
    },
    {
      "name": "Cylinder.002",
      "primitives": [
        {
          "attributes": {
            "NORMAL": 5,
            "POSITION": 4,
            "TEXCOORD_0": 6
          },
          "indices": 7,
          "material": 1
        }
      ]
    }
  ],
  "nodes": [
    {
      "children": [
        1
      ],
      "mesh": 0,
      "name": "rotating_saw",
      "rotation": [
        0.6676953434944153,
        -0.2327723652124405,
        0.23277243971824646,
        0.6676952242851257
      ],
      "scale": [
        46.290252685546875,
        46.290252685546875,
        8.541252136230469
      ],
      "translation": [
        1.1496315011072511e-08,
        0.49568045139312744,
        -2.299266110838971e-09
      ]
    },
    {
      "mesh": 1,
      "name": "rotating_saw_body",
      "rotation": [
        1.0,
        1.4901161193847656e-08,
        -1.5072820853316397e-14,
        4.331257628109597e-07
      ],
      "scale": [
        1.0,
        1.0,
        1.0000001192092896
      ],
      "translation": [
        0.00010533034219406545,
        2.3811707813847782e-12,
        -9.53674295089968e-09
      ]
    }
  ],
  "scenes": [
    {
      "name": "Scene",
      "nodes": [
        0
      ]
    }
  ]
}